G75*
%MOIN*%
%OFA0B0*%
%FSLAX25Y25*%
%IPPOS*%
%LPD*%
%AMOC8*
5,1,8,0,0,1.08239X$1,22.5*
%
%ADD10C,0.05200*%
%ADD11C,0.05543*%
%ADD12C,0.06000*%
%ADD13C,0.03378*%
%ADD14C,0.06024*%
%ADD15C,0.05150*%
%ADD16C,0.04400*%
%ADD17C,0.04800*%
%ADD18C,0.01600*%
%ADD19C,0.07200*%
%ADD20C,0.04000*%
%ADD21C,0.04000*%
%ADD22C,0.01200*%
%ADD23C,0.01800*%
%ADD24C,0.04800*%
%ADD25C,0.09450*%
%ADD26C,0.09600*%
%ADD27C,0.05100*%
D10*
X0296762Y0133762D03*
X0306762Y0133762D03*
X0329636Y0131344D03*
X0329636Y0141344D03*
X0349219Y0136841D03*
X0349219Y0146841D03*
X0334557Y0171077D03*
X0334557Y0181077D03*
X0324557Y0171077D03*
X0397392Y0182888D03*
X0407392Y0182888D03*
X0397392Y0192888D03*
X0399447Y0215093D03*
X0399447Y0225093D03*
X0403596Y0260738D03*
X0403596Y0270738D03*
X0415108Y0287219D03*
X0415108Y0297219D03*
X0425108Y0287219D03*
X0391439Y0303431D03*
X0391439Y0313431D03*
X0346368Y0287219D03*
X0336368Y0287219D03*
X0336368Y0297219D03*
X0334604Y0266793D03*
X0334604Y0256793D03*
X0229163Y0278281D03*
X0229163Y0298281D03*
X0211429Y0300695D03*
X0211429Y0310695D03*
X0211429Y0320695D03*
X0211429Y0330695D03*
X0181429Y0330695D03*
X0181429Y0320695D03*
X0181429Y0310695D03*
X0181429Y0300695D03*
X0134675Y0337337D03*
X0114990Y0337337D03*
X0114990Y0357337D03*
X0134675Y0357337D03*
X0083494Y0368833D03*
X0083494Y0388833D03*
X0055935Y0388833D03*
X0055935Y0368833D03*
X0468116Y0313423D03*
X0468116Y0303423D03*
X0491880Y0295250D03*
X0491880Y0285250D03*
X0501880Y0285250D03*
X0491179Y0270856D03*
X0491179Y0260856D03*
X0478179Y0225376D03*
X0478179Y0215376D03*
X0493848Y0198793D03*
X0493848Y0188793D03*
X0503848Y0188793D03*
X0556400Y0182872D03*
X0556400Y0172872D03*
X0574557Y0175014D03*
X0574557Y0185014D03*
X0584557Y0175014D03*
X0581061Y0215030D03*
X0581061Y0225030D03*
X0555959Y0224722D03*
X0555959Y0214722D03*
X0561337Y0263573D03*
X0561337Y0273573D03*
X0564715Y0287219D03*
X0574715Y0287219D03*
X0564715Y0297219D03*
X0545392Y0303691D03*
X0545392Y0313691D03*
X0574896Y0319431D03*
X0584896Y0319431D03*
D11*
X0253226Y0320404D03*
X0253226Y0330404D03*
X0253226Y0340404D03*
X0157185Y0318189D03*
X0147185Y0318189D03*
X0137185Y0318189D03*
D12*
X0240265Y0213646D03*
X0252321Y0203140D03*
X0262321Y0203140D03*
X0272321Y0203140D03*
X0282321Y0203140D03*
X0292321Y0203140D03*
X0292321Y0193140D03*
X0282321Y0193140D03*
X0272321Y0193140D03*
X0262321Y0193140D03*
X0252321Y0193140D03*
X0133565Y0154746D03*
X0123565Y0154746D03*
X0123565Y0144746D03*
X0133565Y0144746D03*
X0133565Y0134746D03*
X0123565Y0134746D03*
X0123565Y0124746D03*
X0133565Y0124746D03*
X0133565Y0114746D03*
X0123565Y0114746D03*
X0042085Y0112549D03*
X0032085Y0112549D03*
X0032085Y0122549D03*
X0042085Y0122549D03*
X0042085Y0132549D03*
X0032085Y0132549D03*
X0032085Y0142549D03*
X0042085Y0142549D03*
X0042085Y0152549D03*
X0032085Y0152549D03*
D13*
X0366762Y0285683D03*
X0366762Y0295683D03*
X0366762Y0335683D03*
X0366762Y0365683D03*
X0445502Y0365683D03*
X0445502Y0335683D03*
X0445502Y0295683D03*
X0445502Y0285683D03*
X0522274Y0285683D03*
X0522274Y0295683D03*
X0522274Y0335683D03*
X0522274Y0365683D03*
X0602982Y0365683D03*
X0602982Y0335683D03*
X0602982Y0295683D03*
X0602982Y0285683D03*
X0611250Y0210171D03*
X0611250Y0200171D03*
X0611250Y0160171D03*
X0611250Y0130171D03*
X0532510Y0130171D03*
X0532510Y0160171D03*
X0532510Y0200171D03*
X0532510Y0210171D03*
X0453770Y0210171D03*
X0453770Y0200171D03*
X0453770Y0160171D03*
X0453770Y0130171D03*
X0375030Y0130171D03*
X0375030Y0160171D03*
X0375030Y0200171D03*
X0375030Y0210171D03*
D14*
X0198892Y0233541D03*
X0198892Y0243541D03*
X0100541Y0150266D03*
X0090541Y0150266D03*
X0080541Y0150266D03*
X0070541Y0150266D03*
X0060541Y0150266D03*
D15*
X0113197Y0384585D03*
X0122449Y0390884D03*
X0131701Y0384585D03*
D16*
X0209565Y0128746D03*
X0187565Y0117746D03*
X0166565Y0113746D03*
X0179699Y0092431D03*
X0213943Y0096313D03*
X0242691Y0088494D03*
X0072565Y0103746D03*
X0062565Y0124746D03*
D17*
X0087431Y0115447D03*
X0112628Y0111904D03*
X0123652Y0102455D03*
X0176365Y0131846D03*
X0181526Y0177258D03*
X0216959Y0205998D03*
X0224045Y0209935D03*
X0238219Y0205604D03*
X0270502Y0168203D03*
X0217265Y0256646D03*
X0182403Y0282339D03*
X0174366Y0299624D03*
X0154681Y0327183D03*
X0237358Y0311435D03*
X0249169Y0346868D03*
X0103179Y0256392D03*
X0111265Y0243346D03*
X0111053Y0213478D03*
X0115778Y0194974D03*
X0087825Y0181589D03*
X0075620Y0181195D03*
X0066959Y0183163D03*
X0059478Y0176864D03*
X0051604Y0170171D03*
X0032313Y0175683D03*
X0024439Y0174502D03*
X0027195Y0207967D03*
X0027195Y0219778D03*
X0027195Y0230407D03*
X0043337Y0238675D03*
D18*
X0019365Y0260722D02*
X0019365Y0074546D01*
X0146486Y0074546D01*
X0146486Y0260722D01*
X0019365Y0260722D01*
X0019365Y0260370D02*
X0102332Y0260370D01*
X0102383Y0260392D02*
X0100913Y0259783D01*
X0099788Y0258658D01*
X0099179Y0257187D01*
X0099179Y0255596D01*
X0099788Y0254126D01*
X0100913Y0253001D01*
X0102383Y0252392D01*
X0103975Y0252392D01*
X0105445Y0253001D01*
X0106570Y0254126D01*
X0107179Y0255596D01*
X0107179Y0257187D01*
X0106570Y0258658D01*
X0105445Y0259783D01*
X0103975Y0260392D01*
X0102383Y0260392D01*
X0104026Y0260370D02*
X0146486Y0260370D01*
X0146486Y0258772D02*
X0122861Y0258772D01*
X0122199Y0259046D02*
X0120131Y0259046D01*
X0118219Y0258254D01*
X0116757Y0256792D01*
X0115965Y0254880D01*
X0115965Y0252812D01*
X0116757Y0250900D01*
X0118219Y0249438D01*
X0120131Y0248646D01*
X0122199Y0248646D01*
X0124111Y0249438D01*
X0125573Y0250900D01*
X0126365Y0252812D01*
X0126365Y0254880D01*
X0125573Y0256792D01*
X0124111Y0258254D01*
X0122199Y0259046D01*
X0119469Y0258772D02*
X0106456Y0258772D01*
X0107179Y0257173D02*
X0117138Y0257173D01*
X0116253Y0255575D02*
X0107170Y0255575D01*
X0106421Y0253976D02*
X0115965Y0253976D01*
X0116145Y0252378D02*
X0019365Y0252378D01*
X0019365Y0253976D02*
X0099938Y0253976D01*
X0099188Y0255575D02*
X0019365Y0255575D01*
X0019365Y0257173D02*
X0099179Y0257173D01*
X0099902Y0258772D02*
X0019365Y0258772D01*
X0019365Y0250779D02*
X0116878Y0250779D01*
X0118840Y0249181D02*
X0019365Y0249181D01*
X0019365Y0247582D02*
X0146486Y0247582D01*
X0146486Y0245984D02*
X0019365Y0245984D01*
X0019365Y0244385D02*
X0146486Y0244385D01*
X0146486Y0242787D02*
X0019365Y0242787D01*
X0019365Y0241188D02*
X0146486Y0241188D01*
X0146486Y0239590D02*
X0019365Y0239590D01*
X0019365Y0237991D02*
X0146486Y0237991D01*
X0146486Y0236393D02*
X0019365Y0236393D01*
X0019365Y0234794D02*
X0146486Y0234794D01*
X0146486Y0233196D02*
X0019365Y0233196D01*
X0019365Y0231597D02*
X0146486Y0231597D01*
X0146486Y0229999D02*
X0019365Y0229999D01*
X0019365Y0228400D02*
X0146486Y0228400D01*
X0146486Y0226802D02*
X0019365Y0226802D01*
X0019365Y0225203D02*
X0146486Y0225203D01*
X0146486Y0223605D02*
X0019365Y0223605D01*
X0019365Y0222006D02*
X0146486Y0222006D01*
X0146486Y0220408D02*
X0019365Y0220408D01*
X0019365Y0218809D02*
X0146486Y0218809D01*
X0146486Y0217211D02*
X0112495Y0217211D01*
X0111849Y0217478D02*
X0110257Y0217478D01*
X0108787Y0216869D01*
X0107662Y0215744D01*
X0107053Y0214274D01*
X0107053Y0212683D01*
X0107662Y0211213D01*
X0108787Y0210087D01*
X0110257Y0209478D01*
X0111849Y0209478D01*
X0113319Y0210087D01*
X0114444Y0211213D01*
X0115053Y0212683D01*
X0115053Y0214274D01*
X0114444Y0215744D01*
X0113319Y0216869D01*
X0111849Y0217478D01*
X0109611Y0217211D02*
X0019365Y0217211D01*
X0019365Y0215612D02*
X0107607Y0215612D01*
X0107053Y0214014D02*
X0019365Y0214014D01*
X0019365Y0212415D02*
X0107164Y0212415D01*
X0108058Y0210817D02*
X0019365Y0210817D01*
X0019365Y0209218D02*
X0146486Y0209218D01*
X0146486Y0207620D02*
X0140770Y0207620D01*
X0139870Y0207992D02*
X0137354Y0207992D01*
X0135029Y0207029D01*
X0133250Y0205250D01*
X0132287Y0202925D01*
X0132287Y0200409D01*
X0133250Y0198084D01*
X0135029Y0196305D01*
X0137354Y0195342D01*
X0139870Y0195342D01*
X0142195Y0196305D01*
X0143974Y0198084D01*
X0144937Y0200409D01*
X0144937Y0202925D01*
X0143974Y0205250D01*
X0142195Y0207029D01*
X0139870Y0207992D01*
X0136454Y0207620D02*
X0019365Y0207620D01*
X0019365Y0206021D02*
X0134021Y0206021D01*
X0132907Y0204423D02*
X0019365Y0204423D01*
X0019365Y0202824D02*
X0132287Y0202824D01*
X0132287Y0201225D02*
X0019365Y0201225D01*
X0019365Y0199627D02*
X0132611Y0199627D01*
X0133306Y0198028D02*
X0019365Y0198028D01*
X0019365Y0196430D02*
X0134905Y0196430D01*
X0142320Y0196430D02*
X0146486Y0196430D01*
X0146486Y0198028D02*
X0143918Y0198028D01*
X0144613Y0199627D02*
X0146486Y0199627D01*
X0146486Y0201225D02*
X0144937Y0201225D01*
X0144937Y0202824D02*
X0146486Y0202824D01*
X0146486Y0204423D02*
X0144317Y0204423D01*
X0143203Y0206021D02*
X0146486Y0206021D01*
X0146486Y0210817D02*
X0114048Y0210817D01*
X0114942Y0212415D02*
X0146486Y0212415D01*
X0146486Y0214014D02*
X0115053Y0214014D01*
X0114499Y0215612D02*
X0146486Y0215612D01*
X0146486Y0194831D02*
X0019365Y0194831D01*
X0019365Y0193233D02*
X0146486Y0193233D01*
X0146486Y0191634D02*
X0019365Y0191634D01*
X0019365Y0190036D02*
X0146486Y0190036D01*
X0146486Y0188437D02*
X0019365Y0188437D01*
X0019365Y0186839D02*
X0065380Y0186839D01*
X0064693Y0186554D02*
X0063568Y0185429D01*
X0062959Y0183959D01*
X0062959Y0182368D01*
X0063568Y0180898D01*
X0064693Y0179772D01*
X0066163Y0179163D01*
X0067754Y0179163D01*
X0069224Y0179772D01*
X0070350Y0180898D01*
X0070959Y0182368D01*
X0070959Y0183959D01*
X0070350Y0185429D01*
X0069224Y0186554D01*
X0067754Y0187163D01*
X0066163Y0187163D01*
X0064693Y0186554D01*
X0063489Y0185240D02*
X0019365Y0185240D01*
X0019365Y0183642D02*
X0062959Y0183642D01*
X0063093Y0182043D02*
X0019365Y0182043D01*
X0019365Y0180445D02*
X0057670Y0180445D01*
X0057213Y0180255D02*
X0056087Y0179130D01*
X0055478Y0177660D01*
X0055478Y0176069D01*
X0056087Y0174598D01*
X0057213Y0173473D01*
X0058683Y0172864D01*
X0060274Y0172864D01*
X0061744Y0173473D01*
X0062869Y0174598D01*
X0063478Y0176069D01*
X0063478Y0177660D01*
X0062869Y0179130D01*
X0061744Y0180255D01*
X0060274Y0180864D01*
X0058683Y0180864D01*
X0057213Y0180255D01*
X0055970Y0178846D02*
X0034807Y0178846D01*
X0034579Y0179074D02*
X0035704Y0177949D01*
X0036313Y0176479D01*
X0036313Y0174887D01*
X0035704Y0173417D01*
X0034579Y0172292D01*
X0033109Y0171683D01*
X0031517Y0171683D01*
X0030047Y0172292D01*
X0028922Y0173417D01*
X0028313Y0174887D01*
X0028313Y0176479D01*
X0028922Y0177949D01*
X0030047Y0179074D01*
X0031517Y0179683D01*
X0033109Y0179683D01*
X0034579Y0179074D01*
X0035994Y0177248D02*
X0055478Y0177248D01*
X0055652Y0175649D02*
X0036313Y0175649D01*
X0035966Y0174051D02*
X0050518Y0174051D01*
X0050809Y0174171D02*
X0049339Y0173562D01*
X0048213Y0172437D01*
X0047604Y0170967D01*
X0047604Y0169376D01*
X0048213Y0167905D01*
X0049339Y0166780D01*
X0050809Y0166171D01*
X0052400Y0166171D01*
X0053870Y0166780D01*
X0054995Y0167905D01*
X0055604Y0169376D01*
X0055604Y0170967D01*
X0054995Y0172437D01*
X0053870Y0173562D01*
X0052400Y0174171D01*
X0050809Y0174171D01*
X0052691Y0174051D02*
X0056635Y0174051D01*
X0054980Y0172452D02*
X0146486Y0172452D01*
X0146486Y0170854D02*
X0055604Y0170854D01*
X0055554Y0169255D02*
X0146486Y0169255D01*
X0146486Y0167657D02*
X0054747Y0167657D01*
X0048462Y0167657D02*
X0019365Y0167657D01*
X0019365Y0169255D02*
X0047654Y0169255D01*
X0047604Y0170854D02*
X0019365Y0170854D01*
X0019365Y0172452D02*
X0029887Y0172452D01*
X0028660Y0174051D02*
X0019365Y0174051D01*
X0019365Y0175649D02*
X0028313Y0175649D01*
X0028632Y0177248D02*
X0019365Y0177248D01*
X0019365Y0178846D02*
X0029819Y0178846D01*
X0034739Y0172452D02*
X0048228Y0172452D01*
X0062322Y0174051D02*
X0146486Y0174051D01*
X0146486Y0175649D02*
X0063305Y0175649D01*
X0063478Y0177248D02*
X0074697Y0177248D01*
X0074824Y0177195D02*
X0076416Y0177195D01*
X0077886Y0177804D01*
X0079011Y0178929D01*
X0079620Y0180399D01*
X0079620Y0181991D01*
X0079011Y0183461D01*
X0077886Y0184586D01*
X0076416Y0185195D01*
X0074824Y0185195D01*
X0073354Y0184586D01*
X0072229Y0183461D01*
X0071620Y0181991D01*
X0071620Y0180399D01*
X0072229Y0178929D01*
X0073354Y0177804D01*
X0074824Y0177195D01*
X0076544Y0177248D02*
X0146486Y0177248D01*
X0146486Y0178846D02*
X0090739Y0178846D01*
X0091216Y0179323D02*
X0090091Y0178198D01*
X0088620Y0177589D01*
X0087029Y0177589D01*
X0085559Y0178198D01*
X0084434Y0179323D01*
X0083825Y0180793D01*
X0083825Y0182384D01*
X0084434Y0183854D01*
X0085559Y0184980D01*
X0087029Y0185589D01*
X0088620Y0185589D01*
X0090091Y0184980D01*
X0091216Y0183854D01*
X0091825Y0182384D01*
X0091825Y0180793D01*
X0091216Y0179323D01*
X0091681Y0180445D02*
X0146486Y0180445D01*
X0146486Y0182043D02*
X0091825Y0182043D01*
X0091304Y0183642D02*
X0146486Y0183642D01*
X0146486Y0185240D02*
X0089461Y0185240D01*
X0086189Y0185240D02*
X0070428Y0185240D01*
X0070959Y0183642D02*
X0072410Y0183642D01*
X0071642Y0182043D02*
X0070824Y0182043D01*
X0071620Y0180445D02*
X0069897Y0180445D01*
X0072312Y0178846D02*
X0062987Y0178846D01*
X0064020Y0180445D02*
X0061286Y0180445D01*
X0068538Y0186839D02*
X0146486Y0186839D01*
X0146486Y0166058D02*
X0019365Y0166058D01*
X0019365Y0164460D02*
X0146486Y0164460D01*
X0146486Y0162861D02*
X0019365Y0162861D01*
X0019365Y0161263D02*
X0146486Y0161263D01*
X0146486Y0159664D02*
X0019365Y0159664D01*
X0019365Y0158066D02*
X0120379Y0158066D01*
X0120959Y0158646D02*
X0119665Y0157352D01*
X0118965Y0155661D01*
X0118965Y0153831D01*
X0119665Y0152140D01*
X0120959Y0150846D01*
X0122650Y0150146D01*
X0124480Y0150146D01*
X0126171Y0150846D01*
X0127465Y0152140D01*
X0128165Y0153831D01*
X0128165Y0155661D01*
X0127465Y0157352D01*
X0126171Y0158646D01*
X0124480Y0159346D01*
X0122650Y0159346D01*
X0120959Y0158646D01*
X0119299Y0156467D02*
X0044646Y0156467D01*
X0044690Y0156449D02*
X0043000Y0157149D01*
X0041170Y0157149D01*
X0039479Y0156449D01*
X0038185Y0155155D01*
X0037485Y0153464D01*
X0037485Y0151634D01*
X0038185Y0149944D01*
X0039479Y0148650D01*
X0041170Y0147949D01*
X0043000Y0147949D01*
X0044690Y0148650D01*
X0045984Y0149944D01*
X0046685Y0151634D01*
X0046685Y0153464D01*
X0045984Y0155155D01*
X0044690Y0156449D01*
X0046103Y0154869D02*
X0059136Y0154869D01*
X0059415Y0154959D02*
X0058694Y0154725D01*
X0058019Y0154381D01*
X0057407Y0153936D01*
X0056871Y0153400D01*
X0056426Y0152788D01*
X0056082Y0152113D01*
X0055848Y0151393D01*
X0055730Y0150644D01*
X0055730Y0150470D01*
X0060337Y0150470D01*
X0060337Y0150062D01*
X0055730Y0150062D01*
X0055730Y0149887D01*
X0055848Y0149139D01*
X0056082Y0148419D01*
X0056426Y0147744D01*
X0056871Y0147131D01*
X0057407Y0146595D01*
X0058019Y0146150D01*
X0058694Y0145806D01*
X0059415Y0145572D01*
X0060163Y0145454D01*
X0060337Y0145454D01*
X0060337Y0150062D01*
X0060745Y0150062D01*
X0060745Y0145454D01*
X0060920Y0145454D01*
X0061668Y0145572D01*
X0062388Y0145806D01*
X0063063Y0146150D01*
X0063676Y0146595D01*
X0064212Y0147131D01*
X0064657Y0147744D01*
X0065001Y0148419D01*
X0065235Y0149139D01*
X0065353Y0149887D01*
X0065353Y0150062D01*
X0060745Y0150062D01*
X0060745Y0150470D01*
X0060337Y0150470D01*
X0060337Y0155078D01*
X0060163Y0155078D01*
X0059415Y0154959D01*
X0060337Y0154869D02*
X0060745Y0154869D01*
X0060745Y0155078D02*
X0060920Y0155078D01*
X0061668Y0154959D01*
X0062388Y0154725D01*
X0063063Y0154381D01*
X0063676Y0153936D01*
X0064212Y0153400D01*
X0064657Y0152788D01*
X0065001Y0152113D01*
X0065235Y0151393D01*
X0065353Y0150644D01*
X0065353Y0150470D01*
X0060745Y0150470D01*
X0060745Y0155078D01*
X0061946Y0154869D02*
X0069603Y0154869D01*
X0069624Y0154878D02*
X0067929Y0154175D01*
X0066632Y0152878D01*
X0065930Y0151183D01*
X0065930Y0149348D01*
X0066632Y0147653D01*
X0067929Y0146356D01*
X0069624Y0145654D01*
X0071459Y0145654D01*
X0073154Y0146356D01*
X0074451Y0147653D01*
X0075153Y0149348D01*
X0075153Y0151183D01*
X0074451Y0152878D01*
X0073154Y0154175D01*
X0071459Y0154878D01*
X0069624Y0154878D01*
X0071480Y0154869D02*
X0079603Y0154869D01*
X0079624Y0154878D02*
X0077929Y0154175D01*
X0076632Y0152878D01*
X0075930Y0151183D01*
X0075930Y0149348D01*
X0076632Y0147653D01*
X0077929Y0146356D01*
X0079624Y0145654D01*
X0081459Y0145654D01*
X0083154Y0146356D01*
X0084451Y0147653D01*
X0085153Y0149348D01*
X0085153Y0151183D01*
X0084451Y0152878D01*
X0083154Y0154175D01*
X0081459Y0154878D01*
X0079624Y0154878D01*
X0081480Y0154869D02*
X0089603Y0154869D01*
X0089624Y0154878D02*
X0087929Y0154175D01*
X0086632Y0152878D01*
X0085930Y0151183D01*
X0085930Y0149348D01*
X0086632Y0147653D01*
X0087929Y0146356D01*
X0089624Y0145654D01*
X0091459Y0145654D01*
X0093154Y0146356D01*
X0094451Y0147653D01*
X0095153Y0149348D01*
X0095153Y0151183D01*
X0094451Y0152878D01*
X0093154Y0154175D01*
X0091459Y0154878D01*
X0089624Y0154878D01*
X0091480Y0154869D02*
X0099603Y0154869D01*
X0099624Y0154878D02*
X0097929Y0154175D01*
X0096632Y0152878D01*
X0095930Y0151183D01*
X0095930Y0149348D01*
X0096632Y0147653D01*
X0097929Y0146356D01*
X0099624Y0145654D01*
X0101459Y0145654D01*
X0103154Y0146356D01*
X0104451Y0147653D01*
X0105153Y0149348D01*
X0105153Y0151183D01*
X0104451Y0152878D01*
X0103154Y0154175D01*
X0101459Y0154878D01*
X0099624Y0154878D01*
X0101480Y0154869D02*
X0118965Y0154869D01*
X0119197Y0153270D02*
X0104059Y0153270D01*
X0104951Y0151672D02*
X0120134Y0151672D01*
X0120959Y0148646D02*
X0119665Y0147352D01*
X0118965Y0145661D01*
X0118965Y0143831D01*
X0119665Y0142140D01*
X0120959Y0140846D01*
X0122650Y0140146D01*
X0124480Y0140146D01*
X0126171Y0140846D01*
X0127465Y0142140D01*
X0128165Y0143831D01*
X0128165Y0145661D01*
X0127465Y0147352D01*
X0126171Y0148646D01*
X0124480Y0149346D01*
X0122650Y0149346D01*
X0120959Y0148646D01*
X0120788Y0148475D02*
X0104791Y0148475D01*
X0105153Y0150073D02*
X0146486Y0150073D01*
X0146486Y0148475D02*
X0136342Y0148475D01*
X0136171Y0148646D02*
X0134480Y0149346D01*
X0132650Y0149346D01*
X0130959Y0148646D01*
X0129665Y0147352D01*
X0128965Y0145661D01*
X0128965Y0143831D01*
X0129665Y0142140D01*
X0130959Y0140846D01*
X0132650Y0140146D01*
X0134480Y0140146D01*
X0136171Y0140846D01*
X0137465Y0142140D01*
X0138165Y0143831D01*
X0138165Y0145661D01*
X0137465Y0147352D01*
X0136171Y0148646D01*
X0136171Y0150846D02*
X0134480Y0150146D01*
X0132650Y0150146D01*
X0130959Y0150846D01*
X0129665Y0152140D01*
X0128965Y0153831D01*
X0128965Y0155661D01*
X0129665Y0157352D01*
X0130959Y0158646D01*
X0132650Y0159346D01*
X0134480Y0159346D01*
X0136171Y0158646D01*
X0137465Y0157352D01*
X0138165Y0155661D01*
X0138165Y0153831D01*
X0137465Y0152140D01*
X0136171Y0150846D01*
X0136996Y0151672D02*
X0146486Y0151672D01*
X0146486Y0153270D02*
X0137933Y0153270D01*
X0138165Y0154869D02*
X0146486Y0154869D01*
X0146486Y0156467D02*
X0137831Y0156467D01*
X0136751Y0158066D02*
X0146486Y0158066D01*
X0146486Y0146876D02*
X0137662Y0146876D01*
X0138165Y0145278D02*
X0146486Y0145278D01*
X0146486Y0143679D02*
X0138102Y0143679D01*
X0137405Y0142081D02*
X0146486Y0142081D01*
X0146486Y0140482D02*
X0135291Y0140482D01*
X0134480Y0139346D02*
X0132650Y0139346D01*
X0130959Y0138646D01*
X0129665Y0137352D01*
X0128965Y0135661D01*
X0128965Y0133831D01*
X0129665Y0132140D01*
X0130959Y0130846D01*
X0132650Y0130146D01*
X0134480Y0130146D01*
X0136171Y0130846D01*
X0137465Y0132140D01*
X0138165Y0133831D01*
X0138165Y0135661D01*
X0137465Y0137352D01*
X0136171Y0138646D01*
X0134480Y0139346D01*
X0135597Y0138884D02*
X0146486Y0138884D01*
X0146486Y0137285D02*
X0137492Y0137285D01*
X0138154Y0135687D02*
X0146486Y0135687D01*
X0146486Y0134088D02*
X0138165Y0134088D01*
X0137609Y0132489D02*
X0146486Y0132489D01*
X0146486Y0130891D02*
X0136215Y0130891D01*
X0136171Y0128646D02*
X0134480Y0129346D01*
X0132650Y0129346D01*
X0130959Y0128646D01*
X0129665Y0127352D01*
X0128965Y0125661D01*
X0128965Y0123831D01*
X0129665Y0122140D01*
X0130959Y0120846D01*
X0132650Y0120146D01*
X0134480Y0120146D01*
X0136171Y0120846D01*
X0137465Y0122140D01*
X0138165Y0123831D01*
X0138165Y0125661D01*
X0137465Y0127352D01*
X0136171Y0128646D01*
X0137122Y0127694D02*
X0146486Y0127694D01*
X0146486Y0129292D02*
X0134609Y0129292D01*
X0132521Y0129292D02*
X0124609Y0129292D01*
X0124480Y0129346D02*
X0122650Y0129346D01*
X0120959Y0128646D01*
X0119665Y0127352D01*
X0118965Y0125661D01*
X0118965Y0123831D01*
X0119665Y0122140D01*
X0120959Y0120846D01*
X0122650Y0120146D01*
X0124480Y0120146D01*
X0126171Y0120846D01*
X0127465Y0122140D01*
X0128165Y0123831D01*
X0128165Y0125661D01*
X0127465Y0127352D01*
X0126171Y0128646D01*
X0124480Y0129346D01*
X0124480Y0130146D02*
X0126171Y0130846D01*
X0127465Y0132140D01*
X0128165Y0133831D01*
X0128165Y0135661D01*
X0127465Y0137352D01*
X0126171Y0138646D01*
X0124480Y0139346D01*
X0122650Y0139346D01*
X0120959Y0138646D01*
X0119665Y0137352D01*
X0118965Y0135661D01*
X0118965Y0133831D01*
X0119665Y0132140D01*
X0120959Y0130846D01*
X0122650Y0130146D01*
X0124480Y0130146D01*
X0126215Y0130891D02*
X0130915Y0130891D01*
X0129521Y0132489D02*
X0127609Y0132489D01*
X0128165Y0134088D02*
X0128965Y0134088D01*
X0128976Y0135687D02*
X0128154Y0135687D01*
X0127492Y0137285D02*
X0129638Y0137285D01*
X0131533Y0138884D02*
X0125597Y0138884D01*
X0125291Y0140482D02*
X0131839Y0140482D01*
X0129725Y0142081D02*
X0127405Y0142081D01*
X0128102Y0143679D02*
X0129028Y0143679D01*
X0128965Y0145278D02*
X0128165Y0145278D01*
X0127662Y0146876D02*
X0129468Y0146876D01*
X0130788Y0148475D02*
X0126342Y0148475D01*
X0126996Y0151672D02*
X0130134Y0151672D01*
X0129197Y0153270D02*
X0127933Y0153270D01*
X0128165Y0154869D02*
X0128965Y0154869D01*
X0129299Y0156467D02*
X0127831Y0156467D01*
X0126751Y0158066D02*
X0130379Y0158066D01*
X0119468Y0146876D02*
X0103674Y0146876D01*
X0097409Y0146876D02*
X0093674Y0146876D01*
X0094791Y0148475D02*
X0096291Y0148475D01*
X0095930Y0150073D02*
X0095153Y0150073D01*
X0094951Y0151672D02*
X0096132Y0151672D01*
X0097024Y0153270D02*
X0094059Y0153270D01*
X0087024Y0153270D02*
X0084059Y0153270D01*
X0084951Y0151672D02*
X0086132Y0151672D01*
X0085930Y0150073D02*
X0085153Y0150073D01*
X0084791Y0148475D02*
X0086291Y0148475D01*
X0087409Y0146876D02*
X0083674Y0146876D01*
X0077409Y0146876D02*
X0073674Y0146876D01*
X0074791Y0148475D02*
X0076291Y0148475D01*
X0075930Y0150073D02*
X0075153Y0150073D01*
X0074951Y0151672D02*
X0076132Y0151672D01*
X0077024Y0153270D02*
X0074059Y0153270D01*
X0067024Y0153270D02*
X0064306Y0153270D01*
X0065144Y0151672D02*
X0066132Y0151672D01*
X0065930Y0150073D02*
X0060745Y0150073D01*
X0060337Y0150073D02*
X0046038Y0150073D01*
X0046685Y0151672D02*
X0055939Y0151672D01*
X0056776Y0153270D02*
X0046685Y0153270D01*
X0044268Y0148475D02*
X0056064Y0148475D01*
X0057126Y0146876D02*
X0043659Y0146876D01*
X0043000Y0147149D02*
X0041170Y0147149D01*
X0039479Y0146449D01*
X0038185Y0145155D01*
X0037485Y0143464D01*
X0037485Y0141634D01*
X0038185Y0139944D01*
X0039479Y0138650D01*
X0041170Y0137949D01*
X0043000Y0137949D01*
X0044690Y0138650D01*
X0045984Y0139944D01*
X0046685Y0141634D01*
X0046685Y0143464D01*
X0045984Y0145155D01*
X0044690Y0146449D01*
X0043000Y0147149D01*
X0040510Y0146876D02*
X0033659Y0146876D01*
X0033000Y0147149D02*
X0031170Y0147149D01*
X0029479Y0146449D01*
X0028185Y0145155D01*
X0027485Y0143464D01*
X0027485Y0141634D01*
X0028185Y0139944D01*
X0029479Y0138650D01*
X0031170Y0137949D01*
X0033000Y0137949D01*
X0034690Y0138650D01*
X0035984Y0139944D01*
X0036685Y0141634D01*
X0036685Y0143464D01*
X0035984Y0145155D01*
X0034690Y0146449D01*
X0033000Y0147149D01*
X0033000Y0147949D02*
X0034690Y0148650D01*
X0035984Y0149944D01*
X0036685Y0151634D01*
X0036685Y0153464D01*
X0035984Y0155155D01*
X0034690Y0156449D01*
X0033000Y0157149D01*
X0031170Y0157149D01*
X0029479Y0156449D01*
X0028185Y0155155D01*
X0027485Y0153464D01*
X0027485Y0151634D01*
X0028185Y0149944D01*
X0029479Y0148650D01*
X0031170Y0147949D01*
X0033000Y0147949D01*
X0034268Y0148475D02*
X0039901Y0148475D01*
X0038131Y0150073D02*
X0036038Y0150073D01*
X0036685Y0151672D02*
X0037485Y0151672D01*
X0037485Y0153270D02*
X0036685Y0153270D01*
X0036103Y0154869D02*
X0038066Y0154869D01*
X0039523Y0156467D02*
X0034646Y0156467D01*
X0029523Y0156467D02*
X0019365Y0156467D01*
X0019365Y0154869D02*
X0028066Y0154869D01*
X0027485Y0153270D02*
X0019365Y0153270D01*
X0019365Y0151672D02*
X0027485Y0151672D01*
X0028131Y0150073D02*
X0019365Y0150073D01*
X0019365Y0148475D02*
X0029901Y0148475D01*
X0030510Y0146876D02*
X0019365Y0146876D01*
X0019365Y0145278D02*
X0028308Y0145278D01*
X0027574Y0143679D02*
X0019365Y0143679D01*
X0019365Y0142081D02*
X0027485Y0142081D01*
X0027962Y0140482D02*
X0019365Y0140482D01*
X0019365Y0138884D02*
X0029245Y0138884D01*
X0029479Y0136449D02*
X0028185Y0135155D01*
X0027485Y0133464D01*
X0027485Y0131634D01*
X0028185Y0129944D01*
X0029479Y0128650D01*
X0031170Y0127949D01*
X0033000Y0127949D01*
X0034690Y0128650D01*
X0035984Y0129944D01*
X0036685Y0131634D01*
X0036685Y0133464D01*
X0035984Y0135155D01*
X0034690Y0136449D01*
X0033000Y0137149D01*
X0031170Y0137149D01*
X0029479Y0136449D01*
X0028717Y0135687D02*
X0019365Y0135687D01*
X0019365Y0137285D02*
X0062940Y0137285D01*
X0062940Y0137247D02*
X0063731Y0135336D01*
X0065194Y0133873D01*
X0067105Y0133081D01*
X0069174Y0133081D01*
X0071085Y0133873D01*
X0072548Y0135336D01*
X0073340Y0137247D01*
X0073340Y0139316D01*
X0072548Y0141227D01*
X0071085Y0142690D01*
X0069174Y0143481D01*
X0067105Y0143481D01*
X0065194Y0142690D01*
X0063731Y0141227D01*
X0062940Y0139316D01*
X0062940Y0137247D01*
X0062940Y0138884D02*
X0044924Y0138884D01*
X0046207Y0140482D02*
X0063423Y0140482D01*
X0064585Y0142081D02*
X0046685Y0142081D01*
X0046596Y0143679D02*
X0119028Y0143679D01*
X0118965Y0145278D02*
X0045862Y0145278D01*
X0038308Y0145278D02*
X0035862Y0145278D01*
X0036596Y0143679D02*
X0037574Y0143679D01*
X0037485Y0142081D02*
X0036685Y0142081D01*
X0036207Y0140482D02*
X0037962Y0140482D01*
X0039245Y0138884D02*
X0034924Y0138884D01*
X0035453Y0135687D02*
X0038717Y0135687D01*
X0038185Y0135155D02*
X0037485Y0133464D01*
X0037485Y0131634D01*
X0038185Y0129944D01*
X0039479Y0128650D01*
X0041170Y0127949D01*
X0043000Y0127949D01*
X0044690Y0128650D01*
X0045984Y0129944D01*
X0046685Y0131634D01*
X0046685Y0133464D01*
X0045984Y0135155D01*
X0044690Y0136449D01*
X0043000Y0137149D01*
X0041170Y0137149D01*
X0039479Y0136449D01*
X0038185Y0135155D01*
X0037743Y0134088D02*
X0036426Y0134088D01*
X0036685Y0132489D02*
X0037485Y0132489D01*
X0037792Y0130891D02*
X0036377Y0130891D01*
X0035333Y0129292D02*
X0038836Y0129292D01*
X0039479Y0126449D02*
X0038185Y0125155D01*
X0037485Y0123464D01*
X0037485Y0121634D01*
X0038185Y0119944D01*
X0039479Y0118650D01*
X0041170Y0117949D01*
X0043000Y0117949D01*
X0044690Y0118650D01*
X0045984Y0119944D01*
X0046685Y0121634D01*
X0046685Y0123464D01*
X0045984Y0125155D01*
X0044690Y0126449D01*
X0043000Y0127149D01*
X0041170Y0127149D01*
X0039479Y0126449D01*
X0039126Y0126095D02*
X0035044Y0126095D01*
X0034690Y0126449D02*
X0033000Y0127149D01*
X0031170Y0127149D01*
X0029479Y0126449D01*
X0028185Y0125155D01*
X0027485Y0123464D01*
X0027485Y0121634D01*
X0028185Y0119944D01*
X0029479Y0118650D01*
X0031170Y0117949D01*
X0033000Y0117949D01*
X0034690Y0118650D01*
X0035984Y0119944D01*
X0036685Y0121634D01*
X0036685Y0123464D01*
X0035984Y0125155D01*
X0034690Y0126449D01*
X0036257Y0124497D02*
X0037912Y0124497D01*
X0037485Y0122898D02*
X0036685Y0122898D01*
X0036546Y0121300D02*
X0037623Y0121300D01*
X0038427Y0119701D02*
X0035742Y0119701D01*
X0033371Y0118103D02*
X0040799Y0118103D01*
X0041170Y0117149D02*
X0039479Y0116449D01*
X0038185Y0115155D01*
X0037485Y0113464D01*
X0037485Y0111634D01*
X0038185Y0109944D01*
X0039479Y0108650D01*
X0041170Y0107949D01*
X0043000Y0107949D01*
X0044690Y0108650D01*
X0045984Y0109944D01*
X0046685Y0111634D01*
X0046685Y0113464D01*
X0045984Y0115155D01*
X0044690Y0116449D01*
X0043000Y0117149D01*
X0041170Y0117149D01*
X0039613Y0116504D02*
X0034556Y0116504D01*
X0034690Y0116449D02*
X0033000Y0117149D01*
X0031170Y0117149D01*
X0029479Y0116449D01*
X0028185Y0115155D01*
X0027485Y0113464D01*
X0027485Y0111634D01*
X0028185Y0109944D01*
X0029479Y0108650D01*
X0031170Y0107949D01*
X0033000Y0107949D01*
X0034690Y0108650D01*
X0035984Y0109944D01*
X0036685Y0111634D01*
X0036685Y0113464D01*
X0035984Y0115155D01*
X0034690Y0116449D01*
X0036087Y0114906D02*
X0038082Y0114906D01*
X0037485Y0113307D02*
X0036685Y0113307D01*
X0036685Y0111709D02*
X0037485Y0111709D01*
X0038116Y0110110D02*
X0036053Y0110110D01*
X0034358Y0108512D02*
X0039811Y0108512D01*
X0044358Y0108512D02*
X0146486Y0108512D01*
X0146486Y0110110D02*
X0046053Y0110110D01*
X0046685Y0111709D02*
X0086003Y0111709D01*
X0086635Y0111447D02*
X0088227Y0111447D01*
X0089697Y0112056D01*
X0090822Y0113181D01*
X0091431Y0114651D01*
X0091431Y0116242D01*
X0090822Y0117713D01*
X0089697Y0118838D01*
X0088227Y0119447D01*
X0086635Y0119447D01*
X0085165Y0118838D01*
X0084040Y0117713D01*
X0083431Y0116242D01*
X0083431Y0114651D01*
X0084040Y0113181D01*
X0085165Y0112056D01*
X0086635Y0111447D01*
X0088859Y0111709D02*
X0120097Y0111709D01*
X0119665Y0112140D02*
X0120959Y0110846D01*
X0122650Y0110146D01*
X0124480Y0110146D01*
X0126171Y0110846D01*
X0127465Y0112140D01*
X0128165Y0113831D01*
X0128165Y0115661D01*
X0127465Y0117352D01*
X0126171Y0118646D01*
X0124480Y0119346D01*
X0122650Y0119346D01*
X0120959Y0118646D01*
X0119665Y0117352D01*
X0118965Y0115661D01*
X0118965Y0113831D01*
X0119665Y0112140D01*
X0119182Y0113307D02*
X0090874Y0113307D01*
X0091431Y0114906D02*
X0118965Y0114906D01*
X0119314Y0116504D02*
X0091323Y0116504D01*
X0090432Y0118103D02*
X0120416Y0118103D01*
X0120506Y0121300D02*
X0046546Y0121300D01*
X0046685Y0122898D02*
X0119351Y0122898D01*
X0118965Y0124497D02*
X0046257Y0124497D01*
X0045044Y0126095D02*
X0119145Y0126095D01*
X0120007Y0127694D02*
X0019365Y0127694D01*
X0019365Y0129292D02*
X0028836Y0129292D01*
X0027792Y0130891D02*
X0019365Y0130891D01*
X0019365Y0132489D02*
X0027485Y0132489D01*
X0027743Y0134088D02*
X0019365Y0134088D01*
X0019365Y0126095D02*
X0029126Y0126095D01*
X0027912Y0124497D02*
X0019365Y0124497D01*
X0019365Y0122898D02*
X0027485Y0122898D01*
X0027623Y0121300D02*
X0019365Y0121300D01*
X0019365Y0119701D02*
X0028427Y0119701D01*
X0030799Y0118103D02*
X0019365Y0118103D01*
X0019365Y0116504D02*
X0029613Y0116504D01*
X0028082Y0114906D02*
X0019365Y0114906D01*
X0019365Y0113307D02*
X0027485Y0113307D01*
X0027485Y0111709D02*
X0019365Y0111709D01*
X0019365Y0110110D02*
X0028116Y0110110D01*
X0029811Y0108512D02*
X0019365Y0108512D01*
X0019365Y0106913D02*
X0146486Y0106913D01*
X0146486Y0105315D02*
X0126448Y0105315D01*
X0125917Y0105846D02*
X0124447Y0106455D01*
X0122856Y0106455D01*
X0121386Y0105846D01*
X0120261Y0104721D01*
X0119652Y0103250D01*
X0119652Y0101659D01*
X0120261Y0100189D01*
X0121386Y0099064D01*
X0122856Y0098455D01*
X0124447Y0098455D01*
X0125917Y0099064D01*
X0127043Y0100189D01*
X0127652Y0101659D01*
X0127652Y0103250D01*
X0127043Y0104721D01*
X0125917Y0105846D01*
X0127459Y0103716D02*
X0146486Y0103716D01*
X0146486Y0102118D02*
X0127652Y0102118D01*
X0127179Y0100519D02*
X0146486Y0100519D01*
X0146486Y0098921D02*
X0125572Y0098921D01*
X0121731Y0098921D02*
X0019365Y0098921D01*
X0019365Y0100519D02*
X0120124Y0100519D01*
X0119652Y0102118D02*
X0019365Y0102118D01*
X0019365Y0103716D02*
X0119845Y0103716D01*
X0120855Y0105315D02*
X0019365Y0105315D01*
X0019365Y0097322D02*
X0146486Y0097322D01*
X0146486Y0095724D02*
X0019365Y0095724D01*
X0019365Y0094125D02*
X0146486Y0094125D01*
X0146486Y0092527D02*
X0019365Y0092527D01*
X0019365Y0090928D02*
X0146486Y0090928D01*
X0146486Y0089330D02*
X0019365Y0089330D01*
X0019365Y0087731D02*
X0146486Y0087731D01*
X0146486Y0086133D02*
X0019365Y0086133D01*
X0019365Y0084534D02*
X0146486Y0084534D01*
X0146486Y0082936D02*
X0019365Y0082936D01*
X0019365Y0081337D02*
X0146486Y0081337D01*
X0146486Y0079739D02*
X0019365Y0079739D01*
X0019365Y0078140D02*
X0146486Y0078140D01*
X0146486Y0076542D02*
X0019365Y0076542D01*
X0019365Y0074943D02*
X0146486Y0074943D01*
X0146486Y0111709D02*
X0137033Y0111709D01*
X0137465Y0112140D02*
X0138165Y0113831D01*
X0138165Y0115661D01*
X0137465Y0117352D01*
X0136171Y0118646D01*
X0134480Y0119346D01*
X0132650Y0119346D01*
X0130959Y0118646D01*
X0129665Y0117352D01*
X0128965Y0115661D01*
X0128965Y0113831D01*
X0129665Y0112140D01*
X0130959Y0110846D01*
X0132650Y0110146D01*
X0134480Y0110146D01*
X0136171Y0110846D01*
X0137465Y0112140D01*
X0137948Y0113307D02*
X0146486Y0113307D01*
X0146486Y0114906D02*
X0138165Y0114906D01*
X0137816Y0116504D02*
X0146486Y0116504D01*
X0146486Y0118103D02*
X0136713Y0118103D01*
X0136624Y0121300D02*
X0146486Y0121300D01*
X0146486Y0122898D02*
X0137779Y0122898D01*
X0138165Y0124497D02*
X0146486Y0124497D01*
X0146486Y0126095D02*
X0137985Y0126095D01*
X0130007Y0127694D02*
X0127122Y0127694D01*
X0127985Y0126095D02*
X0129145Y0126095D01*
X0128965Y0124497D02*
X0128165Y0124497D01*
X0127779Y0122898D02*
X0129351Y0122898D01*
X0130506Y0121300D02*
X0126624Y0121300D01*
X0126713Y0118103D02*
X0130416Y0118103D01*
X0129314Y0116504D02*
X0127816Y0116504D01*
X0128165Y0114906D02*
X0128965Y0114906D01*
X0129182Y0113307D02*
X0127948Y0113307D01*
X0127033Y0111709D02*
X0130097Y0111709D01*
X0146486Y0119701D02*
X0045742Y0119701D01*
X0043371Y0118103D02*
X0084430Y0118103D01*
X0083540Y0116504D02*
X0044556Y0116504D01*
X0046087Y0114906D02*
X0083431Y0114906D01*
X0083988Y0113307D02*
X0046685Y0113307D01*
X0045333Y0129292D02*
X0122521Y0129292D01*
X0120915Y0130891D02*
X0046377Y0130891D01*
X0046685Y0132489D02*
X0119521Y0132489D01*
X0118965Y0134088D02*
X0071300Y0134088D01*
X0072693Y0135687D02*
X0118976Y0135687D01*
X0119638Y0137285D02*
X0073340Y0137285D01*
X0073340Y0138884D02*
X0121533Y0138884D01*
X0121839Y0140482D02*
X0072857Y0140482D01*
X0071695Y0142081D02*
X0119725Y0142081D01*
X0084910Y0178846D02*
X0078928Y0178846D01*
X0079620Y0180445D02*
X0083969Y0180445D01*
X0083825Y0182043D02*
X0079598Y0182043D01*
X0078830Y0183642D02*
X0084346Y0183642D01*
X0060745Y0153270D02*
X0060337Y0153270D01*
X0060337Y0151672D02*
X0060745Y0151672D01*
X0060745Y0148475D02*
X0060337Y0148475D01*
X0060337Y0146876D02*
X0060745Y0146876D01*
X0063957Y0146876D02*
X0067409Y0146876D01*
X0066291Y0148475D02*
X0065019Y0148475D01*
X0063586Y0135687D02*
X0045453Y0135687D01*
X0046426Y0134088D02*
X0064979Y0134088D01*
X0123490Y0249181D02*
X0146486Y0249181D01*
X0146486Y0250779D02*
X0125452Y0250779D01*
X0126185Y0252378D02*
X0146486Y0252378D01*
X0146486Y0253976D02*
X0126365Y0253976D01*
X0126077Y0255575D02*
X0146486Y0255575D01*
X0146486Y0257173D02*
X0125192Y0257173D01*
D19*
X0121165Y0253846D03*
X0138065Y0254646D03*
X0138065Y0278446D03*
X0054365Y0351746D03*
X0221289Y0398518D03*
X0068140Y0138281D03*
X0132707Y0094234D03*
D20*
X0159132Y0094234D01*
X0160266Y0095368D01*
D21*
X0220108Y0128439D03*
X0213809Y0139069D03*
X0212628Y0148124D03*
X0205541Y0149699D03*
X0202392Y0155604D03*
X0198848Y0161510D03*
X0210266Y0177258D03*
X0242156Y0187100D03*
X0220896Y0148518D03*
X0233494Y0141431D03*
X0066098Y0299624D03*
X0050350Y0305530D03*
X0042476Y0313404D03*
X0058224Y0313404D03*
X0077909Y0319309D03*
X0087752Y0317341D03*
X0105468Y0319309D03*
X0081846Y0340963D03*
X0056256Y0333089D03*
X0036570Y0301593D03*
D22*
X0154360Y0217415D02*
X0154360Y0074346D01*
X0683256Y0074346D01*
X0683256Y0423477D01*
X0311841Y0423477D01*
X0311841Y0217415D01*
X0242663Y0217415D01*
X0242757Y0217376D01*
X0243995Y0216138D01*
X0244665Y0214521D01*
X0244665Y0212771D01*
X0243995Y0211154D01*
X0242757Y0209916D01*
X0241140Y0209246D01*
X0239390Y0209246D01*
X0237773Y0209916D01*
X0236535Y0211154D01*
X0235865Y0212771D01*
X0235865Y0214521D01*
X0236535Y0216138D01*
X0237773Y0217376D01*
X0237867Y0217415D01*
X0154360Y0217415D01*
X0154360Y0216766D02*
X0237162Y0216766D01*
X0236298Y0215567D02*
X0154360Y0215567D01*
X0154360Y0214369D02*
X0235865Y0214369D01*
X0235865Y0213170D02*
X0154360Y0213170D01*
X0154360Y0211972D02*
X0236196Y0211972D01*
X0236915Y0210773D02*
X0154360Y0210773D01*
X0154360Y0209575D02*
X0238596Y0209575D01*
X0238974Y0209404D02*
X0237463Y0209404D01*
X0236066Y0208826D01*
X0234997Y0207757D01*
X0234419Y0206360D01*
X0234419Y0204848D01*
X0234997Y0203452D01*
X0236066Y0202383D01*
X0237463Y0201804D01*
X0238974Y0201804D01*
X0240371Y0202383D01*
X0241440Y0203452D01*
X0242018Y0204848D01*
X0242018Y0206360D01*
X0241440Y0207757D01*
X0240371Y0208826D01*
X0238974Y0209404D01*
X0240820Y0208376D02*
X0372456Y0208376D01*
X0372411Y0208421D02*
X0373280Y0207553D01*
X0374415Y0207082D01*
X0375644Y0207082D01*
X0376779Y0207553D01*
X0377648Y0208421D01*
X0378118Y0209557D01*
X0378118Y0210786D01*
X0377648Y0211921D01*
X0376779Y0212790D01*
X0375644Y0213260D01*
X0374415Y0213260D01*
X0373280Y0212790D01*
X0372411Y0211921D01*
X0371941Y0210786D01*
X0371941Y0209557D01*
X0372411Y0208421D01*
X0371941Y0209575D02*
X0241934Y0209575D01*
X0243615Y0210773D02*
X0371941Y0210773D01*
X0372462Y0211972D02*
X0244334Y0211972D01*
X0244665Y0213170D02*
X0374198Y0213170D01*
X0375861Y0213170D02*
X0395913Y0213170D01*
X0396056Y0212827D02*
X0397181Y0211701D01*
X0398651Y0211093D01*
X0400242Y0211093D01*
X0401713Y0211701D01*
X0402838Y0212827D01*
X0403447Y0214297D01*
X0403447Y0215888D01*
X0402838Y0217358D01*
X0401713Y0218484D01*
X0400242Y0219093D01*
X0398651Y0219093D01*
X0397181Y0218484D01*
X0396056Y0217358D01*
X0395447Y0215888D01*
X0395447Y0214297D01*
X0396056Y0212827D01*
X0396911Y0211972D02*
X0377597Y0211972D01*
X0378118Y0210773D02*
X0450681Y0210773D01*
X0450681Y0210786D02*
X0450681Y0209557D01*
X0451151Y0208421D01*
X0452020Y0207553D01*
X0453155Y0207082D01*
X0454384Y0207082D01*
X0455519Y0207553D01*
X0456388Y0208421D01*
X0456859Y0209557D01*
X0456859Y0210786D01*
X0456388Y0211921D01*
X0455519Y0212790D01*
X0454384Y0213260D01*
X0453155Y0213260D01*
X0452020Y0212790D01*
X0451151Y0211921D01*
X0450681Y0210786D01*
X0450681Y0209575D02*
X0378118Y0209575D01*
X0377603Y0208376D02*
X0451196Y0208376D01*
X0452925Y0207178D02*
X0375875Y0207178D01*
X0374184Y0207178D02*
X0294070Y0207178D01*
X0294813Y0206870D02*
X0293196Y0207540D01*
X0291446Y0207540D01*
X0289828Y0206870D01*
X0288591Y0205632D01*
X0287921Y0204015D01*
X0287921Y0202265D01*
X0288591Y0200647D01*
X0289828Y0199410D01*
X0291446Y0198740D01*
X0293196Y0198740D01*
X0294813Y0199410D01*
X0296051Y0200647D01*
X0296721Y0202265D01*
X0296721Y0204015D01*
X0296051Y0205632D01*
X0294813Y0206870D01*
X0295704Y0205979D02*
X0683256Y0205979D01*
X0683256Y0204781D02*
X0296404Y0204781D01*
X0296721Y0203582D02*
X0683256Y0203582D01*
X0683256Y0202384D02*
X0613406Y0202384D01*
X0613000Y0202790D02*
X0611864Y0203260D01*
X0610636Y0203260D01*
X0609500Y0202790D01*
X0608631Y0201921D01*
X0608161Y0200786D01*
X0608161Y0199557D01*
X0608631Y0198421D01*
X0609500Y0197553D01*
X0610636Y0197082D01*
X0611864Y0197082D01*
X0613000Y0197553D01*
X0613869Y0198421D01*
X0614339Y0199557D01*
X0614339Y0200786D01*
X0613869Y0201921D01*
X0613000Y0202790D01*
X0614173Y0201185D02*
X0683256Y0201185D01*
X0683256Y0199987D02*
X0614339Y0199987D01*
X0614021Y0198788D02*
X0683256Y0198788D01*
X0683256Y0197590D02*
X0613037Y0197590D01*
X0609463Y0197590D02*
X0534297Y0197590D01*
X0534260Y0197553D02*
X0535129Y0198421D01*
X0535599Y0199557D01*
X0535599Y0200786D01*
X0535129Y0201921D01*
X0534260Y0202790D01*
X0533124Y0203260D01*
X0531895Y0203260D01*
X0530760Y0202790D01*
X0529891Y0201921D01*
X0529421Y0200786D01*
X0529421Y0199557D01*
X0529891Y0198421D01*
X0530760Y0197553D01*
X0531895Y0197082D01*
X0533124Y0197082D01*
X0534260Y0197553D01*
X0535280Y0198788D02*
X0608479Y0198788D01*
X0608161Y0199987D02*
X0535599Y0199987D01*
X0535433Y0201185D02*
X0608327Y0201185D01*
X0609094Y0202384D02*
X0534666Y0202384D01*
X0530354Y0202384D02*
X0496052Y0202384D01*
X0496050Y0202385D02*
X0495461Y0202686D01*
X0494832Y0202890D01*
X0494179Y0202993D01*
X0494048Y0202993D01*
X0494048Y0198993D01*
X0493648Y0198993D01*
X0493648Y0198593D01*
X0489648Y0198593D01*
X0489648Y0198463D01*
X0489752Y0197810D01*
X0489956Y0197181D01*
X0490256Y0196592D01*
X0490645Y0196057D01*
X0491112Y0195590D01*
X0491647Y0195201D01*
X0492236Y0194901D01*
X0492865Y0194697D01*
X0493518Y0194593D01*
X0493648Y0194593D01*
X0493648Y0198593D01*
X0494048Y0198593D01*
X0494048Y0194593D01*
X0494179Y0194593D01*
X0494832Y0194697D01*
X0495461Y0194901D01*
X0496050Y0195201D01*
X0496585Y0195590D01*
X0497052Y0196057D01*
X0497441Y0196592D01*
X0497741Y0197181D01*
X0497945Y0197810D01*
X0498048Y0198463D01*
X0498048Y0198593D01*
X0494048Y0198593D01*
X0494048Y0198993D01*
X0498048Y0198993D01*
X0498048Y0199124D01*
X0497945Y0199777D01*
X0497741Y0200406D01*
X0497441Y0200995D01*
X0497052Y0201529D01*
X0496585Y0201997D01*
X0496050Y0202385D01*
X0497302Y0201185D02*
X0529586Y0201185D01*
X0529421Y0199987D02*
X0497877Y0199987D01*
X0497873Y0197590D02*
X0530723Y0197590D01*
X0529739Y0198788D02*
X0494048Y0198788D01*
X0493648Y0198788D02*
X0456540Y0198788D01*
X0456388Y0198421D02*
X0456859Y0199557D01*
X0456859Y0200786D01*
X0456388Y0201921D01*
X0455519Y0202790D01*
X0454384Y0203260D01*
X0453155Y0203260D01*
X0452020Y0202790D01*
X0451151Y0201921D01*
X0450681Y0200786D01*
X0450681Y0199557D01*
X0451151Y0198421D01*
X0452020Y0197553D01*
X0453155Y0197082D01*
X0454384Y0197082D01*
X0455519Y0197553D01*
X0456388Y0198421D01*
X0455557Y0197590D02*
X0489823Y0197590D01*
X0490402Y0196391D02*
X0399715Y0196391D01*
X0399593Y0196480D02*
X0399004Y0196780D01*
X0398375Y0196984D01*
X0397722Y0197088D01*
X0397592Y0197088D01*
X0397592Y0193088D01*
X0401592Y0193088D01*
X0401592Y0193218D01*
X0401488Y0193871D01*
X0401284Y0194500D01*
X0400984Y0195089D01*
X0400595Y0195624D01*
X0400128Y0196091D01*
X0399593Y0196480D01*
X0400909Y0195193D02*
X0491664Y0195193D01*
X0493648Y0195193D02*
X0494048Y0195193D01*
X0494048Y0196391D02*
X0493648Y0196391D01*
X0493648Y0197590D02*
X0494048Y0197590D01*
X0493648Y0198993D02*
X0489648Y0198993D01*
X0489648Y0199124D01*
X0489752Y0199777D01*
X0489956Y0200406D01*
X0490256Y0200995D01*
X0490645Y0201529D01*
X0491112Y0201997D01*
X0491647Y0202385D01*
X0492236Y0202686D01*
X0492865Y0202890D01*
X0493518Y0202993D01*
X0493648Y0202993D01*
X0493648Y0198993D01*
X0493648Y0199987D02*
X0494048Y0199987D01*
X0494048Y0201185D02*
X0493648Y0201185D01*
X0493648Y0202384D02*
X0494048Y0202384D01*
X0491645Y0202384D02*
X0455926Y0202384D01*
X0456693Y0201185D02*
X0490395Y0201185D01*
X0489820Y0199987D02*
X0456859Y0199987D01*
X0451983Y0197590D02*
X0376816Y0197590D01*
X0376779Y0197553D02*
X0377648Y0198421D01*
X0378118Y0199557D01*
X0378118Y0200786D01*
X0377648Y0201921D01*
X0376779Y0202790D01*
X0375644Y0203260D01*
X0374415Y0203260D01*
X0373280Y0202790D01*
X0372411Y0201921D01*
X0371941Y0200786D01*
X0371941Y0199557D01*
X0372411Y0198421D01*
X0373280Y0197553D01*
X0374415Y0197082D01*
X0375644Y0197082D01*
X0376779Y0197553D01*
X0377800Y0198788D02*
X0450999Y0198788D01*
X0450681Y0199987D02*
X0378118Y0199987D01*
X0377953Y0201185D02*
X0450846Y0201185D01*
X0451614Y0202384D02*
X0377185Y0202384D01*
X0372874Y0202384D02*
X0296721Y0202384D01*
X0296274Y0201185D02*
X0372106Y0201185D01*
X0371941Y0199987D02*
X0295390Y0199987D01*
X0293313Y0198788D02*
X0372259Y0198788D01*
X0373243Y0197590D02*
X0283511Y0197590D01*
X0283398Y0197626D02*
X0282721Y0197734D01*
X0282721Y0193540D01*
X0281921Y0193540D01*
X0281921Y0197734D01*
X0281244Y0197626D01*
X0280555Y0197403D01*
X0279910Y0197074D01*
X0279324Y0196648D01*
X0278812Y0196136D01*
X0278387Y0195551D01*
X0278058Y0194906D01*
X0277834Y0194217D01*
X0277727Y0193540D01*
X0281921Y0193540D01*
X0281921Y0192740D01*
X0277727Y0192740D01*
X0277834Y0192063D01*
X0278058Y0191374D01*
X0278387Y0190729D01*
X0278812Y0190143D01*
X0279324Y0189631D01*
X0279910Y0189205D01*
X0280555Y0188877D01*
X0281244Y0188653D01*
X0281921Y0188546D01*
X0281921Y0192740D01*
X0282721Y0192740D01*
X0282721Y0193540D01*
X0286915Y0193540D01*
X0286808Y0194217D01*
X0286584Y0194906D01*
X0286255Y0195551D01*
X0285830Y0196136D01*
X0285318Y0196648D01*
X0284732Y0197074D01*
X0284087Y0197403D01*
X0283398Y0197626D01*
X0282721Y0197590D02*
X0281921Y0197590D01*
X0281131Y0197590D02*
X0273511Y0197590D01*
X0273398Y0197626D02*
X0272721Y0197734D01*
X0272721Y0193540D01*
X0271921Y0193540D01*
X0271921Y0197734D01*
X0271244Y0197626D01*
X0270555Y0197403D01*
X0269910Y0197074D01*
X0269324Y0196648D01*
X0268812Y0196136D01*
X0268387Y0195551D01*
X0268058Y0194906D01*
X0267834Y0194217D01*
X0267727Y0193540D01*
X0271921Y0193540D01*
X0271921Y0192740D01*
X0267727Y0192740D01*
X0267834Y0192063D01*
X0268058Y0191374D01*
X0268387Y0190729D01*
X0268812Y0190143D01*
X0269324Y0189631D01*
X0269910Y0189205D01*
X0270555Y0188877D01*
X0271244Y0188653D01*
X0271921Y0188546D01*
X0271921Y0192740D01*
X0272721Y0192740D01*
X0272721Y0193540D01*
X0276915Y0193540D01*
X0276808Y0194217D01*
X0276584Y0194906D01*
X0276255Y0195551D01*
X0275830Y0196136D01*
X0275318Y0196648D01*
X0274732Y0197074D01*
X0274087Y0197403D01*
X0273398Y0197626D01*
X0272721Y0197590D02*
X0271921Y0197590D01*
X0271131Y0197590D02*
X0263511Y0197590D01*
X0263398Y0197626D02*
X0262721Y0197734D01*
X0262721Y0193540D01*
X0261921Y0193540D01*
X0261921Y0197734D01*
X0261244Y0197626D01*
X0260555Y0197403D01*
X0259910Y0197074D01*
X0259324Y0196648D01*
X0258812Y0196136D01*
X0258387Y0195551D01*
X0258058Y0194906D01*
X0257834Y0194217D01*
X0257727Y0193540D01*
X0261921Y0193540D01*
X0261921Y0192740D01*
X0257727Y0192740D01*
X0257834Y0192063D01*
X0258058Y0191374D01*
X0258387Y0190729D01*
X0258812Y0190143D01*
X0259324Y0189631D01*
X0259910Y0189205D01*
X0260555Y0188877D01*
X0261244Y0188653D01*
X0261921Y0188546D01*
X0261921Y0192740D01*
X0262721Y0192740D01*
X0262721Y0193540D01*
X0266915Y0193540D01*
X0266808Y0194217D01*
X0266584Y0194906D01*
X0266255Y0195551D01*
X0265830Y0196136D01*
X0265318Y0196648D01*
X0264732Y0197074D01*
X0264087Y0197403D01*
X0263398Y0197626D01*
X0262721Y0197590D02*
X0261921Y0197590D01*
X0261131Y0197590D02*
X0253511Y0197590D01*
X0253398Y0197626D02*
X0252721Y0197734D01*
X0252721Y0193540D01*
X0251921Y0193540D01*
X0251921Y0197734D01*
X0251244Y0197626D01*
X0250555Y0197403D01*
X0249910Y0197074D01*
X0249324Y0196648D01*
X0248812Y0196136D01*
X0248387Y0195551D01*
X0248058Y0194906D01*
X0247834Y0194217D01*
X0247727Y0193540D01*
X0251921Y0193540D01*
X0251921Y0192740D01*
X0247727Y0192740D01*
X0247834Y0192063D01*
X0248058Y0191374D01*
X0248387Y0190729D01*
X0248812Y0190143D01*
X0249324Y0189631D01*
X0249910Y0189205D01*
X0250555Y0188877D01*
X0251244Y0188653D01*
X0251921Y0188546D01*
X0251921Y0192740D01*
X0252721Y0192740D01*
X0252721Y0193540D01*
X0256915Y0193540D01*
X0256808Y0194217D01*
X0256584Y0194906D01*
X0256255Y0195551D01*
X0255830Y0196136D01*
X0255318Y0196648D01*
X0254732Y0197074D01*
X0254087Y0197403D01*
X0253398Y0197626D01*
X0252721Y0197590D02*
X0251921Y0197590D01*
X0251131Y0197590D02*
X0154360Y0197590D01*
X0154360Y0198788D02*
X0251329Y0198788D01*
X0251446Y0198740D02*
X0253196Y0198740D01*
X0254813Y0199410D01*
X0256051Y0200647D01*
X0256721Y0202265D01*
X0256721Y0204015D01*
X0256051Y0205632D01*
X0254813Y0206870D01*
X0253196Y0207540D01*
X0251446Y0207540D01*
X0249828Y0206870D01*
X0248591Y0205632D01*
X0247921Y0204015D01*
X0247921Y0202265D01*
X0248591Y0200647D01*
X0249828Y0199410D01*
X0251446Y0198740D01*
X0253313Y0198788D02*
X0261329Y0198788D01*
X0261446Y0198740D02*
X0263196Y0198740D01*
X0264813Y0199410D01*
X0266051Y0200647D01*
X0266721Y0202265D01*
X0266721Y0204015D01*
X0266051Y0205632D01*
X0264813Y0206870D01*
X0263196Y0207540D01*
X0261446Y0207540D01*
X0259828Y0206870D01*
X0258591Y0205632D01*
X0257921Y0204015D01*
X0257921Y0202265D01*
X0258591Y0200647D01*
X0259828Y0199410D01*
X0261446Y0198740D01*
X0263313Y0198788D02*
X0271329Y0198788D01*
X0271446Y0198740D02*
X0273196Y0198740D01*
X0274813Y0199410D01*
X0276051Y0200647D01*
X0276721Y0202265D01*
X0276721Y0204015D01*
X0276051Y0205632D01*
X0274813Y0206870D01*
X0273196Y0207540D01*
X0271446Y0207540D01*
X0269828Y0206870D01*
X0268591Y0205632D01*
X0267921Y0204015D01*
X0267921Y0202265D01*
X0268591Y0200647D01*
X0269828Y0199410D01*
X0271446Y0198740D01*
X0273313Y0198788D02*
X0281329Y0198788D01*
X0281446Y0198740D02*
X0283196Y0198740D01*
X0284813Y0199410D01*
X0286051Y0200647D01*
X0286721Y0202265D01*
X0286721Y0204015D01*
X0286051Y0205632D01*
X0284813Y0206870D01*
X0283196Y0207540D01*
X0281446Y0207540D01*
X0279828Y0206870D01*
X0278591Y0205632D01*
X0277921Y0204015D01*
X0277921Y0202265D01*
X0278591Y0200647D01*
X0279828Y0199410D01*
X0281446Y0198740D01*
X0283313Y0198788D02*
X0291329Y0198788D01*
X0291446Y0197540D02*
X0289828Y0196870D01*
X0288591Y0195632D01*
X0287921Y0194015D01*
X0287921Y0192265D01*
X0288591Y0190647D01*
X0289828Y0189410D01*
X0291446Y0188740D01*
X0293196Y0188740D01*
X0294813Y0189410D01*
X0296051Y0190647D01*
X0296721Y0192265D01*
X0296721Y0194015D01*
X0296051Y0195632D01*
X0294813Y0196870D01*
X0293196Y0197540D01*
X0291446Y0197540D01*
X0289350Y0196391D02*
X0285575Y0196391D01*
X0286438Y0195193D02*
X0288409Y0195193D01*
X0287921Y0193994D02*
X0286843Y0193994D01*
X0286915Y0192740D02*
X0282721Y0192740D01*
X0282721Y0188546D01*
X0283398Y0188653D01*
X0284087Y0188877D01*
X0284732Y0189205D01*
X0285318Y0189631D01*
X0285830Y0190143D01*
X0286255Y0190729D01*
X0286584Y0191374D01*
X0286808Y0192063D01*
X0286915Y0192740D01*
X0287921Y0192796D02*
X0282721Y0192796D01*
X0281921Y0192796D02*
X0272721Y0192796D01*
X0272721Y0192740D02*
X0276915Y0192740D01*
X0276808Y0192063D01*
X0276584Y0191374D01*
X0276255Y0190729D01*
X0275830Y0190143D01*
X0275318Y0189631D01*
X0274732Y0189205D01*
X0274087Y0188877D01*
X0273398Y0188653D01*
X0272721Y0188546D01*
X0272721Y0192740D01*
X0271921Y0192796D02*
X0262721Y0192796D01*
X0262721Y0192740D02*
X0266915Y0192740D01*
X0266808Y0192063D01*
X0266584Y0191374D01*
X0266255Y0190729D01*
X0265830Y0190143D01*
X0265318Y0189631D01*
X0264732Y0189205D01*
X0264087Y0188877D01*
X0263398Y0188653D01*
X0262721Y0188546D01*
X0262721Y0192740D01*
X0261921Y0192796D02*
X0252721Y0192796D01*
X0252721Y0192740D02*
X0256915Y0192740D01*
X0256808Y0192063D01*
X0256584Y0191374D01*
X0256255Y0190729D01*
X0255830Y0190143D01*
X0255318Y0189631D01*
X0254732Y0189205D01*
X0254087Y0188877D01*
X0253398Y0188653D01*
X0252721Y0188546D01*
X0252721Y0192740D01*
X0251921Y0192796D02*
X0154360Y0192796D01*
X0154360Y0193994D02*
X0247799Y0193994D01*
X0248204Y0195193D02*
X0154360Y0195193D01*
X0154360Y0196391D02*
X0249067Y0196391D01*
X0251921Y0196391D02*
X0252721Y0196391D01*
X0252721Y0195193D02*
X0251921Y0195193D01*
X0251921Y0193994D02*
X0252721Y0193994D01*
X0252721Y0191597D02*
X0251921Y0191597D01*
X0251921Y0190399D02*
X0252721Y0190399D01*
X0252721Y0189200D02*
X0251921Y0189200D01*
X0249920Y0189200D02*
X0244864Y0189200D01*
X0245038Y0189026D02*
X0244081Y0189983D01*
X0242832Y0190500D01*
X0241479Y0190500D01*
X0240230Y0189983D01*
X0239273Y0189026D01*
X0238756Y0187777D01*
X0238756Y0186424D01*
X0239273Y0185174D01*
X0240230Y0184218D01*
X0241479Y0183700D01*
X0242832Y0183700D01*
X0244081Y0184218D01*
X0245038Y0185174D01*
X0245555Y0186424D01*
X0245555Y0187777D01*
X0245038Y0189026D01*
X0245462Y0188002D02*
X0489848Y0188002D01*
X0489848Y0187998D02*
X0490457Y0186527D01*
X0491583Y0185402D01*
X0493053Y0184793D01*
X0494644Y0184793D01*
X0496114Y0185402D01*
X0497239Y0186527D01*
X0497848Y0187998D01*
X0497848Y0189589D01*
X0497239Y0191059D01*
X0496114Y0192184D01*
X0494644Y0192793D01*
X0493053Y0192793D01*
X0491583Y0192184D01*
X0490457Y0191059D01*
X0489848Y0189589D01*
X0489848Y0187998D01*
X0489848Y0189200D02*
X0399406Y0189200D01*
X0399593Y0189296D02*
X0400128Y0189684D01*
X0400595Y0190152D01*
X0400984Y0190687D01*
X0401284Y0191276D01*
X0401488Y0191904D01*
X0401592Y0192557D01*
X0401592Y0192688D01*
X0397592Y0192688D01*
X0397592Y0193088D01*
X0397192Y0193088D01*
X0397192Y0197088D01*
X0397061Y0197088D01*
X0396408Y0196984D01*
X0395779Y0196780D01*
X0395190Y0196480D01*
X0394656Y0196091D01*
X0394188Y0195624D01*
X0393800Y0195089D01*
X0393499Y0194500D01*
X0393295Y0193871D01*
X0393192Y0193218D01*
X0393192Y0193088D01*
X0397192Y0193088D01*
X0397192Y0192688D01*
X0397592Y0192688D01*
X0397592Y0188688D01*
X0397722Y0188688D01*
X0398375Y0188791D01*
X0399004Y0188995D01*
X0399593Y0189296D01*
X0400775Y0190399D02*
X0490184Y0190399D01*
X0490995Y0191597D02*
X0401389Y0191597D01*
X0401448Y0193994D02*
X0683256Y0193994D01*
X0683256Y0192796D02*
X0397592Y0192796D01*
X0397192Y0192796D02*
X0296721Y0192796D01*
X0296721Y0193994D02*
X0393335Y0193994D01*
X0393192Y0192688D02*
X0393192Y0192557D01*
X0393295Y0191904D01*
X0393499Y0191276D01*
X0393800Y0190687D01*
X0394188Y0190152D01*
X0394656Y0189684D01*
X0395190Y0189296D01*
X0395779Y0188995D01*
X0396408Y0188791D01*
X0397061Y0188688D01*
X0397192Y0188688D01*
X0397192Y0192688D01*
X0393192Y0192688D01*
X0393395Y0191597D02*
X0296444Y0191597D01*
X0295802Y0190399D02*
X0394009Y0190399D01*
X0395378Y0189200D02*
X0294308Y0189200D01*
X0290334Y0189200D02*
X0284721Y0189200D01*
X0286015Y0190399D02*
X0288839Y0190399D01*
X0288197Y0191597D02*
X0286656Y0191597D01*
X0282721Y0191597D02*
X0281921Y0191597D01*
X0281921Y0190399D02*
X0282721Y0190399D01*
X0282721Y0189200D02*
X0281921Y0189200D01*
X0279920Y0189200D02*
X0274721Y0189200D01*
X0276015Y0190399D02*
X0278626Y0190399D01*
X0277985Y0191597D02*
X0276656Y0191597D01*
X0276843Y0193994D02*
X0277799Y0193994D01*
X0278204Y0195193D02*
X0276438Y0195193D01*
X0275575Y0196391D02*
X0279067Y0196391D01*
X0281921Y0196391D02*
X0282721Y0196391D01*
X0282721Y0195193D02*
X0281921Y0195193D01*
X0281921Y0193994D02*
X0282721Y0193994D01*
X0285390Y0199987D02*
X0289251Y0199987D01*
X0288368Y0201185D02*
X0286274Y0201185D01*
X0286721Y0202384D02*
X0287921Y0202384D01*
X0287921Y0203582D02*
X0286721Y0203582D01*
X0286404Y0204781D02*
X0288238Y0204781D01*
X0288938Y0205979D02*
X0285704Y0205979D01*
X0284070Y0207178D02*
X0290572Y0207178D01*
X0280572Y0207178D02*
X0274070Y0207178D01*
X0275704Y0205979D02*
X0278938Y0205979D01*
X0278238Y0204781D02*
X0276404Y0204781D01*
X0276721Y0203582D02*
X0277921Y0203582D01*
X0277921Y0202384D02*
X0276721Y0202384D01*
X0276274Y0201185D02*
X0278368Y0201185D01*
X0279251Y0199987D02*
X0275390Y0199987D01*
X0272721Y0196391D02*
X0271921Y0196391D01*
X0271921Y0195193D02*
X0272721Y0195193D01*
X0272721Y0193994D02*
X0271921Y0193994D01*
X0271921Y0191597D02*
X0272721Y0191597D01*
X0272721Y0190399D02*
X0271921Y0190399D01*
X0271921Y0189200D02*
X0272721Y0189200D01*
X0269920Y0189200D02*
X0264721Y0189200D01*
X0266015Y0190399D02*
X0268626Y0190399D01*
X0267985Y0191597D02*
X0266656Y0191597D01*
X0266843Y0193994D02*
X0267799Y0193994D01*
X0268204Y0195193D02*
X0266438Y0195193D01*
X0265575Y0196391D02*
X0269067Y0196391D01*
X0269251Y0199987D02*
X0265390Y0199987D01*
X0266274Y0201185D02*
X0268368Y0201185D01*
X0267921Y0202384D02*
X0266721Y0202384D01*
X0266721Y0203582D02*
X0267921Y0203582D01*
X0268238Y0204781D02*
X0266404Y0204781D01*
X0265704Y0205979D02*
X0268938Y0205979D01*
X0270572Y0207178D02*
X0264070Y0207178D01*
X0260572Y0207178D02*
X0254070Y0207178D01*
X0255704Y0205979D02*
X0258938Y0205979D01*
X0258238Y0204781D02*
X0256404Y0204781D01*
X0256721Y0203582D02*
X0257921Y0203582D01*
X0257921Y0202384D02*
X0256721Y0202384D01*
X0256274Y0201185D02*
X0258368Y0201185D01*
X0259251Y0199987D02*
X0255390Y0199987D01*
X0255575Y0196391D02*
X0259067Y0196391D01*
X0258204Y0195193D02*
X0256438Y0195193D01*
X0256843Y0193994D02*
X0257799Y0193994D01*
X0257985Y0191597D02*
X0256656Y0191597D01*
X0256015Y0190399D02*
X0258626Y0190399D01*
X0259920Y0189200D02*
X0254721Y0189200D01*
X0248626Y0190399D02*
X0243077Y0190399D01*
X0241234Y0190399D02*
X0154360Y0190399D01*
X0154360Y0191597D02*
X0247985Y0191597D01*
X0245555Y0186803D02*
X0396392Y0186803D01*
X0396596Y0186888D02*
X0395126Y0186279D01*
X0394001Y0185154D01*
X0393392Y0183683D01*
X0393392Y0182092D01*
X0394001Y0180622D01*
X0395126Y0179497D01*
X0396596Y0178888D01*
X0398187Y0178888D01*
X0399658Y0179497D01*
X0400783Y0180622D01*
X0401392Y0182092D01*
X0401392Y0183683D01*
X0400783Y0185154D01*
X0399658Y0186279D01*
X0398187Y0186888D01*
X0396596Y0186888D01*
X0398392Y0186803D02*
X0406392Y0186803D01*
X0406596Y0186888D02*
X0405126Y0186279D01*
X0404001Y0185154D01*
X0403392Y0183683D01*
X0403392Y0182092D01*
X0404001Y0180622D01*
X0405126Y0179497D01*
X0406596Y0178888D01*
X0408187Y0178888D01*
X0409658Y0179497D01*
X0410783Y0180622D01*
X0411392Y0182092D01*
X0411392Y0183683D01*
X0410783Y0185154D01*
X0409658Y0186279D01*
X0408187Y0186888D01*
X0406596Y0186888D01*
X0408392Y0186803D02*
X0490343Y0186803D01*
X0491380Y0185605D02*
X0410332Y0185605D01*
X0411092Y0184406D02*
X0552705Y0184406D01*
X0553009Y0185138D02*
X0552400Y0183668D01*
X0552400Y0182076D01*
X0553009Y0180606D01*
X0554134Y0179481D01*
X0555604Y0178872D01*
X0557195Y0178872D01*
X0558665Y0179481D01*
X0559791Y0180606D01*
X0560400Y0182076D01*
X0560400Y0183668D01*
X0559791Y0185138D01*
X0558665Y0186263D01*
X0557195Y0186872D01*
X0555604Y0186872D01*
X0554134Y0186263D01*
X0553009Y0185138D01*
X0553475Y0185605D02*
X0506317Y0185605D01*
X0506114Y0185402D02*
X0507239Y0186527D01*
X0507848Y0187998D01*
X0507848Y0189589D01*
X0507239Y0191059D01*
X0506114Y0192184D01*
X0504644Y0192793D01*
X0503053Y0192793D01*
X0501583Y0192184D01*
X0500457Y0191059D01*
X0499848Y0189589D01*
X0499848Y0187998D01*
X0500457Y0186527D01*
X0501583Y0185402D01*
X0503053Y0184793D01*
X0504644Y0184793D01*
X0506114Y0185402D01*
X0507354Y0186803D02*
X0555438Y0186803D01*
X0557362Y0186803D02*
X0570755Y0186803D01*
X0570665Y0186626D02*
X0570461Y0185997D01*
X0570357Y0185344D01*
X0570357Y0185214D01*
X0574357Y0185214D01*
X0574357Y0189214D01*
X0574227Y0189214D01*
X0573574Y0189110D01*
X0572945Y0188906D01*
X0572356Y0188606D01*
X0571821Y0188217D01*
X0571354Y0187750D01*
X0570965Y0187215D01*
X0570665Y0186626D01*
X0570398Y0185605D02*
X0559324Y0185605D01*
X0560094Y0184406D02*
X0570401Y0184406D01*
X0570357Y0184683D02*
X0570461Y0184030D01*
X0570665Y0183402D01*
X0570965Y0182812D01*
X0571354Y0182278D01*
X0571821Y0181810D01*
X0572356Y0181422D01*
X0572945Y0181121D01*
X0573574Y0180917D01*
X0574227Y0180814D01*
X0574357Y0180814D01*
X0574357Y0184814D01*
X0570357Y0184814D01*
X0570357Y0184683D01*
X0570764Y0183208D02*
X0560400Y0183208D01*
X0560372Y0182009D02*
X0571622Y0182009D01*
X0574357Y0182009D02*
X0574757Y0182009D01*
X0574757Y0180814D02*
X0574888Y0180814D01*
X0575541Y0180917D01*
X0576169Y0181121D01*
X0576758Y0181422D01*
X0577293Y0181810D01*
X0577761Y0182278D01*
X0578149Y0182812D01*
X0578449Y0183402D01*
X0578654Y0184030D01*
X0578757Y0184683D01*
X0578757Y0184814D01*
X0574757Y0184814D01*
X0574757Y0185214D01*
X0574357Y0185214D01*
X0574357Y0184814D01*
X0574757Y0184814D01*
X0574757Y0180814D01*
X0575353Y0179014D02*
X0573761Y0179014D01*
X0572291Y0178405D01*
X0571166Y0177280D01*
X0570557Y0175809D01*
X0570557Y0174218D01*
X0571166Y0172748D01*
X0572291Y0171623D01*
X0573761Y0171014D01*
X0575353Y0171014D01*
X0576823Y0171623D01*
X0577948Y0172748D01*
X0578557Y0174218D01*
X0578557Y0175809D01*
X0577948Y0177280D01*
X0576823Y0178405D01*
X0575353Y0179014D01*
X0576802Y0178414D02*
X0582312Y0178414D01*
X0582291Y0178405D02*
X0583761Y0179014D01*
X0585353Y0179014D01*
X0586823Y0178405D01*
X0587948Y0177280D01*
X0588557Y0175809D01*
X0588557Y0174218D01*
X0587948Y0172748D01*
X0586823Y0171623D01*
X0585353Y0171014D01*
X0583761Y0171014D01*
X0582291Y0171623D01*
X0581166Y0172748D01*
X0580557Y0174218D01*
X0580557Y0175809D01*
X0581166Y0177280D01*
X0582291Y0178405D01*
X0581139Y0177215D02*
X0577975Y0177215D01*
X0578471Y0176017D02*
X0580643Y0176017D01*
X0580557Y0174818D02*
X0578557Y0174818D01*
X0578309Y0173620D02*
X0580805Y0173620D01*
X0581493Y0172421D02*
X0577621Y0172421D01*
X0575857Y0171223D02*
X0583258Y0171223D01*
X0585857Y0171223D02*
X0683256Y0171223D01*
X0683256Y0172421D02*
X0587621Y0172421D01*
X0588309Y0173620D02*
X0683256Y0173620D01*
X0683256Y0174818D02*
X0588557Y0174818D01*
X0588471Y0176017D02*
X0683256Y0176017D01*
X0683256Y0177215D02*
X0587975Y0177215D01*
X0586802Y0178414D02*
X0683256Y0178414D01*
X0683256Y0179612D02*
X0558796Y0179612D01*
X0559875Y0180811D02*
X0683256Y0180811D01*
X0683256Y0182009D02*
X0577492Y0182009D01*
X0578351Y0183208D02*
X0683256Y0183208D01*
X0683256Y0184406D02*
X0578713Y0184406D01*
X0578757Y0185214D02*
X0578757Y0185344D01*
X0578654Y0185997D01*
X0578449Y0186626D01*
X0578149Y0187215D01*
X0577761Y0187750D01*
X0577293Y0188217D01*
X0576758Y0188606D01*
X0576169Y0188906D01*
X0575541Y0189110D01*
X0574888Y0189214D01*
X0574757Y0189214D01*
X0574757Y0185214D01*
X0578757Y0185214D01*
X0578716Y0185605D02*
X0683256Y0185605D01*
X0683256Y0186803D02*
X0578359Y0186803D01*
X0577509Y0188002D02*
X0683256Y0188002D01*
X0683256Y0189200D02*
X0574973Y0189200D01*
X0574757Y0189200D02*
X0574357Y0189200D01*
X0574141Y0189200D02*
X0507848Y0189200D01*
X0507848Y0188002D02*
X0571605Y0188002D01*
X0574357Y0188002D02*
X0574757Y0188002D01*
X0574757Y0186803D02*
X0574357Y0186803D01*
X0574357Y0185605D02*
X0574757Y0185605D01*
X0574757Y0184406D02*
X0574357Y0184406D01*
X0574357Y0183208D02*
X0574757Y0183208D01*
X0572312Y0178414D02*
X0337551Y0178414D01*
X0337948Y0178811D02*
X0338557Y0180281D01*
X0338557Y0181872D01*
X0337948Y0183343D01*
X0336823Y0184468D01*
X0335353Y0185077D01*
X0333761Y0185077D01*
X0332291Y0184468D01*
X0331166Y0183343D01*
X0330557Y0181872D01*
X0330557Y0180281D01*
X0331166Y0178811D01*
X0332291Y0177686D01*
X0333761Y0177077D01*
X0335353Y0177077D01*
X0336823Y0177686D01*
X0337948Y0178811D01*
X0338280Y0179612D02*
X0395011Y0179612D01*
X0393923Y0180811D02*
X0338557Y0180811D01*
X0338500Y0182009D02*
X0393426Y0182009D01*
X0393392Y0183208D02*
X0338004Y0183208D01*
X0336885Y0184406D02*
X0393691Y0184406D01*
X0394452Y0185605D02*
X0245216Y0185605D01*
X0244270Y0184406D02*
X0332230Y0184406D01*
X0331110Y0183208D02*
X0154360Y0183208D01*
X0154360Y0184406D02*
X0240041Y0184406D01*
X0239095Y0185605D02*
X0154360Y0185605D01*
X0154360Y0186803D02*
X0238756Y0186803D01*
X0238849Y0188002D02*
X0154360Y0188002D01*
X0154360Y0189200D02*
X0239447Y0189200D01*
X0240372Y0202384D02*
X0247921Y0202384D01*
X0247921Y0203582D02*
X0241494Y0203582D01*
X0241990Y0204781D02*
X0248238Y0204781D01*
X0248938Y0205979D02*
X0242018Y0205979D01*
X0241680Y0207178D02*
X0250572Y0207178D01*
X0248368Y0201185D02*
X0154360Y0201185D01*
X0154360Y0199987D02*
X0249251Y0199987D01*
X0236065Y0202384D02*
X0154360Y0202384D01*
X0154360Y0203582D02*
X0234943Y0203582D01*
X0234447Y0204781D02*
X0154360Y0204781D01*
X0154360Y0205979D02*
X0234419Y0205979D01*
X0234757Y0207178D02*
X0154360Y0207178D01*
X0154360Y0208376D02*
X0235617Y0208376D01*
X0244665Y0214369D02*
X0395447Y0214369D01*
X0395447Y0215567D02*
X0244232Y0215567D01*
X0243368Y0216766D02*
X0395810Y0216766D01*
X0396662Y0217964D02*
X0311841Y0217964D01*
X0311841Y0219163D02*
X0476869Y0219163D01*
X0477383Y0219376D02*
X0475913Y0218767D01*
X0474788Y0217642D01*
X0474179Y0216172D01*
X0474179Y0214580D01*
X0474788Y0213110D01*
X0475913Y0211985D01*
X0477383Y0211376D01*
X0478975Y0211376D01*
X0480445Y0211985D01*
X0481570Y0213110D01*
X0482179Y0214580D01*
X0482179Y0216172D01*
X0481570Y0217642D01*
X0480445Y0218767D01*
X0478975Y0219376D01*
X0477383Y0219376D01*
X0477383Y0221376D02*
X0478975Y0221376D01*
X0480445Y0221985D01*
X0481570Y0223110D01*
X0482179Y0224580D01*
X0482179Y0226172D01*
X0481570Y0227642D01*
X0480445Y0228767D01*
X0478975Y0229376D01*
X0477383Y0229376D01*
X0475913Y0228767D01*
X0474788Y0227642D01*
X0474179Y0226172D01*
X0474179Y0224580D01*
X0474788Y0223110D01*
X0475913Y0221985D01*
X0477383Y0221376D01*
X0476939Y0221560D02*
X0401371Y0221560D01*
X0401713Y0221701D02*
X0402838Y0222827D01*
X0403447Y0224297D01*
X0403447Y0225888D01*
X0402838Y0227358D01*
X0401713Y0228484D01*
X0400242Y0229093D01*
X0398651Y0229093D01*
X0397181Y0228484D01*
X0396056Y0227358D01*
X0395447Y0225888D01*
X0395447Y0224297D01*
X0396056Y0222827D01*
X0397181Y0221701D01*
X0398651Y0221093D01*
X0400242Y0221093D01*
X0401713Y0221701D01*
X0402770Y0222758D02*
X0475140Y0222758D01*
X0474437Y0223957D02*
X0403306Y0223957D01*
X0403447Y0225156D02*
X0474179Y0225156D01*
X0474255Y0226354D02*
X0403254Y0226354D01*
X0402644Y0227553D02*
X0474751Y0227553D01*
X0475897Y0228751D02*
X0401067Y0228751D01*
X0397827Y0228751D02*
X0311841Y0228751D01*
X0311841Y0227553D02*
X0396250Y0227553D01*
X0395640Y0226354D02*
X0311841Y0226354D01*
X0311841Y0225156D02*
X0395447Y0225156D01*
X0395588Y0223957D02*
X0311841Y0223957D01*
X0311841Y0222758D02*
X0396124Y0222758D01*
X0397523Y0221560D02*
X0311841Y0221560D01*
X0311841Y0220361D02*
X0683256Y0220361D01*
X0683256Y0219163D02*
X0479489Y0219163D01*
X0481248Y0217964D02*
X0553544Y0217964D01*
X0553693Y0218113D02*
X0552568Y0216988D01*
X0551959Y0215518D01*
X0551959Y0213927D01*
X0552568Y0212457D01*
X0553693Y0211331D01*
X0555163Y0210722D01*
X0556754Y0210722D01*
X0558224Y0211331D01*
X0559350Y0212457D01*
X0559959Y0213927D01*
X0559959Y0215518D01*
X0559350Y0216988D01*
X0558224Y0218113D01*
X0556754Y0218722D01*
X0555163Y0218722D01*
X0553693Y0218113D01*
X0552476Y0216766D02*
X0481933Y0216766D01*
X0482179Y0215567D02*
X0551979Y0215567D01*
X0551959Y0214369D02*
X0482092Y0214369D01*
X0481595Y0213170D02*
X0531679Y0213170D01*
X0531895Y0213260D02*
X0530760Y0212790D01*
X0529891Y0211921D01*
X0529421Y0210786D01*
X0529421Y0209557D01*
X0529891Y0208421D01*
X0530760Y0207553D01*
X0531895Y0207082D01*
X0533124Y0207082D01*
X0534260Y0207553D01*
X0535129Y0208421D01*
X0535599Y0209557D01*
X0535599Y0210786D01*
X0535129Y0211921D01*
X0534260Y0212790D01*
X0533124Y0213260D01*
X0531895Y0213260D01*
X0533341Y0213170D02*
X0552272Y0213170D01*
X0553052Y0211972D02*
X0535078Y0211972D01*
X0535599Y0210773D02*
X0555040Y0210773D01*
X0556877Y0210773D02*
X0608161Y0210773D01*
X0608161Y0210786D02*
X0608161Y0209557D01*
X0608631Y0208421D01*
X0609500Y0207553D01*
X0610636Y0207082D01*
X0611864Y0207082D01*
X0613000Y0207553D01*
X0613869Y0208421D01*
X0614339Y0209557D01*
X0614339Y0210786D01*
X0613869Y0211921D01*
X0613000Y0212790D01*
X0611864Y0213260D01*
X0610636Y0213260D01*
X0609500Y0212790D01*
X0608631Y0211921D01*
X0608161Y0210786D01*
X0608161Y0209575D02*
X0535599Y0209575D01*
X0535083Y0208376D02*
X0608676Y0208376D01*
X0610405Y0207178D02*
X0533355Y0207178D01*
X0531665Y0207178D02*
X0454615Y0207178D01*
X0456343Y0208376D02*
X0529936Y0208376D01*
X0529421Y0209575D02*
X0456859Y0209575D01*
X0456859Y0210773D02*
X0529421Y0210773D01*
X0529942Y0211972D02*
X0480413Y0211972D01*
X0475945Y0211972D02*
X0456338Y0211972D01*
X0454601Y0213170D02*
X0474763Y0213170D01*
X0474267Y0214369D02*
X0403447Y0214369D01*
X0403447Y0215567D02*
X0474179Y0215567D01*
X0474425Y0216766D02*
X0403083Y0216766D01*
X0402232Y0217964D02*
X0475111Y0217964D01*
X0479419Y0221560D02*
X0553464Y0221560D01*
X0553693Y0221331D02*
X0555163Y0220722D01*
X0556754Y0220722D01*
X0558224Y0221331D01*
X0559350Y0222457D01*
X0559959Y0223927D01*
X0559959Y0225518D01*
X0559350Y0226988D01*
X0558224Y0228113D01*
X0556754Y0228722D01*
X0555163Y0228722D01*
X0553693Y0228113D01*
X0552568Y0226988D01*
X0551959Y0225518D01*
X0551959Y0223927D01*
X0552568Y0222457D01*
X0553693Y0221331D01*
X0552443Y0222758D02*
X0481218Y0222758D01*
X0481921Y0223957D02*
X0551959Y0223957D01*
X0551959Y0225156D02*
X0482179Y0225156D01*
X0482104Y0226354D02*
X0552305Y0226354D01*
X0553132Y0227553D02*
X0481607Y0227553D01*
X0480461Y0228751D02*
X0579593Y0228751D01*
X0580265Y0229030D02*
X0578795Y0228421D01*
X0577670Y0227295D01*
X0577061Y0225825D01*
X0577061Y0224234D01*
X0577670Y0222764D01*
X0578795Y0221638D01*
X0580265Y0221030D01*
X0581857Y0221030D01*
X0583327Y0221638D01*
X0584452Y0222764D01*
X0585061Y0224234D01*
X0585061Y0225825D01*
X0584452Y0227295D01*
X0583327Y0228421D01*
X0581857Y0229030D01*
X0580265Y0229030D01*
X0582529Y0228751D02*
X0683256Y0228751D01*
X0683256Y0227553D02*
X0584195Y0227553D01*
X0584842Y0226354D02*
X0683256Y0226354D01*
X0683256Y0225156D02*
X0585061Y0225156D01*
X0584946Y0223957D02*
X0683256Y0223957D01*
X0683256Y0222758D02*
X0584447Y0222758D01*
X0583137Y0221560D02*
X0683256Y0221560D01*
X0683256Y0217964D02*
X0583783Y0217964D01*
X0583327Y0218421D02*
X0581857Y0219030D01*
X0580265Y0219030D01*
X0578795Y0218421D01*
X0577670Y0217295D01*
X0577061Y0215825D01*
X0577061Y0214234D01*
X0577670Y0212764D01*
X0578795Y0211638D01*
X0580265Y0211030D01*
X0581857Y0211030D01*
X0583327Y0211638D01*
X0584452Y0212764D01*
X0585061Y0214234D01*
X0585061Y0215825D01*
X0584452Y0217295D01*
X0583327Y0218421D01*
X0584671Y0216766D02*
X0683256Y0216766D01*
X0683256Y0215567D02*
X0585061Y0215567D01*
X0585061Y0214369D02*
X0683256Y0214369D01*
X0683256Y0213170D02*
X0612081Y0213170D01*
X0610419Y0213170D02*
X0584621Y0213170D01*
X0583660Y0211972D02*
X0608682Y0211972D01*
X0613818Y0211972D02*
X0683256Y0211972D01*
X0683256Y0210773D02*
X0614339Y0210773D01*
X0614339Y0209575D02*
X0683256Y0209575D01*
X0683256Y0208376D02*
X0613824Y0208376D01*
X0612095Y0207178D02*
X0683256Y0207178D01*
X0683256Y0196391D02*
X0497295Y0196391D01*
X0496033Y0195193D02*
X0683256Y0195193D01*
X0683256Y0191597D02*
X0506701Y0191597D01*
X0507513Y0190399D02*
X0683256Y0190399D01*
X0683256Y0170024D02*
X0559208Y0170024D01*
X0558665Y0169481D02*
X0559791Y0170606D01*
X0560400Y0172076D01*
X0560400Y0173668D01*
X0559791Y0175138D01*
X0558665Y0176263D01*
X0557195Y0176872D01*
X0555604Y0176872D01*
X0554134Y0176263D01*
X0553009Y0175138D01*
X0552400Y0173668D01*
X0552400Y0172076D01*
X0553009Y0170606D01*
X0554134Y0169481D01*
X0555604Y0168872D01*
X0557195Y0168872D01*
X0558665Y0169481D01*
X0560046Y0171223D02*
X0573258Y0171223D01*
X0571493Y0172421D02*
X0560400Y0172421D01*
X0560400Y0173620D02*
X0570805Y0173620D01*
X0570557Y0174818D02*
X0559923Y0174818D01*
X0558912Y0176017D02*
X0570643Y0176017D01*
X0571139Y0177215D02*
X0335687Y0177215D01*
X0335353Y0175077D02*
X0333761Y0175077D01*
X0332291Y0174468D01*
X0331166Y0173343D01*
X0330557Y0171872D01*
X0330557Y0170281D01*
X0331166Y0168811D01*
X0332291Y0167686D01*
X0333761Y0167077D01*
X0335353Y0167077D01*
X0336823Y0167686D01*
X0337948Y0168811D01*
X0338557Y0170281D01*
X0338557Y0171872D01*
X0337948Y0173343D01*
X0336823Y0174468D01*
X0335353Y0175077D01*
X0335977Y0174818D02*
X0552876Y0174818D01*
X0552400Y0173620D02*
X0337671Y0173620D01*
X0338330Y0172421D02*
X0552400Y0172421D01*
X0552753Y0171223D02*
X0338557Y0171223D01*
X0338451Y0170024D02*
X0553591Y0170024D01*
X0553887Y0176017D02*
X0213432Y0176017D01*
X0213666Y0176582D02*
X0213148Y0175332D01*
X0212192Y0174375D01*
X0210942Y0173858D01*
X0209589Y0173858D01*
X0208340Y0174375D01*
X0207383Y0175332D01*
X0206866Y0176582D01*
X0206866Y0177934D01*
X0207383Y0179184D01*
X0208340Y0180140D01*
X0209589Y0180658D01*
X0210942Y0180658D01*
X0212192Y0180140D01*
X0213148Y0179184D01*
X0213666Y0177934D01*
X0213666Y0176582D01*
X0213666Y0177215D02*
X0333428Y0177215D01*
X0331563Y0178414D02*
X0213467Y0178414D01*
X0212720Y0179612D02*
X0330834Y0179612D01*
X0330557Y0180811D02*
X0182878Y0180811D01*
X0182281Y0181058D02*
X0180770Y0181058D01*
X0179373Y0180479D01*
X0178304Y0179410D01*
X0177726Y0178014D01*
X0177726Y0176502D01*
X0178304Y0175105D01*
X0179373Y0174036D01*
X0180770Y0173458D01*
X0182281Y0173458D01*
X0183678Y0174036D01*
X0184747Y0175105D01*
X0185326Y0176502D01*
X0185326Y0178014D01*
X0184747Y0179410D01*
X0183678Y0180479D01*
X0182281Y0181058D01*
X0180173Y0180811D02*
X0154360Y0180811D01*
X0154360Y0182009D02*
X0330614Y0182009D01*
X0333137Y0174818D02*
X0326466Y0174818D01*
X0326758Y0174669D02*
X0326169Y0174969D01*
X0325541Y0175173D01*
X0324888Y0175277D01*
X0324757Y0175277D01*
X0324757Y0171277D01*
X0324357Y0171277D01*
X0324357Y0175277D01*
X0324227Y0175277D01*
X0323574Y0175173D01*
X0322945Y0174969D01*
X0322356Y0174669D01*
X0321821Y0174280D01*
X0321354Y0173813D01*
X0320965Y0173278D01*
X0320665Y0172689D01*
X0320461Y0172060D01*
X0320357Y0171407D01*
X0320357Y0171277D01*
X0324357Y0171277D01*
X0324357Y0170877D01*
X0320357Y0170877D01*
X0320357Y0170746D01*
X0320461Y0170093D01*
X0320665Y0169465D01*
X0320965Y0168875D01*
X0321354Y0168341D01*
X0321821Y0167873D01*
X0322356Y0167485D01*
X0322945Y0167184D01*
X0323574Y0166980D01*
X0324227Y0166877D01*
X0324357Y0166877D01*
X0324357Y0170877D01*
X0324757Y0170877D01*
X0324757Y0171277D01*
X0328757Y0171277D01*
X0328757Y0171407D01*
X0328654Y0172060D01*
X0328449Y0172689D01*
X0328149Y0173278D01*
X0327761Y0173813D01*
X0327293Y0174280D01*
X0326758Y0174669D01*
X0327901Y0173620D02*
X0331443Y0173620D01*
X0330784Y0172421D02*
X0328536Y0172421D01*
X0328757Y0170877D02*
X0324757Y0170877D01*
X0324757Y0166877D01*
X0324888Y0166877D01*
X0325541Y0166980D01*
X0326169Y0167184D01*
X0326758Y0167485D01*
X0327293Y0167873D01*
X0327761Y0168341D01*
X0328149Y0168875D01*
X0328449Y0169465D01*
X0328654Y0170093D01*
X0328757Y0170746D01*
X0328757Y0170877D01*
X0328631Y0170024D02*
X0330664Y0170024D01*
X0330557Y0171223D02*
X0324757Y0171223D01*
X0324357Y0171223D02*
X0272856Y0171223D01*
X0272654Y0171424D02*
X0271258Y0172003D01*
X0269746Y0172003D01*
X0268349Y0171424D01*
X0267280Y0170355D01*
X0266702Y0168959D01*
X0266702Y0167447D01*
X0267280Y0166050D01*
X0268349Y0164981D01*
X0269746Y0164403D01*
X0271258Y0164403D01*
X0272654Y0164981D01*
X0273723Y0166050D01*
X0274302Y0167447D01*
X0274302Y0168959D01*
X0273723Y0170355D01*
X0272654Y0171424D01*
X0273861Y0170024D02*
X0320483Y0170024D01*
X0321001Y0168825D02*
X0274302Y0168825D01*
X0274302Y0167627D02*
X0322160Y0167627D01*
X0324357Y0167627D02*
X0324757Y0167627D01*
X0324757Y0168825D02*
X0324357Y0168825D01*
X0324357Y0170024D02*
X0324757Y0170024D01*
X0324757Y0172421D02*
X0324357Y0172421D01*
X0324357Y0173620D02*
X0324757Y0173620D01*
X0324757Y0174818D02*
X0324357Y0174818D01*
X0322648Y0174818D02*
X0212634Y0174818D01*
X0207897Y0174818D02*
X0184460Y0174818D01*
X0185124Y0176017D02*
X0207100Y0176017D01*
X0206866Y0177215D02*
X0185326Y0177215D01*
X0185160Y0178414D02*
X0207064Y0178414D01*
X0207812Y0179612D02*
X0184545Y0179612D01*
X0178506Y0179612D02*
X0154360Y0179612D01*
X0154360Y0178414D02*
X0177891Y0178414D01*
X0177726Y0177215D02*
X0154360Y0177215D01*
X0154360Y0176017D02*
X0177927Y0176017D01*
X0178591Y0174818D02*
X0154360Y0174818D01*
X0154360Y0173620D02*
X0180379Y0173620D01*
X0182672Y0173620D02*
X0321213Y0173620D01*
X0320578Y0172421D02*
X0154360Y0172421D01*
X0154360Y0171223D02*
X0268148Y0171223D01*
X0267143Y0170024D02*
X0154360Y0170024D01*
X0154360Y0168825D02*
X0266702Y0168825D01*
X0266702Y0167627D02*
X0154360Y0167627D01*
X0154360Y0166428D02*
X0267124Y0166428D01*
X0268101Y0165230D02*
X0154360Y0165230D01*
X0154360Y0164031D02*
X0196562Y0164031D01*
X0196922Y0164392D02*
X0195966Y0163436D01*
X0195448Y0162186D01*
X0195448Y0160834D01*
X0195966Y0159584D01*
X0196922Y0158627D01*
X0198172Y0158110D01*
X0199525Y0158110D01*
X0200774Y0158627D01*
X0201731Y0159584D01*
X0202248Y0160834D01*
X0202248Y0162186D01*
X0201731Y0163436D01*
X0200774Y0164392D01*
X0199525Y0164910D01*
X0198172Y0164910D01*
X0196922Y0164392D01*
X0195716Y0162833D02*
X0154360Y0162833D01*
X0154360Y0161634D02*
X0195448Y0161634D01*
X0195613Y0160436D02*
X0154360Y0160436D01*
X0154360Y0159237D02*
X0196313Y0159237D01*
X0199509Y0157530D02*
X0198992Y0156281D01*
X0198992Y0154928D01*
X0199509Y0153678D01*
X0200466Y0152722D01*
X0201715Y0152204D01*
X0203068Y0152204D01*
X0203359Y0152325D01*
X0202659Y0151625D01*
X0202141Y0150375D01*
X0202141Y0149023D01*
X0202659Y0147773D01*
X0203615Y0146816D01*
X0204865Y0146299D01*
X0206218Y0146299D01*
X0207467Y0146816D01*
X0208424Y0147773D01*
X0208941Y0149023D01*
X0208941Y0150375D01*
X0208424Y0151625D01*
X0207467Y0152581D01*
X0206218Y0153099D01*
X0204865Y0153099D01*
X0204574Y0152978D01*
X0205274Y0153678D01*
X0205792Y0154928D01*
X0205792Y0156281D01*
X0205274Y0157530D01*
X0204318Y0158487D01*
X0203068Y0159004D01*
X0201715Y0159004D01*
X0200466Y0158487D01*
X0199509Y0157530D01*
X0200018Y0158039D02*
X0154360Y0158039D01*
X0154360Y0156840D02*
X0199224Y0156840D01*
X0198992Y0155642D02*
X0154360Y0155642D01*
X0154360Y0154443D02*
X0199192Y0154443D01*
X0199943Y0153245D02*
X0154360Y0153245D01*
X0154360Y0152046D02*
X0203081Y0152046D01*
X0202337Y0150848D02*
X0154360Y0150848D01*
X0154360Y0149649D02*
X0202141Y0149649D01*
X0202378Y0148451D02*
X0154360Y0148451D01*
X0154360Y0147252D02*
X0203180Y0147252D01*
X0207903Y0147252D02*
X0345219Y0147252D01*
X0345219Y0147636D02*
X0345219Y0146045D01*
X0345827Y0144575D01*
X0346953Y0143450D01*
X0348423Y0142841D01*
X0350014Y0142841D01*
X0351484Y0143450D01*
X0352610Y0144575D01*
X0353218Y0146045D01*
X0353218Y0147636D01*
X0352610Y0149106D01*
X0351484Y0150232D01*
X0350014Y0150841D01*
X0348423Y0150841D01*
X0346953Y0150232D01*
X0345827Y0149106D01*
X0345219Y0147636D01*
X0345556Y0148451D02*
X0208705Y0148451D01*
X0208941Y0149649D02*
X0346370Y0149649D01*
X0345219Y0146054D02*
X0154360Y0146054D01*
X0154360Y0144855D02*
X0327659Y0144855D01*
X0327370Y0144736D02*
X0326245Y0143610D01*
X0325636Y0142140D01*
X0325636Y0140549D01*
X0326245Y0139079D01*
X0327370Y0137953D01*
X0328840Y0137344D01*
X0330431Y0137344D01*
X0331902Y0137953D01*
X0333027Y0139079D01*
X0333636Y0140549D01*
X0333636Y0142140D01*
X0333027Y0143610D01*
X0331902Y0144736D01*
X0330431Y0145344D01*
X0328840Y0145344D01*
X0327370Y0144736D01*
X0326291Y0143657D02*
X0154360Y0143657D01*
X0154360Y0142458D02*
X0213107Y0142458D01*
X0213133Y0142469D02*
X0211883Y0141951D01*
X0210927Y0140995D01*
X0210409Y0139745D01*
X0210409Y0138393D01*
X0210927Y0137143D01*
X0211883Y0136187D01*
X0213133Y0135669D01*
X0214485Y0135669D01*
X0215735Y0136187D01*
X0216691Y0137143D01*
X0217209Y0138393D01*
X0217209Y0139745D01*
X0216691Y0140995D01*
X0215735Y0141951D01*
X0214485Y0142469D01*
X0213133Y0142469D01*
X0214511Y0142458D02*
X0325768Y0142458D01*
X0325636Y0141260D02*
X0216427Y0141260D01*
X0217078Y0140061D02*
X0325838Y0140061D01*
X0326461Y0138863D02*
X0217209Y0138863D01*
X0216907Y0137664D02*
X0295730Y0137664D01*
X0295966Y0137762D02*
X0294496Y0137153D01*
X0293371Y0136028D01*
X0292762Y0134557D01*
X0292762Y0132966D01*
X0293371Y0131496D01*
X0294496Y0130371D01*
X0295966Y0129762D01*
X0297557Y0129762D01*
X0299028Y0130371D01*
X0300153Y0131496D01*
X0300762Y0132966D01*
X0300762Y0134557D01*
X0300153Y0136028D01*
X0299028Y0137153D01*
X0297557Y0137762D01*
X0295966Y0137762D01*
X0297793Y0137664D02*
X0305730Y0137664D01*
X0305966Y0137762D02*
X0304496Y0137153D01*
X0303371Y0136028D01*
X0302762Y0134557D01*
X0302762Y0132966D01*
X0303371Y0131496D01*
X0304496Y0130371D01*
X0305966Y0129762D01*
X0307557Y0129762D01*
X0309028Y0130371D01*
X0310153Y0131496D01*
X0310762Y0132966D01*
X0310762Y0134557D01*
X0310153Y0136028D01*
X0309028Y0137153D01*
X0307557Y0137762D01*
X0305966Y0137762D01*
X0307793Y0137664D02*
X0328068Y0137664D01*
X0328840Y0135344D02*
X0327370Y0134736D01*
X0326245Y0133610D01*
X0325636Y0132140D01*
X0325636Y0130549D01*
X0326245Y0129079D01*
X0327370Y0127953D01*
X0328840Y0127344D01*
X0330431Y0127344D01*
X0331902Y0127953D01*
X0333027Y0129079D01*
X0333636Y0130549D01*
X0333636Y0132140D01*
X0333027Y0133610D01*
X0331902Y0134736D01*
X0330431Y0135344D01*
X0328840Y0135344D01*
X0328654Y0135267D02*
X0310468Y0135267D01*
X0310762Y0134069D02*
X0326703Y0134069D01*
X0325938Y0132870D02*
X0310722Y0132870D01*
X0310226Y0131672D02*
X0325636Y0131672D01*
X0325667Y0130473D02*
X0309130Y0130473D01*
X0304394Y0130473D02*
X0299130Y0130473D01*
X0300226Y0131672D02*
X0303298Y0131672D01*
X0302802Y0132870D02*
X0300722Y0132870D01*
X0300762Y0134069D02*
X0302762Y0134069D01*
X0303056Y0135267D02*
X0300468Y0135267D01*
X0299715Y0136466D02*
X0303809Y0136466D01*
X0309715Y0136466D02*
X0345219Y0136466D01*
X0345219Y0136045D02*
X0345827Y0134575D01*
X0346953Y0133450D01*
X0348423Y0132841D01*
X0350014Y0132841D01*
X0351484Y0133450D01*
X0352610Y0134575D01*
X0353218Y0136045D01*
X0353218Y0137636D01*
X0352610Y0139106D01*
X0351484Y0140232D01*
X0350014Y0140841D01*
X0348423Y0140841D01*
X0346953Y0140232D01*
X0345827Y0139106D01*
X0345219Y0137636D01*
X0345219Y0136045D01*
X0345541Y0135267D02*
X0330618Y0135267D01*
X0332569Y0134069D02*
X0346334Y0134069D01*
X0348351Y0132870D02*
X0333333Y0132870D01*
X0333636Y0131672D02*
X0372308Y0131672D01*
X0372411Y0131921D02*
X0371941Y0130786D01*
X0371941Y0129557D01*
X0372411Y0128421D01*
X0373280Y0127553D01*
X0374415Y0127082D01*
X0375644Y0127082D01*
X0376779Y0127553D01*
X0377648Y0128421D01*
X0378118Y0129557D01*
X0378118Y0130786D01*
X0377648Y0131921D01*
X0376779Y0132790D01*
X0375644Y0133260D01*
X0374415Y0133260D01*
X0373280Y0132790D01*
X0372411Y0131921D01*
X0373473Y0132870D02*
X0350086Y0132870D01*
X0352103Y0134069D02*
X0683256Y0134069D01*
X0683256Y0135267D02*
X0352896Y0135267D01*
X0353218Y0136466D02*
X0683256Y0136466D01*
X0683256Y0137664D02*
X0353207Y0137664D01*
X0352710Y0138863D02*
X0683256Y0138863D01*
X0683256Y0140061D02*
X0351655Y0140061D01*
X0351692Y0143657D02*
X0683256Y0143657D01*
X0683256Y0144855D02*
X0352726Y0144855D01*
X0353218Y0146054D02*
X0683256Y0146054D01*
X0683256Y0147252D02*
X0353218Y0147252D01*
X0352881Y0148451D02*
X0683256Y0148451D01*
X0683256Y0149649D02*
X0352067Y0149649D01*
X0345711Y0144855D02*
X0331613Y0144855D01*
X0332980Y0143657D02*
X0346745Y0143657D01*
X0346782Y0140061D02*
X0333434Y0140061D01*
X0333636Y0141260D02*
X0683256Y0141260D01*
X0683256Y0142458D02*
X0333504Y0142458D01*
X0332811Y0138863D02*
X0345727Y0138863D01*
X0345230Y0137664D02*
X0331203Y0137664D01*
X0333604Y0130473D02*
X0371941Y0130473D01*
X0372057Y0129275D02*
X0333108Y0129275D01*
X0332024Y0128076D02*
X0372756Y0128076D01*
X0377303Y0128076D02*
X0451496Y0128076D01*
X0451151Y0128421D02*
X0452020Y0127553D01*
X0453155Y0127082D01*
X0454384Y0127082D01*
X0455519Y0127553D01*
X0456388Y0128421D01*
X0456859Y0129557D01*
X0456859Y0130786D01*
X0456388Y0131921D01*
X0455519Y0132790D01*
X0454384Y0133260D01*
X0453155Y0133260D01*
X0452020Y0132790D01*
X0451151Y0131921D01*
X0450681Y0130786D01*
X0450681Y0129557D01*
X0451151Y0128421D01*
X0450798Y0129275D02*
X0378002Y0129275D01*
X0378118Y0130473D02*
X0450681Y0130473D01*
X0451048Y0131672D02*
X0377752Y0131672D01*
X0376586Y0132870D02*
X0452213Y0132870D01*
X0455326Y0132870D02*
X0530954Y0132870D01*
X0530760Y0132790D02*
X0529891Y0131921D01*
X0529421Y0130786D01*
X0529421Y0129557D01*
X0529891Y0128421D01*
X0530760Y0127553D01*
X0531895Y0127082D01*
X0533124Y0127082D01*
X0534260Y0127553D01*
X0535129Y0128421D01*
X0535599Y0129557D01*
X0535599Y0130786D01*
X0535129Y0131921D01*
X0534260Y0132790D01*
X0533124Y0133260D01*
X0531895Y0133260D01*
X0530760Y0132790D01*
X0529788Y0131672D02*
X0456492Y0131672D01*
X0456859Y0130473D02*
X0529421Y0130473D01*
X0529538Y0129275D02*
X0456742Y0129275D01*
X0456043Y0128076D02*
X0530237Y0128076D01*
X0534783Y0128076D02*
X0608977Y0128076D01*
X0608631Y0128421D02*
X0609500Y0127553D01*
X0610636Y0127082D01*
X0611864Y0127082D01*
X0613000Y0127553D01*
X0613869Y0128421D01*
X0614339Y0129557D01*
X0614339Y0130786D01*
X0613869Y0131921D01*
X0613000Y0132790D01*
X0611864Y0133260D01*
X0610636Y0133260D01*
X0609500Y0132790D01*
X0608631Y0131921D01*
X0608161Y0130786D01*
X0608161Y0129557D01*
X0608631Y0128421D01*
X0608278Y0129275D02*
X0535482Y0129275D01*
X0535599Y0130473D02*
X0608161Y0130473D01*
X0608528Y0131672D02*
X0535232Y0131672D01*
X0534066Y0132870D02*
X0609694Y0132870D01*
X0612806Y0132870D02*
X0683256Y0132870D01*
X0683256Y0131672D02*
X0613972Y0131672D01*
X0614339Y0130473D02*
X0683256Y0130473D01*
X0683256Y0129275D02*
X0614222Y0129275D01*
X0613523Y0128076D02*
X0683256Y0128076D01*
X0683256Y0126878D02*
X0154360Y0126878D01*
X0154360Y0128076D02*
X0175537Y0128076D01*
X0175609Y0128046D02*
X0177121Y0128046D01*
X0178517Y0128625D01*
X0179586Y0129694D01*
X0180165Y0131090D01*
X0180165Y0132602D01*
X0179586Y0133999D01*
X0178517Y0135068D01*
X0177121Y0135646D01*
X0175609Y0135646D01*
X0174212Y0135068D01*
X0173143Y0133999D01*
X0172565Y0132602D01*
X0172565Y0131090D01*
X0173143Y0129694D01*
X0174212Y0128625D01*
X0175609Y0128046D01*
X0177193Y0128076D02*
X0327247Y0128076D01*
X0326164Y0129275D02*
X0179168Y0129275D01*
X0179909Y0130473D02*
X0294394Y0130473D01*
X0293298Y0131672D02*
X0180165Y0131672D01*
X0180054Y0132870D02*
X0292802Y0132870D01*
X0292762Y0134069D02*
X0179516Y0134069D01*
X0178036Y0135267D02*
X0293056Y0135267D01*
X0293809Y0136466D02*
X0216014Y0136466D01*
X0211604Y0136466D02*
X0154360Y0136466D01*
X0154360Y0137664D02*
X0210711Y0137664D01*
X0210409Y0138863D02*
X0154360Y0138863D01*
X0154360Y0140061D02*
X0210540Y0140061D01*
X0211192Y0141260D02*
X0154360Y0141260D01*
X0154360Y0135267D02*
X0174694Y0135267D01*
X0173214Y0134069D02*
X0154360Y0134069D01*
X0154360Y0132870D02*
X0172676Y0132870D01*
X0172565Y0131672D02*
X0154360Y0131672D01*
X0154360Y0130473D02*
X0172821Y0130473D01*
X0173562Y0129275D02*
X0154360Y0129275D01*
X0154360Y0125679D02*
X0683256Y0125679D01*
X0683256Y0124481D02*
X0154360Y0124481D01*
X0154360Y0123282D02*
X0683256Y0123282D01*
X0683256Y0122084D02*
X0577252Y0122084D01*
X0577121Y0122214D02*
X0574870Y0123147D01*
X0572433Y0123147D01*
X0570182Y0122214D01*
X0568459Y0120491D01*
X0567527Y0118240D01*
X0567527Y0115803D01*
X0568459Y0113552D01*
X0570182Y0111829D01*
X0572433Y0110897D01*
X0574870Y0110897D01*
X0577121Y0111829D01*
X0578844Y0113552D01*
X0579777Y0115803D01*
X0579777Y0118240D01*
X0578844Y0120491D01*
X0577121Y0122214D01*
X0578450Y0120885D02*
X0683256Y0120885D01*
X0683256Y0119687D02*
X0579177Y0119687D01*
X0579674Y0118488D02*
X0683256Y0118488D01*
X0683256Y0117289D02*
X0579777Y0117289D01*
X0579777Y0116091D02*
X0658547Y0116091D01*
X0658765Y0116309D02*
X0657042Y0114586D01*
X0656109Y0112334D01*
X0656109Y0109898D01*
X0657042Y0107647D01*
X0658765Y0105924D01*
X0661016Y0104991D01*
X0663453Y0104991D01*
X0665704Y0105924D01*
X0667427Y0107647D01*
X0668359Y0109898D01*
X0668359Y0112334D01*
X0667427Y0114586D01*
X0665704Y0116309D01*
X0663453Y0117241D01*
X0661016Y0117241D01*
X0658765Y0116309D01*
X0657349Y0114892D02*
X0579399Y0114892D01*
X0578903Y0113694D02*
X0656672Y0113694D01*
X0656176Y0112495D02*
X0577787Y0112495D01*
X0575836Y0111297D02*
X0656109Y0111297D01*
X0656109Y0110098D02*
X0494682Y0110098D01*
X0494444Y0109861D02*
X0496167Y0111584D01*
X0497099Y0113835D01*
X0497099Y0116271D01*
X0496167Y0118523D01*
X0494444Y0120246D01*
X0492193Y0121178D01*
X0489756Y0121178D01*
X0487505Y0120246D01*
X0485782Y0118523D01*
X0484849Y0116271D01*
X0484849Y0113835D01*
X0485782Y0111584D01*
X0487505Y0109861D01*
X0489756Y0108928D01*
X0492193Y0108928D01*
X0494444Y0109861D01*
X0495880Y0111297D02*
X0571467Y0111297D01*
X0569516Y0112495D02*
X0496545Y0112495D01*
X0497041Y0113694D02*
X0568400Y0113694D01*
X0567904Y0114892D02*
X0497099Y0114892D01*
X0497099Y0116091D02*
X0567527Y0116091D01*
X0567527Y0117289D02*
X0496678Y0117289D01*
X0496181Y0118488D02*
X0567629Y0118488D01*
X0568126Y0119687D02*
X0495003Y0119687D01*
X0492900Y0120885D02*
X0568853Y0120885D01*
X0570051Y0122084D02*
X0154360Y0122084D01*
X0154360Y0120885D02*
X0410308Y0120885D01*
X0411016Y0121178D02*
X0408765Y0120246D01*
X0407042Y0118523D01*
X0406109Y0116271D01*
X0406109Y0113835D01*
X0407042Y0111584D01*
X0408765Y0109861D01*
X0411016Y0108928D01*
X0413453Y0108928D01*
X0415704Y0109861D01*
X0417427Y0111584D01*
X0418359Y0113835D01*
X0418359Y0116271D01*
X0417427Y0118523D01*
X0415704Y0120246D01*
X0413453Y0121178D01*
X0411016Y0121178D01*
X0414160Y0120885D02*
X0489048Y0120885D01*
X0486946Y0119687D02*
X0416263Y0119687D01*
X0417441Y0118488D02*
X0485768Y0118488D01*
X0485271Y0117289D02*
X0417938Y0117289D01*
X0418359Y0116091D02*
X0484849Y0116091D01*
X0484849Y0114892D02*
X0418359Y0114892D01*
X0418301Y0113694D02*
X0484908Y0113694D01*
X0485404Y0112495D02*
X0417804Y0112495D01*
X0417140Y0111297D02*
X0486069Y0111297D01*
X0487267Y0110098D02*
X0415942Y0110098D01*
X0408527Y0110098D02*
X0350698Y0110098D01*
X0350498Y0109615D02*
X0351430Y0111866D01*
X0351430Y0114303D01*
X0350498Y0116554D01*
X0348775Y0118277D01*
X0346523Y0119210D01*
X0344087Y0119210D01*
X0341836Y0118277D01*
X0340113Y0116554D01*
X0339180Y0114303D01*
X0339180Y0111866D01*
X0340113Y0109615D01*
X0341836Y0107892D01*
X0344087Y0106960D01*
X0346523Y0106960D01*
X0348775Y0107892D01*
X0350498Y0109615D01*
X0349782Y0108900D02*
X0656523Y0108900D01*
X0657019Y0107701D02*
X0348314Y0107701D01*
X0351194Y0111297D02*
X0407328Y0111297D01*
X0406664Y0112495D02*
X0351430Y0112495D01*
X0351430Y0113694D02*
X0406168Y0113694D01*
X0406109Y0114892D02*
X0351186Y0114892D01*
X0350690Y0116091D02*
X0406109Y0116091D01*
X0406531Y0117289D02*
X0349762Y0117289D01*
X0348266Y0118488D02*
X0407027Y0118488D01*
X0408206Y0119687D02*
X0154360Y0119687D01*
X0154360Y0118488D02*
X0342345Y0118488D01*
X0340848Y0117289D02*
X0154360Y0117289D01*
X0154360Y0116091D02*
X0339921Y0116091D01*
X0339424Y0114892D02*
X0154360Y0114892D01*
X0154360Y0113694D02*
X0339180Y0113694D01*
X0339180Y0112495D02*
X0154360Y0112495D01*
X0154360Y0111297D02*
X0156730Y0111297D01*
X0157227Y0111795D02*
X0156116Y0110684D01*
X0155515Y0109232D01*
X0155515Y0107660D01*
X0156116Y0106209D01*
X0157227Y0105097D01*
X0158679Y0104496D01*
X0160251Y0104496D01*
X0161702Y0105097D01*
X0162814Y0106209D01*
X0163415Y0107660D01*
X0163415Y0109232D01*
X0162814Y0110684D01*
X0161702Y0111795D01*
X0160251Y0112396D01*
X0158679Y0112396D01*
X0157227Y0111795D01*
X0155874Y0110098D02*
X0154360Y0110098D01*
X0154360Y0108900D02*
X0155515Y0108900D01*
X0155515Y0107701D02*
X0154360Y0107701D01*
X0154360Y0106503D02*
X0155994Y0106503D01*
X0157020Y0105304D02*
X0154360Y0105304D01*
X0154360Y0104106D02*
X0683256Y0104106D01*
X0683256Y0105304D02*
X0664209Y0105304D01*
X0666283Y0106503D02*
X0683256Y0106503D01*
X0683256Y0107701D02*
X0667449Y0107701D01*
X0667946Y0108900D02*
X0683256Y0108900D01*
X0683256Y0110098D02*
X0668359Y0110098D01*
X0668359Y0111297D02*
X0683256Y0111297D01*
X0683256Y0112495D02*
X0668293Y0112495D01*
X0667796Y0113694D02*
X0683256Y0113694D01*
X0683256Y0114892D02*
X0667120Y0114892D01*
X0665921Y0116091D02*
X0683256Y0116091D01*
X0683256Y0102907D02*
X0154360Y0102907D01*
X0154360Y0101709D02*
X0683256Y0101709D01*
X0683256Y0100510D02*
X0154360Y0100510D01*
X0154360Y0099312D02*
X0683256Y0099312D01*
X0683256Y0098113D02*
X0154360Y0098113D01*
X0154360Y0096915D02*
X0683256Y0096915D01*
X0683256Y0095716D02*
X0154360Y0095716D01*
X0154360Y0094518D02*
X0683256Y0094518D01*
X0683256Y0093319D02*
X0583468Y0093319D01*
X0582744Y0093619D02*
X0580307Y0093619D01*
X0578056Y0092687D01*
X0576333Y0090964D01*
X0575401Y0088712D01*
X0575401Y0086276D01*
X0576333Y0084025D01*
X0578056Y0082302D01*
X0580307Y0081369D01*
X0582744Y0081369D01*
X0584995Y0082302D01*
X0586718Y0084025D01*
X0587651Y0086276D01*
X0587651Y0088712D01*
X0586718Y0090964D01*
X0584995Y0092687D01*
X0582744Y0093619D01*
X0579583Y0093319D02*
X0337405Y0093319D01*
X0336681Y0093619D02*
X0334244Y0093619D01*
X0331993Y0092687D01*
X0330270Y0090964D01*
X0329338Y0088712D01*
X0329338Y0086276D01*
X0330270Y0084025D01*
X0331993Y0082302D01*
X0334244Y0081369D01*
X0336681Y0081369D01*
X0338932Y0082302D01*
X0340655Y0084025D01*
X0341588Y0086276D01*
X0341588Y0088712D01*
X0340655Y0090964D01*
X0338932Y0092687D01*
X0336681Y0093619D01*
X0333520Y0093319D02*
X0278350Y0093319D01*
X0277626Y0093619D02*
X0275189Y0093619D01*
X0272938Y0092687D01*
X0271215Y0090964D01*
X0270282Y0088712D01*
X0270282Y0086276D01*
X0271215Y0084025D01*
X0272938Y0082302D01*
X0275189Y0081369D01*
X0277626Y0081369D01*
X0279877Y0082302D01*
X0281600Y0084025D01*
X0282532Y0086276D01*
X0282532Y0088712D01*
X0281600Y0090964D01*
X0279877Y0092687D01*
X0277626Y0093619D01*
X0274465Y0093319D02*
X0154360Y0093319D01*
X0154360Y0092121D02*
X0272372Y0092121D01*
X0271198Y0090922D02*
X0154360Y0090922D01*
X0154360Y0089724D02*
X0270701Y0089724D01*
X0270282Y0088525D02*
X0154360Y0088525D01*
X0154360Y0087327D02*
X0270282Y0087327D01*
X0270344Y0086128D02*
X0154360Y0086128D01*
X0154360Y0084930D02*
X0270840Y0084930D01*
X0271508Y0083731D02*
X0154360Y0083731D01*
X0154360Y0082533D02*
X0272707Y0082533D01*
X0280108Y0082533D02*
X0331762Y0082533D01*
X0330563Y0083731D02*
X0281307Y0083731D01*
X0281975Y0084930D02*
X0329895Y0084930D01*
X0329399Y0086128D02*
X0282471Y0086128D01*
X0282532Y0087327D02*
X0329338Y0087327D01*
X0329338Y0088525D02*
X0282532Y0088525D01*
X0282114Y0089724D02*
X0329756Y0089724D01*
X0330253Y0090922D02*
X0281617Y0090922D01*
X0280443Y0092121D02*
X0331427Y0092121D01*
X0339498Y0092121D02*
X0577490Y0092121D01*
X0576316Y0090922D02*
X0454581Y0090922D01*
X0455074Y0090718D02*
X0452823Y0091651D01*
X0450386Y0091651D01*
X0448135Y0090718D01*
X0446412Y0088995D01*
X0445479Y0086744D01*
X0445479Y0084307D01*
X0446412Y0082056D01*
X0448135Y0080333D01*
X0450386Y0079401D01*
X0452823Y0079401D01*
X0455074Y0080333D01*
X0456797Y0082056D01*
X0457729Y0084307D01*
X0457729Y0086744D01*
X0456797Y0088995D01*
X0455074Y0090718D01*
X0456068Y0089724D02*
X0575819Y0089724D01*
X0575401Y0088525D02*
X0456991Y0088525D01*
X0457488Y0087327D02*
X0575401Y0087327D01*
X0575462Y0086128D02*
X0457729Y0086128D01*
X0457729Y0084930D02*
X0575958Y0084930D01*
X0576626Y0083731D02*
X0457491Y0083731D01*
X0456994Y0082533D02*
X0577825Y0082533D01*
X0585226Y0082533D02*
X0683256Y0082533D01*
X0683256Y0083731D02*
X0586425Y0083731D01*
X0587093Y0084930D02*
X0683256Y0084930D01*
X0683256Y0086128D02*
X0587589Y0086128D01*
X0587651Y0087327D02*
X0683256Y0087327D01*
X0683256Y0088525D02*
X0587651Y0088525D01*
X0587232Y0089724D02*
X0683256Y0089724D01*
X0683256Y0090922D02*
X0586735Y0090922D01*
X0585561Y0092121D02*
X0683256Y0092121D01*
X0683256Y0081334D02*
X0456075Y0081334D01*
X0454597Y0080136D02*
X0683256Y0080136D01*
X0683256Y0078937D02*
X0154360Y0078937D01*
X0154360Y0077739D02*
X0683256Y0077739D01*
X0683256Y0076540D02*
X0154360Y0076540D01*
X0154360Y0075342D02*
X0683256Y0075342D01*
X0660260Y0105304D02*
X0161909Y0105304D01*
X0162936Y0106503D02*
X0658185Y0106503D01*
X0683256Y0150848D02*
X0208746Y0150848D01*
X0208002Y0152046D02*
X0683256Y0152046D01*
X0683256Y0153245D02*
X0204841Y0153245D01*
X0205591Y0154443D02*
X0683256Y0154443D01*
X0683256Y0155642D02*
X0205792Y0155642D01*
X0205560Y0156840D02*
X0683256Y0156840D01*
X0683256Y0158039D02*
X0613486Y0158039D01*
X0613869Y0158421D02*
X0614339Y0159557D01*
X0614339Y0160786D01*
X0613869Y0161921D01*
X0613000Y0162790D01*
X0611864Y0163260D01*
X0610636Y0163260D01*
X0609500Y0162790D01*
X0608631Y0161921D01*
X0608161Y0160786D01*
X0608161Y0159557D01*
X0608631Y0158421D01*
X0609500Y0157553D01*
X0610636Y0157082D01*
X0611864Y0157082D01*
X0613000Y0157553D01*
X0613869Y0158421D01*
X0614207Y0159237D02*
X0683256Y0159237D01*
X0683256Y0160436D02*
X0614339Y0160436D01*
X0613987Y0161634D02*
X0683256Y0161634D01*
X0683256Y0162833D02*
X0612896Y0162833D01*
X0609604Y0162833D02*
X0534156Y0162833D01*
X0534260Y0162790D02*
X0533124Y0163260D01*
X0531895Y0163260D01*
X0530760Y0162790D01*
X0529891Y0161921D01*
X0529421Y0160786D01*
X0529421Y0159557D01*
X0529891Y0158421D01*
X0530760Y0157553D01*
X0531895Y0157082D01*
X0533124Y0157082D01*
X0534260Y0157553D01*
X0535129Y0158421D01*
X0535599Y0159557D01*
X0535599Y0160786D01*
X0535129Y0161921D01*
X0534260Y0162790D01*
X0535247Y0161634D02*
X0608513Y0161634D01*
X0608161Y0160436D02*
X0535599Y0160436D01*
X0535466Y0159237D02*
X0608293Y0159237D01*
X0609014Y0158039D02*
X0534746Y0158039D01*
X0530274Y0158039D02*
X0456006Y0158039D01*
X0456388Y0158421D02*
X0456859Y0159557D01*
X0456859Y0160786D01*
X0456388Y0161921D01*
X0455519Y0162790D01*
X0454384Y0163260D01*
X0453155Y0163260D01*
X0452020Y0162790D01*
X0451151Y0161921D01*
X0450681Y0160786D01*
X0450681Y0159557D01*
X0451151Y0158421D01*
X0452020Y0157553D01*
X0453155Y0157082D01*
X0454384Y0157082D01*
X0455519Y0157553D01*
X0456388Y0158421D01*
X0456726Y0159237D02*
X0529553Y0159237D01*
X0529421Y0160436D02*
X0456859Y0160436D01*
X0456507Y0161634D02*
X0529772Y0161634D01*
X0530864Y0162833D02*
X0455416Y0162833D01*
X0452124Y0162833D02*
X0376676Y0162833D01*
X0376779Y0162790D02*
X0375644Y0163260D01*
X0374415Y0163260D01*
X0373280Y0162790D01*
X0372411Y0161921D01*
X0371941Y0160786D01*
X0371941Y0159557D01*
X0372411Y0158421D01*
X0373280Y0157553D01*
X0374415Y0157082D01*
X0375644Y0157082D01*
X0376779Y0157553D01*
X0377648Y0158421D01*
X0378118Y0159557D01*
X0378118Y0160786D01*
X0377648Y0161921D01*
X0376779Y0162790D01*
X0377767Y0161634D02*
X0451032Y0161634D01*
X0450681Y0160436D02*
X0378118Y0160436D01*
X0377986Y0159237D02*
X0450813Y0159237D01*
X0451534Y0158039D02*
X0377266Y0158039D01*
X0372793Y0158039D02*
X0204765Y0158039D01*
X0201384Y0159237D02*
X0372073Y0159237D01*
X0371941Y0160436D02*
X0202084Y0160436D01*
X0202248Y0161634D02*
X0372292Y0161634D01*
X0373383Y0162833D02*
X0201981Y0162833D01*
X0201135Y0164031D02*
X0683256Y0164031D01*
X0683256Y0165230D02*
X0272903Y0165230D01*
X0273880Y0166428D02*
X0683256Y0166428D01*
X0683256Y0167627D02*
X0336681Y0167627D01*
X0337954Y0168825D02*
X0683256Y0168825D01*
X0683256Y0229950D02*
X0311841Y0229950D01*
X0311841Y0231148D02*
X0660599Y0231148D01*
X0661016Y0230975D02*
X0663453Y0230975D01*
X0665704Y0231908D01*
X0667427Y0233631D01*
X0668359Y0235882D01*
X0668359Y0238319D01*
X0667427Y0240570D01*
X0665704Y0242293D01*
X0663453Y0243225D01*
X0661016Y0243225D01*
X0658765Y0242293D01*
X0657042Y0240570D01*
X0656109Y0238319D01*
X0656109Y0235882D01*
X0657042Y0233631D01*
X0658765Y0231908D01*
X0661016Y0230975D01*
X0663869Y0231148D02*
X0683256Y0231148D01*
X0683256Y0232347D02*
X0666142Y0232347D01*
X0667341Y0233545D02*
X0683256Y0233545D01*
X0683256Y0234744D02*
X0667888Y0234744D01*
X0668359Y0235942D02*
X0683256Y0235942D01*
X0683256Y0237141D02*
X0668359Y0237141D01*
X0668351Y0238339D02*
X0683256Y0238339D01*
X0683256Y0239538D02*
X0667854Y0239538D01*
X0667261Y0240736D02*
X0683256Y0240736D01*
X0683256Y0241935D02*
X0666062Y0241935D01*
X0663675Y0243133D02*
X0683256Y0243133D01*
X0683256Y0244332D02*
X0311841Y0244332D01*
X0311841Y0245530D02*
X0683256Y0245530D01*
X0683256Y0246729D02*
X0311841Y0246729D01*
X0311841Y0247927D02*
X0683256Y0247927D01*
X0683256Y0249126D02*
X0633004Y0249126D01*
X0631957Y0248692D02*
X0634208Y0249624D01*
X0635931Y0251347D01*
X0636863Y0253599D01*
X0636863Y0256035D01*
X0635931Y0258286D01*
X0634208Y0260009D01*
X0631957Y0260942D01*
X0629520Y0260942D01*
X0627269Y0260009D01*
X0625546Y0258286D01*
X0624613Y0256035D01*
X0624613Y0253599D01*
X0625546Y0251347D01*
X0627269Y0249624D01*
X0629520Y0248692D01*
X0631957Y0248692D01*
X0634908Y0250324D02*
X0683256Y0250324D01*
X0683256Y0251523D02*
X0636003Y0251523D01*
X0636500Y0252721D02*
X0683256Y0252721D01*
X0683256Y0253920D02*
X0636863Y0253920D01*
X0636863Y0255118D02*
X0683256Y0255118D01*
X0683256Y0256317D02*
X0636747Y0256317D01*
X0636250Y0257515D02*
X0683256Y0257515D01*
X0683256Y0258714D02*
X0635503Y0258714D01*
X0634305Y0259912D02*
X0683256Y0259912D01*
X0683256Y0261111D02*
X0564531Y0261111D01*
X0564728Y0261307D02*
X0565337Y0262777D01*
X0565337Y0264368D01*
X0564728Y0265839D01*
X0563602Y0266964D01*
X0562132Y0267573D01*
X0560541Y0267573D01*
X0559071Y0266964D01*
X0557946Y0265839D01*
X0557337Y0264368D01*
X0557337Y0262777D01*
X0557946Y0261307D01*
X0559071Y0260182D01*
X0560541Y0259573D01*
X0562132Y0259573D01*
X0563602Y0260182D01*
X0564728Y0261307D01*
X0565143Y0262309D02*
X0683256Y0262309D01*
X0683256Y0263508D02*
X0565337Y0263508D01*
X0565197Y0264706D02*
X0683256Y0264706D01*
X0683256Y0265905D02*
X0564661Y0265905D01*
X0563266Y0267103D02*
X0683256Y0267103D01*
X0683256Y0268302D02*
X0494282Y0268302D01*
X0494570Y0268590D02*
X0493445Y0267465D01*
X0491975Y0266856D01*
X0490383Y0266856D01*
X0488913Y0267465D01*
X0487788Y0268590D01*
X0487179Y0270061D01*
X0487179Y0271652D01*
X0487788Y0273122D01*
X0488913Y0274247D01*
X0490383Y0274856D01*
X0491975Y0274856D01*
X0493445Y0274247D01*
X0494570Y0273122D01*
X0495179Y0271652D01*
X0495179Y0270061D01*
X0494570Y0268590D01*
X0494947Y0269500D02*
X0683256Y0269500D01*
X0683256Y0270699D02*
X0564120Y0270699D01*
X0563602Y0270182D02*
X0564728Y0271307D01*
X0565337Y0272777D01*
X0565337Y0274368D01*
X0564728Y0275839D01*
X0563602Y0276964D01*
X0562132Y0277573D01*
X0560541Y0277573D01*
X0559071Y0276964D01*
X0557946Y0275839D01*
X0557337Y0274368D01*
X0557337Y0272777D01*
X0557946Y0271307D01*
X0559071Y0270182D01*
X0560541Y0269573D01*
X0562132Y0269573D01*
X0563602Y0270182D01*
X0564972Y0271897D02*
X0683256Y0271897D01*
X0683256Y0273096D02*
X0565337Y0273096D01*
X0565337Y0274294D02*
X0683256Y0274294D01*
X0683256Y0275493D02*
X0564871Y0275493D01*
X0563875Y0276691D02*
X0683256Y0276691D01*
X0683256Y0277890D02*
X0311841Y0277890D01*
X0311841Y0276691D02*
X0558798Y0276691D01*
X0557802Y0275493D02*
X0311841Y0275493D01*
X0311841Y0274294D02*
X0401730Y0274294D01*
X0401331Y0274129D02*
X0400205Y0273004D01*
X0399596Y0271534D01*
X0399596Y0269943D01*
X0400205Y0268472D01*
X0401331Y0267347D01*
X0402801Y0266738D01*
X0404392Y0266738D01*
X0405862Y0267347D01*
X0406987Y0268472D01*
X0407596Y0269943D01*
X0407596Y0271534D01*
X0406987Y0273004D01*
X0405862Y0274129D01*
X0404392Y0274738D01*
X0402801Y0274738D01*
X0401331Y0274129D01*
X0400297Y0273096D02*
X0311841Y0273096D01*
X0311841Y0271897D02*
X0399747Y0271897D01*
X0399596Y0270699D02*
X0335628Y0270699D01*
X0335400Y0270793D02*
X0333809Y0270793D01*
X0332339Y0270184D01*
X0331213Y0269059D01*
X0330604Y0267589D01*
X0330604Y0265998D01*
X0331213Y0264527D01*
X0332339Y0263402D01*
X0333809Y0262793D01*
X0335400Y0262793D01*
X0336870Y0263402D01*
X0337995Y0264527D01*
X0338604Y0265998D01*
X0338604Y0267589D01*
X0337995Y0269059D01*
X0336870Y0270184D01*
X0335400Y0270793D01*
X0333581Y0270699D02*
X0311841Y0270699D01*
X0311841Y0269500D02*
X0331655Y0269500D01*
X0330900Y0268302D02*
X0311841Y0268302D01*
X0311841Y0267103D02*
X0330604Y0267103D01*
X0330643Y0265905D02*
X0311841Y0265905D01*
X0311841Y0264706D02*
X0331139Y0264706D01*
X0332233Y0263508D02*
X0311841Y0263508D01*
X0311841Y0262309D02*
X0399918Y0262309D01*
X0400205Y0263004D02*
X0399596Y0261534D01*
X0399596Y0259943D01*
X0400205Y0258472D01*
X0401331Y0257347D01*
X0402801Y0256738D01*
X0404392Y0256738D01*
X0405862Y0257347D01*
X0406987Y0258472D01*
X0407596Y0259943D01*
X0407596Y0261534D01*
X0406987Y0263004D01*
X0405862Y0264129D01*
X0404392Y0264738D01*
X0402801Y0264738D01*
X0401331Y0264129D01*
X0400205Y0263004D01*
X0400709Y0263508D02*
X0336976Y0263508D01*
X0338069Y0264706D02*
X0402724Y0264706D01*
X0404469Y0264706D02*
X0490022Y0264706D01*
X0490383Y0264856D02*
X0488913Y0264247D01*
X0487788Y0263122D01*
X0487179Y0261652D01*
X0487179Y0260061D01*
X0487788Y0258590D01*
X0488913Y0257465D01*
X0490383Y0256856D01*
X0491975Y0256856D01*
X0493445Y0257465D01*
X0494570Y0258590D01*
X0495179Y0260061D01*
X0495179Y0261652D01*
X0494570Y0263122D01*
X0493445Y0264247D01*
X0491975Y0264856D01*
X0490383Y0264856D01*
X0492337Y0264706D02*
X0557477Y0264706D01*
X0557337Y0263508D02*
X0494184Y0263508D01*
X0494907Y0262309D02*
X0557530Y0262309D01*
X0558142Y0261111D02*
X0495179Y0261111D01*
X0495118Y0259912D02*
X0559721Y0259912D01*
X0562952Y0259912D02*
X0627172Y0259912D01*
X0625973Y0258714D02*
X0494621Y0258714D01*
X0493495Y0257515D02*
X0625226Y0257515D01*
X0624730Y0256317D02*
X0338604Y0256317D01*
X0338604Y0255998D02*
X0337995Y0254527D01*
X0336870Y0253402D01*
X0335400Y0252793D01*
X0333809Y0252793D01*
X0332339Y0253402D01*
X0331213Y0254527D01*
X0330604Y0255998D01*
X0330604Y0257589D01*
X0331213Y0259059D01*
X0332339Y0260184D01*
X0333809Y0260793D01*
X0335400Y0260793D01*
X0336870Y0260184D01*
X0337995Y0259059D01*
X0338604Y0257589D01*
X0338604Y0255998D01*
X0338240Y0255118D02*
X0624613Y0255118D01*
X0624613Y0253920D02*
X0337388Y0253920D01*
X0338604Y0257515D02*
X0401162Y0257515D01*
X0400105Y0258714D02*
X0338138Y0258714D01*
X0337142Y0259912D02*
X0399609Y0259912D01*
X0399596Y0261111D02*
X0311841Y0261111D01*
X0311841Y0259912D02*
X0332067Y0259912D01*
X0331070Y0258714D02*
X0311841Y0258714D01*
X0311841Y0257515D02*
X0330604Y0257515D01*
X0330604Y0256317D02*
X0311841Y0256317D01*
X0311841Y0255118D02*
X0330969Y0255118D01*
X0331821Y0253920D02*
X0311841Y0253920D01*
X0311841Y0252721D02*
X0624977Y0252721D01*
X0625473Y0251523D02*
X0311841Y0251523D01*
X0311841Y0250324D02*
X0626569Y0250324D01*
X0628473Y0249126D02*
X0311841Y0249126D01*
X0311841Y0243133D02*
X0660793Y0243133D01*
X0658406Y0241935D02*
X0311841Y0241935D01*
X0311841Y0240736D02*
X0657208Y0240736D01*
X0656614Y0239538D02*
X0311841Y0239538D01*
X0311841Y0238339D02*
X0656118Y0238339D01*
X0656109Y0237141D02*
X0311841Y0237141D01*
X0311841Y0235942D02*
X0656109Y0235942D01*
X0656581Y0234744D02*
X0311841Y0234744D01*
X0311841Y0233545D02*
X0657127Y0233545D01*
X0658326Y0232347D02*
X0311841Y0232347D01*
X0295292Y0196391D02*
X0395068Y0196391D01*
X0393875Y0195193D02*
X0296233Y0195193D01*
X0262721Y0195193D02*
X0261921Y0195193D01*
X0261921Y0196391D02*
X0262721Y0196391D01*
X0262721Y0193994D02*
X0261921Y0193994D01*
X0261921Y0191597D02*
X0262721Y0191597D01*
X0262721Y0190399D02*
X0261921Y0190399D01*
X0261921Y0189200D02*
X0262721Y0189200D01*
X0326954Y0167627D02*
X0332433Y0167627D01*
X0331160Y0168825D02*
X0328113Y0168825D01*
X0397192Y0189200D02*
X0397592Y0189200D01*
X0397592Y0190399D02*
X0397192Y0190399D01*
X0397192Y0191597D02*
X0397592Y0191597D01*
X0397592Y0193994D02*
X0397192Y0193994D01*
X0397192Y0195193D02*
X0397592Y0195193D01*
X0397592Y0196391D02*
X0397192Y0196391D01*
X0400332Y0185605D02*
X0404452Y0185605D01*
X0403691Y0184406D02*
X0401092Y0184406D01*
X0401392Y0183208D02*
X0403392Y0183208D01*
X0403426Y0182009D02*
X0401357Y0182009D01*
X0400861Y0180811D02*
X0403923Y0180811D01*
X0405011Y0179612D02*
X0399773Y0179612D01*
X0409773Y0179612D02*
X0554003Y0179612D01*
X0552924Y0180811D02*
X0410861Y0180811D01*
X0411357Y0182009D02*
X0552427Y0182009D01*
X0552400Y0183208D02*
X0411392Y0183208D01*
X0401983Y0211972D02*
X0451202Y0211972D01*
X0452938Y0213170D02*
X0402980Y0213170D01*
X0406030Y0257515D02*
X0488863Y0257515D01*
X0487737Y0258714D02*
X0407087Y0258714D01*
X0407584Y0259912D02*
X0487241Y0259912D01*
X0487179Y0261111D02*
X0407596Y0261111D01*
X0407275Y0262309D02*
X0487451Y0262309D01*
X0488174Y0263508D02*
X0406484Y0263508D01*
X0405274Y0267103D02*
X0489787Y0267103D01*
X0488077Y0268302D02*
X0406817Y0268302D01*
X0407413Y0269500D02*
X0487411Y0269500D01*
X0487179Y0270699D02*
X0407596Y0270699D01*
X0407446Y0271897D02*
X0487281Y0271897D01*
X0487777Y0273096D02*
X0406896Y0273096D01*
X0405463Y0274294D02*
X0489027Y0274294D01*
X0493331Y0274294D02*
X0557337Y0274294D01*
X0557337Y0273096D02*
X0494581Y0273096D01*
X0495077Y0271897D02*
X0557701Y0271897D01*
X0558554Y0270699D02*
X0495179Y0270699D01*
X0492571Y0267103D02*
X0559408Y0267103D01*
X0558012Y0265905D02*
X0338566Y0265905D01*
X0338604Y0267103D02*
X0401919Y0267103D01*
X0400376Y0268302D02*
X0338309Y0268302D01*
X0337554Y0269500D02*
X0399780Y0269500D01*
X0412842Y0283827D02*
X0414313Y0283219D01*
X0415904Y0283219D01*
X0417374Y0283827D01*
X0418499Y0284953D01*
X0419108Y0286423D01*
X0419108Y0288014D01*
X0418499Y0289484D01*
X0417374Y0290610D01*
X0415904Y0291218D01*
X0414313Y0291218D01*
X0412842Y0290610D01*
X0411717Y0289484D01*
X0411108Y0288014D01*
X0411108Y0286423D01*
X0411717Y0284953D01*
X0412842Y0283827D01*
X0412787Y0283883D02*
X0369330Y0283883D01*
X0369381Y0283933D02*
X0369851Y0285069D01*
X0369851Y0286298D01*
X0369381Y0287433D01*
X0368512Y0288302D01*
X0367376Y0288772D01*
X0366147Y0288772D01*
X0365012Y0288302D01*
X0364143Y0287433D01*
X0363673Y0286298D01*
X0363673Y0285069D01*
X0364143Y0283933D01*
X0365012Y0283064D01*
X0366147Y0282594D01*
X0367376Y0282594D01*
X0368512Y0283064D01*
X0369381Y0283933D01*
X0369851Y0285081D02*
X0411664Y0285081D01*
X0411168Y0286280D02*
X0369851Y0286280D01*
X0369335Y0287478D02*
X0411108Y0287478D01*
X0411383Y0288677D02*
X0367607Y0288677D01*
X0365917Y0288677D02*
X0350094Y0288677D01*
X0350368Y0288014D02*
X0349759Y0289484D01*
X0348634Y0290610D01*
X0347164Y0291218D01*
X0345572Y0291218D01*
X0344102Y0290610D01*
X0342977Y0289484D01*
X0342368Y0288014D01*
X0342368Y0286423D01*
X0342977Y0284953D01*
X0344102Y0283827D01*
X0345572Y0283219D01*
X0347164Y0283219D01*
X0348634Y0283827D01*
X0349759Y0284953D01*
X0350368Y0286423D01*
X0350368Y0288014D01*
X0350368Y0287478D02*
X0364188Y0287478D01*
X0363673Y0286280D02*
X0350309Y0286280D01*
X0349812Y0285081D02*
X0363673Y0285081D01*
X0364194Y0283883D02*
X0348689Y0283883D01*
X0344047Y0283883D02*
X0338689Y0283883D01*
X0338634Y0283827D02*
X0339759Y0284953D01*
X0340368Y0286423D01*
X0340368Y0288014D01*
X0339759Y0289484D01*
X0338634Y0290610D01*
X0337164Y0291218D01*
X0335572Y0291218D01*
X0334102Y0290610D01*
X0332977Y0289484D01*
X0332368Y0288014D01*
X0332368Y0286423D01*
X0332977Y0284953D01*
X0334102Y0283827D01*
X0335572Y0283219D01*
X0337164Y0283219D01*
X0338634Y0283827D01*
X0339812Y0285081D02*
X0342924Y0285081D01*
X0342427Y0286280D02*
X0340309Y0286280D01*
X0340368Y0287478D02*
X0342368Y0287478D01*
X0342643Y0288677D02*
X0340094Y0288677D01*
X0339368Y0289875D02*
X0343368Y0289875D01*
X0345223Y0291074D02*
X0337513Y0291074D01*
X0337352Y0293122D02*
X0337980Y0293326D01*
X0338569Y0293626D01*
X0339104Y0294015D01*
X0339572Y0294482D01*
X0339960Y0295017D01*
X0340260Y0295606D01*
X0340465Y0296235D01*
X0340568Y0296888D01*
X0340568Y0297018D01*
X0336568Y0297018D01*
X0336568Y0293019D01*
X0336699Y0293019D01*
X0337352Y0293122D01*
X0336568Y0293471D02*
X0336168Y0293471D01*
X0336168Y0293018D02*
X0336168Y0297018D01*
X0336568Y0297018D01*
X0336568Y0297419D01*
X0336168Y0297419D01*
X0336168Y0301418D01*
X0336038Y0301418D01*
X0335385Y0301315D01*
X0334756Y0301111D01*
X0334167Y0300811D01*
X0333632Y0300422D01*
X0333165Y0299955D01*
X0332776Y0299420D01*
X0332476Y0298831D01*
X0332272Y0298202D01*
X0332168Y0297549D01*
X0332168Y0297419D01*
X0336168Y0297419D01*
X0336168Y0297018D01*
X0332168Y0297018D01*
X0332168Y0296888D01*
X0332272Y0296235D01*
X0332476Y0295606D01*
X0332776Y0295017D01*
X0333165Y0294482D01*
X0333632Y0294015D01*
X0334167Y0293626D01*
X0334756Y0293326D01*
X0335385Y0293122D01*
X0336038Y0293019D01*
X0336168Y0293018D01*
X0336168Y0294669D02*
X0336568Y0294669D01*
X0336568Y0295868D02*
X0336168Y0295868D01*
X0336168Y0297066D02*
X0311841Y0297066D01*
X0311841Y0295868D02*
X0332391Y0295868D01*
X0333029Y0294669D02*
X0311841Y0294669D01*
X0311841Y0293471D02*
X0334472Y0293471D01*
X0335223Y0291074D02*
X0311841Y0291074D01*
X0311841Y0292272D02*
X0488918Y0292272D01*
X0489144Y0292046D02*
X0489679Y0291658D01*
X0490268Y0291358D01*
X0490896Y0291153D01*
X0491549Y0291050D01*
X0491680Y0291050D01*
X0491680Y0295050D01*
X0492080Y0295050D01*
X0492080Y0295450D01*
X0496080Y0295450D01*
X0496080Y0295581D01*
X0495976Y0296234D01*
X0495772Y0296862D01*
X0495472Y0297451D01*
X0495083Y0297986D01*
X0494616Y0298454D01*
X0494081Y0298842D01*
X0493492Y0299142D01*
X0492863Y0299347D01*
X0492210Y0299450D01*
X0492080Y0299450D01*
X0492080Y0295450D01*
X0491680Y0295450D01*
X0491680Y0299450D01*
X0491549Y0299450D01*
X0490896Y0299347D01*
X0490268Y0299142D01*
X0489679Y0298842D01*
X0489144Y0298454D01*
X0488676Y0297986D01*
X0488288Y0297451D01*
X0487988Y0296862D01*
X0487783Y0296234D01*
X0487680Y0295581D01*
X0487680Y0295450D01*
X0491680Y0295450D01*
X0491680Y0295050D01*
X0487680Y0295050D01*
X0487680Y0294919D01*
X0487783Y0294266D01*
X0487988Y0293638D01*
X0488288Y0293049D01*
X0488676Y0292514D01*
X0489144Y0292046D01*
X0488073Y0293471D02*
X0447658Y0293471D01*
X0447252Y0293064D02*
X0448121Y0293933D01*
X0448591Y0295069D01*
X0448591Y0296298D01*
X0448121Y0297433D01*
X0447252Y0298302D01*
X0446116Y0298772D01*
X0444888Y0298772D01*
X0443752Y0298302D01*
X0442883Y0297433D01*
X0442413Y0296298D01*
X0442413Y0295069D01*
X0442883Y0293933D01*
X0443752Y0293064D01*
X0444888Y0292594D01*
X0446116Y0292594D01*
X0447252Y0293064D01*
X0448425Y0294669D02*
X0487720Y0294669D01*
X0487725Y0295868D02*
X0448591Y0295868D01*
X0448273Y0297066D02*
X0488092Y0297066D01*
X0488955Y0298265D02*
X0447289Y0298265D01*
X0443715Y0298265D02*
X0419184Y0298265D01*
X0419205Y0298202D02*
X0419001Y0298831D01*
X0418700Y0299420D01*
X0418312Y0299955D01*
X0417844Y0300422D01*
X0417310Y0300811D01*
X0416721Y0301111D01*
X0416092Y0301315D01*
X0415439Y0301418D01*
X0415308Y0301418D01*
X0415308Y0297419D01*
X0414908Y0297419D01*
X0414908Y0301418D01*
X0414778Y0301418D01*
X0414125Y0301315D01*
X0413496Y0301111D01*
X0412907Y0300811D01*
X0412372Y0300422D01*
X0411905Y0299955D01*
X0411516Y0299420D01*
X0411216Y0298831D01*
X0411012Y0298202D01*
X0410908Y0297549D01*
X0410908Y0297419D01*
X0414908Y0297419D01*
X0414908Y0297018D01*
X0415308Y0297018D01*
X0415308Y0293019D01*
X0415439Y0293019D01*
X0416092Y0293122D01*
X0416721Y0293326D01*
X0417310Y0293626D01*
X0417844Y0294015D01*
X0418312Y0294482D01*
X0418700Y0295017D01*
X0419001Y0295606D01*
X0419205Y0296235D01*
X0419308Y0296888D01*
X0419308Y0297018D01*
X0415308Y0297018D01*
X0415308Y0297419D01*
X0419308Y0297419D01*
X0419308Y0297549D01*
X0419205Y0298202D01*
X0418669Y0299463D02*
X0467224Y0299463D01*
X0467320Y0299423D02*
X0468912Y0299423D01*
X0470382Y0300032D01*
X0471507Y0301157D01*
X0472116Y0302628D01*
X0472116Y0304219D01*
X0471507Y0305689D01*
X0470382Y0306814D01*
X0468912Y0307423D01*
X0467320Y0307423D01*
X0465850Y0306814D01*
X0464725Y0305689D01*
X0464116Y0304219D01*
X0464116Y0302628D01*
X0464725Y0301157D01*
X0465850Y0300032D01*
X0467320Y0299423D01*
X0469008Y0299463D02*
X0561154Y0299463D01*
X0561122Y0299420D02*
X0560822Y0298831D01*
X0560618Y0298202D01*
X0560515Y0297549D01*
X0560515Y0297419D01*
X0564514Y0297419D01*
X0564514Y0297018D01*
X0560515Y0297018D01*
X0560515Y0296888D01*
X0560618Y0296235D01*
X0560822Y0295606D01*
X0561122Y0295017D01*
X0561511Y0294482D01*
X0561978Y0294015D01*
X0562513Y0293626D01*
X0563102Y0293326D01*
X0563731Y0293122D01*
X0564384Y0293019D01*
X0564515Y0293018D01*
X0564515Y0297018D01*
X0564915Y0297018D01*
X0564915Y0297419D01*
X0564515Y0297419D01*
X0564515Y0301418D01*
X0564384Y0301418D01*
X0563731Y0301315D01*
X0563102Y0301111D01*
X0562513Y0300811D01*
X0561978Y0300422D01*
X0561511Y0299955D01*
X0561122Y0299420D01*
X0560638Y0298265D02*
X0524060Y0298265D01*
X0524023Y0298302D02*
X0522888Y0298772D01*
X0521659Y0298772D01*
X0520524Y0298302D01*
X0519655Y0297433D01*
X0519185Y0296298D01*
X0519185Y0295069D01*
X0519655Y0293933D01*
X0520524Y0293064D01*
X0521659Y0292594D01*
X0522888Y0292594D01*
X0524023Y0293064D01*
X0524892Y0293933D01*
X0525363Y0295069D01*
X0525363Y0296298D01*
X0524892Y0297433D01*
X0524023Y0298302D01*
X0525044Y0297066D02*
X0564514Y0297066D01*
X0564915Y0297066D02*
X0600212Y0297066D01*
X0600364Y0297433D02*
X0599893Y0296298D01*
X0599893Y0295069D01*
X0600364Y0293933D01*
X0601233Y0293064D01*
X0602368Y0292594D01*
X0603597Y0292594D01*
X0604732Y0293064D01*
X0605601Y0293933D01*
X0606071Y0295069D01*
X0606071Y0296298D01*
X0605601Y0297433D01*
X0604732Y0298302D01*
X0603597Y0298772D01*
X0602368Y0298772D01*
X0601233Y0298302D01*
X0600364Y0297433D01*
X0601195Y0298265D02*
X0568791Y0298265D01*
X0568811Y0298202D02*
X0568607Y0298831D01*
X0568307Y0299420D01*
X0567918Y0299955D01*
X0567451Y0300422D01*
X0566916Y0300811D01*
X0566327Y0301111D01*
X0565698Y0301315D01*
X0565045Y0301418D01*
X0564915Y0301418D01*
X0564915Y0297419D01*
X0568915Y0297419D01*
X0568915Y0297549D01*
X0568811Y0298202D01*
X0568915Y0297018D02*
X0564915Y0297018D01*
X0564915Y0293019D01*
X0565045Y0293019D01*
X0565698Y0293122D01*
X0566327Y0293326D01*
X0566916Y0293626D01*
X0567451Y0294015D01*
X0567918Y0294482D01*
X0568307Y0295017D01*
X0568607Y0295606D01*
X0568811Y0296235D01*
X0568915Y0296888D01*
X0568915Y0297018D01*
X0568692Y0295868D02*
X0599893Y0295868D01*
X0600059Y0294669D02*
X0568054Y0294669D01*
X0566610Y0293471D02*
X0600826Y0293471D01*
X0605138Y0293471D02*
X0683256Y0293471D01*
X0683256Y0294669D02*
X0605906Y0294669D01*
X0606071Y0295868D02*
X0683256Y0295868D01*
X0683256Y0297066D02*
X0605753Y0297066D01*
X0604769Y0298265D02*
X0683256Y0298265D01*
X0683256Y0299463D02*
X0568275Y0299463D01*
X0567121Y0300662D02*
X0683256Y0300662D01*
X0683256Y0301860D02*
X0548963Y0301860D01*
X0548783Y0301425D02*
X0549392Y0302895D01*
X0549392Y0304487D01*
X0548783Y0305957D01*
X0547658Y0307082D01*
X0546187Y0307691D01*
X0544596Y0307691D01*
X0543126Y0307082D01*
X0542001Y0305957D01*
X0541392Y0304487D01*
X0541392Y0302895D01*
X0542001Y0301425D01*
X0543126Y0300300D01*
X0544596Y0299691D01*
X0546187Y0299691D01*
X0547658Y0300300D01*
X0548783Y0301425D01*
X0548019Y0300662D02*
X0562308Y0300662D01*
X0564515Y0300662D02*
X0564915Y0300662D01*
X0564915Y0299463D02*
X0564515Y0299463D01*
X0564515Y0298265D02*
X0564915Y0298265D01*
X0564915Y0295868D02*
X0564515Y0295868D01*
X0564515Y0294669D02*
X0564915Y0294669D01*
X0564915Y0293471D02*
X0564515Y0293471D01*
X0562819Y0293471D02*
X0524430Y0293471D01*
X0525197Y0294669D02*
X0561375Y0294669D01*
X0560737Y0295868D02*
X0525363Y0295868D01*
X0520487Y0298265D02*
X0494805Y0298265D01*
X0495668Y0297066D02*
X0519503Y0297066D01*
X0519185Y0295868D02*
X0496034Y0295868D01*
X0496080Y0295050D02*
X0492080Y0295050D01*
X0492080Y0291050D01*
X0492210Y0291050D01*
X0492863Y0291153D01*
X0493492Y0291358D01*
X0494081Y0291658D01*
X0494616Y0292046D01*
X0495083Y0292514D01*
X0495472Y0293049D01*
X0495772Y0293638D01*
X0495976Y0294266D01*
X0496080Y0294919D01*
X0496080Y0295050D01*
X0496040Y0294669D02*
X0519350Y0294669D01*
X0520118Y0293471D02*
X0495687Y0293471D01*
X0494842Y0292272D02*
X0683256Y0292272D01*
X0683256Y0291074D02*
X0575860Y0291074D01*
X0575510Y0291218D02*
X0573919Y0291218D01*
X0572449Y0290610D01*
X0571324Y0289484D01*
X0570715Y0288014D01*
X0570715Y0286423D01*
X0571324Y0284953D01*
X0572449Y0283827D01*
X0573919Y0283219D01*
X0575510Y0283219D01*
X0576980Y0283827D01*
X0578106Y0284953D01*
X0578715Y0286423D01*
X0578715Y0288014D01*
X0578106Y0289484D01*
X0576980Y0290610D01*
X0575510Y0291218D01*
X0573569Y0291074D02*
X0565860Y0291074D01*
X0565510Y0291218D02*
X0563919Y0291218D01*
X0562449Y0290610D01*
X0561324Y0289484D01*
X0560715Y0288014D01*
X0560715Y0286423D01*
X0561324Y0284953D01*
X0562449Y0283827D01*
X0563919Y0283219D01*
X0565510Y0283219D01*
X0566980Y0283827D01*
X0568106Y0284953D01*
X0568715Y0286423D01*
X0568715Y0288014D01*
X0568106Y0289484D01*
X0566980Y0290610D01*
X0565510Y0291218D01*
X0563569Y0291074D02*
X0492360Y0291074D01*
X0492080Y0291074D02*
X0491680Y0291074D01*
X0491400Y0291074D02*
X0426254Y0291074D01*
X0425904Y0291218D02*
X0424313Y0291218D01*
X0422842Y0290610D01*
X0421717Y0289484D01*
X0421108Y0288014D01*
X0421108Y0286423D01*
X0421717Y0284953D01*
X0422842Y0283827D01*
X0424313Y0283219D01*
X0425904Y0283219D01*
X0427374Y0283827D01*
X0428499Y0284953D01*
X0429108Y0286423D01*
X0429108Y0288014D01*
X0428499Y0289484D01*
X0427374Y0290610D01*
X0425904Y0291218D01*
X0423963Y0291074D02*
X0416254Y0291074D01*
X0418108Y0289875D02*
X0422108Y0289875D01*
X0421383Y0288677D02*
X0418834Y0288677D01*
X0419108Y0287478D02*
X0421108Y0287478D01*
X0421168Y0286280D02*
X0419049Y0286280D01*
X0418552Y0285081D02*
X0421664Y0285081D01*
X0422787Y0283883D02*
X0417429Y0283883D01*
X0413963Y0291074D02*
X0347513Y0291074D01*
X0349368Y0289875D02*
X0412108Y0289875D01*
X0413496Y0293326D02*
X0414125Y0293122D01*
X0414778Y0293019D01*
X0414908Y0293018D01*
X0414908Y0297018D01*
X0410908Y0297018D01*
X0410908Y0296888D01*
X0411012Y0296235D01*
X0411216Y0295606D01*
X0411516Y0295017D01*
X0411905Y0294482D01*
X0412372Y0294015D01*
X0412907Y0293626D01*
X0413496Y0293326D01*
X0413213Y0293471D02*
X0368918Y0293471D01*
X0368512Y0293064D02*
X0369381Y0293933D01*
X0369851Y0295069D01*
X0369851Y0296298D01*
X0369381Y0297433D01*
X0368512Y0298302D01*
X0367376Y0298772D01*
X0366147Y0298772D01*
X0365012Y0298302D01*
X0364143Y0297433D01*
X0363673Y0296298D01*
X0363673Y0295069D01*
X0364143Y0293933D01*
X0365012Y0293064D01*
X0366147Y0292594D01*
X0367376Y0292594D01*
X0368512Y0293064D01*
X0369685Y0294669D02*
X0411769Y0294669D01*
X0411131Y0295868D02*
X0369851Y0295868D01*
X0369532Y0297066D02*
X0414908Y0297066D01*
X0415308Y0297066D02*
X0442731Y0297066D01*
X0442413Y0295868D02*
X0419085Y0295868D01*
X0418448Y0294669D02*
X0442578Y0294669D01*
X0443346Y0293471D02*
X0417004Y0293471D01*
X0415308Y0293471D02*
X0414908Y0293471D01*
X0414908Y0294669D02*
X0415308Y0294669D01*
X0415308Y0295868D02*
X0414908Y0295868D01*
X0414908Y0298265D02*
X0415308Y0298265D01*
X0415308Y0299463D02*
X0414908Y0299463D01*
X0414908Y0300662D02*
X0415308Y0300662D01*
X0417515Y0300662D02*
X0465221Y0300662D01*
X0464434Y0301860D02*
X0395118Y0301860D01*
X0394830Y0301165D02*
X0395439Y0302635D01*
X0395439Y0304227D01*
X0394830Y0305697D01*
X0393705Y0306822D01*
X0392235Y0307431D01*
X0390643Y0307431D01*
X0389173Y0306822D01*
X0388048Y0305697D01*
X0387439Y0304227D01*
X0387439Y0302635D01*
X0388048Y0301165D01*
X0389173Y0300040D01*
X0390643Y0299431D01*
X0392235Y0299431D01*
X0393705Y0300040D01*
X0394830Y0301165D01*
X0394326Y0300662D02*
X0412702Y0300662D01*
X0411548Y0299463D02*
X0392312Y0299463D01*
X0390566Y0299463D02*
X0339929Y0299463D01*
X0339960Y0299420D02*
X0339572Y0299955D01*
X0339104Y0300422D01*
X0338569Y0300811D01*
X0337980Y0301111D01*
X0337352Y0301315D01*
X0336699Y0301418D01*
X0336568Y0301418D01*
X0336568Y0297419D01*
X0340568Y0297419D01*
X0340568Y0297549D01*
X0340465Y0298202D01*
X0340260Y0298831D01*
X0339960Y0299420D01*
X0340444Y0298265D02*
X0364975Y0298265D01*
X0363991Y0297066D02*
X0336568Y0297066D01*
X0336568Y0298265D02*
X0336168Y0298265D01*
X0336168Y0299463D02*
X0336568Y0299463D01*
X0336568Y0300662D02*
X0336168Y0300662D01*
X0333962Y0300662D02*
X0311841Y0300662D01*
X0311841Y0301860D02*
X0387760Y0301860D01*
X0387439Y0303059D02*
X0311841Y0303059D01*
X0311841Y0304257D02*
X0387452Y0304257D01*
X0387948Y0305456D02*
X0311841Y0305456D01*
X0311841Y0306654D02*
X0389005Y0306654D01*
X0390643Y0309431D02*
X0392235Y0309431D01*
X0393705Y0310040D01*
X0394830Y0311165D01*
X0395439Y0312635D01*
X0395439Y0314227D01*
X0394830Y0315697D01*
X0393705Y0316822D01*
X0392235Y0317431D01*
X0390643Y0317431D01*
X0389173Y0316822D01*
X0388048Y0315697D01*
X0387439Y0314227D01*
X0387439Y0312635D01*
X0388048Y0311165D01*
X0389173Y0310040D01*
X0390643Y0309431D01*
X0388963Y0310250D02*
X0311841Y0310250D01*
X0311841Y0311448D02*
X0387931Y0311448D01*
X0387439Y0312647D02*
X0311841Y0312647D01*
X0311841Y0313845D02*
X0387439Y0313845D01*
X0387777Y0315044D02*
X0311841Y0315044D01*
X0311841Y0316242D02*
X0388593Y0316242D01*
X0394285Y0316242D02*
X0465278Y0316242D01*
X0464725Y0315689D02*
X0464116Y0314219D01*
X0464116Y0312628D01*
X0464725Y0311157D01*
X0465850Y0310032D01*
X0467320Y0309423D01*
X0468912Y0309423D01*
X0470382Y0310032D01*
X0471507Y0311157D01*
X0472116Y0312628D01*
X0472116Y0314219D01*
X0471507Y0315689D01*
X0470382Y0316814D01*
X0468912Y0317423D01*
X0467320Y0317423D01*
X0465850Y0316814D01*
X0464725Y0315689D01*
X0464458Y0315044D02*
X0395101Y0315044D01*
X0395439Y0313845D02*
X0464116Y0313845D01*
X0464116Y0312647D02*
X0395439Y0312647D01*
X0394947Y0311448D02*
X0464605Y0311448D01*
X0465633Y0310250D02*
X0393915Y0310250D01*
X0393873Y0306654D02*
X0465690Y0306654D01*
X0464628Y0305456D02*
X0394930Y0305456D01*
X0395426Y0304257D02*
X0464132Y0304257D01*
X0464116Y0303059D02*
X0395439Y0303059D01*
X0388551Y0300662D02*
X0338774Y0300662D01*
X0340345Y0295868D02*
X0363673Y0295868D01*
X0363838Y0294669D02*
X0339707Y0294669D01*
X0338264Y0293471D02*
X0364606Y0293471D01*
X0368549Y0298265D02*
X0411032Y0298265D01*
X0428108Y0289875D02*
X0561714Y0289875D01*
X0560989Y0288677D02*
X0523118Y0288677D01*
X0522888Y0288772D02*
X0521659Y0288772D01*
X0520524Y0288302D01*
X0519655Y0287433D01*
X0519185Y0286298D01*
X0519185Y0285069D01*
X0519655Y0283933D01*
X0520524Y0283064D01*
X0521659Y0282594D01*
X0522888Y0282594D01*
X0524023Y0283064D01*
X0524892Y0283933D01*
X0525363Y0285069D01*
X0525363Y0286298D01*
X0524892Y0287433D01*
X0524023Y0288302D01*
X0522888Y0288772D01*
X0521429Y0288677D02*
X0504060Y0288677D01*
X0504146Y0288641D02*
X0502676Y0289250D01*
X0501084Y0289250D01*
X0499614Y0288641D01*
X0498489Y0287516D01*
X0497880Y0286046D01*
X0497880Y0284454D01*
X0498489Y0282984D01*
X0499614Y0281859D01*
X0501084Y0281250D01*
X0502676Y0281250D01*
X0504146Y0281859D01*
X0505271Y0282984D01*
X0505880Y0284454D01*
X0505880Y0286046D01*
X0505271Y0287516D01*
X0504146Y0288641D01*
X0505287Y0287478D02*
X0519700Y0287478D01*
X0519185Y0286280D02*
X0505783Y0286280D01*
X0505880Y0285081D02*
X0519185Y0285081D01*
X0519706Y0283883D02*
X0505643Y0283883D01*
X0504971Y0282684D02*
X0521442Y0282684D01*
X0523105Y0282684D02*
X0602151Y0282684D01*
X0602368Y0282594D02*
X0603597Y0282594D01*
X0604732Y0283064D01*
X0605601Y0283933D01*
X0606071Y0285069D01*
X0606071Y0286298D01*
X0605601Y0287433D01*
X0604732Y0288302D01*
X0603597Y0288772D01*
X0602368Y0288772D01*
X0601233Y0288302D01*
X0600364Y0287433D01*
X0599893Y0286298D01*
X0599893Y0285069D01*
X0600364Y0283933D01*
X0601233Y0283064D01*
X0602368Y0282594D01*
X0603814Y0282684D02*
X0683256Y0282684D01*
X0683256Y0281486D02*
X0503244Y0281486D01*
X0500516Y0281486D02*
X0493244Y0281486D01*
X0492676Y0281250D02*
X0494146Y0281859D01*
X0495271Y0282984D01*
X0495880Y0284454D01*
X0495880Y0286046D01*
X0495271Y0287516D01*
X0494146Y0288641D01*
X0492676Y0289250D01*
X0491084Y0289250D01*
X0489614Y0288641D01*
X0488489Y0287516D01*
X0487880Y0286046D01*
X0487880Y0284454D01*
X0488489Y0282984D01*
X0489614Y0281859D01*
X0491084Y0281250D01*
X0492676Y0281250D01*
X0490516Y0281486D02*
X0311841Y0281486D01*
X0311841Y0282684D02*
X0365930Y0282684D01*
X0367593Y0282684D02*
X0444670Y0282684D01*
X0444888Y0282594D02*
X0446116Y0282594D01*
X0447252Y0283064D01*
X0448121Y0283933D01*
X0448591Y0285069D01*
X0448591Y0286298D01*
X0448121Y0287433D01*
X0447252Y0288302D01*
X0446116Y0288772D01*
X0444888Y0288772D01*
X0443752Y0288302D01*
X0442883Y0287433D01*
X0442413Y0286298D01*
X0442413Y0285069D01*
X0442883Y0283933D01*
X0443752Y0283064D01*
X0444888Y0282594D01*
X0446334Y0282684D02*
X0488789Y0282684D01*
X0488117Y0283883D02*
X0448070Y0283883D01*
X0448591Y0285081D02*
X0487880Y0285081D01*
X0487977Y0286280D02*
X0448591Y0286280D01*
X0448075Y0287478D02*
X0488473Y0287478D01*
X0489700Y0288677D02*
X0446347Y0288677D01*
X0444657Y0288677D02*
X0428834Y0288677D01*
X0429108Y0287478D02*
X0442929Y0287478D01*
X0442413Y0286280D02*
X0429049Y0286280D01*
X0428552Y0285081D02*
X0442413Y0285081D01*
X0442934Y0283883D02*
X0427429Y0283883D01*
X0471011Y0300662D02*
X0542764Y0300662D01*
X0541820Y0301860D02*
X0471798Y0301860D01*
X0472116Y0303059D02*
X0541392Y0303059D01*
X0541392Y0304257D02*
X0472100Y0304257D01*
X0471604Y0305456D02*
X0541793Y0305456D01*
X0542698Y0306654D02*
X0470542Y0306654D01*
X0470600Y0310250D02*
X0543247Y0310250D01*
X0543126Y0310300D02*
X0544596Y0309691D01*
X0546187Y0309691D01*
X0547658Y0310300D01*
X0548783Y0311425D01*
X0549392Y0312895D01*
X0549392Y0314487D01*
X0548783Y0315957D01*
X0547658Y0317082D01*
X0546187Y0317691D01*
X0544596Y0317691D01*
X0543126Y0317082D01*
X0542001Y0315957D01*
X0541392Y0314487D01*
X0541392Y0312895D01*
X0542001Y0311425D01*
X0543126Y0310300D01*
X0541991Y0311448D02*
X0471628Y0311448D01*
X0472116Y0312647D02*
X0541495Y0312647D01*
X0541392Y0313845D02*
X0472116Y0313845D01*
X0471774Y0315044D02*
X0541623Y0315044D01*
X0542286Y0316242D02*
X0470954Y0316242D01*
X0491680Y0298265D02*
X0492080Y0298265D01*
X0492080Y0297066D02*
X0491680Y0297066D01*
X0491680Y0295868D02*
X0492080Y0295868D01*
X0492080Y0294669D02*
X0491680Y0294669D01*
X0491680Y0293471D02*
X0492080Y0293471D01*
X0492080Y0292272D02*
X0491680Y0292272D01*
X0494060Y0288677D02*
X0499700Y0288677D01*
X0498473Y0287478D02*
X0495287Y0287478D01*
X0495783Y0286280D02*
X0497977Y0286280D01*
X0497880Y0285081D02*
X0495880Y0285081D01*
X0495643Y0283883D02*
X0498117Y0283883D01*
X0498789Y0282684D02*
X0494971Y0282684D01*
X0524842Y0283883D02*
X0562394Y0283883D01*
X0561270Y0285081D02*
X0525363Y0285081D01*
X0525363Y0286280D02*
X0560774Y0286280D01*
X0560715Y0287478D02*
X0524847Y0287478D01*
X0549392Y0303059D02*
X0683256Y0303059D01*
X0683256Y0304257D02*
X0549392Y0304257D01*
X0548990Y0305456D02*
X0683256Y0305456D01*
X0683256Y0306654D02*
X0548085Y0306654D01*
X0547537Y0310250D02*
X0683256Y0310250D01*
X0683256Y0311448D02*
X0548792Y0311448D01*
X0549289Y0312647D02*
X0683256Y0312647D01*
X0683256Y0313845D02*
X0549392Y0313845D01*
X0549161Y0315044D02*
X0683256Y0315044D01*
X0683256Y0316242D02*
X0587364Y0316242D01*
X0587161Y0316040D02*
X0588287Y0317165D01*
X0588896Y0318635D01*
X0588896Y0320227D01*
X0588287Y0321697D01*
X0587161Y0322822D01*
X0585691Y0323431D01*
X0584100Y0323431D01*
X0582630Y0322822D01*
X0581505Y0321697D01*
X0580896Y0320227D01*
X0580896Y0318635D01*
X0581505Y0317165D01*
X0582630Y0316040D01*
X0584100Y0315431D01*
X0585691Y0315431D01*
X0587161Y0316040D01*
X0588401Y0317441D02*
X0683256Y0317441D01*
X0683256Y0318639D02*
X0588896Y0318639D01*
X0588896Y0319838D02*
X0683256Y0319838D01*
X0683256Y0321036D02*
X0588560Y0321036D01*
X0587749Y0322235D02*
X0683256Y0322235D01*
X0683256Y0323433D02*
X0311841Y0323433D01*
X0311841Y0322235D02*
X0572043Y0322235D01*
X0571505Y0321697D02*
X0570896Y0320227D01*
X0570896Y0318635D01*
X0571505Y0317165D01*
X0572630Y0316040D01*
X0574100Y0315431D01*
X0575691Y0315431D01*
X0577161Y0316040D01*
X0578287Y0317165D01*
X0578896Y0318635D01*
X0578896Y0320227D01*
X0578287Y0321697D01*
X0577161Y0322822D01*
X0575691Y0323431D01*
X0574100Y0323431D01*
X0572630Y0322822D01*
X0571505Y0321697D01*
X0571231Y0321036D02*
X0311841Y0321036D01*
X0311841Y0319838D02*
X0570896Y0319838D01*
X0570896Y0318639D02*
X0311841Y0318639D01*
X0311841Y0317441D02*
X0543992Y0317441D01*
X0546791Y0317441D02*
X0571390Y0317441D01*
X0572428Y0316242D02*
X0548497Y0316242D01*
X0524023Y0333064D02*
X0522888Y0332594D01*
X0521659Y0332594D01*
X0520524Y0333064D01*
X0519655Y0333933D01*
X0519185Y0335069D01*
X0519185Y0336298D01*
X0519655Y0337433D01*
X0520524Y0338302D01*
X0521659Y0338772D01*
X0522888Y0338772D01*
X0524023Y0338302D01*
X0524892Y0337433D01*
X0525363Y0336298D01*
X0525363Y0335069D01*
X0524892Y0333933D01*
X0524023Y0333064D01*
X0523920Y0333022D02*
X0601336Y0333022D01*
X0601233Y0333064D02*
X0602368Y0332594D01*
X0603597Y0332594D01*
X0604732Y0333064D01*
X0605601Y0333933D01*
X0606071Y0335069D01*
X0606071Y0336298D01*
X0605601Y0337433D01*
X0604732Y0338302D01*
X0603597Y0338772D01*
X0602368Y0338772D01*
X0601233Y0338302D01*
X0600364Y0337433D01*
X0599893Y0336298D01*
X0599893Y0335069D01*
X0600364Y0333933D01*
X0601233Y0333064D01*
X0600245Y0334220D02*
X0525011Y0334220D01*
X0525363Y0335419D02*
X0599893Y0335419D01*
X0600026Y0336617D02*
X0525230Y0336617D01*
X0524510Y0337816D02*
X0600746Y0337816D01*
X0605218Y0337816D02*
X0683256Y0337816D01*
X0683256Y0339014D02*
X0311841Y0339014D01*
X0311841Y0337816D02*
X0364526Y0337816D01*
X0364143Y0337433D02*
X0363673Y0336298D01*
X0363673Y0335069D01*
X0364143Y0333933D01*
X0365012Y0333064D01*
X0366147Y0332594D01*
X0367376Y0332594D01*
X0368512Y0333064D01*
X0369381Y0333933D01*
X0369851Y0335069D01*
X0369851Y0336298D01*
X0369381Y0337433D01*
X0368512Y0338302D01*
X0367376Y0338772D01*
X0366147Y0338772D01*
X0365012Y0338302D01*
X0364143Y0337433D01*
X0363805Y0336617D02*
X0311841Y0336617D01*
X0311841Y0335419D02*
X0363673Y0335419D01*
X0364024Y0334220D02*
X0311841Y0334220D01*
X0311841Y0333022D02*
X0365115Y0333022D01*
X0368408Y0333022D02*
X0443856Y0333022D01*
X0443752Y0333064D02*
X0444888Y0332594D01*
X0446116Y0332594D01*
X0447252Y0333064D01*
X0448121Y0333933D01*
X0448591Y0335069D01*
X0448591Y0336298D01*
X0448121Y0337433D01*
X0447252Y0338302D01*
X0446116Y0338772D01*
X0444888Y0338772D01*
X0443752Y0338302D01*
X0442883Y0337433D01*
X0442413Y0336298D01*
X0442413Y0335069D01*
X0442883Y0333933D01*
X0443752Y0333064D01*
X0442764Y0334220D02*
X0369499Y0334220D01*
X0369851Y0335419D02*
X0442413Y0335419D01*
X0442545Y0336617D02*
X0369718Y0336617D01*
X0368998Y0337816D02*
X0443266Y0337816D01*
X0447738Y0337816D02*
X0520038Y0337816D01*
X0519317Y0336617D02*
X0448459Y0336617D01*
X0448591Y0335419D02*
X0519185Y0335419D01*
X0519536Y0334220D02*
X0448239Y0334220D01*
X0447148Y0333022D02*
X0520627Y0333022D01*
X0521659Y0362594D02*
X0522888Y0362594D01*
X0524023Y0363064D01*
X0524892Y0363933D01*
X0525363Y0365069D01*
X0525363Y0366298D01*
X0524892Y0367433D01*
X0524023Y0368302D01*
X0522888Y0368772D01*
X0521659Y0368772D01*
X0520524Y0368302D01*
X0519655Y0367433D01*
X0519185Y0366298D01*
X0519185Y0365069D01*
X0519655Y0363933D01*
X0520524Y0363064D01*
X0521659Y0362594D01*
X0520717Y0362984D02*
X0447058Y0362984D01*
X0447252Y0363064D02*
X0448121Y0363933D01*
X0448591Y0365069D01*
X0448591Y0366298D01*
X0448121Y0367433D01*
X0447252Y0368302D01*
X0446116Y0368772D01*
X0444888Y0368772D01*
X0443752Y0368302D01*
X0442883Y0367433D01*
X0442413Y0366298D01*
X0442413Y0365069D01*
X0442883Y0363933D01*
X0443752Y0363064D01*
X0444888Y0362594D01*
X0446116Y0362594D01*
X0447252Y0363064D01*
X0448224Y0364183D02*
X0519552Y0364183D01*
X0519185Y0365381D02*
X0448591Y0365381D01*
X0448474Y0366580D02*
X0519302Y0366580D01*
X0520000Y0367778D02*
X0447775Y0367778D01*
X0443229Y0367778D02*
X0369035Y0367778D01*
X0369381Y0367433D02*
X0368512Y0368302D01*
X0367376Y0368772D01*
X0366147Y0368772D01*
X0365012Y0368302D01*
X0364143Y0367433D01*
X0363673Y0366298D01*
X0363673Y0365069D01*
X0364143Y0363933D01*
X0365012Y0363064D01*
X0366147Y0362594D01*
X0367376Y0362594D01*
X0368512Y0363064D01*
X0369381Y0363933D01*
X0369851Y0365069D01*
X0369851Y0366298D01*
X0369381Y0367433D01*
X0369734Y0366580D02*
X0442530Y0366580D01*
X0442413Y0365381D02*
X0369851Y0365381D01*
X0369484Y0364183D02*
X0442780Y0364183D01*
X0443945Y0362984D02*
X0368318Y0362984D01*
X0365205Y0362984D02*
X0311841Y0362984D01*
X0311841Y0361786D02*
X0656109Y0361786D01*
X0656109Y0362334D02*
X0656109Y0359898D01*
X0657042Y0357647D01*
X0658765Y0355924D01*
X0661016Y0354991D01*
X0663453Y0354991D01*
X0665704Y0355924D01*
X0667427Y0357647D01*
X0668359Y0359898D01*
X0668359Y0362334D01*
X0667427Y0364586D01*
X0665704Y0366309D01*
X0663453Y0367241D01*
X0661016Y0367241D01*
X0658765Y0366309D01*
X0657042Y0364586D01*
X0656109Y0362334D01*
X0656378Y0362984D02*
X0604539Y0362984D01*
X0604732Y0363064D02*
X0605601Y0363933D01*
X0606071Y0365069D01*
X0606071Y0366298D01*
X0605601Y0367433D01*
X0604732Y0368302D01*
X0603597Y0368772D01*
X0602368Y0368772D01*
X0601233Y0368302D01*
X0600364Y0367433D01*
X0599893Y0366298D01*
X0599893Y0365069D01*
X0600364Y0363933D01*
X0601233Y0363064D01*
X0602368Y0362594D01*
X0603597Y0362594D01*
X0604732Y0363064D01*
X0605704Y0364183D02*
X0656875Y0364183D01*
X0657837Y0365381D02*
X0606071Y0365381D01*
X0605954Y0366580D02*
X0659419Y0366580D01*
X0665049Y0366580D02*
X0683256Y0366580D01*
X0683256Y0367778D02*
X0605255Y0367778D01*
X0600709Y0367778D02*
X0524547Y0367778D01*
X0525246Y0366580D02*
X0600010Y0366580D01*
X0599893Y0365381D02*
X0525363Y0365381D01*
X0524996Y0364183D02*
X0600260Y0364183D01*
X0601426Y0362984D02*
X0523830Y0362984D01*
X0494851Y0374969D02*
X0683256Y0374969D01*
X0683256Y0373771D02*
X0494354Y0373771D01*
X0494198Y0373395D02*
X0495131Y0375646D01*
X0495131Y0378083D01*
X0494198Y0380334D01*
X0492475Y0382057D01*
X0490224Y0382989D01*
X0487788Y0382989D01*
X0485536Y0382057D01*
X0483813Y0380334D01*
X0482881Y0378083D01*
X0482881Y0375646D01*
X0483813Y0373395D01*
X0485536Y0371672D01*
X0487788Y0370739D01*
X0490224Y0370739D01*
X0492475Y0371672D01*
X0494198Y0373395D01*
X0493376Y0372572D02*
X0683256Y0372572D01*
X0683256Y0371374D02*
X0491757Y0371374D01*
X0486255Y0371374D02*
X0342571Y0371374D01*
X0342624Y0371426D02*
X0343556Y0373677D01*
X0343556Y0376114D01*
X0342624Y0378365D01*
X0340901Y0380088D01*
X0338649Y0381021D01*
X0336213Y0381021D01*
X0333962Y0380088D01*
X0332239Y0378365D01*
X0331306Y0376114D01*
X0331306Y0373677D01*
X0332239Y0371426D01*
X0333962Y0369703D01*
X0336213Y0368771D01*
X0338649Y0368771D01*
X0340901Y0369703D01*
X0342624Y0371426D01*
X0343098Y0372572D02*
X0484636Y0372572D01*
X0483658Y0373771D02*
X0409929Y0373771D01*
X0409798Y0373640D02*
X0411521Y0375363D01*
X0412454Y0377614D01*
X0412454Y0380051D01*
X0411521Y0382302D01*
X0409798Y0384025D01*
X0407547Y0384958D01*
X0405110Y0384958D01*
X0402859Y0384025D01*
X0401136Y0382302D01*
X0400204Y0380051D01*
X0400204Y0377614D01*
X0401136Y0375363D01*
X0402859Y0373640D01*
X0405110Y0372708D01*
X0407547Y0372708D01*
X0409798Y0373640D01*
X0411128Y0374969D02*
X0483161Y0374969D01*
X0482881Y0376168D02*
X0411855Y0376168D01*
X0412351Y0377366D02*
X0482881Y0377366D01*
X0483081Y0378565D02*
X0412454Y0378565D01*
X0412454Y0379763D02*
X0483577Y0379763D01*
X0484442Y0380962D02*
X0412076Y0380962D01*
X0411580Y0382160D02*
X0485787Y0382160D01*
X0492225Y0382160D02*
X0569495Y0382160D01*
X0569495Y0381551D02*
X0570428Y0379300D01*
X0572151Y0377577D01*
X0574402Y0376645D01*
X0576838Y0376645D01*
X0579090Y0377577D01*
X0580813Y0379300D01*
X0581745Y0381551D01*
X0581745Y0383988D01*
X0580813Y0386239D01*
X0579090Y0387962D01*
X0576838Y0388895D01*
X0574402Y0388895D01*
X0572151Y0387962D01*
X0570428Y0386239D01*
X0569495Y0383988D01*
X0569495Y0381551D01*
X0569739Y0380962D02*
X0493570Y0380962D01*
X0494435Y0379763D02*
X0570236Y0379763D01*
X0571163Y0378565D02*
X0494931Y0378565D01*
X0495131Y0377366D02*
X0572659Y0377366D01*
X0578581Y0377366D02*
X0683256Y0377366D01*
X0683256Y0376168D02*
X0495131Y0376168D01*
X0480664Y0405136D02*
X0482387Y0406859D01*
X0483320Y0409110D01*
X0483320Y0411547D01*
X0482387Y0413798D01*
X0480664Y0415521D01*
X0478413Y0416454D01*
X0475977Y0416454D01*
X0473725Y0415521D01*
X0472002Y0413798D01*
X0471070Y0411547D01*
X0471070Y0409110D01*
X0472002Y0406859D01*
X0473725Y0405136D01*
X0475977Y0404204D01*
X0478413Y0404204D01*
X0480664Y0405136D01*
X0480172Y0404932D02*
X0608076Y0404932D01*
X0607584Y0405136D02*
X0609835Y0404204D01*
X0612271Y0404204D01*
X0614523Y0405136D01*
X0616246Y0406859D01*
X0617178Y0409110D01*
X0617178Y0411547D01*
X0616246Y0413798D01*
X0614523Y0415521D01*
X0612271Y0416454D01*
X0609835Y0416454D01*
X0607584Y0415521D01*
X0605861Y0413798D01*
X0604928Y0411547D01*
X0604928Y0409110D01*
X0605861Y0406859D01*
X0607584Y0405136D01*
X0606589Y0406131D02*
X0481659Y0406131D01*
X0482582Y0407329D02*
X0605666Y0407329D01*
X0605169Y0408528D02*
X0483079Y0408528D01*
X0483320Y0409726D02*
X0604928Y0409726D01*
X0604928Y0410925D02*
X0483320Y0410925D01*
X0483081Y0412123D02*
X0605167Y0412123D01*
X0605663Y0413322D02*
X0482585Y0413322D01*
X0481665Y0414520D02*
X0606583Y0414520D01*
X0608061Y0415719D02*
X0480187Y0415719D01*
X0474202Y0415719D02*
X0354203Y0415719D01*
X0354680Y0415521D02*
X0352429Y0416454D01*
X0349992Y0416454D01*
X0347741Y0415521D01*
X0346018Y0413798D01*
X0345086Y0411547D01*
X0345086Y0409110D01*
X0346018Y0406859D01*
X0347741Y0405136D01*
X0349992Y0404204D01*
X0352429Y0404204D01*
X0354680Y0405136D01*
X0356403Y0406859D01*
X0357336Y0409110D01*
X0357336Y0411547D01*
X0356403Y0413798D01*
X0354680Y0415521D01*
X0355681Y0414520D02*
X0472724Y0414520D01*
X0471805Y0413322D02*
X0356601Y0413322D01*
X0357097Y0412123D02*
X0471309Y0412123D01*
X0471070Y0410925D02*
X0357336Y0410925D01*
X0357336Y0409726D02*
X0471070Y0409726D01*
X0471311Y0408528D02*
X0357094Y0408528D01*
X0356598Y0407329D02*
X0471808Y0407329D01*
X0472731Y0406131D02*
X0355675Y0406131D01*
X0354188Y0404932D02*
X0474218Y0404932D01*
X0410464Y0383359D02*
X0569495Y0383359D01*
X0569731Y0384558D02*
X0408513Y0384558D01*
X0404144Y0384558D02*
X0311841Y0384558D01*
X0311841Y0385756D02*
X0570227Y0385756D01*
X0571143Y0386955D02*
X0311841Y0386955D01*
X0311841Y0388153D02*
X0572611Y0388153D01*
X0578629Y0388153D02*
X0683256Y0388153D01*
X0683256Y0386955D02*
X0580097Y0386955D01*
X0581013Y0385756D02*
X0683256Y0385756D01*
X0683256Y0384558D02*
X0581509Y0384558D01*
X0581745Y0383359D02*
X0683256Y0383359D01*
X0683256Y0382160D02*
X0581745Y0382160D01*
X0581501Y0380962D02*
X0683256Y0380962D01*
X0683256Y0379763D02*
X0581005Y0379763D01*
X0580077Y0378565D02*
X0683256Y0378565D01*
X0683256Y0370175D02*
X0341373Y0370175D01*
X0339147Y0368977D02*
X0683256Y0368977D01*
X0683256Y0365381D02*
X0666631Y0365381D01*
X0667594Y0364183D02*
X0683256Y0364183D01*
X0683256Y0362984D02*
X0668090Y0362984D01*
X0668359Y0361786D02*
X0683256Y0361786D01*
X0683256Y0360587D02*
X0668359Y0360587D01*
X0668148Y0359389D02*
X0683256Y0359389D01*
X0683256Y0358190D02*
X0667652Y0358190D01*
X0666772Y0356992D02*
X0683256Y0356992D01*
X0683256Y0355793D02*
X0665389Y0355793D01*
X0659079Y0355793D02*
X0311841Y0355793D01*
X0311841Y0354595D02*
X0683256Y0354595D01*
X0683256Y0353396D02*
X0311841Y0353396D01*
X0311841Y0352198D02*
X0683256Y0352198D01*
X0683256Y0350999D02*
X0311841Y0350999D01*
X0311841Y0349801D02*
X0683256Y0349801D01*
X0683256Y0348602D02*
X0311841Y0348602D01*
X0311841Y0347404D02*
X0683256Y0347404D01*
X0683256Y0346205D02*
X0311841Y0346205D01*
X0311841Y0345007D02*
X0683256Y0345007D01*
X0683256Y0343808D02*
X0311841Y0343808D01*
X0311841Y0342610D02*
X0683256Y0342610D01*
X0683256Y0341411D02*
X0311841Y0341411D01*
X0311841Y0340213D02*
X0683256Y0340213D01*
X0683256Y0336617D02*
X0605939Y0336617D01*
X0606071Y0335419D02*
X0683256Y0335419D01*
X0683256Y0334220D02*
X0605720Y0334220D01*
X0604629Y0333022D02*
X0683256Y0333022D01*
X0683256Y0331823D02*
X0311841Y0331823D01*
X0311841Y0330625D02*
X0683256Y0330625D01*
X0683256Y0329426D02*
X0311841Y0329426D01*
X0311841Y0328227D02*
X0683256Y0328227D01*
X0683256Y0327029D02*
X0311841Y0327029D01*
X0311841Y0325830D02*
X0683256Y0325830D01*
X0683256Y0324632D02*
X0311841Y0324632D01*
X0311841Y0309051D02*
X0683256Y0309051D01*
X0683256Y0307853D02*
X0311841Y0307853D01*
X0311841Y0299463D02*
X0332808Y0299463D01*
X0332292Y0298265D02*
X0311841Y0298265D01*
X0311841Y0289875D02*
X0333368Y0289875D01*
X0332643Y0288677D02*
X0311841Y0288677D01*
X0311841Y0287478D02*
X0332368Y0287478D01*
X0332427Y0286280D02*
X0311841Y0286280D01*
X0311841Y0285081D02*
X0332924Y0285081D01*
X0334047Y0283883D02*
X0311841Y0283883D01*
X0311841Y0280287D02*
X0683256Y0280287D01*
X0683256Y0279089D02*
X0311841Y0279089D01*
X0311841Y0356992D02*
X0657697Y0356992D01*
X0656817Y0358190D02*
X0311841Y0358190D01*
X0311841Y0359389D02*
X0656320Y0359389D01*
X0656109Y0360587D02*
X0311841Y0360587D01*
X0311841Y0364183D02*
X0364040Y0364183D01*
X0363673Y0365381D02*
X0311841Y0365381D01*
X0311841Y0366580D02*
X0363790Y0366580D01*
X0364489Y0367778D02*
X0311841Y0367778D01*
X0311841Y0368977D02*
X0335715Y0368977D01*
X0333489Y0370175D02*
X0311841Y0370175D01*
X0311841Y0371374D02*
X0332291Y0371374D01*
X0331764Y0372572D02*
X0311841Y0372572D01*
X0311841Y0373771D02*
X0331306Y0373771D01*
X0331306Y0374969D02*
X0311841Y0374969D01*
X0311841Y0376168D02*
X0331328Y0376168D01*
X0331825Y0377366D02*
X0311841Y0377366D01*
X0311841Y0378565D02*
X0332438Y0378565D01*
X0333637Y0379763D02*
X0311841Y0379763D01*
X0311841Y0380962D02*
X0336071Y0380962D01*
X0338791Y0380962D02*
X0400581Y0380962D01*
X0400204Y0379763D02*
X0341225Y0379763D01*
X0342424Y0378565D02*
X0400204Y0378565D01*
X0400306Y0377366D02*
X0343037Y0377366D01*
X0343534Y0376168D02*
X0400803Y0376168D01*
X0401530Y0374969D02*
X0343556Y0374969D01*
X0343556Y0373771D02*
X0402728Y0373771D01*
X0401078Y0382160D02*
X0311841Y0382160D01*
X0311841Y0383359D02*
X0402193Y0383359D01*
X0348234Y0404932D02*
X0311841Y0404932D01*
X0311841Y0403734D02*
X0683256Y0403734D01*
X0683256Y0404932D02*
X0614030Y0404932D01*
X0615517Y0406131D02*
X0683256Y0406131D01*
X0683256Y0407329D02*
X0616440Y0407329D01*
X0616937Y0408528D02*
X0683256Y0408528D01*
X0683256Y0409726D02*
X0617178Y0409726D01*
X0617178Y0410925D02*
X0683256Y0410925D01*
X0683256Y0412123D02*
X0616939Y0412123D01*
X0616443Y0413322D02*
X0683256Y0413322D01*
X0683256Y0414520D02*
X0615524Y0414520D01*
X0614046Y0415719D02*
X0683256Y0415719D01*
X0683256Y0416917D02*
X0311841Y0416917D01*
X0311841Y0415719D02*
X0348218Y0415719D01*
X0346740Y0414520D02*
X0311841Y0414520D01*
X0311841Y0413322D02*
X0345821Y0413322D01*
X0345324Y0412123D02*
X0311841Y0412123D01*
X0311841Y0410925D02*
X0345086Y0410925D01*
X0345086Y0409726D02*
X0311841Y0409726D01*
X0311841Y0408528D02*
X0345327Y0408528D01*
X0345823Y0407329D02*
X0311841Y0407329D01*
X0311841Y0406131D02*
X0346747Y0406131D01*
X0311841Y0402535D02*
X0683256Y0402535D01*
X0683256Y0401337D02*
X0311841Y0401337D01*
X0311841Y0400138D02*
X0683256Y0400138D01*
X0683256Y0398940D02*
X0311841Y0398940D01*
X0311841Y0397741D02*
X0683256Y0397741D01*
X0683256Y0396543D02*
X0311841Y0396543D01*
X0311841Y0395344D02*
X0683256Y0395344D01*
X0683256Y0394146D02*
X0311841Y0394146D01*
X0311841Y0392947D02*
X0683256Y0392947D01*
X0683256Y0391749D02*
X0311841Y0391749D01*
X0311841Y0390550D02*
X0683256Y0390550D01*
X0683256Y0389352D02*
X0311841Y0389352D01*
X0311841Y0418116D02*
X0683256Y0418116D01*
X0683256Y0419314D02*
X0311841Y0419314D01*
X0311841Y0420513D02*
X0683256Y0420513D01*
X0683256Y0421711D02*
X0311841Y0421711D01*
X0311841Y0422910D02*
X0683256Y0422910D01*
X0582043Y0322235D02*
X0577749Y0322235D01*
X0578560Y0321036D02*
X0581231Y0321036D01*
X0580896Y0319838D02*
X0578896Y0319838D01*
X0578896Y0318639D02*
X0580896Y0318639D01*
X0581390Y0317441D02*
X0578401Y0317441D01*
X0577364Y0316242D02*
X0582428Y0316242D01*
X0577715Y0289875D02*
X0683256Y0289875D01*
X0683256Y0288677D02*
X0603827Y0288677D01*
X0602137Y0288677D02*
X0578440Y0288677D01*
X0578715Y0287478D02*
X0600409Y0287478D01*
X0599893Y0286280D02*
X0578655Y0286280D01*
X0578159Y0285081D02*
X0599893Y0285081D01*
X0600414Y0283883D02*
X0577035Y0283883D01*
X0572394Y0283883D02*
X0567035Y0283883D01*
X0568159Y0285081D02*
X0571270Y0285081D01*
X0570774Y0286280D02*
X0568655Y0286280D01*
X0568715Y0287478D02*
X0570715Y0287478D01*
X0570989Y0288677D02*
X0568440Y0288677D01*
X0567715Y0289875D02*
X0571714Y0289875D01*
X0605556Y0287478D02*
X0683256Y0287478D01*
X0683256Y0286280D02*
X0606071Y0286280D01*
X0606071Y0285081D02*
X0683256Y0285081D01*
X0683256Y0283883D02*
X0605550Y0283883D01*
X0577927Y0227553D02*
X0558785Y0227553D01*
X0559612Y0226354D02*
X0577280Y0226354D01*
X0577061Y0225156D02*
X0559959Y0225156D01*
X0559959Y0223957D02*
X0577176Y0223957D01*
X0577675Y0222758D02*
X0559475Y0222758D01*
X0558453Y0221560D02*
X0578985Y0221560D01*
X0578339Y0217964D02*
X0558373Y0217964D01*
X0559442Y0216766D02*
X0577451Y0216766D01*
X0577061Y0215567D02*
X0559938Y0215567D01*
X0559959Y0214369D02*
X0577061Y0214369D01*
X0577502Y0213170D02*
X0559645Y0213170D01*
X0558865Y0211972D02*
X0578462Y0211972D01*
X0500995Y0191597D02*
X0496701Y0191597D01*
X0497513Y0190399D02*
X0500184Y0190399D01*
X0499848Y0189200D02*
X0497848Y0189200D01*
X0497848Y0188002D02*
X0499848Y0188002D01*
X0500343Y0186803D02*
X0497354Y0186803D01*
X0496317Y0185605D02*
X0501380Y0185605D01*
X0448628Y0090922D02*
X0340672Y0090922D01*
X0341169Y0089724D02*
X0447140Y0089724D01*
X0446217Y0088525D02*
X0341588Y0088525D01*
X0341588Y0087327D02*
X0445721Y0087327D01*
X0445479Y0086128D02*
X0341526Y0086128D01*
X0341030Y0084930D02*
X0445479Y0084930D01*
X0445718Y0083731D02*
X0340362Y0083731D01*
X0339163Y0082533D02*
X0446214Y0082533D01*
X0447134Y0081334D02*
X0154360Y0081334D01*
X0154360Y0080136D02*
X0448611Y0080136D01*
X0342296Y0107701D02*
X0163415Y0107701D01*
X0163415Y0108900D02*
X0340828Y0108900D01*
X0339912Y0110098D02*
X0163056Y0110098D01*
X0162200Y0111297D02*
X0339416Y0111297D01*
D23*
X0303967Y0225289D02*
X0154360Y0225289D01*
X0154360Y0268596D01*
X0019465Y0268596D01*
X0019465Y0423177D01*
X0303967Y0423177D01*
X0303967Y0225289D01*
X0303967Y0226418D02*
X0154360Y0226418D01*
X0154360Y0228217D02*
X0303967Y0228217D01*
X0303967Y0230015D02*
X0202030Y0230015D01*
X0201561Y0229546D02*
X0202886Y0230872D01*
X0203604Y0232603D01*
X0203604Y0234478D01*
X0202886Y0236210D01*
X0201561Y0237535D01*
X0199829Y0238252D01*
X0197954Y0238252D01*
X0196223Y0237535D01*
X0194897Y0236210D01*
X0194180Y0234478D01*
X0194180Y0232603D01*
X0194897Y0230872D01*
X0196223Y0229546D01*
X0197954Y0228829D01*
X0199829Y0228829D01*
X0201561Y0229546D01*
X0203276Y0231814D02*
X0303967Y0231814D01*
X0303967Y0233612D02*
X0203604Y0233612D01*
X0203217Y0235411D02*
X0303967Y0235411D01*
X0303967Y0237209D02*
X0201887Y0237209D01*
X0201561Y0239546D02*
X0202886Y0240872D01*
X0203604Y0242603D01*
X0203604Y0244478D01*
X0202886Y0246210D01*
X0201561Y0247535D01*
X0199829Y0248252D01*
X0197954Y0248252D01*
X0196223Y0247535D01*
X0194897Y0246210D01*
X0194180Y0244478D01*
X0194180Y0242603D01*
X0194897Y0240872D01*
X0196223Y0239546D01*
X0197954Y0238829D01*
X0199829Y0238829D01*
X0201561Y0239546D01*
X0200261Y0239008D02*
X0303967Y0239008D01*
X0303967Y0240806D02*
X0202821Y0240806D01*
X0203604Y0242605D02*
X0303967Y0242605D01*
X0303967Y0244403D02*
X0203604Y0244403D01*
X0202889Y0246202D02*
X0303967Y0246202D01*
X0303967Y0248000D02*
X0200438Y0248000D01*
X0197346Y0248000D02*
X0154360Y0248000D01*
X0154360Y0246202D02*
X0194894Y0246202D01*
X0194180Y0244403D02*
X0154360Y0244403D01*
X0154360Y0242605D02*
X0194180Y0242605D01*
X0194963Y0240806D02*
X0154360Y0240806D01*
X0154360Y0239008D02*
X0197523Y0239008D01*
X0195897Y0237209D02*
X0154360Y0237209D01*
X0154360Y0235411D02*
X0194566Y0235411D01*
X0194180Y0233612D02*
X0154360Y0233612D01*
X0154360Y0231814D02*
X0194507Y0231814D01*
X0195754Y0230015D02*
X0154360Y0230015D01*
X0154360Y0249799D02*
X0303967Y0249799D01*
X0303967Y0251597D02*
X0154360Y0251597D01*
X0154360Y0253396D02*
X0303967Y0253396D01*
X0303967Y0255194D02*
X0154360Y0255194D01*
X0154360Y0256993D02*
X0303967Y0256993D01*
X0303967Y0258791D02*
X0154360Y0258791D01*
X0154360Y0260590D02*
X0303967Y0260590D01*
X0303967Y0262388D02*
X0154360Y0262388D01*
X0154360Y0264187D02*
X0303967Y0264187D01*
X0303967Y0265985D02*
X0154360Y0265985D01*
X0154360Y0267784D02*
X0303967Y0267784D01*
X0303967Y0269582D02*
X0019465Y0269582D01*
X0019465Y0271381D02*
X0303967Y0271381D01*
X0303967Y0273179D02*
X0019465Y0273179D01*
X0019465Y0274978D02*
X0226386Y0274978D01*
X0226728Y0274636D02*
X0228308Y0273981D01*
X0230019Y0273981D01*
X0231599Y0274636D01*
X0232809Y0275846D01*
X0233463Y0277426D01*
X0233463Y0279137D01*
X0232809Y0280717D01*
X0231599Y0281927D01*
X0230019Y0282581D01*
X0228308Y0282581D01*
X0226728Y0281927D01*
X0225518Y0280717D01*
X0224863Y0279137D01*
X0224863Y0277426D01*
X0225518Y0275846D01*
X0226728Y0274636D01*
X0225133Y0276776D02*
X0019465Y0276776D01*
X0019465Y0278575D02*
X0224863Y0278575D01*
X0225376Y0280373D02*
X0019465Y0280373D01*
X0019465Y0282172D02*
X0227319Y0282172D01*
X0231008Y0282172D02*
X0303967Y0282172D01*
X0303967Y0283970D02*
X0019465Y0283970D01*
X0019465Y0285769D02*
X0113550Y0285769D01*
X0114283Y0285036D02*
X0116672Y0284046D01*
X0119258Y0284046D01*
X0121647Y0285036D01*
X0123475Y0286864D01*
X0124465Y0289253D01*
X0124465Y0291839D01*
X0123475Y0294228D01*
X0121647Y0296056D01*
X0119258Y0297046D01*
X0116672Y0297046D01*
X0114283Y0296056D01*
X0112455Y0294228D01*
X0111465Y0291839D01*
X0111465Y0289253D01*
X0112455Y0286864D01*
X0114283Y0285036D01*
X0112163Y0287567D02*
X0019465Y0287567D01*
X0019465Y0289366D02*
X0111465Y0289366D01*
X0111465Y0291164D02*
X0019465Y0291164D01*
X0019465Y0292963D02*
X0111931Y0292963D01*
X0112988Y0294761D02*
X0019465Y0294761D01*
X0019465Y0296560D02*
X0063929Y0296560D01*
X0064002Y0296487D02*
X0065362Y0295924D01*
X0066834Y0295924D01*
X0068194Y0296487D01*
X0069235Y0297528D01*
X0069798Y0298888D01*
X0069798Y0300360D01*
X0069235Y0301720D01*
X0068194Y0302761D01*
X0066834Y0303324D01*
X0065362Y0303324D01*
X0064002Y0302761D01*
X0062961Y0301720D01*
X0062398Y0300360D01*
X0062398Y0298888D01*
X0062961Y0297528D01*
X0064002Y0296487D01*
X0062617Y0298358D02*
X0038431Y0298358D01*
X0038666Y0298456D02*
X0039707Y0299497D01*
X0040270Y0300857D01*
X0040270Y0302328D01*
X0039707Y0303688D01*
X0038666Y0304729D01*
X0037306Y0305293D01*
X0035834Y0305293D01*
X0034475Y0304729D01*
X0033434Y0303688D01*
X0032870Y0302328D01*
X0032870Y0300857D01*
X0033434Y0299497D01*
X0034475Y0298456D01*
X0035834Y0297893D01*
X0037306Y0297893D01*
X0038666Y0298456D01*
X0039981Y0300157D02*
X0062398Y0300157D01*
X0063197Y0301956D02*
X0051390Y0301956D01*
X0051086Y0301830D02*
X0052446Y0302393D01*
X0053487Y0303434D01*
X0054050Y0304794D01*
X0054050Y0306266D01*
X0053487Y0307625D01*
X0052446Y0308666D01*
X0051086Y0309230D01*
X0049614Y0309230D01*
X0048254Y0308666D01*
X0047213Y0307625D01*
X0046650Y0306266D01*
X0046650Y0304794D01*
X0047213Y0303434D01*
X0048254Y0302393D01*
X0049614Y0301830D01*
X0051086Y0301830D01*
X0049310Y0301956D02*
X0040270Y0301956D01*
X0039642Y0303754D02*
X0047081Y0303754D01*
X0046650Y0305553D02*
X0019465Y0305553D01*
X0019465Y0307351D02*
X0047100Y0307351D01*
X0049421Y0309150D02*
X0019465Y0309150D01*
X0019465Y0310948D02*
X0039699Y0310948D01*
X0039339Y0311308D02*
X0040380Y0310267D01*
X0041740Y0309704D01*
X0043212Y0309704D01*
X0044572Y0310267D01*
X0045613Y0311308D01*
X0046176Y0312668D01*
X0046176Y0314140D01*
X0045613Y0315499D01*
X0044572Y0316540D01*
X0043212Y0317104D01*
X0041740Y0317104D01*
X0040380Y0316540D01*
X0039339Y0315499D01*
X0038776Y0314140D01*
X0038776Y0312668D01*
X0039339Y0311308D01*
X0038776Y0312747D02*
X0019465Y0312747D01*
X0019465Y0314545D02*
X0038944Y0314545D01*
X0040183Y0316344D02*
X0019465Y0316344D01*
X0019465Y0318142D02*
X0074388Y0318142D01*
X0074209Y0318573D02*
X0074772Y0317213D01*
X0075813Y0316172D01*
X0077173Y0315609D01*
X0078645Y0315609D01*
X0080005Y0316172D01*
X0081046Y0317213D01*
X0081609Y0318573D01*
X0081609Y0320045D01*
X0081046Y0321405D01*
X0080005Y0322446D01*
X0078645Y0323009D01*
X0077173Y0323009D01*
X0075813Y0322446D01*
X0074772Y0321405D01*
X0074209Y0320045D01*
X0074209Y0318573D01*
X0074209Y0319941D02*
X0019465Y0319941D01*
X0019465Y0321739D02*
X0075107Y0321739D01*
X0075642Y0316344D02*
X0060517Y0316344D01*
X0060320Y0316540D02*
X0061361Y0315499D01*
X0061924Y0314140D01*
X0061924Y0312668D01*
X0061361Y0311308D01*
X0060320Y0310267D01*
X0058960Y0309704D01*
X0057488Y0309704D01*
X0056128Y0310267D01*
X0055087Y0311308D01*
X0054524Y0312668D01*
X0054524Y0314140D01*
X0055087Y0315499D01*
X0056128Y0316540D01*
X0057488Y0317104D01*
X0058960Y0317104D01*
X0060320Y0316540D01*
X0061756Y0314545D02*
X0134505Y0314545D01*
X0134652Y0314398D02*
X0136295Y0313717D01*
X0138074Y0313717D01*
X0139718Y0314398D01*
X0140976Y0315656D01*
X0141656Y0317299D01*
X0141656Y0319078D01*
X0140976Y0320722D01*
X0139718Y0321980D01*
X0138074Y0322661D01*
X0136295Y0322661D01*
X0134652Y0321980D01*
X0133394Y0320722D01*
X0132713Y0319078D01*
X0132713Y0317299D01*
X0133394Y0315656D01*
X0134652Y0314398D01*
X0133109Y0316344D02*
X0107735Y0316344D01*
X0107564Y0316172D02*
X0108605Y0317213D01*
X0109168Y0318573D01*
X0109168Y0320045D01*
X0108605Y0321405D01*
X0107564Y0322446D01*
X0106204Y0323009D01*
X0104732Y0323009D01*
X0103372Y0322446D01*
X0102331Y0321405D01*
X0101768Y0320045D01*
X0101768Y0318573D01*
X0102331Y0317213D01*
X0103372Y0316172D01*
X0104732Y0315609D01*
X0106204Y0315609D01*
X0107564Y0316172D01*
X0108990Y0318142D02*
X0132713Y0318142D01*
X0133070Y0319941D02*
X0109168Y0319941D01*
X0108271Y0321739D02*
X0134411Y0321739D01*
X0139958Y0321739D02*
X0144411Y0321739D01*
X0144652Y0321980D02*
X0143394Y0320722D01*
X0142713Y0319078D01*
X0142713Y0317299D01*
X0143394Y0315656D01*
X0144652Y0314398D01*
X0146295Y0313717D01*
X0148074Y0313717D01*
X0149718Y0314398D01*
X0150976Y0315656D01*
X0151656Y0317299D01*
X0151656Y0319078D01*
X0150976Y0320722D01*
X0149718Y0321980D01*
X0148074Y0322661D01*
X0146295Y0322661D01*
X0144652Y0321980D01*
X0143070Y0319941D02*
X0141299Y0319941D01*
X0141656Y0318142D02*
X0142713Y0318142D01*
X0143109Y0316344D02*
X0141260Y0316344D01*
X0139865Y0314545D02*
X0144505Y0314545D01*
X0149865Y0314545D02*
X0154252Y0314545D01*
X0154141Y0314626D02*
X0154736Y0314193D01*
X0155391Y0313860D01*
X0156091Y0313632D01*
X0156817Y0313517D01*
X0157185Y0313517D01*
X0157552Y0313517D01*
X0158279Y0313632D01*
X0158978Y0313860D01*
X0159633Y0314193D01*
X0160228Y0314626D01*
X0160748Y0315146D01*
X0161180Y0315740D01*
X0161514Y0316396D01*
X0161741Y0317095D01*
X0161856Y0317821D01*
X0161856Y0318189D01*
X0161856Y0318557D01*
X0161741Y0319283D01*
X0161514Y0319982D01*
X0161180Y0320637D01*
X0160748Y0321232D01*
X0160228Y0321752D01*
X0159633Y0322185D01*
X0158978Y0322518D01*
X0158279Y0322746D01*
X0157552Y0322861D01*
X0157185Y0322861D01*
X0157185Y0318189D01*
X0161856Y0318189D01*
X0157185Y0318189D01*
X0157185Y0318189D01*
X0157185Y0318189D01*
X0157185Y0313517D01*
X0157185Y0318189D01*
X0157185Y0318189D01*
X0157185Y0322861D01*
X0156817Y0322861D01*
X0156091Y0322746D01*
X0155391Y0322518D01*
X0154736Y0322185D01*
X0154141Y0321752D01*
X0153621Y0321232D01*
X0153189Y0320637D01*
X0152855Y0319982D01*
X0152628Y0319283D01*
X0152513Y0318557D01*
X0152513Y0318189D01*
X0157185Y0318189D01*
X0152513Y0318189D01*
X0152513Y0317821D01*
X0152628Y0317095D01*
X0152855Y0316396D01*
X0153189Y0315740D01*
X0153621Y0315146D01*
X0154141Y0314626D01*
X0152882Y0316344D02*
X0151260Y0316344D01*
X0151656Y0318142D02*
X0152513Y0318142D01*
X0152842Y0319941D02*
X0151299Y0319941D01*
X0149958Y0321739D02*
X0154128Y0321739D01*
X0157185Y0321739D02*
X0157185Y0321739D01*
X0157185Y0319941D02*
X0157185Y0319941D01*
X0157185Y0318189D02*
X0157185Y0318189D01*
X0157185Y0318142D02*
X0157185Y0318142D01*
X0157185Y0316344D02*
X0157185Y0316344D01*
X0157185Y0314545D02*
X0157185Y0314545D01*
X0160117Y0314545D02*
X0179488Y0314545D01*
X0178993Y0314340D02*
X0177783Y0313131D01*
X0177129Y0311550D01*
X0177129Y0309840D01*
X0177783Y0308259D01*
X0178993Y0307050D01*
X0180573Y0306395D01*
X0182284Y0306395D01*
X0183864Y0307050D01*
X0185074Y0308259D01*
X0185729Y0309840D01*
X0185729Y0311550D01*
X0185074Y0313131D01*
X0183864Y0314340D01*
X0182284Y0314995D01*
X0180573Y0314995D01*
X0178993Y0314340D01*
X0177624Y0312747D02*
X0121464Y0312747D01*
X0122647Y0312256D02*
X0120258Y0313246D01*
X0117672Y0313246D01*
X0115283Y0312256D01*
X0113455Y0310428D01*
X0112465Y0308039D01*
X0112465Y0305453D01*
X0113455Y0303064D01*
X0115283Y0301236D01*
X0117672Y0300246D01*
X0120258Y0300246D01*
X0122647Y0301236D01*
X0124475Y0303064D01*
X0125465Y0305453D01*
X0125465Y0308039D01*
X0124475Y0310428D01*
X0122647Y0312256D01*
X0123955Y0310948D02*
X0177129Y0310948D01*
X0177415Y0309150D02*
X0125005Y0309150D01*
X0125465Y0307351D02*
X0178691Y0307351D01*
X0179701Y0304865D02*
X0179070Y0304544D01*
X0178497Y0304127D01*
X0177996Y0303626D01*
X0177580Y0303053D01*
X0177258Y0302422D01*
X0177040Y0301749D01*
X0176929Y0301049D01*
X0176929Y0300695D01*
X0181429Y0300695D01*
X0185929Y0300695D01*
X0185929Y0301049D01*
X0185818Y0301749D01*
X0185599Y0302422D01*
X0185277Y0303053D01*
X0184861Y0303626D01*
X0184360Y0304127D01*
X0183787Y0304544D01*
X0183156Y0304865D01*
X0182482Y0305084D01*
X0181783Y0305195D01*
X0181429Y0305195D01*
X0181429Y0300695D01*
X0181429Y0300695D01*
X0181429Y0300695D01*
X0185929Y0300695D01*
X0185929Y0300341D01*
X0185818Y0299641D01*
X0185599Y0298967D01*
X0185277Y0298336D01*
X0184861Y0297763D01*
X0184360Y0297262D01*
X0183787Y0296846D01*
X0183156Y0296525D01*
X0182482Y0296306D01*
X0181783Y0296195D01*
X0181429Y0296195D01*
X0181429Y0300695D01*
X0181429Y0300695D01*
X0181429Y0305195D01*
X0181075Y0305195D01*
X0180375Y0305084D01*
X0179701Y0304865D01*
X0178124Y0303754D02*
X0124761Y0303754D01*
X0125465Y0305553D02*
X0303967Y0305553D01*
X0303967Y0307351D02*
X0296162Y0307351D01*
X0295947Y0307136D02*
X0297775Y0308964D01*
X0298765Y0311353D01*
X0298765Y0313939D01*
X0297775Y0316328D01*
X0295947Y0318156D01*
X0293558Y0319146D01*
X0290972Y0319146D01*
X0288583Y0318156D01*
X0286755Y0316328D01*
X0285765Y0313939D01*
X0285765Y0311353D01*
X0286755Y0308964D01*
X0288583Y0307136D01*
X0290972Y0306146D01*
X0293558Y0306146D01*
X0295947Y0307136D01*
X0297852Y0309150D02*
X0303967Y0309150D01*
X0303967Y0310948D02*
X0298597Y0310948D01*
X0298765Y0312747D02*
X0303967Y0312747D01*
X0303967Y0314545D02*
X0298514Y0314545D01*
X0297760Y0316344D02*
X0303967Y0316344D01*
X0303967Y0318142D02*
X0295961Y0318142D01*
X0294058Y0324346D02*
X0296447Y0325336D01*
X0298275Y0327164D01*
X0299265Y0329553D01*
X0299265Y0332139D01*
X0298275Y0334528D01*
X0296447Y0336356D01*
X0294058Y0337346D01*
X0291472Y0337346D01*
X0289083Y0336356D01*
X0287255Y0334528D01*
X0286265Y0332139D01*
X0286265Y0329553D01*
X0287255Y0327164D01*
X0289083Y0325336D01*
X0291472Y0324346D01*
X0294058Y0324346D01*
X0296447Y0325336D02*
X0303967Y0325336D01*
X0303967Y0323538D02*
X0256416Y0323538D01*
X0257017Y0322937D02*
X0255759Y0324194D01*
X0254115Y0324875D01*
X0252337Y0324875D01*
X0250693Y0324194D01*
X0249435Y0322937D01*
X0248754Y0321293D01*
X0248754Y0319514D01*
X0249435Y0317871D01*
X0250693Y0316613D01*
X0252337Y0315932D01*
X0254115Y0315932D01*
X0255759Y0316613D01*
X0257017Y0317871D01*
X0257698Y0319514D01*
X0257698Y0321293D01*
X0257017Y0322937D01*
X0257513Y0321739D02*
X0303967Y0321739D01*
X0303967Y0319941D02*
X0257698Y0319941D01*
X0257129Y0318142D02*
X0288569Y0318142D01*
X0286770Y0316344D02*
X0255109Y0316344D01*
X0251343Y0316344D02*
X0182599Y0316344D01*
X0182482Y0316306D02*
X0183156Y0316525D01*
X0183787Y0316846D01*
X0184360Y0317262D01*
X0184861Y0317763D01*
X0185277Y0318336D01*
X0185599Y0318967D01*
X0185818Y0319641D01*
X0185929Y0320341D01*
X0185929Y0320695D01*
X0185929Y0321049D01*
X0185818Y0321749D01*
X0185599Y0322422D01*
X0185277Y0323053D01*
X0184861Y0323626D01*
X0184360Y0324127D01*
X0183787Y0324544D01*
X0183156Y0324865D01*
X0182482Y0325084D01*
X0181783Y0325195D01*
X0181429Y0325195D01*
X0181429Y0320695D01*
X0185929Y0320695D01*
X0181429Y0320695D01*
X0181429Y0320695D01*
X0181429Y0320695D01*
X0181429Y0316195D01*
X0181783Y0316195D01*
X0182482Y0316306D01*
X0181429Y0316344D02*
X0181429Y0316344D01*
X0181429Y0316195D02*
X0181429Y0320695D01*
X0181429Y0320695D01*
X0181429Y0325195D01*
X0181075Y0325195D01*
X0180375Y0325084D01*
X0179701Y0324865D01*
X0179070Y0324544D01*
X0178497Y0324127D01*
X0177996Y0323626D01*
X0177580Y0323053D01*
X0177258Y0322422D01*
X0177040Y0321749D01*
X0176929Y0321049D01*
X0176929Y0320695D01*
X0181429Y0320695D01*
X0181429Y0320695D01*
X0176929Y0320695D01*
X0176929Y0320341D01*
X0177040Y0319641D01*
X0177258Y0318967D01*
X0177580Y0318336D01*
X0177996Y0317763D01*
X0178497Y0317262D01*
X0179070Y0316846D01*
X0179701Y0316525D01*
X0180375Y0316306D01*
X0181075Y0316195D01*
X0181429Y0316195D01*
X0180258Y0316344D02*
X0161487Y0316344D01*
X0161856Y0318142D02*
X0177721Y0318142D01*
X0176992Y0319941D02*
X0161528Y0319941D01*
X0160241Y0321739D02*
X0177038Y0321739D01*
X0177932Y0323538D02*
X0019465Y0323538D01*
X0019465Y0325336D02*
X0289082Y0325336D01*
X0287284Y0327135D02*
X0256281Y0327135D01*
X0255759Y0326613D02*
X0257017Y0327871D01*
X0257698Y0329514D01*
X0257698Y0331293D01*
X0257017Y0332937D01*
X0255759Y0334194D01*
X0254115Y0334875D01*
X0252337Y0334875D01*
X0250693Y0334194D01*
X0249435Y0332937D01*
X0248754Y0331293D01*
X0248754Y0329514D01*
X0249435Y0327871D01*
X0250693Y0326613D01*
X0252337Y0325932D01*
X0254115Y0325932D01*
X0255759Y0326613D01*
X0257457Y0328933D02*
X0286522Y0328933D01*
X0286265Y0330732D02*
X0257698Y0330732D01*
X0257185Y0332530D02*
X0286427Y0332530D01*
X0287172Y0334329D02*
X0255435Y0334329D01*
X0255019Y0336074D02*
X0255674Y0336408D01*
X0256269Y0336840D01*
X0256789Y0337360D01*
X0257222Y0337955D01*
X0257555Y0338610D01*
X0257783Y0339310D01*
X0257898Y0340036D01*
X0257898Y0340403D01*
X0253226Y0340403D01*
X0253226Y0335732D01*
X0253594Y0335732D01*
X0254320Y0335847D01*
X0255019Y0336074D01*
X0255123Y0336127D02*
X0288854Y0336127D01*
X0296676Y0336127D02*
X0303967Y0336127D01*
X0303967Y0334329D02*
X0298358Y0334329D01*
X0299103Y0332530D02*
X0303967Y0332530D01*
X0303967Y0330732D02*
X0299265Y0330732D01*
X0299008Y0328933D02*
X0303967Y0328933D01*
X0303967Y0327135D02*
X0298246Y0327135D01*
X0303967Y0337926D02*
X0257200Y0337926D01*
X0257848Y0339724D02*
X0303967Y0339724D01*
X0303967Y0341523D02*
X0257774Y0341523D01*
X0257783Y0341497D02*
X0257555Y0342197D01*
X0257222Y0342852D01*
X0256789Y0343447D01*
X0256269Y0343967D01*
X0255674Y0344399D01*
X0255019Y0344733D01*
X0254320Y0344960D01*
X0253594Y0345075D01*
X0253226Y0345075D01*
X0253226Y0340404D01*
X0253226Y0345075D01*
X0252858Y0345075D01*
X0252132Y0344960D01*
X0251433Y0344733D01*
X0250777Y0344399D01*
X0250183Y0343967D01*
X0249663Y0343447D01*
X0249230Y0342852D01*
X0248897Y0342197D01*
X0248669Y0341497D01*
X0248554Y0340771D01*
X0248554Y0340404D01*
X0253226Y0340404D01*
X0253226Y0340404D01*
X0257898Y0340404D01*
X0257898Y0340771D01*
X0257783Y0341497D01*
X0256881Y0343321D02*
X0303967Y0343321D01*
X0303967Y0345120D02*
X0019465Y0345120D01*
X0019465Y0346918D02*
X0052171Y0346918D01*
X0051363Y0347253D02*
X0053311Y0346446D01*
X0055419Y0346446D01*
X0057367Y0347253D01*
X0058858Y0348744D01*
X0059665Y0350692D01*
X0059665Y0352800D01*
X0058858Y0354748D01*
X0057367Y0356239D01*
X0055419Y0357046D01*
X0053311Y0357046D01*
X0051363Y0356239D01*
X0049872Y0354748D01*
X0049065Y0352800D01*
X0049065Y0350692D01*
X0049872Y0348744D01*
X0051363Y0347253D01*
X0049899Y0348717D02*
X0019465Y0348717D01*
X0019465Y0350515D02*
X0049138Y0350515D01*
X0049065Y0352314D02*
X0019465Y0352314D01*
X0019465Y0354112D02*
X0049608Y0354112D01*
X0051034Y0355911D02*
X0019465Y0355911D01*
X0019465Y0357709D02*
X0110690Y0357709D01*
X0110690Y0358192D02*
X0110690Y0356481D01*
X0111345Y0354901D01*
X0112554Y0353691D01*
X0114135Y0353037D01*
X0115845Y0353037D01*
X0117426Y0353691D01*
X0118636Y0354901D01*
X0119290Y0356481D01*
X0119290Y0358192D01*
X0118636Y0359772D01*
X0117426Y0360982D01*
X0115845Y0361637D01*
X0114135Y0361637D01*
X0112554Y0360982D01*
X0111345Y0359772D01*
X0110690Y0358192D01*
X0111235Y0359508D02*
X0019465Y0359508D01*
X0019465Y0361306D02*
X0113338Y0361306D01*
X0116643Y0361306D02*
X0133023Y0361306D01*
X0132239Y0360982D02*
X0131030Y0359772D01*
X0130375Y0358192D01*
X0130375Y0356481D01*
X0131030Y0354901D01*
X0132239Y0353691D01*
X0133820Y0353037D01*
X0135531Y0353037D01*
X0137111Y0353691D01*
X0138321Y0354901D01*
X0138975Y0356481D01*
X0138975Y0358192D01*
X0138321Y0359772D01*
X0137111Y0360982D01*
X0135531Y0361637D01*
X0133820Y0361637D01*
X0132239Y0360982D01*
X0130920Y0359508D02*
X0118745Y0359508D01*
X0119290Y0357709D02*
X0130375Y0357709D01*
X0130611Y0355911D02*
X0119054Y0355911D01*
X0117847Y0354112D02*
X0131818Y0354112D01*
X0137532Y0354112D02*
X0303967Y0354112D01*
X0303967Y0352314D02*
X0059665Y0352314D01*
X0059592Y0350515D02*
X0303967Y0350515D01*
X0303967Y0348717D02*
X0058831Y0348717D01*
X0056559Y0346918D02*
X0303967Y0346918D01*
X0303967Y0355911D02*
X0138739Y0355911D01*
X0138975Y0357709D02*
X0303967Y0357709D01*
X0303967Y0359508D02*
X0138430Y0359508D01*
X0136328Y0361306D02*
X0303967Y0361306D01*
X0303967Y0363105D02*
X0019465Y0363105D01*
X0019465Y0364903D02*
X0054185Y0364903D01*
X0053499Y0365187D02*
X0055080Y0364533D01*
X0056790Y0364533D01*
X0058371Y0365187D01*
X0059580Y0366397D01*
X0060235Y0367977D01*
X0060235Y0369688D01*
X0059580Y0371268D01*
X0058371Y0372478D01*
X0056790Y0373133D01*
X0055080Y0373133D01*
X0053499Y0372478D01*
X0052290Y0371268D01*
X0051635Y0369688D01*
X0051635Y0367977D01*
X0052290Y0366397D01*
X0053499Y0365187D01*
X0052163Y0366702D02*
X0019465Y0366702D01*
X0019465Y0368500D02*
X0051635Y0368500D01*
X0051888Y0370299D02*
X0019465Y0370299D01*
X0019465Y0372097D02*
X0053119Y0372097D01*
X0058751Y0372097D02*
X0080678Y0372097D01*
X0081058Y0372478D02*
X0079849Y0371268D01*
X0079194Y0369688D01*
X0079194Y0367977D01*
X0079849Y0366397D01*
X0081058Y0365187D01*
X0082639Y0364533D01*
X0084349Y0364533D01*
X0085930Y0365187D01*
X0087139Y0366397D01*
X0087794Y0367977D01*
X0087794Y0369688D01*
X0087139Y0371268D01*
X0085930Y0372478D01*
X0084349Y0373133D01*
X0082639Y0373133D01*
X0081058Y0372478D01*
X0079447Y0370299D02*
X0059982Y0370299D01*
X0060235Y0368500D02*
X0079194Y0368500D01*
X0079722Y0366702D02*
X0059707Y0366702D01*
X0057685Y0364903D02*
X0081744Y0364903D01*
X0085244Y0364903D02*
X0303967Y0364903D01*
X0303967Y0366702D02*
X0123918Y0366702D01*
X0123496Y0366527D02*
X0125430Y0367328D01*
X0126910Y0368809D01*
X0127711Y0370743D01*
X0127711Y0372836D01*
X0126910Y0374770D01*
X0125430Y0376250D01*
X0123496Y0377052D01*
X0121402Y0377052D01*
X0119468Y0376250D01*
X0117988Y0374770D01*
X0117187Y0372836D01*
X0117187Y0370743D01*
X0117988Y0368809D01*
X0119468Y0367328D01*
X0121402Y0366527D01*
X0123496Y0366527D01*
X0120981Y0366702D02*
X0087266Y0366702D01*
X0087794Y0368500D02*
X0118296Y0368500D01*
X0117371Y0370299D02*
X0087541Y0370299D01*
X0086310Y0372097D02*
X0117187Y0372097D01*
X0117626Y0373896D02*
X0019465Y0373896D01*
X0019465Y0375694D02*
X0118912Y0375694D01*
X0115619Y0380961D02*
X0116821Y0382163D01*
X0117472Y0383734D01*
X0117472Y0385435D01*
X0116821Y0387006D01*
X0115619Y0388209D01*
X0114048Y0388859D01*
X0112347Y0388859D01*
X0110776Y0388209D01*
X0109573Y0387006D01*
X0108922Y0385435D01*
X0108922Y0383734D01*
X0109573Y0382163D01*
X0110776Y0380961D01*
X0112347Y0380310D01*
X0114048Y0380310D01*
X0115619Y0380961D01*
X0115748Y0381090D02*
X0129150Y0381090D01*
X0129280Y0380961D02*
X0130851Y0380310D01*
X0132551Y0380310D01*
X0134123Y0380961D01*
X0135325Y0382163D01*
X0135976Y0383734D01*
X0135976Y0385435D01*
X0135325Y0387006D01*
X0134123Y0388209D01*
X0132551Y0388859D01*
X0130851Y0388859D01*
X0129280Y0388209D01*
X0128077Y0387006D01*
X0127426Y0385435D01*
X0127426Y0383734D01*
X0128077Y0382163D01*
X0129280Y0380961D01*
X0127777Y0382889D02*
X0117122Y0382889D01*
X0117472Y0384687D02*
X0127426Y0384687D01*
X0127862Y0386486D02*
X0123284Y0386486D01*
X0123497Y0386519D02*
X0124167Y0386737D01*
X0124795Y0387057D01*
X0125364Y0387471D01*
X0125862Y0387969D01*
X0126276Y0388539D01*
X0126596Y0389166D01*
X0126814Y0389836D01*
X0126924Y0390532D01*
X0126924Y0390884D01*
X0126924Y0391236D01*
X0126814Y0391932D01*
X0126596Y0392602D01*
X0126276Y0393229D01*
X0125862Y0393799D01*
X0125364Y0394297D01*
X0124795Y0394711D01*
X0124167Y0395031D01*
X0123497Y0395248D01*
X0122801Y0395359D01*
X0122449Y0395359D01*
X0122097Y0395359D01*
X0121401Y0395248D01*
X0120731Y0395031D01*
X0120104Y0394711D01*
X0119534Y0394297D01*
X0119036Y0393799D01*
X0118622Y0393229D01*
X0118302Y0392602D01*
X0118085Y0391932D01*
X0117974Y0391236D01*
X0117974Y0390884D01*
X0122449Y0390884D01*
X0122449Y0390884D01*
X0122449Y0395359D01*
X0122449Y0390884D01*
X0122449Y0390884D01*
X0117974Y0390884D01*
X0117974Y0390532D01*
X0118085Y0389836D01*
X0118302Y0389166D01*
X0118622Y0388539D01*
X0119036Y0387969D01*
X0119534Y0387471D01*
X0120104Y0387057D01*
X0120731Y0386737D01*
X0121401Y0386519D01*
X0122097Y0386409D01*
X0122449Y0386409D01*
X0122449Y0390884D01*
X0122449Y0390884D01*
X0126924Y0390884D01*
X0122449Y0390884D01*
X0122449Y0390884D01*
X0122449Y0386409D01*
X0122801Y0386409D01*
X0123497Y0386519D01*
X0122449Y0386486D02*
X0122449Y0386486D01*
X0121614Y0386486D02*
X0117037Y0386486D01*
X0115437Y0388284D02*
X0118807Y0388284D01*
X0118046Y0390083D02*
X0087631Y0390083D01*
X0087794Y0389688D02*
X0087139Y0391268D01*
X0085930Y0392478D01*
X0084349Y0393133D01*
X0082639Y0393133D01*
X0081058Y0392478D01*
X0079849Y0391268D01*
X0079194Y0389688D01*
X0079194Y0387977D01*
X0079849Y0386397D01*
X0081058Y0385187D01*
X0082639Y0384533D01*
X0084349Y0384533D01*
X0085930Y0385187D01*
X0087139Y0386397D01*
X0087794Y0387977D01*
X0087794Y0389688D01*
X0087794Y0388284D02*
X0110958Y0388284D01*
X0109358Y0386486D02*
X0087176Y0386486D01*
X0084722Y0384687D02*
X0108922Y0384687D01*
X0109273Y0382889D02*
X0019465Y0382889D01*
X0019465Y0384687D02*
X0054707Y0384687D01*
X0055080Y0384533D02*
X0056790Y0384533D01*
X0058371Y0385187D01*
X0059580Y0386397D01*
X0060235Y0387977D01*
X0060235Y0389688D01*
X0059580Y0391268D01*
X0058371Y0392478D01*
X0056790Y0393133D01*
X0055080Y0393133D01*
X0053499Y0392478D01*
X0052290Y0391268D01*
X0051635Y0389688D01*
X0051635Y0387977D01*
X0052290Y0386397D01*
X0053499Y0385187D01*
X0055080Y0384533D01*
X0057163Y0384687D02*
X0082266Y0384687D01*
X0079812Y0386486D02*
X0059617Y0386486D01*
X0060235Y0388284D02*
X0079194Y0388284D01*
X0079358Y0390083D02*
X0060072Y0390083D01*
X0058968Y0391881D02*
X0080461Y0391881D01*
X0086527Y0391881D02*
X0118077Y0391881D01*
X0118949Y0393680D02*
X0019465Y0393680D01*
X0019465Y0395478D02*
X0303967Y0395478D01*
X0303967Y0393680D02*
X0125949Y0393680D01*
X0126822Y0391881D02*
X0303967Y0391881D01*
X0303967Y0390083D02*
X0126853Y0390083D01*
X0126091Y0388284D02*
X0129462Y0388284D01*
X0133941Y0388284D02*
X0303967Y0388284D01*
X0303967Y0386486D02*
X0135541Y0386486D01*
X0135976Y0384687D02*
X0303967Y0384687D01*
X0303967Y0382889D02*
X0135626Y0382889D01*
X0134252Y0381090D02*
X0303967Y0381090D01*
X0303967Y0379291D02*
X0019465Y0379291D01*
X0019465Y0377493D02*
X0303967Y0377493D01*
X0303967Y0375694D02*
X0125986Y0375694D01*
X0127272Y0373896D02*
X0303967Y0373896D01*
X0303967Y0372097D02*
X0127711Y0372097D01*
X0127528Y0370299D02*
X0303967Y0370299D01*
X0303967Y0368500D02*
X0126602Y0368500D01*
X0110646Y0381090D02*
X0019465Y0381090D01*
X0019465Y0386486D02*
X0052253Y0386486D01*
X0051635Y0388284D02*
X0019465Y0388284D01*
X0019465Y0390083D02*
X0051798Y0390083D01*
X0052902Y0391881D02*
X0019465Y0391881D01*
X0019465Y0397277D02*
X0303967Y0397277D01*
X0303967Y0399075D02*
X0019465Y0399075D01*
X0019465Y0400874D02*
X0303967Y0400874D01*
X0303967Y0402672D02*
X0019465Y0402672D01*
X0019465Y0404471D02*
X0303967Y0404471D01*
X0303967Y0406269D02*
X0019465Y0406269D01*
X0019465Y0408068D02*
X0303967Y0408068D01*
X0303967Y0409866D02*
X0019465Y0409866D01*
X0019465Y0411665D02*
X0303967Y0411665D01*
X0303967Y0413463D02*
X0019465Y0413463D01*
X0019465Y0415262D02*
X0303967Y0415262D01*
X0303967Y0417060D02*
X0019465Y0417060D01*
X0019465Y0418859D02*
X0303967Y0418859D01*
X0303967Y0420657D02*
X0019465Y0420657D01*
X0019465Y0422456D02*
X0303967Y0422456D01*
X0253226Y0343321D02*
X0253226Y0343321D01*
X0253226Y0341523D02*
X0253226Y0341523D01*
X0253226Y0340404D02*
X0253226Y0340403D01*
X0253226Y0340403D01*
X0253226Y0335732D01*
X0252858Y0335732D01*
X0252132Y0335847D01*
X0251433Y0336074D01*
X0250777Y0336408D01*
X0250183Y0336840D01*
X0249663Y0337360D01*
X0249230Y0337955D01*
X0248897Y0338610D01*
X0248669Y0339310D01*
X0248554Y0340036D01*
X0248554Y0340403D01*
X0253226Y0340403D01*
X0253226Y0340404D01*
X0253226Y0339724D02*
X0253226Y0339724D01*
X0253226Y0337926D02*
X0253226Y0337926D01*
X0253226Y0336127D02*
X0253226Y0336127D01*
X0251329Y0336127D02*
X0138829Y0336127D01*
X0138975Y0336481D02*
X0138321Y0334901D01*
X0137111Y0333691D01*
X0135531Y0333037D01*
X0133820Y0333037D01*
X0132239Y0333691D01*
X0131030Y0334901D01*
X0130375Y0336481D01*
X0130375Y0338192D01*
X0131030Y0339772D01*
X0132239Y0340982D01*
X0133820Y0341637D01*
X0135531Y0341637D01*
X0137111Y0340982D01*
X0138321Y0339772D01*
X0138975Y0338192D01*
X0138975Y0336481D01*
X0138975Y0337926D02*
X0249252Y0337926D01*
X0248604Y0339724D02*
X0138340Y0339724D01*
X0135805Y0341523D02*
X0248678Y0341523D01*
X0249571Y0343321D02*
X0084720Y0343321D01*
X0084983Y0343058D02*
X0083942Y0344099D01*
X0082582Y0344663D01*
X0081110Y0344663D01*
X0079750Y0344099D01*
X0078709Y0343058D01*
X0078146Y0341699D01*
X0078146Y0340227D01*
X0078709Y0338867D01*
X0079750Y0337826D01*
X0081110Y0337263D01*
X0082582Y0337263D01*
X0083942Y0337826D01*
X0084983Y0338867D01*
X0085546Y0340227D01*
X0085546Y0341699D01*
X0084983Y0343058D01*
X0085546Y0341523D02*
X0113860Y0341523D01*
X0114135Y0341637D02*
X0112554Y0340982D01*
X0111345Y0339772D01*
X0110690Y0338192D01*
X0110690Y0336481D01*
X0111345Y0334901D01*
X0112554Y0333691D01*
X0114135Y0333037D01*
X0115845Y0333037D01*
X0117426Y0333691D01*
X0118636Y0334901D01*
X0119290Y0336481D01*
X0119290Y0338192D01*
X0118636Y0339772D01*
X0117426Y0340982D01*
X0115845Y0341637D01*
X0114135Y0341637D01*
X0116120Y0341523D02*
X0133545Y0341523D01*
X0131010Y0339724D02*
X0118655Y0339724D01*
X0119290Y0337926D02*
X0130375Y0337926D01*
X0130522Y0336127D02*
X0119143Y0336127D01*
X0118063Y0334329D02*
X0131602Y0334329D01*
X0137748Y0334329D02*
X0178981Y0334329D01*
X0178993Y0334340D02*
X0177783Y0333131D01*
X0177129Y0331550D01*
X0177129Y0329840D01*
X0177783Y0328259D01*
X0178993Y0327050D01*
X0180573Y0326395D01*
X0182284Y0326395D01*
X0183864Y0327050D01*
X0185074Y0328259D01*
X0185729Y0329840D01*
X0185729Y0331550D01*
X0185074Y0333131D01*
X0183864Y0334340D01*
X0182284Y0334995D01*
X0180573Y0334995D01*
X0178993Y0334340D01*
X0177535Y0332530D02*
X0019465Y0332530D01*
X0019465Y0330732D02*
X0177129Y0330732D01*
X0177504Y0328933D02*
X0019465Y0328933D01*
X0019465Y0327135D02*
X0178908Y0327135D01*
X0181429Y0323538D02*
X0181429Y0323538D01*
X0181429Y0321739D02*
X0181429Y0321739D01*
X0181429Y0319941D02*
X0181429Y0319941D01*
X0181429Y0318142D02*
X0181429Y0318142D01*
X0185136Y0318142D02*
X0207900Y0318142D01*
X0207783Y0318259D02*
X0208993Y0317050D01*
X0210573Y0316395D01*
X0212284Y0316395D01*
X0213864Y0317050D01*
X0215074Y0318259D01*
X0215729Y0319840D01*
X0215729Y0321550D01*
X0215074Y0323131D01*
X0213864Y0324340D01*
X0212284Y0324995D01*
X0210573Y0324995D01*
X0208993Y0324340D01*
X0207783Y0323131D01*
X0207129Y0321550D01*
X0207129Y0319840D01*
X0207783Y0318259D01*
X0207129Y0319941D02*
X0185865Y0319941D01*
X0185819Y0321739D02*
X0207207Y0321739D01*
X0208190Y0323538D02*
X0184926Y0323538D01*
X0183950Y0327135D02*
X0208908Y0327135D01*
X0208993Y0327050D02*
X0210573Y0326395D01*
X0212284Y0326395D01*
X0213864Y0327050D01*
X0215074Y0328259D01*
X0215729Y0329840D01*
X0215729Y0331550D01*
X0215074Y0333131D01*
X0213864Y0334340D01*
X0212284Y0334995D01*
X0210573Y0334995D01*
X0208993Y0334340D01*
X0207783Y0333131D01*
X0207129Y0331550D01*
X0207129Y0329840D01*
X0207783Y0328259D01*
X0208993Y0327050D01*
X0207504Y0328933D02*
X0185353Y0328933D01*
X0185729Y0330732D02*
X0207129Y0330732D01*
X0207535Y0332530D02*
X0185323Y0332530D01*
X0183876Y0334329D02*
X0208981Y0334329D01*
X0213876Y0334329D02*
X0251017Y0334329D01*
X0249267Y0332530D02*
X0215323Y0332530D01*
X0215729Y0330732D02*
X0248754Y0330732D01*
X0248995Y0328933D02*
X0215353Y0328933D01*
X0213950Y0327135D02*
X0250171Y0327135D01*
X0250036Y0323538D02*
X0214667Y0323538D01*
X0215650Y0321739D02*
X0248939Y0321739D01*
X0248754Y0319941D02*
X0215729Y0319941D01*
X0214957Y0318142D02*
X0249323Y0318142D01*
X0232809Y0300717D02*
X0231599Y0301927D01*
X0230019Y0302581D01*
X0228308Y0302581D01*
X0226728Y0301927D01*
X0225518Y0300717D01*
X0224863Y0299137D01*
X0224863Y0297426D01*
X0225518Y0295846D01*
X0226728Y0294636D01*
X0228308Y0293981D01*
X0230019Y0293981D01*
X0231599Y0294636D01*
X0232809Y0295846D01*
X0233463Y0297426D01*
X0233463Y0299137D01*
X0232809Y0300717D01*
X0233041Y0300157D02*
X0303967Y0300157D01*
X0303967Y0301956D02*
X0231530Y0301956D01*
X0233463Y0298358D02*
X0303967Y0298358D01*
X0303967Y0296560D02*
X0233105Y0296560D01*
X0231724Y0294761D02*
X0303967Y0294761D01*
X0303967Y0292963D02*
X0123999Y0292963D01*
X0124465Y0291164D02*
X0303967Y0291164D01*
X0303967Y0289366D02*
X0124465Y0289366D01*
X0123767Y0287567D02*
X0303967Y0287567D01*
X0303967Y0285769D02*
X0122380Y0285769D01*
X0122942Y0294761D02*
X0226602Y0294761D01*
X0225222Y0296560D02*
X0212683Y0296560D01*
X0212284Y0296395D02*
X0213864Y0297050D01*
X0215074Y0298259D01*
X0215729Y0299840D01*
X0215729Y0301550D01*
X0215074Y0303131D01*
X0213864Y0304340D01*
X0212284Y0304995D01*
X0210573Y0304995D01*
X0208993Y0304340D01*
X0207783Y0303131D01*
X0207129Y0301550D01*
X0207129Y0299840D01*
X0207783Y0298259D01*
X0208993Y0297050D01*
X0210573Y0296395D01*
X0212284Y0296395D01*
X0210175Y0296560D02*
X0183226Y0296560D01*
X0181429Y0296560D02*
X0181429Y0296560D01*
X0181429Y0296195D02*
X0181429Y0300695D01*
X0181429Y0300695D01*
X0176929Y0300695D01*
X0176929Y0300341D01*
X0177040Y0299641D01*
X0177258Y0298967D01*
X0177580Y0298336D01*
X0177996Y0297763D01*
X0178497Y0297262D01*
X0179070Y0296846D01*
X0179701Y0296525D01*
X0180375Y0296306D01*
X0181075Y0296195D01*
X0181429Y0296195D01*
X0179632Y0296560D02*
X0120431Y0296560D01*
X0115499Y0296560D02*
X0068267Y0296560D01*
X0069579Y0298358D02*
X0177569Y0298358D01*
X0176958Y0300157D02*
X0069798Y0300157D01*
X0068999Y0301956D02*
X0114563Y0301956D01*
X0113169Y0303754D02*
X0053619Y0303754D01*
X0054050Y0305553D02*
X0112465Y0305553D01*
X0112465Y0307351D02*
X0053600Y0307351D01*
X0051279Y0309150D02*
X0112925Y0309150D01*
X0113975Y0310948D02*
X0061001Y0310948D01*
X0061924Y0312747D02*
X0116466Y0312747D01*
X0123367Y0301956D02*
X0177107Y0301956D01*
X0181429Y0301956D02*
X0181429Y0301956D01*
X0181429Y0303754D02*
X0181429Y0303754D01*
X0184734Y0303754D02*
X0208407Y0303754D01*
X0207297Y0301956D02*
X0185751Y0301956D01*
X0185900Y0300157D02*
X0207129Y0300157D01*
X0207742Y0298358D02*
X0185289Y0298358D01*
X0181429Y0298358D02*
X0181429Y0298358D01*
X0181429Y0300157D02*
X0181429Y0300157D01*
X0184166Y0307351D02*
X0208691Y0307351D01*
X0208993Y0307050D02*
X0210573Y0306395D01*
X0212284Y0306395D01*
X0213864Y0307050D01*
X0215074Y0308259D01*
X0215729Y0309840D01*
X0215729Y0311550D01*
X0215074Y0313131D01*
X0213864Y0314340D01*
X0212284Y0314995D01*
X0210573Y0314995D01*
X0208993Y0314340D01*
X0207783Y0313131D01*
X0207129Y0311550D01*
X0207129Y0309840D01*
X0207783Y0308259D01*
X0208993Y0307050D01*
X0207415Y0309150D02*
X0185443Y0309150D01*
X0185729Y0310948D02*
X0207129Y0310948D01*
X0207624Y0312747D02*
X0185233Y0312747D01*
X0183370Y0314545D02*
X0209488Y0314545D01*
X0213370Y0314545D02*
X0286016Y0314545D01*
X0285765Y0312747D02*
X0215233Y0312747D01*
X0215729Y0310948D02*
X0285933Y0310948D01*
X0286678Y0309150D02*
X0215443Y0309150D01*
X0214166Y0307351D02*
X0288368Y0307351D01*
X0303967Y0303754D02*
X0214451Y0303754D01*
X0215561Y0301956D02*
X0226797Y0301956D01*
X0225286Y0300157D02*
X0215729Y0300157D01*
X0215115Y0298358D02*
X0224863Y0298358D01*
X0232951Y0280373D02*
X0303967Y0280373D01*
X0303967Y0278575D02*
X0233463Y0278575D01*
X0233194Y0276776D02*
X0303967Y0276776D01*
X0303967Y0274978D02*
X0231941Y0274978D01*
X0111917Y0334329D02*
X0019465Y0334329D01*
X0019465Y0336127D02*
X0110837Y0336127D01*
X0110690Y0337926D02*
X0084042Y0337926D01*
X0085338Y0339724D02*
X0111325Y0339724D01*
X0112133Y0354112D02*
X0059121Y0354112D01*
X0057695Y0355911D02*
X0110926Y0355911D01*
X0078972Y0343321D02*
X0019465Y0343321D01*
X0019465Y0341523D02*
X0078146Y0341523D01*
X0078354Y0339724D02*
X0019465Y0339724D01*
X0019465Y0337926D02*
X0079650Y0337926D01*
X0080712Y0321739D02*
X0102666Y0321739D01*
X0101768Y0319941D02*
X0081609Y0319941D01*
X0081431Y0318142D02*
X0101947Y0318142D01*
X0103201Y0316344D02*
X0080176Y0316344D01*
X0055931Y0316344D02*
X0044769Y0316344D01*
X0046008Y0314545D02*
X0054692Y0314545D01*
X0054524Y0312747D02*
X0046176Y0312747D01*
X0045253Y0310948D02*
X0055447Y0310948D01*
X0033499Y0303754D02*
X0019465Y0303754D01*
X0019465Y0301956D02*
X0032870Y0301956D01*
X0033160Y0300157D02*
X0019465Y0300157D01*
X0019465Y0298358D02*
X0034710Y0298358D01*
X0122449Y0388284D02*
X0122449Y0388284D01*
X0122449Y0390083D02*
X0122449Y0390083D01*
X0122449Y0391881D02*
X0122449Y0391881D01*
X0122449Y0393680D02*
X0122449Y0393680D01*
D24*
X0138065Y0278446D02*
X0138065Y0254646D01*
D25*
X0138612Y0225289D03*
X0138612Y0201667D03*
X0276407Y0111116D03*
X0276407Y0087494D03*
X0335463Y0087494D03*
X0345305Y0113085D03*
X0412234Y0115053D03*
X0451604Y0085526D03*
X0490974Y0115053D03*
X0573652Y0117022D03*
X0581526Y0087494D03*
X0662234Y0111116D03*
X0662234Y0237100D03*
X0630738Y0254817D03*
X0662234Y0361116D03*
X0611053Y0410329D03*
X0575620Y0382770D03*
X0489006Y0376864D03*
X0477195Y0410329D03*
X0406329Y0378833D03*
X0351211Y0410329D03*
X0337431Y0374896D03*
X0284281Y0264659D03*
D26*
X0292265Y0312646D03*
X0292765Y0330846D03*
X0254065Y0364046D03*
X0160465Y0338946D03*
X0118965Y0306746D03*
X0117965Y0290546D03*
D27*
X0159465Y0108446D03*
M02*
