%
M48
M72
T01C0.0138
T02C0.0240
T03C0.0280
T04C0.0315
T05C0.0320
T06C0.0340
T07C0.0354
T08C0.0400
T09C0.0402
T10C0.0472
T11C0.0480
T12C0.0630
T13C0.0640
%
T01
X37503Y13017
X37503Y16017
X37503Y20017
X37503Y21017
X45377Y21017
X45377Y20017
X45377Y16017
X45377Y13017
X53251Y13017
X53251Y16017
X53251Y20017
X53251Y21017
X61125Y21017
X61125Y20017
X61125Y16017
X61125Y13017
X60298Y28568
X60298Y29568
X60298Y33568
X60298Y36568
X52227Y36568
X52227Y33568
X52227Y29568
X52227Y28568
X44550Y28568
X44550Y29568
X44550Y33568
X44550Y36568
X36676Y36568
X36676Y33568
X36676Y29568
X36676Y28568
T02
X24216Y18710
X21027Y17726
X19885Y16151
X20239Y15560
X20554Y14970
X21263Y14812
X22090Y14852
X23349Y14143
X21381Y13907
X22011Y12844
X6610Y29962
X5035Y30553
X4248Y31340
X5822Y31340
X7791Y31931
X8775Y31734
X10547Y31931
X8185Y34096
X5626Y33309
X3657Y30159
T03
X6256Y12475
X7256Y10375
X16656Y11375
X18756Y11775
X20956Y12875
X21394Y9631
X24269Y8849
X17970Y9243
T04
X13170Y38458
X12245Y39088
X11320Y38458
T05
X8349Y38883
X8349Y36883
X5594Y36883
X5594Y38883
X11499Y35734
X13468Y35734
X13468Y33734
X11499Y33734
X15468Y32718
X18143Y33069
X18143Y32069
X18143Y31069
X18143Y30069
X17437Y29962
X18240Y28234
X21143Y30069
X21143Y31069
X21143Y32069
X21143Y33069
X23736Y31144
X22916Y29828
X22916Y27828
X21726Y25665
X22405Y20994
X21696Y20600
X23822Y20560
X18153Y17726
X17636Y13185
X12365Y10245
X11263Y11190
X8743Y11545
X5160Y17017
X5948Y17686
X6696Y18316
X7562Y18119
X8782Y18159
X11578Y19497
X11105Y21348
X11126Y24335
X10318Y25639
X4334Y23868
X2719Y23041
X2719Y21978
X2719Y20797
X3231Y17568
X2444Y17450
X27050Y16820
X29676Y13376
X30676Y13376
X32964Y13134
X32964Y14134
X34922Y13684
X34922Y14684
X33456Y17108
X33456Y18108
X32456Y17108
X39739Y18289
X40739Y18289
X39739Y19289
X39945Y21509
X39945Y22509
X40360Y26074
X40360Y27074
X41511Y28722
X42511Y28722
X41511Y29722
X39144Y30343
X39144Y31343
X34637Y28722
X33637Y28722
X33637Y29722
X33460Y26679
X33460Y25679
X46812Y30342
X46812Y31342
X49188Y29525
X49188Y28525
X50188Y28525
X49118Y27086
X49118Y26086
X47818Y22538
X47818Y21538
X49385Y19879
X49385Y18879
X50385Y18879
X55640Y18287
X55640Y17287
X57456Y17501
X58456Y17501
X57456Y18501
X58106Y21503
X58106Y22503
X55596Y22472
X55596Y21472
X56134Y26357
X56134Y27357
X56471Y28722
X57471Y28722
X56471Y29722
X54539Y30369
X54539Y31369
X57490Y31943
X58490Y31943
X24917Y34687
T06
X15946Y10845
T07
X15718Y31819
X14718Y31819
X13718Y31819
X25323Y32040
X25323Y33040
X25323Y34040
T08
X24026Y21365
X25232Y20314
X26232Y20314
X26232Y19314
X25232Y19314
X27232Y19314
X28232Y19314
X29232Y19314
X29232Y20314
X28232Y20314
X27232Y20314
X13356Y15475
X12356Y15475
X12356Y14475
X13356Y14475
X13356Y13475
X12356Y13475
X12356Y12475
X13356Y12475
X13356Y11475
X12356Y11475
X4208Y11255
X3208Y11255
X3208Y12255
X4208Y12255
X4208Y13255
X3208Y13255
X3208Y14255
X4208Y14255
X4208Y15255
X3208Y15255
T09
X6054Y15027
X7054Y15027
X8054Y15027
X9054Y15027
X10054Y15027
X19889Y23354
X19889Y24354
T10
X12245Y37179
T11
X13271Y9423
X6814Y13828
X12116Y25385
X13806Y25465
X13806Y27845
X5436Y35175
X22129Y39852
T12
X33743Y37490
X35121Y41033
X40633Y37883
X47719Y41033
X48901Y37686
X57562Y38277
X61105Y41033
X66223Y36112
X63074Y25482
X66223Y23710
X57365Y11702
X58153Y8749
X66223Y11112
X49097Y11505
X45160Y8553
X41223Y11505
X34531Y11308
X33546Y8749
X27641Y8749
X27641Y11112
X13861Y20167
X13861Y22529
X28428Y26466
T13
X29226Y31265
X29276Y33085
X25406Y36405
X16046Y33895
X11896Y30675
X11796Y29055
M30
