G75*
%MOIN*%
%OFA0B0*%
%FSLAX25Y25*%
%IPPOS*%
%LPD*%
%AMOC8*
5,1,8,0,0,1.08239X$1,22.5*
%
%ADD10C,0.00600*%
%ADD11C,0.00400*%
%ADD12C,0.00200*%
%ADD13C,0.00300*%
%ADD14C,0.00500*%
%ADD15C,0.00100*%
%ADD16C,0.00800*%
%ADD17C,0.01200*%
D10*
X0025608Y0013956D02*
X0030945Y0013956D01*
X0032013Y0015023D01*
X0032013Y0017158D01*
X0030945Y0018226D01*
X0025608Y0018226D01*
X0027743Y0020401D02*
X0025608Y0022536D01*
X0027743Y0024671D01*
X0032013Y0024671D01*
X0032013Y0026847D02*
X0025608Y0026847D01*
X0025608Y0030049D01*
X0026675Y0031117D01*
X0028810Y0031117D01*
X0029878Y0030049D01*
X0029878Y0026847D01*
X0029878Y0028982D02*
X0032013Y0031117D01*
X0032013Y0035427D02*
X0025608Y0035427D01*
X0025608Y0033292D02*
X0025608Y0037562D01*
X0028810Y0024671D02*
X0028810Y0020401D01*
X0027743Y0020401D02*
X0032013Y0020401D01*
X0123164Y0097700D02*
X0124232Y0096633D01*
X0126367Y0096633D01*
X0127434Y0097700D01*
X0127434Y0103038D01*
X0129610Y0101971D02*
X0129610Y0100903D01*
X0130677Y0099835D01*
X0132812Y0099835D01*
X0133880Y0098768D01*
X0133880Y0097700D01*
X0132812Y0096633D01*
X0130677Y0096633D01*
X0129610Y0097700D01*
X0129610Y0101971D02*
X0130677Y0103038D01*
X0132812Y0103038D01*
X0133880Y0101971D01*
X0136055Y0103038D02*
X0139258Y0103038D01*
X0140325Y0101971D01*
X0140325Y0100903D01*
X0139258Y0099835D01*
X0136055Y0099835D01*
X0136055Y0096633D02*
X0139258Y0096633D01*
X0140325Y0097700D01*
X0140325Y0098768D01*
X0139258Y0099835D01*
X0136055Y0096633D02*
X0136055Y0103038D01*
X0123164Y0103038D02*
X0123164Y0097700D01*
X0202130Y0189880D02*
X0229130Y0189880D01*
X0229190Y0189882D01*
X0229251Y0189887D01*
X0229310Y0189896D01*
X0229369Y0189909D01*
X0229428Y0189925D01*
X0229485Y0189945D01*
X0229540Y0189968D01*
X0229595Y0189995D01*
X0229647Y0190024D01*
X0229698Y0190057D01*
X0229747Y0190093D01*
X0229793Y0190131D01*
X0229837Y0190173D01*
X0229879Y0190217D01*
X0229917Y0190263D01*
X0229953Y0190312D01*
X0229986Y0190363D01*
X0230015Y0190415D01*
X0230042Y0190470D01*
X0230065Y0190525D01*
X0230085Y0190582D01*
X0230101Y0190641D01*
X0230114Y0190700D01*
X0230123Y0190759D01*
X0230128Y0190820D01*
X0230130Y0190880D01*
X0230130Y0200880D01*
X0230128Y0200940D01*
X0230123Y0201001D01*
X0230114Y0201060D01*
X0230101Y0201119D01*
X0230085Y0201178D01*
X0230065Y0201235D01*
X0230042Y0201290D01*
X0230015Y0201345D01*
X0229986Y0201397D01*
X0229953Y0201448D01*
X0229917Y0201497D01*
X0229879Y0201543D01*
X0229837Y0201587D01*
X0229793Y0201629D01*
X0229747Y0201667D01*
X0229698Y0201703D01*
X0229647Y0201736D01*
X0229595Y0201765D01*
X0229540Y0201792D01*
X0229485Y0201815D01*
X0229428Y0201835D01*
X0229369Y0201851D01*
X0229310Y0201864D01*
X0229251Y0201873D01*
X0229190Y0201878D01*
X0229130Y0201880D01*
X0202130Y0201880D01*
X0202070Y0201878D01*
X0202009Y0201873D01*
X0201950Y0201864D01*
X0201891Y0201851D01*
X0201832Y0201835D01*
X0201775Y0201815D01*
X0201720Y0201792D01*
X0201665Y0201765D01*
X0201613Y0201736D01*
X0201562Y0201703D01*
X0201513Y0201667D01*
X0201467Y0201629D01*
X0201423Y0201587D01*
X0201381Y0201543D01*
X0201343Y0201497D01*
X0201307Y0201448D01*
X0201274Y0201397D01*
X0201245Y0201345D01*
X0201218Y0201290D01*
X0201195Y0201235D01*
X0201175Y0201178D01*
X0201159Y0201119D01*
X0201146Y0201060D01*
X0201137Y0201001D01*
X0201132Y0200940D01*
X0201130Y0200880D01*
X0201130Y0190880D01*
X0201132Y0190820D01*
X0201137Y0190759D01*
X0201146Y0190700D01*
X0201159Y0190641D01*
X0201175Y0190582D01*
X0201195Y0190525D01*
X0201218Y0190470D01*
X0201245Y0190415D01*
X0201274Y0190363D01*
X0201307Y0190312D01*
X0201343Y0190263D01*
X0201381Y0190217D01*
X0201423Y0190173D01*
X0201467Y0190131D01*
X0201513Y0190093D01*
X0201562Y0190057D01*
X0201613Y0190024D01*
X0201665Y0189995D01*
X0201720Y0189968D01*
X0201775Y0189945D01*
X0201832Y0189925D01*
X0201891Y0189909D01*
X0201950Y0189896D01*
X0202009Y0189887D01*
X0202070Y0189882D01*
X0202130Y0189880D01*
X0209630Y0195880D02*
X0214430Y0195880D01*
X0216930Y0195880D02*
X0221630Y0195880D01*
X0207929Y0209130D02*
X0184929Y0209130D01*
X0184929Y0249130D01*
X0192429Y0249130D01*
X0192431Y0249004D01*
X0192437Y0248879D01*
X0192447Y0248754D01*
X0192461Y0248629D01*
X0192478Y0248504D01*
X0192500Y0248380D01*
X0192525Y0248257D01*
X0192555Y0248135D01*
X0192588Y0248014D01*
X0192625Y0247894D01*
X0192665Y0247775D01*
X0192710Y0247658D01*
X0192758Y0247541D01*
X0192810Y0247427D01*
X0192865Y0247314D01*
X0192924Y0247203D01*
X0192986Y0247094D01*
X0193052Y0246987D01*
X0193121Y0246882D01*
X0193193Y0246779D01*
X0193268Y0246678D01*
X0193347Y0246580D01*
X0193429Y0246485D01*
X0193513Y0246392D01*
X0193601Y0246302D01*
X0193691Y0246214D01*
X0193784Y0246130D01*
X0193879Y0246048D01*
X0193977Y0245969D01*
X0194078Y0245894D01*
X0194181Y0245822D01*
X0194286Y0245753D01*
X0194393Y0245687D01*
X0194502Y0245625D01*
X0194613Y0245566D01*
X0194726Y0245511D01*
X0194840Y0245459D01*
X0194957Y0245411D01*
X0195074Y0245366D01*
X0195193Y0245326D01*
X0195313Y0245289D01*
X0195434Y0245256D01*
X0195556Y0245226D01*
X0195679Y0245201D01*
X0195803Y0245179D01*
X0195928Y0245162D01*
X0196053Y0245148D01*
X0196178Y0245138D01*
X0196303Y0245132D01*
X0196429Y0245130D01*
X0196555Y0245132D01*
X0196680Y0245138D01*
X0196805Y0245148D01*
X0196930Y0245162D01*
X0197055Y0245179D01*
X0197179Y0245201D01*
X0197302Y0245226D01*
X0197424Y0245256D01*
X0197545Y0245289D01*
X0197665Y0245326D01*
X0197784Y0245366D01*
X0197901Y0245411D01*
X0198018Y0245459D01*
X0198132Y0245511D01*
X0198245Y0245566D01*
X0198356Y0245625D01*
X0198465Y0245687D01*
X0198572Y0245753D01*
X0198677Y0245822D01*
X0198780Y0245894D01*
X0198881Y0245969D01*
X0198979Y0246048D01*
X0199074Y0246130D01*
X0199167Y0246214D01*
X0199257Y0246302D01*
X0199345Y0246392D01*
X0199429Y0246485D01*
X0199511Y0246580D01*
X0199590Y0246678D01*
X0199665Y0246779D01*
X0199737Y0246882D01*
X0199806Y0246987D01*
X0199872Y0247094D01*
X0199934Y0247203D01*
X0199993Y0247314D01*
X0200048Y0247427D01*
X0200100Y0247541D01*
X0200148Y0247658D01*
X0200193Y0247775D01*
X0200233Y0247894D01*
X0200270Y0248014D01*
X0200303Y0248135D01*
X0200333Y0248257D01*
X0200358Y0248380D01*
X0200380Y0248504D01*
X0200397Y0248629D01*
X0200411Y0248754D01*
X0200421Y0248879D01*
X0200427Y0249004D01*
X0200429Y0249130D01*
X0207929Y0249130D01*
X0207929Y0209130D01*
X0144256Y0228771D02*
X0144256Y0238771D01*
X0144254Y0238831D01*
X0144249Y0238892D01*
X0144240Y0238951D01*
X0144227Y0239010D01*
X0144211Y0239069D01*
X0144191Y0239126D01*
X0144168Y0239181D01*
X0144141Y0239236D01*
X0144112Y0239288D01*
X0144079Y0239339D01*
X0144043Y0239388D01*
X0144005Y0239434D01*
X0143963Y0239478D01*
X0143919Y0239520D01*
X0143873Y0239558D01*
X0143824Y0239594D01*
X0143773Y0239627D01*
X0143721Y0239656D01*
X0143666Y0239683D01*
X0143611Y0239706D01*
X0143554Y0239726D01*
X0143495Y0239742D01*
X0143436Y0239755D01*
X0143377Y0239764D01*
X0143316Y0239769D01*
X0143256Y0239771D01*
X0116256Y0239771D01*
X0116196Y0239769D01*
X0116135Y0239764D01*
X0116076Y0239755D01*
X0116017Y0239742D01*
X0115958Y0239726D01*
X0115901Y0239706D01*
X0115846Y0239683D01*
X0115791Y0239656D01*
X0115739Y0239627D01*
X0115688Y0239594D01*
X0115639Y0239558D01*
X0115593Y0239520D01*
X0115549Y0239478D01*
X0115507Y0239434D01*
X0115469Y0239388D01*
X0115433Y0239339D01*
X0115400Y0239288D01*
X0115371Y0239236D01*
X0115344Y0239181D01*
X0115321Y0239126D01*
X0115301Y0239069D01*
X0115285Y0239010D01*
X0115272Y0238951D01*
X0115263Y0238892D01*
X0115258Y0238831D01*
X0115256Y0238771D01*
X0115256Y0228771D01*
X0115258Y0228711D01*
X0115263Y0228650D01*
X0115272Y0228591D01*
X0115285Y0228532D01*
X0115301Y0228473D01*
X0115321Y0228416D01*
X0115344Y0228361D01*
X0115371Y0228306D01*
X0115400Y0228254D01*
X0115433Y0228203D01*
X0115469Y0228154D01*
X0115507Y0228108D01*
X0115549Y0228064D01*
X0115593Y0228022D01*
X0115639Y0227984D01*
X0115688Y0227948D01*
X0115739Y0227915D01*
X0115791Y0227886D01*
X0115846Y0227859D01*
X0115901Y0227836D01*
X0115958Y0227816D01*
X0116017Y0227800D01*
X0116076Y0227787D01*
X0116135Y0227778D01*
X0116196Y0227773D01*
X0116256Y0227771D01*
X0143256Y0227771D01*
X0143316Y0227773D01*
X0143377Y0227778D01*
X0143436Y0227787D01*
X0143495Y0227800D01*
X0143554Y0227816D01*
X0143611Y0227836D01*
X0143666Y0227859D01*
X0143721Y0227886D01*
X0143773Y0227915D01*
X0143824Y0227948D01*
X0143873Y0227984D01*
X0143919Y0228022D01*
X0143963Y0228064D01*
X0144005Y0228108D01*
X0144043Y0228154D01*
X0144079Y0228203D01*
X0144112Y0228254D01*
X0144141Y0228306D01*
X0144168Y0228361D01*
X0144191Y0228416D01*
X0144211Y0228473D01*
X0144227Y0228532D01*
X0144240Y0228591D01*
X0144249Y0228650D01*
X0144254Y0228711D01*
X0144256Y0228771D01*
X0135756Y0233771D02*
X0130956Y0233771D01*
X0128456Y0233771D02*
X0123756Y0233771D01*
X0114356Y0217156D02*
X0141356Y0217156D01*
X0141416Y0217154D01*
X0141477Y0217149D01*
X0141536Y0217140D01*
X0141595Y0217127D01*
X0141654Y0217111D01*
X0141711Y0217091D01*
X0141766Y0217068D01*
X0141821Y0217041D01*
X0141873Y0217012D01*
X0141924Y0216979D01*
X0141973Y0216943D01*
X0142019Y0216905D01*
X0142063Y0216863D01*
X0142105Y0216819D01*
X0142143Y0216773D01*
X0142179Y0216724D01*
X0142212Y0216673D01*
X0142241Y0216621D01*
X0142268Y0216566D01*
X0142291Y0216511D01*
X0142311Y0216454D01*
X0142327Y0216395D01*
X0142340Y0216336D01*
X0142349Y0216277D01*
X0142354Y0216216D01*
X0142356Y0216156D01*
X0142356Y0206156D01*
X0142354Y0206096D01*
X0142349Y0206035D01*
X0142340Y0205976D01*
X0142327Y0205917D01*
X0142311Y0205858D01*
X0142291Y0205801D01*
X0142268Y0205746D01*
X0142241Y0205691D01*
X0142212Y0205639D01*
X0142179Y0205588D01*
X0142143Y0205539D01*
X0142105Y0205493D01*
X0142063Y0205449D01*
X0142019Y0205407D01*
X0141973Y0205369D01*
X0141924Y0205333D01*
X0141873Y0205300D01*
X0141821Y0205271D01*
X0141766Y0205244D01*
X0141711Y0205221D01*
X0141654Y0205201D01*
X0141595Y0205185D01*
X0141536Y0205172D01*
X0141477Y0205163D01*
X0141416Y0205158D01*
X0141356Y0205156D01*
X0114356Y0205156D01*
X0114296Y0205158D01*
X0114235Y0205163D01*
X0114176Y0205172D01*
X0114117Y0205185D01*
X0114058Y0205201D01*
X0114001Y0205221D01*
X0113946Y0205244D01*
X0113891Y0205271D01*
X0113839Y0205300D01*
X0113788Y0205333D01*
X0113739Y0205369D01*
X0113693Y0205407D01*
X0113649Y0205449D01*
X0113607Y0205493D01*
X0113569Y0205539D01*
X0113533Y0205588D01*
X0113500Y0205639D01*
X0113471Y0205691D01*
X0113444Y0205746D01*
X0113421Y0205801D01*
X0113401Y0205858D01*
X0113385Y0205917D01*
X0113372Y0205976D01*
X0113363Y0206035D01*
X0113358Y0206096D01*
X0113356Y0206156D01*
X0113356Y0216156D01*
X0113358Y0216216D01*
X0113363Y0216277D01*
X0113372Y0216336D01*
X0113385Y0216395D01*
X0113401Y0216454D01*
X0113421Y0216511D01*
X0113444Y0216566D01*
X0113471Y0216621D01*
X0113500Y0216673D01*
X0113533Y0216724D01*
X0113569Y0216773D01*
X0113607Y0216819D01*
X0113649Y0216863D01*
X0113693Y0216905D01*
X0113739Y0216943D01*
X0113788Y0216979D01*
X0113839Y0217012D01*
X0113891Y0217041D01*
X0113946Y0217068D01*
X0114001Y0217091D01*
X0114058Y0217111D01*
X0114117Y0217127D01*
X0114176Y0217140D01*
X0114235Y0217149D01*
X0114296Y0217154D01*
X0114356Y0217156D01*
X0121856Y0211156D02*
X0126656Y0211156D01*
X0129156Y0211156D02*
X0133856Y0211156D01*
X0112894Y0283168D02*
X0102894Y0283168D01*
X0102834Y0283170D01*
X0102773Y0283175D01*
X0102714Y0283184D01*
X0102655Y0283197D01*
X0102596Y0283213D01*
X0102539Y0283233D01*
X0102484Y0283256D01*
X0102429Y0283283D01*
X0102377Y0283312D01*
X0102326Y0283345D01*
X0102277Y0283381D01*
X0102231Y0283419D01*
X0102187Y0283461D01*
X0102145Y0283505D01*
X0102107Y0283551D01*
X0102071Y0283600D01*
X0102038Y0283651D01*
X0102009Y0283703D01*
X0101982Y0283758D01*
X0101959Y0283813D01*
X0101939Y0283870D01*
X0101923Y0283929D01*
X0101910Y0283988D01*
X0101901Y0284047D01*
X0101896Y0284108D01*
X0101894Y0284168D01*
X0101894Y0311168D01*
X0101896Y0311228D01*
X0101901Y0311289D01*
X0101910Y0311348D01*
X0101923Y0311407D01*
X0101939Y0311466D01*
X0101959Y0311523D01*
X0101982Y0311578D01*
X0102009Y0311633D01*
X0102038Y0311685D01*
X0102071Y0311736D01*
X0102107Y0311785D01*
X0102145Y0311831D01*
X0102187Y0311875D01*
X0102231Y0311917D01*
X0102277Y0311955D01*
X0102326Y0311991D01*
X0102377Y0312024D01*
X0102429Y0312053D01*
X0102484Y0312080D01*
X0102539Y0312103D01*
X0102596Y0312123D01*
X0102655Y0312139D01*
X0102714Y0312152D01*
X0102773Y0312161D01*
X0102834Y0312166D01*
X0102894Y0312168D01*
X0112894Y0312168D01*
X0112954Y0312166D01*
X0113015Y0312161D01*
X0113074Y0312152D01*
X0113133Y0312139D01*
X0113192Y0312123D01*
X0113249Y0312103D01*
X0113304Y0312080D01*
X0113359Y0312053D01*
X0113411Y0312024D01*
X0113462Y0311991D01*
X0113511Y0311955D01*
X0113557Y0311917D01*
X0113601Y0311875D01*
X0113643Y0311831D01*
X0113681Y0311785D01*
X0113717Y0311736D01*
X0113750Y0311685D01*
X0113779Y0311633D01*
X0113806Y0311578D01*
X0113829Y0311523D01*
X0113849Y0311466D01*
X0113865Y0311407D01*
X0113878Y0311348D01*
X0113887Y0311289D01*
X0113892Y0311228D01*
X0113894Y0311168D01*
X0113894Y0284168D01*
X0113892Y0284108D01*
X0113887Y0284047D01*
X0113878Y0283988D01*
X0113865Y0283929D01*
X0113849Y0283870D01*
X0113829Y0283813D01*
X0113806Y0283758D01*
X0113779Y0283703D01*
X0113750Y0283651D01*
X0113717Y0283600D01*
X0113681Y0283551D01*
X0113643Y0283505D01*
X0113601Y0283461D01*
X0113557Y0283419D01*
X0113511Y0283381D01*
X0113462Y0283345D01*
X0113411Y0283312D01*
X0113359Y0283283D01*
X0113304Y0283256D01*
X0113249Y0283233D01*
X0113192Y0283213D01*
X0113133Y0283197D01*
X0113074Y0283184D01*
X0113015Y0283175D01*
X0112954Y0283170D01*
X0112894Y0283168D01*
X0107894Y0291668D02*
X0107894Y0296368D01*
X0107894Y0298868D02*
X0107894Y0303668D01*
X0087435Y0311768D02*
X0087435Y0284768D01*
X0087433Y0284708D01*
X0087428Y0284647D01*
X0087419Y0284588D01*
X0087406Y0284529D01*
X0087390Y0284470D01*
X0087370Y0284413D01*
X0087347Y0284358D01*
X0087320Y0284303D01*
X0087291Y0284251D01*
X0087258Y0284200D01*
X0087222Y0284151D01*
X0087184Y0284105D01*
X0087142Y0284061D01*
X0087098Y0284019D01*
X0087052Y0283981D01*
X0087003Y0283945D01*
X0086952Y0283912D01*
X0086900Y0283883D01*
X0086845Y0283856D01*
X0086790Y0283833D01*
X0086733Y0283813D01*
X0086674Y0283797D01*
X0086615Y0283784D01*
X0086556Y0283775D01*
X0086495Y0283770D01*
X0086435Y0283768D01*
X0076435Y0283768D01*
X0076375Y0283770D01*
X0076314Y0283775D01*
X0076255Y0283784D01*
X0076196Y0283797D01*
X0076137Y0283813D01*
X0076080Y0283833D01*
X0076025Y0283856D01*
X0075970Y0283883D01*
X0075918Y0283912D01*
X0075867Y0283945D01*
X0075818Y0283981D01*
X0075772Y0284019D01*
X0075728Y0284061D01*
X0075686Y0284105D01*
X0075648Y0284151D01*
X0075612Y0284200D01*
X0075579Y0284251D01*
X0075550Y0284303D01*
X0075523Y0284358D01*
X0075500Y0284413D01*
X0075480Y0284470D01*
X0075464Y0284529D01*
X0075451Y0284588D01*
X0075442Y0284647D01*
X0075437Y0284708D01*
X0075435Y0284768D01*
X0075435Y0311768D01*
X0075437Y0311828D01*
X0075442Y0311889D01*
X0075451Y0311948D01*
X0075464Y0312007D01*
X0075480Y0312066D01*
X0075500Y0312123D01*
X0075523Y0312178D01*
X0075550Y0312233D01*
X0075579Y0312285D01*
X0075612Y0312336D01*
X0075648Y0312385D01*
X0075686Y0312431D01*
X0075728Y0312475D01*
X0075772Y0312517D01*
X0075818Y0312555D01*
X0075867Y0312591D01*
X0075918Y0312624D01*
X0075970Y0312653D01*
X0076025Y0312680D01*
X0076080Y0312703D01*
X0076137Y0312723D01*
X0076196Y0312739D01*
X0076255Y0312752D01*
X0076314Y0312761D01*
X0076375Y0312766D01*
X0076435Y0312768D01*
X0086435Y0312768D01*
X0086495Y0312766D01*
X0086556Y0312761D01*
X0086615Y0312752D01*
X0086674Y0312739D01*
X0086733Y0312723D01*
X0086790Y0312703D01*
X0086845Y0312680D01*
X0086900Y0312653D01*
X0086952Y0312624D01*
X0087003Y0312591D01*
X0087052Y0312555D01*
X0087098Y0312517D01*
X0087142Y0312475D01*
X0087184Y0312431D01*
X0087222Y0312385D01*
X0087258Y0312336D01*
X0087291Y0312285D01*
X0087320Y0312233D01*
X0087347Y0312178D01*
X0087370Y0312123D01*
X0087390Y0312066D01*
X0087406Y0312007D01*
X0087419Y0311948D01*
X0087428Y0311889D01*
X0087433Y0311828D01*
X0087435Y0311768D01*
X0081435Y0304268D02*
X0081435Y0299468D01*
X0081435Y0296968D02*
X0081435Y0292268D01*
X0233758Y0291940D02*
X0238028Y0291940D01*
X0240163Y0294075D01*
X0238028Y0296210D01*
X0233758Y0296210D01*
X0234825Y0289764D02*
X0233758Y0288697D01*
X0233758Y0286562D01*
X0234825Y0285494D01*
X0235893Y0285494D01*
X0236961Y0286562D01*
X0236961Y0289764D01*
X0239096Y0289764D02*
X0240163Y0288697D01*
X0240163Y0286562D01*
X0239096Y0285494D01*
X0239096Y0289764D02*
X0234825Y0289764D01*
X0233758Y0304831D02*
X0233758Y0306966D01*
X0233758Y0305898D02*
X0240163Y0305898D01*
X0240163Y0304831D02*
X0240163Y0306966D01*
X0240163Y0309128D02*
X0235893Y0309128D01*
X0235893Y0312330D01*
X0236961Y0313398D01*
X0240163Y0313398D01*
X0277775Y0154219D02*
X0276707Y0153152D01*
X0276707Y0152084D01*
X0277775Y0151017D01*
X0279910Y0151017D01*
X0280978Y0149949D01*
X0280978Y0148881D01*
X0279910Y0147814D01*
X0277775Y0147814D01*
X0276707Y0148881D01*
X0277775Y0154219D02*
X0279910Y0154219D01*
X0280978Y0153152D01*
X0283153Y0154219D02*
X0286356Y0154219D01*
X0287423Y0153152D01*
X0287423Y0151017D01*
X0286356Y0149949D01*
X0283153Y0149949D01*
X0283153Y0147814D02*
X0283153Y0154219D01*
X0289598Y0154219D02*
X0291734Y0154219D01*
X0290666Y0154219D02*
X0290666Y0147814D01*
X0289598Y0147814D02*
X0291734Y0147814D01*
D11*
X0285676Y0167000D02*
X0284142Y0167000D01*
X0283374Y0167767D01*
X0283374Y0169302D02*
X0284909Y0170069D01*
X0285676Y0170069D01*
X0286444Y0169302D01*
X0286444Y0167767D01*
X0285676Y0167000D01*
X0283374Y0169302D02*
X0283374Y0171604D01*
X0286444Y0171604D01*
X0281840Y0170836D02*
X0281840Y0169302D01*
X0281072Y0168534D01*
X0278770Y0168534D01*
X0278770Y0167000D02*
X0278770Y0171604D01*
X0281072Y0171604D01*
X0281840Y0170836D01*
X0280305Y0168534D02*
X0281840Y0167000D01*
X0280374Y0180615D02*
X0278840Y0182150D01*
X0279607Y0182150D02*
X0277305Y0182150D01*
X0277305Y0180615D02*
X0277305Y0185219D01*
X0279607Y0185219D01*
X0280374Y0184452D01*
X0280374Y0182917D01*
X0279607Y0182150D01*
X0281909Y0182917D02*
X0284978Y0182917D01*
X0284211Y0180615D02*
X0284211Y0185219D01*
X0281909Y0182917D01*
X0280243Y0206769D02*
X0277941Y0206769D01*
X0277941Y0211373D01*
X0280243Y0211373D01*
X0281011Y0210605D01*
X0281011Y0207536D01*
X0280243Y0206769D01*
X0276407Y0206769D02*
X0276407Y0211373D01*
X0273337Y0211373D02*
X0276407Y0206769D01*
X0273337Y0206769D02*
X0273337Y0211373D01*
X0271803Y0210605D02*
X0271035Y0211373D01*
X0269501Y0211373D01*
X0268733Y0210605D01*
X0268733Y0207536D01*
X0269501Y0206769D01*
X0271035Y0206769D01*
X0271803Y0207536D01*
X0271803Y0209071D01*
X0270268Y0209071D01*
X0287149Y0209071D02*
X0290218Y0209071D01*
X0291753Y0209071D02*
X0291753Y0207536D01*
X0292520Y0206769D01*
X0294055Y0206769D01*
X0294822Y0207536D01*
X0294822Y0209071D01*
X0294055Y0209838D01*
X0292520Y0209838D01*
X0291753Y0209071D01*
X0290218Y0211373D02*
X0290218Y0206769D01*
X0287149Y0206769D02*
X0287149Y0211373D01*
X0296357Y0209071D02*
X0296357Y0207536D01*
X0297124Y0206769D01*
X0298659Y0206769D01*
X0299426Y0207536D01*
X0299426Y0209071D01*
X0298659Y0209838D01*
X0297124Y0209838D01*
X0296357Y0209071D01*
X0300961Y0208304D02*
X0303263Y0206769D01*
X0300961Y0206769D02*
X0300961Y0211373D01*
X0303263Y0209838D02*
X0300961Y0208304D01*
X0269453Y0264039D02*
X0266384Y0264039D01*
X0267918Y0264039D02*
X0267918Y0268643D01*
X0266384Y0267108D01*
X0264849Y0268643D02*
X0264849Y0264039D01*
X0261780Y0264039D02*
X0261780Y0268643D01*
X0263315Y0267108D01*
X0264849Y0268643D01*
X0260245Y0268643D02*
X0257176Y0268643D01*
X0258711Y0268643D02*
X0258711Y0264039D01*
X0233940Y0238466D02*
X0232405Y0238466D01*
X0231638Y0237698D01*
X0230104Y0237698D02*
X0229336Y0238466D01*
X0227802Y0238466D01*
X0227034Y0237698D01*
X0227034Y0234629D01*
X0227802Y0233862D01*
X0229336Y0233862D01*
X0230104Y0234629D01*
X0231638Y0233862D02*
X0234707Y0236931D01*
X0234707Y0237698D01*
X0233940Y0238466D01*
X0229901Y0237374D02*
X0226832Y0237374D01*
X0228367Y0237374D02*
X0228367Y0241978D01*
X0226832Y0240443D01*
X0225297Y0241210D02*
X0224530Y0241978D01*
X0222995Y0241978D01*
X0222228Y0241210D01*
X0222228Y0238141D01*
X0222995Y0237374D01*
X0224530Y0237374D01*
X0225297Y0238141D01*
X0231638Y0233862D02*
X0234707Y0233862D01*
X0234693Y0189092D02*
X0235460Y0188324D01*
X0235460Y0186790D01*
X0234693Y0186022D01*
X0232391Y0186022D01*
X0232391Y0184488D02*
X0232391Y0189092D01*
X0234693Y0189092D01*
X0236995Y0188324D02*
X0237762Y0189092D01*
X0239297Y0189092D01*
X0240064Y0188324D01*
X0240064Y0187557D01*
X0239297Y0186790D01*
X0240064Y0186022D01*
X0240064Y0185255D01*
X0239297Y0184488D01*
X0237762Y0184488D01*
X0236995Y0185255D01*
X0235460Y0184488D02*
X0233926Y0186022D01*
X0238530Y0186790D02*
X0239297Y0186790D01*
X0244695Y0167767D02*
X0246997Y0165465D01*
X0246997Y0168534D01*
X0249299Y0167767D02*
X0244695Y0167767D01*
X0245462Y0163930D02*
X0244695Y0163163D01*
X0244695Y0161628D01*
X0245462Y0160861D01*
X0248532Y0160861D01*
X0249299Y0161628D01*
X0249299Y0163163D01*
X0248532Y0163930D01*
X0233554Y0155842D02*
X0233554Y0154307D01*
X0232787Y0153540D01*
X0231252Y0153540D01*
X0231252Y0155842D01*
X0232019Y0156609D01*
X0232787Y0156609D01*
X0233554Y0155842D01*
X0231252Y0153540D02*
X0229717Y0155074D01*
X0228950Y0156609D01*
X0229717Y0152005D02*
X0228950Y0151238D01*
X0228950Y0149703D01*
X0229717Y0148936D01*
X0232787Y0148936D01*
X0233554Y0149703D01*
X0233554Y0151238D01*
X0232787Y0152005D01*
X0210155Y0136711D02*
X0207086Y0136711D01*
X0207086Y0134409D01*
X0208621Y0135176D01*
X0209388Y0135176D01*
X0210155Y0134409D01*
X0210155Y0132874D01*
X0209388Y0132107D01*
X0207854Y0132107D01*
X0207086Y0132874D01*
X0205552Y0132874D02*
X0204784Y0132107D01*
X0203250Y0132107D01*
X0202482Y0132874D01*
X0202482Y0135943D01*
X0203250Y0136711D01*
X0204784Y0136711D01*
X0205552Y0135943D01*
X0199775Y0124785D02*
X0200542Y0124018D01*
X0197473Y0120949D01*
X0198240Y0120181D01*
X0199775Y0120181D01*
X0200542Y0120949D01*
X0200542Y0124018D01*
X0199775Y0124785D02*
X0198240Y0124785D01*
X0197473Y0124018D01*
X0197473Y0120949D01*
X0195938Y0120949D02*
X0195171Y0120181D01*
X0193636Y0120181D01*
X0192869Y0120949D01*
X0191334Y0120949D02*
X0191334Y0124785D01*
X0192869Y0124018D02*
X0193636Y0124785D01*
X0195171Y0124785D01*
X0195938Y0124018D01*
X0195938Y0123251D01*
X0195171Y0122483D01*
X0195938Y0121716D01*
X0195938Y0120949D01*
X0195171Y0122483D02*
X0194404Y0122483D01*
X0191334Y0120949D02*
X0190567Y0120181D01*
X0189032Y0120181D01*
X0188265Y0120949D01*
X0188265Y0124785D01*
X0173518Y0126172D02*
X0171216Y0124637D01*
X0173518Y0123103D01*
X0171216Y0123103D02*
X0171216Y0127707D01*
X0168914Y0126172D02*
X0167379Y0126172D01*
X0166612Y0125405D01*
X0166612Y0123870D01*
X0167379Y0123103D01*
X0168914Y0123103D01*
X0169681Y0123870D01*
X0169681Y0125405D01*
X0168914Y0126172D01*
X0165077Y0125405D02*
X0164310Y0126172D01*
X0162775Y0126172D01*
X0162008Y0125405D01*
X0162008Y0123870D01*
X0162775Y0123103D01*
X0164310Y0123103D01*
X0165077Y0123870D01*
X0165077Y0125405D01*
X0160473Y0125405D02*
X0157404Y0125405D01*
X0157404Y0123103D02*
X0157404Y0127707D01*
X0160473Y0127707D02*
X0160473Y0123103D01*
X0151265Y0124637D02*
X0151265Y0127707D01*
X0148196Y0127707D02*
X0148196Y0124637D01*
X0149731Y0123103D01*
X0151265Y0124637D01*
X0146661Y0124637D02*
X0146661Y0123870D01*
X0145894Y0123103D01*
X0144359Y0123103D01*
X0143592Y0123870D01*
X0142057Y0123870D02*
X0142057Y0123103D01*
X0141290Y0123103D01*
X0141290Y0123870D01*
X0142057Y0123870D01*
X0139755Y0123870D02*
X0138988Y0123103D01*
X0137454Y0123103D01*
X0136686Y0123870D01*
X0138221Y0125405D02*
X0138988Y0125405D01*
X0139755Y0124637D01*
X0139755Y0123870D01*
X0138988Y0125405D02*
X0139755Y0126172D01*
X0139755Y0126939D01*
X0138988Y0127707D01*
X0137454Y0127707D01*
X0136686Y0126939D01*
X0143592Y0126939D02*
X0144359Y0127707D01*
X0145894Y0127707D01*
X0146661Y0126939D01*
X0146661Y0126172D01*
X0145894Y0125405D01*
X0146661Y0124637D01*
X0145894Y0125405D02*
X0145127Y0125405D01*
X0125606Y0134535D02*
X0125606Y0136069D01*
X0124839Y0136837D01*
X0125606Y0138371D02*
X0125606Y0141441D01*
X0125606Y0139906D02*
X0121002Y0139906D01*
X0122537Y0138371D01*
X0121769Y0136837D02*
X0121002Y0136069D01*
X0121002Y0134535D01*
X0121769Y0133767D01*
X0124839Y0133767D01*
X0125606Y0134535D01*
X0123304Y0142975D02*
X0121002Y0145277D01*
X0125606Y0145277D01*
X0123304Y0146044D02*
X0123304Y0142975D01*
X0138123Y0147855D02*
X0138891Y0147088D01*
X0140425Y0147088D01*
X0141193Y0147855D01*
X0141193Y0149390D01*
X0139658Y0149390D01*
X0141193Y0150924D02*
X0140425Y0151692D01*
X0138891Y0151692D01*
X0138123Y0150924D01*
X0138123Y0147855D01*
X0142727Y0147088D02*
X0142727Y0151692D01*
X0145796Y0147088D01*
X0145796Y0151692D01*
X0147331Y0151692D02*
X0147331Y0147088D01*
X0149633Y0147088D01*
X0150400Y0147855D01*
X0150400Y0150924D01*
X0149633Y0151692D01*
X0147331Y0151692D01*
X0156539Y0151692D02*
X0156539Y0147088D01*
X0156539Y0149390D02*
X0159608Y0149390D01*
X0161143Y0149390D02*
X0161143Y0147855D01*
X0161910Y0147088D01*
X0163445Y0147088D01*
X0164212Y0147855D01*
X0164212Y0149390D01*
X0163445Y0150157D01*
X0161910Y0150157D01*
X0161143Y0149390D01*
X0159608Y0151692D02*
X0159608Y0147088D01*
X0165747Y0147855D02*
X0166514Y0147088D01*
X0168049Y0147088D01*
X0168816Y0147855D01*
X0168816Y0149390D01*
X0168049Y0150157D01*
X0166514Y0150157D01*
X0165747Y0149390D01*
X0165747Y0147855D01*
X0170351Y0147088D02*
X0170351Y0151692D01*
X0172653Y0150157D02*
X0170351Y0148622D01*
X0172653Y0147088D01*
X0174518Y0107422D02*
X0176820Y0107422D01*
X0177587Y0106654D01*
X0177587Y0105120D01*
X0176820Y0104352D01*
X0174518Y0104352D01*
X0174518Y0102818D02*
X0174518Y0107422D01*
X0176052Y0104352D02*
X0177587Y0102818D01*
X0179122Y0102818D02*
X0179122Y0103585D01*
X0182191Y0106654D01*
X0182191Y0107422D01*
X0179122Y0107422D01*
X0167838Y0083448D02*
X0166303Y0083448D01*
X0165536Y0082681D01*
X0167838Y0083448D02*
X0168605Y0082681D01*
X0168605Y0081914D01*
X0165536Y0078844D01*
X0168605Y0078844D01*
X0164001Y0078844D02*
X0160932Y0078844D01*
X0162467Y0078844D02*
X0162467Y0083448D01*
X0160932Y0081914D01*
X0159397Y0082681D02*
X0159397Y0081146D01*
X0158630Y0080379D01*
X0156328Y0080379D01*
X0156328Y0078844D02*
X0156328Y0083448D01*
X0158630Y0083448D01*
X0159397Y0082681D01*
X0157863Y0080379D02*
X0159397Y0078844D01*
X0178813Y0077291D02*
X0179580Y0078059D01*
X0182650Y0074989D01*
X0183417Y0075757D01*
X0183417Y0077291D01*
X0182650Y0078059D01*
X0179580Y0078059D01*
X0178813Y0077291D02*
X0178813Y0075757D01*
X0179580Y0074989D01*
X0182650Y0074989D01*
X0183417Y0073455D02*
X0183417Y0070385D01*
X0183417Y0071920D02*
X0178813Y0071920D01*
X0180348Y0070385D01*
X0179580Y0068851D02*
X0178813Y0068083D01*
X0178813Y0066549D01*
X0179580Y0065781D01*
X0182650Y0065781D01*
X0183417Y0066549D01*
X0183417Y0068083D01*
X0182650Y0068851D01*
X0194161Y0069081D02*
X0197998Y0069081D01*
X0198765Y0069849D01*
X0198765Y0071383D01*
X0197998Y0072151D01*
X0194161Y0072151D01*
X0194928Y0073685D02*
X0194161Y0074453D01*
X0194161Y0075987D01*
X0194928Y0076755D01*
X0197998Y0076755D01*
X0198765Y0075987D01*
X0198765Y0074453D01*
X0197998Y0073685D01*
X0196463Y0074453D02*
X0196463Y0076755D01*
X0196463Y0074453D02*
X0195696Y0073685D01*
X0194928Y0073685D01*
X0214725Y0051000D02*
X0213958Y0050232D01*
X0213958Y0048698D01*
X0214725Y0047930D01*
X0215493Y0047930D01*
X0216260Y0048698D01*
X0216260Y0051000D01*
X0217795Y0051000D02*
X0214725Y0051000D01*
X0217795Y0051000D02*
X0218562Y0050232D01*
X0218562Y0048698D01*
X0217795Y0047930D01*
X0217795Y0046396D02*
X0218562Y0045628D01*
X0218562Y0044094D01*
X0217795Y0043326D01*
X0214725Y0043326D01*
X0213958Y0044094D01*
X0213958Y0045628D01*
X0214725Y0046396D01*
X0220952Y0052576D02*
X0221720Y0051809D01*
X0224789Y0051809D01*
X0225556Y0052576D01*
X0225556Y0054111D01*
X0224789Y0054878D01*
X0225556Y0056413D02*
X0225556Y0059482D01*
X0225556Y0057948D02*
X0220952Y0057948D01*
X0222487Y0056413D01*
X0221720Y0054878D02*
X0220952Y0054111D01*
X0220952Y0052576D01*
X0221720Y0061017D02*
X0220952Y0061784D01*
X0220952Y0063319D01*
X0221720Y0064086D01*
X0222487Y0064086D01*
X0223254Y0063319D01*
X0224022Y0064086D01*
X0224789Y0064086D01*
X0225556Y0063319D01*
X0225556Y0061784D01*
X0224789Y0061017D01*
X0223254Y0062552D02*
X0223254Y0063319D01*
X0231505Y0062009D02*
X0231505Y0057405D01*
X0231505Y0058940D02*
X0233807Y0058940D01*
X0234574Y0059707D01*
X0234574Y0061242D01*
X0233807Y0062009D01*
X0231505Y0062009D01*
X0233040Y0058940D02*
X0234574Y0057405D01*
X0236109Y0058172D02*
X0236876Y0057405D01*
X0238411Y0057405D01*
X0239178Y0058172D01*
X0239178Y0061242D01*
X0238411Y0062009D01*
X0236876Y0062009D01*
X0236109Y0061242D01*
X0236109Y0060474D01*
X0236876Y0059707D01*
X0239178Y0059707D01*
X0218871Y0038885D02*
X0216569Y0036583D01*
X0219638Y0036583D01*
X0218871Y0034281D02*
X0218871Y0038885D01*
X0215034Y0038885D02*
X0215034Y0035049D01*
X0214267Y0034281D01*
X0212732Y0034281D01*
X0211965Y0035049D01*
X0211965Y0038885D01*
X0198087Y0042070D02*
X0195018Y0042070D01*
X0196552Y0042070D02*
X0196552Y0046674D01*
X0195018Y0045139D01*
X0193483Y0042070D02*
X0190414Y0042070D01*
X0191948Y0042070D02*
X0191948Y0046674D01*
X0190414Y0045139D01*
X0188879Y0045906D02*
X0188112Y0046674D01*
X0186577Y0046674D01*
X0185810Y0045906D01*
X0185810Y0042837D01*
X0186577Y0042070D01*
X0188112Y0042070D01*
X0188879Y0042837D01*
X0185101Y0037689D02*
X0183567Y0036155D01*
X0182032Y0036155D02*
X0181265Y0035387D01*
X0178963Y0035387D01*
X0181265Y0035387D02*
X0182032Y0034620D01*
X0182032Y0033853D01*
X0181265Y0033085D01*
X0178963Y0033085D01*
X0178963Y0037689D01*
X0181265Y0037689D01*
X0182032Y0036922D01*
X0182032Y0036155D01*
X0185101Y0037689D02*
X0185101Y0033085D01*
X0183567Y0033085D02*
X0186636Y0033085D01*
X0177428Y0037689D02*
X0174359Y0037689D01*
X0174359Y0033085D01*
X0174359Y0035387D02*
X0175893Y0035387D01*
X0170852Y0029833D02*
X0171619Y0029065D01*
X0171619Y0027531D01*
X0170852Y0026763D01*
X0170085Y0026763D01*
X0169317Y0027531D01*
X0169317Y0029065D01*
X0170085Y0029833D01*
X0170852Y0029833D01*
X0169317Y0029065D02*
X0168550Y0029833D01*
X0167783Y0029833D01*
X0167015Y0029065D01*
X0167015Y0027531D01*
X0167783Y0026763D01*
X0168550Y0026763D01*
X0169317Y0027531D01*
X0167783Y0025229D02*
X0167015Y0024461D01*
X0167015Y0022927D01*
X0167783Y0022159D01*
X0170852Y0022159D01*
X0171619Y0022927D01*
X0171619Y0024461D01*
X0170852Y0025229D01*
X0165505Y0048344D02*
X0162436Y0048344D01*
X0163970Y0048344D02*
X0163970Y0052948D01*
X0162436Y0051414D01*
X0159367Y0052948D02*
X0159367Y0048344D01*
X0160901Y0048344D02*
X0157832Y0048344D01*
X0156297Y0048344D02*
X0154763Y0049879D01*
X0155530Y0049879D02*
X0153228Y0049879D01*
X0153228Y0048344D02*
X0153228Y0052948D01*
X0155530Y0052948D01*
X0156297Y0052181D01*
X0156297Y0050646D01*
X0155530Y0049879D01*
X0157832Y0051414D02*
X0159367Y0052948D01*
X0117465Y0068749D02*
X0116698Y0067981D01*
X0112861Y0067981D01*
X0112861Y0071051D02*
X0116698Y0071051D01*
X0117465Y0070283D01*
X0117465Y0068749D01*
X0117465Y0072585D02*
X0114396Y0075655D01*
X0113628Y0075655D01*
X0112861Y0074887D01*
X0112861Y0073353D01*
X0113628Y0072585D01*
X0117465Y0072585D02*
X0117465Y0075655D01*
X0116698Y0077189D02*
X0117465Y0077957D01*
X0117465Y0079491D01*
X0116698Y0080259D01*
X0115163Y0080259D01*
X0114396Y0079491D01*
X0114396Y0078724D01*
X0115163Y0077189D01*
X0112861Y0077189D01*
X0112861Y0080259D01*
X0103273Y0090881D02*
X0103273Y0091649D01*
X0106342Y0094718D01*
X0106342Y0095485D01*
X0103273Y0095485D01*
X0101738Y0094718D02*
X0100971Y0095485D01*
X0099436Y0095485D01*
X0098669Y0094718D01*
X0097134Y0095485D02*
X0097134Y0091649D01*
X0096367Y0090881D01*
X0094832Y0090881D01*
X0094065Y0091649D01*
X0094065Y0095485D01*
X0098669Y0090881D02*
X0101738Y0093951D01*
X0101738Y0094718D01*
X0101738Y0090881D02*
X0098669Y0090881D01*
X0062609Y0070386D02*
X0062609Y0067317D01*
X0059540Y0070386D01*
X0058772Y0070386D01*
X0058005Y0069619D01*
X0058005Y0068084D01*
X0058772Y0067317D01*
X0058005Y0064248D02*
X0062609Y0064248D01*
X0062609Y0065782D02*
X0062609Y0062713D01*
X0061842Y0061178D02*
X0062609Y0060411D01*
X0062609Y0058876D01*
X0061842Y0058109D01*
X0058772Y0058109D01*
X0058005Y0058876D01*
X0058005Y0060411D01*
X0058772Y0061178D01*
X0059540Y0062713D02*
X0058005Y0064248D01*
X0041875Y0093681D02*
X0040340Y0093681D01*
X0039573Y0094449D01*
X0039573Y0095983D01*
X0041875Y0095983D01*
X0042642Y0095216D01*
X0042642Y0094449D01*
X0041875Y0093681D01*
X0039573Y0095983D02*
X0041107Y0097518D01*
X0042642Y0098285D01*
X0038038Y0097518D02*
X0038038Y0096751D01*
X0034969Y0093681D01*
X0038038Y0093681D01*
X0038038Y0097518D02*
X0037271Y0098285D01*
X0035736Y0098285D01*
X0034969Y0097518D01*
X0033434Y0098285D02*
X0033434Y0094449D01*
X0032667Y0093681D01*
X0031132Y0093681D01*
X0030365Y0094449D01*
X0030365Y0098285D01*
X0028498Y0106192D02*
X0028498Y0106959D01*
X0031567Y0110028D01*
X0031567Y0110796D01*
X0028498Y0110796D01*
X0026963Y0110028D02*
X0026196Y0110796D01*
X0024661Y0110796D01*
X0023894Y0110028D01*
X0023894Y0106959D01*
X0024661Y0106192D01*
X0026196Y0106192D01*
X0026963Y0106959D01*
X0089765Y0024585D02*
X0089765Y0020749D01*
X0090532Y0019981D01*
X0092067Y0019981D01*
X0092834Y0020749D01*
X0092834Y0024585D01*
X0094369Y0023818D02*
X0094369Y0023051D01*
X0095136Y0022283D01*
X0096671Y0022283D01*
X0097438Y0021516D01*
X0097438Y0020749D01*
X0096671Y0019981D01*
X0095136Y0019981D01*
X0094369Y0020749D01*
X0094369Y0021516D01*
X0095136Y0022283D01*
X0096671Y0022283D02*
X0097438Y0023051D01*
X0097438Y0023818D01*
X0096671Y0024585D01*
X0095136Y0024585D01*
X0094369Y0023818D01*
X0110932Y0165281D02*
X0112467Y0165281D01*
X0113234Y0166049D01*
X0113234Y0169885D01*
X0114769Y0169118D02*
X0115536Y0169885D01*
X0117071Y0169885D01*
X0117838Y0169118D01*
X0117838Y0168351D01*
X0114769Y0165281D01*
X0117838Y0165281D01*
X0119373Y0166049D02*
X0120140Y0165281D01*
X0121675Y0165281D01*
X0122442Y0166049D01*
X0122442Y0166816D01*
X0121675Y0167583D01*
X0120907Y0167583D01*
X0121675Y0167583D02*
X0122442Y0168351D01*
X0122442Y0169118D01*
X0121675Y0169885D01*
X0120140Y0169885D01*
X0119373Y0169118D01*
X0110165Y0169885D02*
X0110165Y0166049D01*
X0110932Y0165281D01*
X0110234Y0194093D02*
X0109467Y0194861D01*
X0112536Y0197930D01*
X0112536Y0194861D01*
X0111768Y0194093D01*
X0110234Y0194093D01*
X0109467Y0194861D02*
X0109467Y0197930D01*
X0110234Y0198697D01*
X0111768Y0198697D01*
X0112536Y0197930D01*
X0107932Y0197930D02*
X0107932Y0197163D01*
X0107165Y0196395D01*
X0107932Y0195628D01*
X0107932Y0194861D01*
X0107165Y0194093D01*
X0105630Y0194093D01*
X0104863Y0194861D01*
X0103328Y0194093D02*
X0101793Y0195628D01*
X0102561Y0195628D02*
X0100259Y0195628D01*
X0100259Y0194093D02*
X0100259Y0198697D01*
X0102561Y0198697D01*
X0103328Y0197930D01*
X0103328Y0196395D01*
X0102561Y0195628D01*
X0104863Y0197930D02*
X0105630Y0198697D01*
X0107165Y0198697D01*
X0107932Y0197930D01*
X0107165Y0196395D02*
X0106397Y0196395D01*
X0083342Y0190681D02*
X0080273Y0190681D01*
X0081807Y0190681D02*
X0081807Y0195285D01*
X0080273Y0193751D01*
X0077204Y0195285D02*
X0077204Y0190681D01*
X0078738Y0190681D02*
X0075669Y0190681D01*
X0074134Y0191449D02*
X0074134Y0195285D01*
X0075669Y0193751D02*
X0077204Y0195285D01*
X0074134Y0191449D02*
X0073367Y0190681D01*
X0071832Y0190681D01*
X0071065Y0191449D01*
X0071065Y0195285D01*
X0117645Y0258667D02*
X0122249Y0261737D01*
X0122249Y0263271D02*
X0119180Y0266341D01*
X0118413Y0266341D01*
X0117645Y0265573D01*
X0117645Y0264039D01*
X0118413Y0263271D01*
X0117645Y0261737D02*
X0122249Y0258667D01*
X0122249Y0263271D02*
X0122249Y0266341D01*
X0174561Y0296381D02*
X0178398Y0296381D01*
X0179165Y0297149D01*
X0179165Y0298683D01*
X0178398Y0299451D01*
X0174561Y0299451D01*
X0176863Y0300985D02*
X0174561Y0303287D01*
X0179165Y0303287D01*
X0176863Y0304055D02*
X0176863Y0300985D01*
X0175328Y0305589D02*
X0174561Y0306357D01*
X0174561Y0307891D01*
X0175328Y0308659D01*
X0178398Y0305589D01*
X0179165Y0306357D01*
X0179165Y0307891D01*
X0178398Y0308659D01*
X0175328Y0308659D01*
X0175328Y0305589D02*
X0178398Y0305589D01*
X0178647Y0206605D02*
X0177880Y0205838D01*
X0178647Y0206605D02*
X0180182Y0206605D01*
X0180949Y0205838D01*
X0180949Y0205070D01*
X0177880Y0202001D01*
X0180949Y0202001D01*
X0176345Y0202001D02*
X0176345Y0206605D01*
X0174811Y0205070D01*
X0173276Y0206605D01*
X0173276Y0202001D01*
X0170207Y0202001D02*
X0170207Y0206605D01*
X0171741Y0206605D02*
X0168672Y0206605D01*
X0264765Y0117585D02*
X0264765Y0113749D01*
X0265532Y0112981D01*
X0267067Y0112981D01*
X0267834Y0113749D01*
X0267834Y0117585D01*
X0269369Y0117585D02*
X0269369Y0115283D01*
X0270904Y0116051D01*
X0271671Y0116051D01*
X0272438Y0115283D01*
X0272438Y0113749D01*
X0271671Y0112981D01*
X0270136Y0112981D01*
X0269369Y0113749D01*
X0269369Y0117585D02*
X0272438Y0117585D01*
X0257407Y0102000D02*
X0255872Y0101233D01*
X0254337Y0099698D01*
X0256639Y0099698D01*
X0257407Y0098931D01*
X0257407Y0098164D01*
X0256639Y0097396D01*
X0255105Y0097396D01*
X0254337Y0098164D01*
X0254337Y0099698D01*
X0252803Y0099698D02*
X0252803Y0101233D01*
X0252035Y0102000D01*
X0249733Y0102000D01*
X0249733Y0097396D01*
X0249733Y0098931D02*
X0252035Y0098931D01*
X0252803Y0099698D01*
X0251268Y0098931D02*
X0252803Y0097396D01*
X0244972Y0021296D02*
X0241902Y0021296D01*
X0244972Y0018226D01*
X0245739Y0018994D01*
X0245739Y0020528D01*
X0244972Y0021296D01*
X0241902Y0021296D02*
X0241135Y0020528D01*
X0241135Y0018994D01*
X0241902Y0018226D01*
X0244972Y0018226D01*
X0245739Y0016692D02*
X0245739Y0013622D01*
X0245739Y0012088D02*
X0244204Y0010553D01*
X0244204Y0011320D02*
X0244204Y0009019D01*
X0245739Y0009019D02*
X0241135Y0009019D01*
X0241135Y0011320D01*
X0241902Y0012088D01*
X0243437Y0012088D01*
X0244204Y0011320D01*
X0242670Y0013622D02*
X0241135Y0015157D01*
X0245739Y0015157D01*
D12*
X0144696Y0047581D02*
X0144696Y0050384D01*
X0142827Y0050384D02*
X0142827Y0047581D01*
X0141933Y0047581D02*
X0140999Y0048516D01*
X0141466Y0048516D02*
X0140065Y0048516D01*
X0140065Y0047581D02*
X0140065Y0050384D01*
X0141466Y0050384D01*
X0141933Y0049917D01*
X0141933Y0048983D01*
X0141466Y0048516D01*
X0142827Y0050384D02*
X0144696Y0047581D01*
X0144261Y0057281D02*
X0144261Y0060084D01*
X0143327Y0060084D02*
X0145196Y0060084D01*
X0142433Y0060084D02*
X0140565Y0060084D01*
X0140565Y0057281D01*
X0140565Y0058683D02*
X0141499Y0058683D01*
X0141733Y0078881D02*
X0140799Y0079816D01*
X0141266Y0079816D02*
X0139865Y0079816D01*
X0139865Y0078881D02*
X0139865Y0081684D01*
X0141266Y0081684D01*
X0141733Y0081217D01*
X0141733Y0080283D01*
X0141266Y0079816D01*
X0142627Y0078881D02*
X0142627Y0081684D01*
X0144496Y0078881D01*
X0144496Y0081684D01*
X0143561Y0088481D02*
X0143561Y0091284D01*
X0142627Y0091284D02*
X0144496Y0091284D01*
X0141733Y0091284D02*
X0139865Y0091284D01*
X0139865Y0088481D01*
X0139865Y0089883D02*
X0140799Y0089883D01*
X0085358Y0092949D02*
X0084891Y0092481D01*
X0083957Y0092481D01*
X0083490Y0092949D01*
X0083490Y0094817D01*
X0083957Y0095284D01*
X0084891Y0095284D01*
X0085358Y0094817D01*
X0082596Y0094817D02*
X0082129Y0095284D01*
X0081194Y0095284D01*
X0080727Y0094817D01*
X0080727Y0092949D01*
X0081194Y0092481D01*
X0082129Y0092481D01*
X0082596Y0092949D01*
X0079833Y0093416D02*
X0079833Y0095284D01*
X0077965Y0095284D02*
X0077965Y0093416D01*
X0078899Y0092481D01*
X0079833Y0093416D01*
X0062958Y0093617D02*
X0062491Y0094084D01*
X0061090Y0094084D01*
X0061090Y0091281D01*
X0062491Y0091281D01*
X0062958Y0091749D01*
X0062958Y0093617D01*
X0060196Y0094084D02*
X0060196Y0091281D01*
X0058327Y0094084D01*
X0058327Y0091281D01*
X0057433Y0091749D02*
X0057433Y0092683D01*
X0056499Y0092683D01*
X0055565Y0093617D02*
X0055565Y0091749D01*
X0056032Y0091281D01*
X0056966Y0091281D01*
X0057433Y0091749D01*
X0057433Y0093617D02*
X0056966Y0094084D01*
X0056032Y0094084D01*
X0055565Y0093617D01*
X0025465Y0089178D02*
X0022663Y0089178D01*
X0022663Y0088244D02*
X0022663Y0090112D01*
X0023597Y0087350D02*
X0025465Y0087350D01*
X0024064Y0087350D02*
X0024064Y0085481D01*
X0023597Y0085481D02*
X0022663Y0086416D01*
X0023597Y0087350D01*
X0023597Y0085481D02*
X0025465Y0085481D01*
X0024665Y0079012D02*
X0021863Y0079012D01*
X0021863Y0077144D02*
X0024665Y0079012D01*
X0024665Y0077144D02*
X0021863Y0077144D01*
X0022330Y0076250D02*
X0021863Y0075783D01*
X0021863Y0074381D01*
X0024665Y0074381D01*
X0023731Y0074381D02*
X0023731Y0075783D01*
X0023264Y0076250D01*
X0022330Y0076250D01*
X0023731Y0075316D02*
X0024665Y0076250D01*
X0048965Y0057650D02*
X0049899Y0058584D01*
X0050833Y0057650D01*
X0050833Y0055781D01*
X0050833Y0057183D02*
X0048965Y0057183D01*
X0048965Y0057650D02*
X0048965Y0055781D01*
X0052661Y0055781D02*
X0052661Y0058584D01*
X0051727Y0058584D02*
X0053596Y0058584D01*
X0053696Y0048584D02*
X0053696Y0045781D01*
X0051827Y0048584D01*
X0051827Y0045781D01*
X0050933Y0045781D02*
X0049999Y0046716D01*
X0050466Y0046716D02*
X0049065Y0046716D01*
X0049065Y0045781D02*
X0049065Y0048584D01*
X0050466Y0048584D01*
X0050933Y0048117D01*
X0050933Y0047183D01*
X0050466Y0046716D01*
X0066565Y0024884D02*
X0067966Y0024884D01*
X0068433Y0024417D01*
X0068433Y0023483D01*
X0067966Y0023016D01*
X0066565Y0023016D01*
X0067499Y0023016D02*
X0068433Y0022081D01*
X0069327Y0022081D02*
X0071196Y0022081D01*
X0070261Y0022081D02*
X0070261Y0024884D01*
X0069327Y0023950D01*
X0072090Y0024417D02*
X0072557Y0024884D01*
X0073491Y0024884D01*
X0073958Y0024417D01*
X0073958Y0023950D01*
X0073491Y0023483D01*
X0073958Y0023016D01*
X0073958Y0022549D01*
X0073491Y0022081D01*
X0072557Y0022081D01*
X0072090Y0022549D01*
X0073024Y0023483D02*
X0073491Y0023483D01*
X0066565Y0022081D02*
X0066565Y0024884D01*
X0066165Y0015419D02*
X0067566Y0015419D01*
X0068033Y0014951D01*
X0068033Y0014017D01*
X0067566Y0013550D01*
X0066165Y0013550D01*
X0066165Y0012616D02*
X0066165Y0015419D01*
X0067099Y0013550D02*
X0068033Y0012616D01*
X0068927Y0012616D02*
X0070796Y0012616D01*
X0069861Y0012616D02*
X0069861Y0015419D01*
X0068927Y0014484D01*
X0071690Y0014017D02*
X0073558Y0014017D01*
X0073091Y0012616D02*
X0073091Y0015419D01*
X0071690Y0014017D01*
X0077018Y0206032D02*
X0078886Y0206032D01*
X0079353Y0206499D01*
X0079353Y0207433D01*
X0078886Y0207900D01*
X0079353Y0208794D02*
X0079353Y0210662D01*
X0079353Y0209728D02*
X0076551Y0209728D01*
X0077485Y0208794D01*
X0077018Y0207900D02*
X0076551Y0207433D01*
X0076551Y0206499D01*
X0077018Y0206032D01*
X0076551Y0211557D02*
X0077952Y0211557D01*
X0077485Y0212491D01*
X0077485Y0212958D01*
X0077952Y0213425D01*
X0078886Y0213425D01*
X0079353Y0212958D01*
X0079353Y0212024D01*
X0078886Y0211557D01*
X0076551Y0211557D02*
X0076551Y0213425D01*
X0079770Y0223817D02*
X0079770Y0225218D01*
X0080237Y0225685D01*
X0081171Y0225685D01*
X0081638Y0225218D01*
X0081638Y0223817D01*
X0082572Y0223817D02*
X0079770Y0223817D01*
X0081638Y0224751D02*
X0082572Y0225685D01*
X0082572Y0226579D02*
X0082572Y0228448D01*
X0082572Y0227513D02*
X0079770Y0227513D01*
X0080704Y0226579D01*
X0080370Y0235865D02*
X0080370Y0237266D01*
X0080837Y0237733D01*
X0081771Y0237733D01*
X0082238Y0237266D01*
X0082238Y0235865D01*
X0083172Y0235865D02*
X0080370Y0235865D01*
X0082238Y0236799D02*
X0083172Y0237733D01*
X0082705Y0238627D02*
X0083172Y0239094D01*
X0083172Y0240029D01*
X0082705Y0240496D01*
X0082238Y0240496D01*
X0081771Y0240029D01*
X0081771Y0239561D01*
X0081771Y0240029D02*
X0081304Y0240496D01*
X0080837Y0240496D01*
X0080370Y0240029D01*
X0080370Y0239094D01*
X0080837Y0238627D01*
X0080370Y0241390D02*
X0081771Y0241390D01*
X0081304Y0242324D01*
X0081304Y0242791D01*
X0081771Y0243258D01*
X0082705Y0243258D01*
X0083172Y0242791D01*
X0083172Y0241857D01*
X0082705Y0241390D01*
X0080370Y0241390D02*
X0080370Y0243258D01*
X0065924Y0228310D02*
X0065924Y0226442D01*
X0064056Y0228310D01*
X0063589Y0228310D01*
X0063122Y0227843D01*
X0063122Y0226909D01*
X0063589Y0226442D01*
X0063589Y0225548D02*
X0064056Y0225548D01*
X0064523Y0225080D01*
X0064990Y0225548D01*
X0065457Y0225548D01*
X0065924Y0225080D01*
X0065924Y0224146D01*
X0065457Y0223679D01*
X0065924Y0222785D02*
X0064990Y0221851D01*
X0064990Y0222318D02*
X0064990Y0220917D01*
X0065924Y0220917D02*
X0063122Y0220917D01*
X0063122Y0222318D01*
X0063589Y0222785D01*
X0064523Y0222785D01*
X0064990Y0222318D01*
X0063589Y0223679D02*
X0063122Y0224146D01*
X0063122Y0225080D01*
X0063589Y0225548D01*
X0064523Y0225080D02*
X0064523Y0224613D01*
X0058227Y0213925D02*
X0060096Y0212057D01*
X0060563Y0212057D01*
X0060563Y0211162D02*
X0060563Y0209294D01*
X0060563Y0210228D02*
X0057760Y0210228D01*
X0058694Y0209294D01*
X0058227Y0208400D02*
X0057760Y0207933D01*
X0057760Y0206999D01*
X0058227Y0206532D01*
X0060096Y0206532D01*
X0060563Y0206999D01*
X0060563Y0207933D01*
X0060096Y0208400D01*
X0057760Y0212057D02*
X0057760Y0213925D01*
X0058227Y0213925D01*
X0035794Y0213657D02*
X0035327Y0214124D01*
X0034860Y0214124D01*
X0034393Y0213657D01*
X0034393Y0212256D01*
X0035327Y0212256D01*
X0035794Y0212723D01*
X0035794Y0213657D01*
X0034393Y0212256D02*
X0033459Y0213190D01*
X0032992Y0214124D01*
X0032992Y0210428D02*
X0035794Y0210428D01*
X0035794Y0211362D02*
X0035794Y0209493D01*
X0035327Y0208599D02*
X0035794Y0208132D01*
X0035794Y0207198D01*
X0035327Y0206731D01*
X0033459Y0206731D01*
X0032992Y0207198D01*
X0032992Y0208132D01*
X0033459Y0208599D01*
X0033926Y0209493D02*
X0032992Y0210428D01*
X0034074Y0222417D02*
X0034074Y0223818D01*
X0034541Y0224285D01*
X0035475Y0224285D01*
X0035942Y0223818D01*
X0035942Y0222417D01*
X0036876Y0222417D02*
X0034074Y0222417D01*
X0035942Y0223351D02*
X0036876Y0224285D01*
X0036876Y0225179D02*
X0035008Y0227048D01*
X0034541Y0227048D01*
X0034074Y0226580D01*
X0034074Y0225646D01*
X0034541Y0225179D01*
X0036876Y0225179D02*
X0036876Y0227048D01*
X0037674Y0248165D02*
X0037674Y0249566D01*
X0038141Y0250033D01*
X0039075Y0250033D01*
X0039542Y0249566D01*
X0039542Y0248165D01*
X0040476Y0248165D02*
X0037674Y0248165D01*
X0039542Y0249099D02*
X0040476Y0250033D01*
X0040009Y0250927D02*
X0040476Y0251394D01*
X0040476Y0252329D01*
X0040009Y0252796D01*
X0039542Y0252796D01*
X0039075Y0252329D01*
X0039075Y0251861D01*
X0039075Y0252329D02*
X0038608Y0252796D01*
X0038141Y0252796D01*
X0037674Y0252329D01*
X0037674Y0251394D01*
X0038141Y0250927D01*
X0038608Y0253690D02*
X0037674Y0254624D01*
X0040476Y0254624D01*
X0040476Y0253690D02*
X0040476Y0255558D01*
X0054322Y0253591D02*
X0055723Y0252190D01*
X0055723Y0254058D01*
X0057124Y0253591D02*
X0054322Y0253591D01*
X0054789Y0251296D02*
X0055256Y0251296D01*
X0055723Y0250829D01*
X0056190Y0251296D01*
X0056657Y0251296D01*
X0057124Y0250829D01*
X0057124Y0249894D01*
X0056657Y0249427D01*
X0057124Y0248533D02*
X0056190Y0247599D01*
X0056190Y0248066D02*
X0056190Y0246665D01*
X0057124Y0246665D02*
X0054322Y0246665D01*
X0054322Y0248066D01*
X0054789Y0248533D01*
X0055723Y0248533D01*
X0056190Y0248066D01*
X0054789Y0249427D02*
X0054322Y0249894D01*
X0054322Y0250829D01*
X0054789Y0251296D01*
X0055723Y0250829D02*
X0055723Y0250361D01*
X0058432Y0257581D02*
X0059366Y0257581D01*
X0059833Y0258049D01*
X0059833Y0260384D01*
X0060727Y0259917D02*
X0061194Y0260384D01*
X0062129Y0260384D01*
X0062596Y0259917D01*
X0062596Y0259450D01*
X0060727Y0257581D01*
X0062596Y0257581D01*
X0063490Y0258049D02*
X0063490Y0258516D01*
X0063957Y0258983D01*
X0064891Y0258983D01*
X0065358Y0258516D01*
X0065358Y0258049D01*
X0064891Y0257581D01*
X0063957Y0257581D01*
X0063490Y0258049D01*
X0063957Y0258983D02*
X0063490Y0259450D01*
X0063490Y0259917D01*
X0063957Y0260384D01*
X0064891Y0260384D01*
X0065358Y0259917D01*
X0065358Y0259450D01*
X0064891Y0258983D01*
X0058432Y0257581D02*
X0057965Y0258049D01*
X0057965Y0260384D01*
X0048826Y0279761D02*
X0046958Y0279761D01*
X0046491Y0280228D01*
X0046491Y0281162D01*
X0046958Y0281629D01*
X0046958Y0282523D02*
X0046491Y0282990D01*
X0046491Y0283925D01*
X0046958Y0284392D01*
X0047425Y0284392D01*
X0049293Y0282523D01*
X0049293Y0284392D01*
X0047892Y0285286D02*
X0047892Y0287154D01*
X0049293Y0286687D02*
X0046491Y0286687D01*
X0047892Y0285286D01*
X0048826Y0281629D02*
X0049293Y0281162D01*
X0049293Y0280228D01*
X0048826Y0279761D01*
X0060139Y0282743D02*
X0060606Y0282276D01*
X0062474Y0282276D01*
X0062941Y0282743D01*
X0062941Y0283677D01*
X0062474Y0284144D01*
X0062941Y0285038D02*
X0061073Y0286907D01*
X0060606Y0286907D01*
X0060139Y0286440D01*
X0060139Y0285505D01*
X0060606Y0285038D01*
X0060606Y0284144D02*
X0060139Y0283677D01*
X0060139Y0282743D01*
X0062941Y0285038D02*
X0062941Y0286907D01*
X0062474Y0287801D02*
X0062941Y0288268D01*
X0062941Y0289202D01*
X0062474Y0289669D01*
X0061540Y0289669D01*
X0061073Y0289202D01*
X0061073Y0288735D01*
X0061540Y0287801D01*
X0060139Y0287801D01*
X0060139Y0289669D01*
X0089655Y0268014D02*
X0089655Y0267080D01*
X0090123Y0266613D01*
X0090590Y0266613D01*
X0091057Y0267080D01*
X0091057Y0268482D01*
X0091991Y0268482D02*
X0090123Y0268482D01*
X0089655Y0268014D01*
X0091991Y0268482D02*
X0092458Y0268014D01*
X0092458Y0267080D01*
X0091991Y0266613D01*
X0092458Y0265719D02*
X0092458Y0263851D01*
X0092458Y0264785D02*
X0089655Y0264785D01*
X0090590Y0263851D01*
X0090123Y0262957D02*
X0089655Y0262490D01*
X0089655Y0261556D01*
X0090123Y0261089D01*
X0091991Y0261089D01*
X0092458Y0261556D01*
X0092458Y0262490D01*
X0091991Y0262957D01*
X0100455Y0243958D02*
X0100922Y0243024D01*
X0101856Y0242090D01*
X0101856Y0243491D01*
X0102323Y0243958D01*
X0102790Y0243958D01*
X0103257Y0243491D01*
X0103257Y0242557D01*
X0102790Y0242090D01*
X0101856Y0242090D01*
X0102323Y0241196D02*
X0102790Y0241196D01*
X0103257Y0240729D01*
X0103257Y0239794D01*
X0102790Y0239327D01*
X0103257Y0238433D02*
X0102323Y0237499D01*
X0102323Y0237966D02*
X0102323Y0236565D01*
X0103257Y0236565D02*
X0100455Y0236565D01*
X0100455Y0237966D01*
X0100922Y0238433D01*
X0101856Y0238433D01*
X0102323Y0237966D01*
X0100922Y0239327D02*
X0100455Y0239794D01*
X0100455Y0240729D01*
X0100922Y0241196D01*
X0101389Y0241196D01*
X0101856Y0240729D01*
X0102323Y0241196D01*
X0101856Y0240729D02*
X0101856Y0240261D01*
X0101989Y0228710D02*
X0102456Y0228243D01*
X0102923Y0228710D01*
X0103390Y0228710D01*
X0103857Y0228243D01*
X0103857Y0227309D01*
X0103390Y0226842D01*
X0103390Y0225948D02*
X0103857Y0225480D01*
X0103857Y0224546D01*
X0103390Y0224079D01*
X0103857Y0223185D02*
X0102923Y0222251D01*
X0102923Y0222718D02*
X0102923Y0221317D01*
X0103857Y0221317D02*
X0101055Y0221317D01*
X0101055Y0222718D01*
X0101522Y0223185D01*
X0102456Y0223185D01*
X0102923Y0222718D01*
X0101522Y0224079D02*
X0101055Y0224546D01*
X0101055Y0225480D01*
X0101522Y0225948D01*
X0101989Y0225948D01*
X0102456Y0225480D01*
X0102923Y0225948D01*
X0103390Y0225948D01*
X0102456Y0225480D02*
X0102456Y0225013D01*
X0101522Y0226842D02*
X0101055Y0227309D01*
X0101055Y0228243D01*
X0101522Y0228710D01*
X0101989Y0228710D01*
X0102456Y0228243D02*
X0102456Y0227776D01*
X0095025Y0214224D02*
X0095493Y0213757D01*
X0095493Y0212823D01*
X0095025Y0212356D01*
X0094558Y0212356D01*
X0094091Y0212823D01*
X0094091Y0213757D01*
X0094558Y0214224D01*
X0095025Y0214224D01*
X0094091Y0213757D02*
X0093624Y0214224D01*
X0093157Y0214224D01*
X0092690Y0213757D01*
X0092690Y0212823D01*
X0093157Y0212356D01*
X0093624Y0212356D01*
X0094091Y0212823D01*
X0095493Y0211462D02*
X0095493Y0209593D01*
X0095493Y0210528D02*
X0092690Y0210528D01*
X0093624Y0209593D01*
X0093157Y0208699D02*
X0092690Y0208232D01*
X0092690Y0207298D01*
X0093157Y0206831D01*
X0095025Y0206831D01*
X0095493Y0207298D01*
X0095493Y0208232D01*
X0095025Y0208699D01*
D13*
X0056352Y0113722D02*
X0058154Y0111921D01*
X0058604Y0111921D01*
X0057253Y0110960D02*
X0057703Y0110510D01*
X0057703Y0109158D01*
X0058604Y0109158D02*
X0055902Y0109158D01*
X0055902Y0110510D01*
X0056352Y0110960D01*
X0057253Y0110960D01*
X0055902Y0111921D02*
X0055902Y0113722D01*
X0056352Y0113722D01*
X0051379Y0112590D02*
X0051379Y0111689D01*
X0050928Y0111239D01*
X0050028Y0112140D02*
X0050028Y0112590D01*
X0050478Y0113040D01*
X0050928Y0113040D01*
X0051379Y0112590D01*
X0050028Y0112590D02*
X0049577Y0113040D01*
X0049127Y0113040D01*
X0048676Y0112590D01*
X0048676Y0111689D01*
X0049127Y0111239D01*
X0049127Y0110278D02*
X0050028Y0110278D01*
X0050478Y0109828D01*
X0050478Y0108477D01*
X0051379Y0108477D02*
X0048676Y0108477D01*
X0048676Y0109828D01*
X0049127Y0110278D01*
X0048676Y0107516D02*
X0048676Y0105714D01*
X0048676Y0106615D02*
X0051379Y0106615D01*
X0055902Y0106396D02*
X0055902Y0108198D01*
X0055902Y0107297D02*
X0058604Y0107297D01*
X0043299Y0108165D02*
X0040597Y0108165D01*
X0040597Y0109516D01*
X0041047Y0109966D01*
X0041948Y0109966D01*
X0042398Y0109516D01*
X0042398Y0108165D01*
X0040597Y0107204D02*
X0040597Y0105402D01*
X0040597Y0106303D02*
X0043299Y0106303D01*
X0043299Y0110927D02*
X0041498Y0112729D01*
X0041047Y0112729D01*
X0040597Y0112278D01*
X0040597Y0111377D01*
X0041047Y0110927D01*
X0043299Y0110927D02*
X0043299Y0112729D01*
X0051147Y0039856D02*
X0052949Y0039856D01*
X0052048Y0039856D02*
X0052048Y0037154D01*
X0053910Y0037154D02*
X0053910Y0039856D01*
X0055261Y0039856D01*
X0055711Y0039405D01*
X0055711Y0038505D01*
X0055261Y0038054D01*
X0053910Y0038054D01*
X0056672Y0038505D02*
X0058023Y0039856D01*
X0058023Y0037154D01*
X0058473Y0038505D02*
X0056672Y0038505D01*
X0111215Y0014334D02*
X0113016Y0014334D01*
X0112116Y0014334D02*
X0112116Y0011631D01*
X0113977Y0011631D02*
X0113977Y0014334D01*
X0115328Y0014334D01*
X0115779Y0013883D01*
X0115779Y0012983D01*
X0115328Y0012532D01*
X0113977Y0012532D01*
X0116740Y0012082D02*
X0117190Y0011631D01*
X0118091Y0011631D01*
X0118541Y0012082D01*
X0118541Y0012983D01*
X0118091Y0013433D01*
X0117640Y0013433D01*
X0116740Y0012983D01*
X0116740Y0014334D01*
X0118541Y0014334D01*
X0143815Y0021160D02*
X0145616Y0021160D01*
X0144716Y0021160D02*
X0144716Y0018457D01*
X0146577Y0018457D02*
X0146577Y0021160D01*
X0147928Y0021160D01*
X0148379Y0020709D01*
X0148379Y0019809D01*
X0147928Y0019358D01*
X0146577Y0019358D01*
X0149340Y0019809D02*
X0149340Y0018908D01*
X0149790Y0018457D01*
X0150691Y0018457D01*
X0151141Y0018908D01*
X0151141Y0019358D01*
X0150691Y0019809D01*
X0149340Y0019809D01*
X0150240Y0020709D01*
X0151141Y0021160D01*
X0267715Y0078731D02*
X0267715Y0082372D01*
X0269535Y0082372D01*
X0270142Y0081765D01*
X0270142Y0080552D01*
X0269535Y0079945D01*
X0267715Y0079945D01*
X0268928Y0079945D02*
X0270142Y0078731D01*
X0271340Y0079338D02*
X0271340Y0080552D01*
X0271947Y0081158D01*
X0273160Y0081158D01*
X0273767Y0080552D01*
X0273767Y0079945D01*
X0271340Y0079945D01*
X0271340Y0079338D02*
X0271947Y0078731D01*
X0273160Y0078731D01*
X0274965Y0078731D02*
X0276179Y0078731D01*
X0275572Y0078731D02*
X0275572Y0082372D01*
X0274965Y0082372D01*
X0277989Y0081158D02*
X0279202Y0081158D01*
X0279809Y0080552D01*
X0279809Y0078731D01*
X0277989Y0078731D01*
X0277382Y0079338D01*
X0277989Y0079945D01*
X0279809Y0079945D01*
X0281007Y0079338D02*
X0281614Y0078731D01*
X0283434Y0078731D01*
X0283434Y0078125D02*
X0282827Y0077518D01*
X0282220Y0077518D01*
X0283434Y0078125D02*
X0283434Y0081158D01*
X0281007Y0081158D02*
X0281007Y0079338D01*
X0288257Y0078731D02*
X0288257Y0082372D01*
X0288257Y0080552D02*
X0290684Y0080552D01*
X0291883Y0080552D02*
X0292489Y0081158D01*
X0293703Y0081158D01*
X0294309Y0080552D01*
X0294309Y0079338D01*
X0293703Y0078731D01*
X0292489Y0078731D01*
X0291883Y0079338D01*
X0291883Y0080552D01*
X0290684Y0082372D02*
X0290684Y0078731D01*
X0295508Y0079338D02*
X0296114Y0078731D01*
X0297328Y0078731D01*
X0297934Y0079338D01*
X0297934Y0080552D01*
X0297328Y0081158D01*
X0296114Y0081158D01*
X0295508Y0080552D01*
X0295508Y0079338D01*
X0299133Y0078731D02*
X0299133Y0082372D01*
X0300953Y0081158D02*
X0299133Y0079945D01*
X0300953Y0078731D01*
X0302154Y0078731D02*
X0303974Y0078731D01*
X0304580Y0079338D01*
X0303974Y0079945D01*
X0302760Y0079945D01*
X0302154Y0080552D01*
X0302760Y0081158D01*
X0304580Y0081158D01*
D14*
X0295824Y0102852D02*
X0292821Y0102852D01*
X0294323Y0102852D02*
X0294323Y0107356D01*
X0292821Y0105855D01*
X0291220Y0106605D02*
X0290469Y0107356D01*
X0288217Y0107356D01*
X0288217Y0102852D01*
X0288217Y0104353D02*
X0290469Y0104353D01*
X0291220Y0105104D01*
X0291220Y0106605D01*
X0286616Y0107356D02*
X0283613Y0107356D01*
X0285115Y0107356D02*
X0285115Y0102852D01*
X0270526Y0106459D02*
X0270526Y0108821D01*
X0265014Y0108821D01*
X0265014Y0106459D01*
X0270526Y0106459D01*
X0247321Y0122667D02*
X0297321Y0122667D01*
X0297321Y0141683D01*
X0247321Y0141683D01*
X0247321Y0122667D01*
X0234116Y0122380D02*
X0206163Y0122380D01*
X0206163Y0094427D01*
X0234116Y0094427D01*
X0234116Y0122380D01*
X0206706Y0096593D02*
X0206708Y0096673D01*
X0206714Y0096753D01*
X0206724Y0096833D01*
X0206738Y0096912D01*
X0206755Y0096990D01*
X0206777Y0097068D01*
X0206802Y0097144D01*
X0206831Y0097219D01*
X0206864Y0097292D01*
X0206901Y0097364D01*
X0206940Y0097433D01*
X0206984Y0097501D01*
X0207030Y0097566D01*
X0207080Y0097629D01*
X0207133Y0097690D01*
X0207188Y0097748D01*
X0207247Y0097803D01*
X0207308Y0097855D01*
X0207372Y0097904D01*
X0207438Y0097949D01*
X0207506Y0097992D01*
X0207576Y0098031D01*
X0207648Y0098066D01*
X0207722Y0098098D01*
X0207797Y0098126D01*
X0207873Y0098151D01*
X0207951Y0098171D01*
X0208030Y0098188D01*
X0208109Y0098201D01*
X0208189Y0098210D01*
X0208269Y0098215D01*
X0208349Y0098216D01*
X0208429Y0098213D01*
X0208509Y0098206D01*
X0208589Y0098195D01*
X0208668Y0098180D01*
X0208746Y0098162D01*
X0208823Y0098139D01*
X0208899Y0098113D01*
X0208973Y0098083D01*
X0209046Y0098049D01*
X0209117Y0098012D01*
X0209186Y0097971D01*
X0209254Y0097927D01*
X0209318Y0097880D01*
X0209381Y0097829D01*
X0209441Y0097776D01*
X0209498Y0097719D01*
X0209552Y0097660D01*
X0209603Y0097598D01*
X0209651Y0097534D01*
X0209696Y0097467D01*
X0209738Y0097399D01*
X0209776Y0097328D01*
X0209811Y0097256D01*
X0209842Y0097181D01*
X0209869Y0097106D01*
X0209892Y0097029D01*
X0209912Y0096951D01*
X0209928Y0096873D01*
X0209940Y0096793D01*
X0209948Y0096713D01*
X0209952Y0096633D01*
X0209952Y0096553D01*
X0209948Y0096473D01*
X0209940Y0096393D01*
X0209928Y0096313D01*
X0209912Y0096235D01*
X0209892Y0096157D01*
X0209869Y0096080D01*
X0209842Y0096005D01*
X0209811Y0095930D01*
X0209776Y0095858D01*
X0209738Y0095787D01*
X0209696Y0095719D01*
X0209651Y0095652D01*
X0209603Y0095588D01*
X0209552Y0095526D01*
X0209498Y0095467D01*
X0209441Y0095410D01*
X0209381Y0095357D01*
X0209318Y0095306D01*
X0209254Y0095259D01*
X0209186Y0095215D01*
X0209117Y0095174D01*
X0209046Y0095137D01*
X0208973Y0095103D01*
X0208899Y0095073D01*
X0208823Y0095047D01*
X0208746Y0095024D01*
X0208668Y0095006D01*
X0208589Y0094991D01*
X0208509Y0094980D01*
X0208429Y0094973D01*
X0208349Y0094970D01*
X0208269Y0094971D01*
X0208189Y0094976D01*
X0208109Y0094985D01*
X0208030Y0094998D01*
X0207951Y0095015D01*
X0207873Y0095035D01*
X0207797Y0095060D01*
X0207722Y0095088D01*
X0207648Y0095120D01*
X0207576Y0095155D01*
X0207506Y0095194D01*
X0207438Y0095237D01*
X0207372Y0095282D01*
X0207308Y0095331D01*
X0207247Y0095383D01*
X0207188Y0095438D01*
X0207133Y0095496D01*
X0207080Y0095557D01*
X0207030Y0095620D01*
X0206984Y0095685D01*
X0206940Y0095753D01*
X0206901Y0095822D01*
X0206864Y0095894D01*
X0206831Y0095967D01*
X0206802Y0096042D01*
X0206777Y0096118D01*
X0206755Y0096196D01*
X0206738Y0096274D01*
X0206724Y0096353D01*
X0206714Y0096433D01*
X0206708Y0096513D01*
X0206706Y0096593D01*
X0226817Y0084435D02*
X0226817Y0079317D01*
X0239415Y0079317D01*
X0239415Y0084435D01*
X0226817Y0084435D01*
X0200195Y0066754D02*
X0200195Y0058683D01*
X0194683Y0058683D01*
X0194683Y0066754D01*
X0200195Y0066754D01*
X0198992Y0059519D02*
X0198994Y0059561D01*
X0199000Y0059602D01*
X0199010Y0059643D01*
X0199023Y0059683D01*
X0199040Y0059721D01*
X0199061Y0059757D01*
X0199085Y0059792D01*
X0199112Y0059824D01*
X0199142Y0059853D01*
X0199175Y0059879D01*
X0199209Y0059903D01*
X0199246Y0059922D01*
X0199285Y0059939D01*
X0199325Y0059951D01*
X0199366Y0059960D01*
X0199408Y0059965D01*
X0199449Y0059966D01*
X0199491Y0059963D01*
X0199533Y0059956D01*
X0199573Y0059945D01*
X0199612Y0059931D01*
X0199650Y0059913D01*
X0199686Y0059891D01*
X0199720Y0059867D01*
X0199751Y0059839D01*
X0199780Y0059808D01*
X0199805Y0059775D01*
X0199828Y0059739D01*
X0199847Y0059702D01*
X0199862Y0059663D01*
X0199874Y0059623D01*
X0199882Y0059582D01*
X0199886Y0059540D01*
X0199886Y0059498D01*
X0199882Y0059456D01*
X0199874Y0059415D01*
X0199862Y0059375D01*
X0199847Y0059336D01*
X0199828Y0059299D01*
X0199805Y0059263D01*
X0199780Y0059230D01*
X0199751Y0059199D01*
X0199720Y0059171D01*
X0199686Y0059147D01*
X0199650Y0059125D01*
X0199612Y0059107D01*
X0199573Y0059093D01*
X0199533Y0059082D01*
X0199491Y0059075D01*
X0199449Y0059072D01*
X0199408Y0059073D01*
X0199366Y0059078D01*
X0199325Y0059087D01*
X0199285Y0059099D01*
X0199246Y0059116D01*
X0199209Y0059135D01*
X0199175Y0059159D01*
X0199142Y0059185D01*
X0199112Y0059214D01*
X0199085Y0059246D01*
X0199061Y0059281D01*
X0199040Y0059317D01*
X0199023Y0059355D01*
X0199010Y0059395D01*
X0199000Y0059436D01*
X0198994Y0059477D01*
X0198992Y0059519D01*
X0187907Y0022313D02*
X0219600Y0022313D01*
X0219600Y0001250D01*
X0187907Y0001250D01*
X0187907Y0022313D01*
X0138073Y0043781D02*
X0119057Y0043781D01*
X0119057Y0093781D01*
X0138073Y0093781D01*
X0138073Y0043781D01*
X0105600Y0079301D02*
X0055482Y0079301D01*
X0055482Y0089301D01*
X0105600Y0089301D01*
X0105600Y0079301D01*
X0102998Y0067608D02*
X0102998Y0027451D01*
X0082132Y0027451D01*
X0082132Y0067608D01*
X0102998Y0067608D01*
X0100045Y0029419D02*
X0100047Y0029488D01*
X0100053Y0029556D01*
X0100063Y0029624D01*
X0100077Y0029691D01*
X0100095Y0029758D01*
X0100116Y0029823D01*
X0100142Y0029887D01*
X0100171Y0029949D01*
X0100203Y0030009D01*
X0100239Y0030068D01*
X0100279Y0030124D01*
X0100321Y0030178D01*
X0100367Y0030229D01*
X0100416Y0030278D01*
X0100467Y0030324D01*
X0100521Y0030366D01*
X0100577Y0030406D01*
X0100635Y0030442D01*
X0100696Y0030474D01*
X0100758Y0030503D01*
X0100822Y0030529D01*
X0100887Y0030550D01*
X0100954Y0030568D01*
X0101021Y0030582D01*
X0101089Y0030592D01*
X0101157Y0030598D01*
X0101226Y0030600D01*
X0101295Y0030598D01*
X0101363Y0030592D01*
X0101431Y0030582D01*
X0101498Y0030568D01*
X0101565Y0030550D01*
X0101630Y0030529D01*
X0101694Y0030503D01*
X0101756Y0030474D01*
X0101816Y0030442D01*
X0101875Y0030406D01*
X0101931Y0030366D01*
X0101985Y0030324D01*
X0102036Y0030278D01*
X0102085Y0030229D01*
X0102131Y0030178D01*
X0102173Y0030124D01*
X0102213Y0030068D01*
X0102249Y0030009D01*
X0102281Y0029949D01*
X0102310Y0029887D01*
X0102336Y0029823D01*
X0102357Y0029758D01*
X0102375Y0029691D01*
X0102389Y0029624D01*
X0102399Y0029556D01*
X0102405Y0029488D01*
X0102407Y0029419D01*
X0102405Y0029350D01*
X0102399Y0029282D01*
X0102389Y0029214D01*
X0102375Y0029147D01*
X0102357Y0029080D01*
X0102336Y0029015D01*
X0102310Y0028951D01*
X0102281Y0028889D01*
X0102249Y0028828D01*
X0102213Y0028770D01*
X0102173Y0028714D01*
X0102131Y0028660D01*
X0102085Y0028609D01*
X0102036Y0028560D01*
X0101985Y0028514D01*
X0101931Y0028472D01*
X0101875Y0028432D01*
X0101817Y0028396D01*
X0101756Y0028364D01*
X0101694Y0028335D01*
X0101630Y0028309D01*
X0101565Y0028288D01*
X0101498Y0028270D01*
X0101431Y0028256D01*
X0101363Y0028246D01*
X0101295Y0028240D01*
X0101226Y0028238D01*
X0101157Y0028240D01*
X0101089Y0028246D01*
X0101021Y0028256D01*
X0100954Y0028270D01*
X0100887Y0028288D01*
X0100822Y0028309D01*
X0100758Y0028335D01*
X0100696Y0028364D01*
X0100635Y0028396D01*
X0100577Y0028432D01*
X0100521Y0028472D01*
X0100467Y0028514D01*
X0100416Y0028560D01*
X0100367Y0028609D01*
X0100321Y0028660D01*
X0100279Y0028714D01*
X0100239Y0028770D01*
X0100203Y0028828D01*
X0100171Y0028889D01*
X0100142Y0028951D01*
X0100116Y0029015D01*
X0100095Y0029080D01*
X0100077Y0029147D01*
X0100063Y0029214D01*
X0100053Y0029282D01*
X0100047Y0029350D01*
X0100045Y0029419D01*
X0046593Y0041585D02*
X0046593Y0091585D01*
X0027577Y0091585D01*
X0027577Y0041585D01*
X0046593Y0041585D01*
X0001250Y0126947D02*
X0001250Y0180096D01*
X0103612Y0180096D01*
X0103612Y0126947D01*
X0001250Y0126947D01*
X0077793Y0186797D02*
X0077793Y0189159D01*
X0083305Y0189159D01*
X0083305Y0186797D01*
X0077793Y0186797D01*
X0144706Y0211457D02*
X0145456Y0210706D01*
X0146957Y0210706D01*
X0147708Y0211457D01*
X0149309Y0210706D02*
X0152312Y0213709D01*
X0152312Y0214459D01*
X0151561Y0215210D01*
X0150060Y0215210D01*
X0149309Y0214459D01*
X0147708Y0214459D02*
X0146957Y0215210D01*
X0145456Y0215210D01*
X0144706Y0214459D01*
X0144706Y0211457D01*
X0149309Y0210706D02*
X0152312Y0210706D01*
X0153913Y0210706D02*
X0156916Y0213709D01*
X0156916Y0214459D01*
X0156165Y0215210D01*
X0154664Y0215210D01*
X0153913Y0214459D01*
X0153913Y0210706D02*
X0156916Y0210706D01*
X0157222Y0200551D02*
X0194722Y0200551D01*
X0194722Y0163051D01*
X0157222Y0163051D01*
X0157222Y0200551D01*
X0162972Y0181801D02*
X0162976Y0182120D01*
X0162988Y0182439D01*
X0163007Y0182757D01*
X0163035Y0183075D01*
X0163070Y0183392D01*
X0163113Y0183708D01*
X0163163Y0184024D01*
X0163222Y0184337D01*
X0163288Y0184649D01*
X0163362Y0184960D01*
X0163443Y0185268D01*
X0163532Y0185575D01*
X0163628Y0185879D01*
X0163732Y0186181D01*
X0163843Y0186480D01*
X0163962Y0186776D01*
X0164087Y0187069D01*
X0164220Y0187359D01*
X0164360Y0187646D01*
X0164507Y0187929D01*
X0164661Y0188209D01*
X0164822Y0188484D01*
X0164989Y0188756D01*
X0165163Y0189023D01*
X0165343Y0189287D01*
X0165530Y0189545D01*
X0165723Y0189799D01*
X0165923Y0190048D01*
X0166128Y0190292D01*
X0166340Y0190531D01*
X0166557Y0190765D01*
X0166780Y0190993D01*
X0167008Y0191216D01*
X0167242Y0191433D01*
X0167481Y0191645D01*
X0167725Y0191850D01*
X0167974Y0192050D01*
X0168228Y0192243D01*
X0168486Y0192430D01*
X0168750Y0192610D01*
X0169017Y0192784D01*
X0169289Y0192951D01*
X0169564Y0193112D01*
X0169844Y0193266D01*
X0170127Y0193413D01*
X0170414Y0193553D01*
X0170704Y0193686D01*
X0170997Y0193811D01*
X0171293Y0193930D01*
X0171592Y0194041D01*
X0171894Y0194145D01*
X0172198Y0194241D01*
X0172505Y0194330D01*
X0172813Y0194411D01*
X0173124Y0194485D01*
X0173436Y0194551D01*
X0173749Y0194610D01*
X0174065Y0194660D01*
X0174381Y0194703D01*
X0174698Y0194738D01*
X0175016Y0194766D01*
X0175334Y0194785D01*
X0175653Y0194797D01*
X0175972Y0194801D01*
X0176291Y0194797D01*
X0176610Y0194785D01*
X0176928Y0194766D01*
X0177246Y0194738D01*
X0177563Y0194703D01*
X0177879Y0194660D01*
X0178195Y0194610D01*
X0178508Y0194551D01*
X0178820Y0194485D01*
X0179131Y0194411D01*
X0179439Y0194330D01*
X0179746Y0194241D01*
X0180050Y0194145D01*
X0180352Y0194041D01*
X0180651Y0193930D01*
X0180947Y0193811D01*
X0181240Y0193686D01*
X0181530Y0193553D01*
X0181817Y0193413D01*
X0182100Y0193266D01*
X0182380Y0193112D01*
X0182655Y0192951D01*
X0182927Y0192784D01*
X0183194Y0192610D01*
X0183458Y0192430D01*
X0183716Y0192243D01*
X0183970Y0192050D01*
X0184219Y0191850D01*
X0184463Y0191645D01*
X0184702Y0191433D01*
X0184936Y0191216D01*
X0185164Y0190993D01*
X0185387Y0190765D01*
X0185604Y0190531D01*
X0185816Y0190292D01*
X0186021Y0190048D01*
X0186221Y0189799D01*
X0186414Y0189545D01*
X0186601Y0189287D01*
X0186781Y0189023D01*
X0186955Y0188756D01*
X0187122Y0188484D01*
X0187283Y0188209D01*
X0187437Y0187929D01*
X0187584Y0187646D01*
X0187724Y0187359D01*
X0187857Y0187069D01*
X0187982Y0186776D01*
X0188101Y0186480D01*
X0188212Y0186181D01*
X0188316Y0185879D01*
X0188412Y0185575D01*
X0188501Y0185268D01*
X0188582Y0184960D01*
X0188656Y0184649D01*
X0188722Y0184337D01*
X0188781Y0184024D01*
X0188831Y0183708D01*
X0188874Y0183392D01*
X0188909Y0183075D01*
X0188937Y0182757D01*
X0188956Y0182439D01*
X0188968Y0182120D01*
X0188972Y0181801D01*
X0188968Y0181482D01*
X0188956Y0181163D01*
X0188937Y0180845D01*
X0188909Y0180527D01*
X0188874Y0180210D01*
X0188831Y0179894D01*
X0188781Y0179578D01*
X0188722Y0179265D01*
X0188656Y0178953D01*
X0188582Y0178642D01*
X0188501Y0178334D01*
X0188412Y0178027D01*
X0188316Y0177723D01*
X0188212Y0177421D01*
X0188101Y0177122D01*
X0187982Y0176826D01*
X0187857Y0176533D01*
X0187724Y0176243D01*
X0187584Y0175956D01*
X0187437Y0175673D01*
X0187283Y0175393D01*
X0187122Y0175118D01*
X0186955Y0174846D01*
X0186781Y0174579D01*
X0186601Y0174315D01*
X0186414Y0174057D01*
X0186221Y0173803D01*
X0186021Y0173554D01*
X0185816Y0173310D01*
X0185604Y0173071D01*
X0185387Y0172837D01*
X0185164Y0172609D01*
X0184936Y0172386D01*
X0184702Y0172169D01*
X0184463Y0171957D01*
X0184219Y0171752D01*
X0183970Y0171552D01*
X0183716Y0171359D01*
X0183458Y0171172D01*
X0183194Y0170992D01*
X0182927Y0170818D01*
X0182655Y0170651D01*
X0182380Y0170490D01*
X0182100Y0170336D01*
X0181817Y0170189D01*
X0181530Y0170049D01*
X0181240Y0169916D01*
X0180947Y0169791D01*
X0180651Y0169672D01*
X0180352Y0169561D01*
X0180050Y0169457D01*
X0179746Y0169361D01*
X0179439Y0169272D01*
X0179131Y0169191D01*
X0178820Y0169117D01*
X0178508Y0169051D01*
X0178195Y0168992D01*
X0177879Y0168942D01*
X0177563Y0168899D01*
X0177246Y0168864D01*
X0176928Y0168836D01*
X0176610Y0168817D01*
X0176291Y0168805D01*
X0175972Y0168801D01*
X0175653Y0168805D01*
X0175334Y0168817D01*
X0175016Y0168836D01*
X0174698Y0168864D01*
X0174381Y0168899D01*
X0174065Y0168942D01*
X0173749Y0168992D01*
X0173436Y0169051D01*
X0173124Y0169117D01*
X0172813Y0169191D01*
X0172505Y0169272D01*
X0172198Y0169361D01*
X0171894Y0169457D01*
X0171592Y0169561D01*
X0171293Y0169672D01*
X0170997Y0169791D01*
X0170704Y0169916D01*
X0170414Y0170049D01*
X0170127Y0170189D01*
X0169844Y0170336D01*
X0169564Y0170490D01*
X0169289Y0170651D01*
X0169017Y0170818D01*
X0168750Y0170992D01*
X0168486Y0171172D01*
X0168228Y0171359D01*
X0167974Y0171552D01*
X0167725Y0171752D01*
X0167481Y0171957D01*
X0167242Y0172169D01*
X0167008Y0172386D01*
X0166780Y0172609D01*
X0166557Y0172837D01*
X0166340Y0173071D01*
X0166128Y0173310D01*
X0165923Y0173554D01*
X0165723Y0173803D01*
X0165530Y0174057D01*
X0165343Y0174315D01*
X0165163Y0174579D01*
X0164989Y0174846D01*
X0164822Y0175118D01*
X0164661Y0175393D01*
X0164507Y0175673D01*
X0164360Y0175956D01*
X0164220Y0176243D01*
X0164087Y0176533D01*
X0163962Y0176826D01*
X0163843Y0177122D01*
X0163732Y0177421D01*
X0163628Y0177723D01*
X0163532Y0178027D01*
X0163443Y0178334D01*
X0163362Y0178642D01*
X0163288Y0178953D01*
X0163222Y0179265D01*
X0163163Y0179578D01*
X0163113Y0179894D01*
X0163070Y0180210D01*
X0163035Y0180527D01*
X0163007Y0180845D01*
X0162988Y0181163D01*
X0162976Y0181482D01*
X0162972Y0181801D01*
X0159684Y0232442D02*
X0158183Y0232442D01*
X0157432Y0233192D01*
X0160435Y0236195D01*
X0160435Y0233192D01*
X0159684Y0232442D01*
X0157432Y0233192D02*
X0157432Y0236195D01*
X0158183Y0236946D01*
X0159684Y0236946D01*
X0160435Y0236195D01*
X0155831Y0236195D02*
X0155080Y0236946D01*
X0153579Y0236946D01*
X0152828Y0236195D01*
X0151227Y0236195D02*
X0150476Y0236946D01*
X0148975Y0236946D01*
X0148224Y0236195D01*
X0148224Y0233192D01*
X0148975Y0232442D01*
X0150476Y0232442D01*
X0151227Y0233192D01*
X0152828Y0232442D02*
X0155831Y0235444D01*
X0155831Y0236195D01*
X0155831Y0232442D02*
X0152828Y0232442D01*
X0186079Y0251780D02*
X0187580Y0251780D01*
X0186829Y0251780D02*
X0186829Y0256284D01*
X0186079Y0256284D02*
X0187580Y0256284D01*
X0189148Y0255534D02*
X0189148Y0252531D01*
X0189899Y0251780D01*
X0191400Y0251780D01*
X0192151Y0252531D01*
X0193752Y0251780D02*
X0196755Y0251780D01*
X0195253Y0251780D02*
X0195253Y0256284D01*
X0193752Y0254783D01*
X0192151Y0255534D02*
X0191400Y0256284D01*
X0189899Y0256284D01*
X0189148Y0255534D01*
X0182751Y0266507D02*
X0182751Y0323200D01*
X0218184Y0323200D01*
X0218184Y0266507D01*
X0182751Y0266507D01*
X0219630Y0208134D02*
X0218880Y0207383D01*
X0218880Y0204381D01*
X0219630Y0203630D01*
X0221131Y0203630D01*
X0221882Y0204381D01*
X0223483Y0204381D02*
X0224234Y0203630D01*
X0225735Y0203630D01*
X0226486Y0204381D01*
X0226486Y0205131D01*
X0225735Y0205882D01*
X0224985Y0205882D01*
X0225735Y0205882D02*
X0226486Y0206632D01*
X0226486Y0207383D01*
X0225735Y0208134D01*
X0224234Y0208134D01*
X0223483Y0207383D01*
X0221882Y0207383D02*
X0221131Y0208134D01*
X0219630Y0208134D01*
X0210059Y0183955D02*
X0210059Y0173955D01*
X0230059Y0173955D01*
X0230059Y0183955D01*
X0230119Y0183955D01*
X0230059Y0183955D02*
X0210059Y0183955D01*
X0245726Y0225089D02*
X0283226Y0225089D01*
X0283226Y0262589D01*
X0245726Y0262589D01*
X0245726Y0225089D01*
X0251476Y0243839D02*
X0251480Y0244158D01*
X0251492Y0244477D01*
X0251511Y0244795D01*
X0251539Y0245113D01*
X0251574Y0245430D01*
X0251617Y0245746D01*
X0251667Y0246062D01*
X0251726Y0246375D01*
X0251792Y0246687D01*
X0251866Y0246998D01*
X0251947Y0247306D01*
X0252036Y0247613D01*
X0252132Y0247917D01*
X0252236Y0248219D01*
X0252347Y0248518D01*
X0252466Y0248814D01*
X0252591Y0249107D01*
X0252724Y0249397D01*
X0252864Y0249684D01*
X0253011Y0249967D01*
X0253165Y0250247D01*
X0253326Y0250522D01*
X0253493Y0250794D01*
X0253667Y0251061D01*
X0253847Y0251325D01*
X0254034Y0251583D01*
X0254227Y0251837D01*
X0254427Y0252086D01*
X0254632Y0252330D01*
X0254844Y0252569D01*
X0255061Y0252803D01*
X0255284Y0253031D01*
X0255512Y0253254D01*
X0255746Y0253471D01*
X0255985Y0253683D01*
X0256229Y0253888D01*
X0256478Y0254088D01*
X0256732Y0254281D01*
X0256990Y0254468D01*
X0257254Y0254648D01*
X0257521Y0254822D01*
X0257793Y0254989D01*
X0258068Y0255150D01*
X0258348Y0255304D01*
X0258631Y0255451D01*
X0258918Y0255591D01*
X0259208Y0255724D01*
X0259501Y0255849D01*
X0259797Y0255968D01*
X0260096Y0256079D01*
X0260398Y0256183D01*
X0260702Y0256279D01*
X0261009Y0256368D01*
X0261317Y0256449D01*
X0261628Y0256523D01*
X0261940Y0256589D01*
X0262253Y0256648D01*
X0262569Y0256698D01*
X0262885Y0256741D01*
X0263202Y0256776D01*
X0263520Y0256804D01*
X0263838Y0256823D01*
X0264157Y0256835D01*
X0264476Y0256839D01*
X0264795Y0256835D01*
X0265114Y0256823D01*
X0265432Y0256804D01*
X0265750Y0256776D01*
X0266067Y0256741D01*
X0266383Y0256698D01*
X0266699Y0256648D01*
X0267012Y0256589D01*
X0267324Y0256523D01*
X0267635Y0256449D01*
X0267943Y0256368D01*
X0268250Y0256279D01*
X0268554Y0256183D01*
X0268856Y0256079D01*
X0269155Y0255968D01*
X0269451Y0255849D01*
X0269744Y0255724D01*
X0270034Y0255591D01*
X0270321Y0255451D01*
X0270604Y0255304D01*
X0270884Y0255150D01*
X0271159Y0254989D01*
X0271431Y0254822D01*
X0271698Y0254648D01*
X0271962Y0254468D01*
X0272220Y0254281D01*
X0272474Y0254088D01*
X0272723Y0253888D01*
X0272967Y0253683D01*
X0273206Y0253471D01*
X0273440Y0253254D01*
X0273668Y0253031D01*
X0273891Y0252803D01*
X0274108Y0252569D01*
X0274320Y0252330D01*
X0274525Y0252086D01*
X0274725Y0251837D01*
X0274918Y0251583D01*
X0275105Y0251325D01*
X0275285Y0251061D01*
X0275459Y0250794D01*
X0275626Y0250522D01*
X0275787Y0250247D01*
X0275941Y0249967D01*
X0276088Y0249684D01*
X0276228Y0249397D01*
X0276361Y0249107D01*
X0276486Y0248814D01*
X0276605Y0248518D01*
X0276716Y0248219D01*
X0276820Y0247917D01*
X0276916Y0247613D01*
X0277005Y0247306D01*
X0277086Y0246998D01*
X0277160Y0246687D01*
X0277226Y0246375D01*
X0277285Y0246062D01*
X0277335Y0245746D01*
X0277378Y0245430D01*
X0277413Y0245113D01*
X0277441Y0244795D01*
X0277460Y0244477D01*
X0277472Y0244158D01*
X0277476Y0243839D01*
X0277472Y0243520D01*
X0277460Y0243201D01*
X0277441Y0242883D01*
X0277413Y0242565D01*
X0277378Y0242248D01*
X0277335Y0241932D01*
X0277285Y0241616D01*
X0277226Y0241303D01*
X0277160Y0240991D01*
X0277086Y0240680D01*
X0277005Y0240372D01*
X0276916Y0240065D01*
X0276820Y0239761D01*
X0276716Y0239459D01*
X0276605Y0239160D01*
X0276486Y0238864D01*
X0276361Y0238571D01*
X0276228Y0238281D01*
X0276088Y0237994D01*
X0275941Y0237711D01*
X0275787Y0237431D01*
X0275626Y0237156D01*
X0275459Y0236884D01*
X0275285Y0236617D01*
X0275105Y0236353D01*
X0274918Y0236095D01*
X0274725Y0235841D01*
X0274525Y0235592D01*
X0274320Y0235348D01*
X0274108Y0235109D01*
X0273891Y0234875D01*
X0273668Y0234647D01*
X0273440Y0234424D01*
X0273206Y0234207D01*
X0272967Y0233995D01*
X0272723Y0233790D01*
X0272474Y0233590D01*
X0272220Y0233397D01*
X0271962Y0233210D01*
X0271698Y0233030D01*
X0271431Y0232856D01*
X0271159Y0232689D01*
X0270884Y0232528D01*
X0270604Y0232374D01*
X0270321Y0232227D01*
X0270034Y0232087D01*
X0269744Y0231954D01*
X0269451Y0231829D01*
X0269155Y0231710D01*
X0268856Y0231599D01*
X0268554Y0231495D01*
X0268250Y0231399D01*
X0267943Y0231310D01*
X0267635Y0231229D01*
X0267324Y0231155D01*
X0267012Y0231089D01*
X0266699Y0231030D01*
X0266383Y0230980D01*
X0266067Y0230937D01*
X0265750Y0230902D01*
X0265432Y0230874D01*
X0265114Y0230855D01*
X0264795Y0230843D01*
X0264476Y0230839D01*
X0264157Y0230843D01*
X0263838Y0230855D01*
X0263520Y0230874D01*
X0263202Y0230902D01*
X0262885Y0230937D01*
X0262569Y0230980D01*
X0262253Y0231030D01*
X0261940Y0231089D01*
X0261628Y0231155D01*
X0261317Y0231229D01*
X0261009Y0231310D01*
X0260702Y0231399D01*
X0260398Y0231495D01*
X0260096Y0231599D01*
X0259797Y0231710D01*
X0259501Y0231829D01*
X0259208Y0231954D01*
X0258918Y0232087D01*
X0258631Y0232227D01*
X0258348Y0232374D01*
X0258068Y0232528D01*
X0257793Y0232689D01*
X0257521Y0232856D01*
X0257254Y0233030D01*
X0256990Y0233210D01*
X0256732Y0233397D01*
X0256478Y0233590D01*
X0256229Y0233790D01*
X0255985Y0233995D01*
X0255746Y0234207D01*
X0255512Y0234424D01*
X0255284Y0234647D01*
X0255061Y0234875D01*
X0254844Y0235109D01*
X0254632Y0235348D01*
X0254427Y0235592D01*
X0254227Y0235841D01*
X0254034Y0236095D01*
X0253847Y0236353D01*
X0253667Y0236617D01*
X0253493Y0236884D01*
X0253326Y0237156D01*
X0253165Y0237431D01*
X0253011Y0237711D01*
X0252864Y0237994D01*
X0252724Y0238281D01*
X0252591Y0238571D01*
X0252466Y0238864D01*
X0252347Y0239160D01*
X0252236Y0239459D01*
X0252132Y0239761D01*
X0252036Y0240065D01*
X0251947Y0240372D01*
X0251866Y0240680D01*
X0251792Y0240991D01*
X0251726Y0241303D01*
X0251667Y0241616D01*
X0251617Y0241932D01*
X0251574Y0242248D01*
X0251539Y0242565D01*
X0251511Y0242883D01*
X0251492Y0243201D01*
X0251480Y0243520D01*
X0251476Y0243839D01*
X0119644Y0294857D02*
X0119644Y0296358D01*
X0118893Y0297109D01*
X0119644Y0298710D02*
X0116642Y0301713D01*
X0115891Y0301713D01*
X0115140Y0300962D01*
X0115140Y0299461D01*
X0115891Y0298710D01*
X0115891Y0297109D02*
X0115140Y0296358D01*
X0115140Y0294857D01*
X0115891Y0294106D01*
X0118893Y0294106D01*
X0119644Y0294857D01*
X0119644Y0298710D02*
X0119644Y0301713D01*
X0118893Y0303314D02*
X0119644Y0304065D01*
X0119644Y0305566D01*
X0118893Y0306317D01*
X0118143Y0306317D01*
X0117392Y0305566D01*
X0117392Y0304815D01*
X0117392Y0305566D02*
X0116642Y0306317D01*
X0115891Y0306317D01*
X0115140Y0305566D01*
X0115140Y0304065D01*
X0115891Y0303314D01*
X0093185Y0303914D02*
X0093185Y0306917D01*
X0093185Y0305415D02*
X0088681Y0305415D01*
X0090182Y0303914D01*
X0090182Y0302313D02*
X0089432Y0302313D01*
X0088681Y0301562D01*
X0088681Y0300061D01*
X0089432Y0299310D01*
X0089432Y0297709D02*
X0088681Y0296958D01*
X0088681Y0295457D01*
X0089432Y0294706D01*
X0092434Y0294706D01*
X0093185Y0295457D01*
X0093185Y0296958D01*
X0092434Y0297709D01*
X0093185Y0299310D02*
X0090182Y0302313D01*
X0093185Y0302313D02*
X0093185Y0299310D01*
X0077578Y0276124D02*
X0077578Y0263919D01*
X0065374Y0263919D01*
X0065374Y0276124D01*
X0077578Y0276124D01*
X0062488Y0262935D02*
X0062490Y0263002D01*
X0062496Y0263068D01*
X0062506Y0263134D01*
X0062520Y0263199D01*
X0062537Y0263263D01*
X0062559Y0263326D01*
X0062584Y0263388D01*
X0062613Y0263448D01*
X0062646Y0263506D01*
X0062682Y0263563D01*
X0062721Y0263616D01*
X0062763Y0263668D01*
X0062808Y0263717D01*
X0062857Y0263763D01*
X0062907Y0263806D01*
X0062961Y0263846D01*
X0063016Y0263883D01*
X0063074Y0263916D01*
X0063134Y0263946D01*
X0063195Y0263972D01*
X0063258Y0263994D01*
X0063322Y0264013D01*
X0063387Y0264028D01*
X0063452Y0264039D01*
X0063519Y0264046D01*
X0063585Y0264049D01*
X0063652Y0264048D01*
X0063718Y0264043D01*
X0063784Y0264034D01*
X0063850Y0264021D01*
X0063914Y0264004D01*
X0063978Y0263984D01*
X0064040Y0263959D01*
X0064100Y0263931D01*
X0064159Y0263900D01*
X0064216Y0263865D01*
X0064270Y0263826D01*
X0064322Y0263785D01*
X0064372Y0263740D01*
X0064419Y0263693D01*
X0064462Y0263643D01*
X0064503Y0263590D01*
X0064541Y0263535D01*
X0064575Y0263478D01*
X0064606Y0263418D01*
X0064633Y0263357D01*
X0064656Y0263295D01*
X0064676Y0263231D01*
X0064692Y0263167D01*
X0064704Y0263101D01*
X0064712Y0263035D01*
X0064716Y0262968D01*
X0064716Y0262902D01*
X0064712Y0262835D01*
X0064704Y0262769D01*
X0064692Y0262703D01*
X0064676Y0262639D01*
X0064656Y0262575D01*
X0064633Y0262513D01*
X0064606Y0262452D01*
X0064575Y0262392D01*
X0064541Y0262335D01*
X0064503Y0262280D01*
X0064462Y0262227D01*
X0064419Y0262177D01*
X0064372Y0262130D01*
X0064322Y0262085D01*
X0064270Y0262044D01*
X0064216Y0262005D01*
X0064159Y0261970D01*
X0064100Y0261939D01*
X0064040Y0261911D01*
X0063978Y0261886D01*
X0063914Y0261866D01*
X0063850Y0261849D01*
X0063784Y0261836D01*
X0063718Y0261827D01*
X0063652Y0261822D01*
X0063585Y0261821D01*
X0063519Y0261824D01*
X0063452Y0261831D01*
X0063387Y0261842D01*
X0063322Y0261857D01*
X0063258Y0261876D01*
X0063195Y0261898D01*
X0063134Y0261924D01*
X0063074Y0261954D01*
X0063016Y0261987D01*
X0062961Y0262024D01*
X0062907Y0262064D01*
X0062857Y0262107D01*
X0062808Y0262153D01*
X0062763Y0262202D01*
X0062721Y0262254D01*
X0062682Y0262307D01*
X0062646Y0262364D01*
X0062613Y0262422D01*
X0062584Y0262482D01*
X0062559Y0262544D01*
X0062537Y0262607D01*
X0062520Y0262671D01*
X0062506Y0262736D01*
X0062496Y0262802D01*
X0062490Y0262868D01*
X0062488Y0262935D01*
D15*
X0213028Y0185756D02*
X0213028Y0184674D01*
X0213028Y0185035D02*
X0213569Y0185035D01*
X0213749Y0185215D01*
X0213749Y0185576D01*
X0213569Y0185756D01*
X0213028Y0185756D01*
X0214115Y0185756D02*
X0214115Y0184674D01*
X0214476Y0185035D01*
X0214837Y0184674D01*
X0214837Y0185756D01*
X0215203Y0185756D02*
X0215744Y0185756D01*
X0215924Y0185576D01*
X0215924Y0185215D01*
X0215744Y0185035D01*
X0215203Y0185035D01*
X0215564Y0185035D02*
X0215924Y0184674D01*
X0215203Y0184674D02*
X0215203Y0185756D01*
D16*
X0147368Y0254980D02*
X0147368Y0261279D01*
X0147368Y0254980D02*
X0147366Y0254856D01*
X0147360Y0254733D01*
X0147351Y0254609D01*
X0147337Y0254487D01*
X0147320Y0254364D01*
X0147298Y0254242D01*
X0147273Y0254121D01*
X0147244Y0254001D01*
X0147212Y0253882D01*
X0147175Y0253763D01*
X0147135Y0253646D01*
X0147092Y0253531D01*
X0147044Y0253416D01*
X0146993Y0253304D01*
X0146939Y0253193D01*
X0146881Y0253083D01*
X0146820Y0252976D01*
X0146755Y0252870D01*
X0146687Y0252767D01*
X0146616Y0252666D01*
X0146542Y0252567D01*
X0146465Y0252470D01*
X0146384Y0252376D01*
X0146301Y0252285D01*
X0146215Y0252196D01*
X0146126Y0252110D01*
X0146035Y0252027D01*
X0145941Y0251946D01*
X0145844Y0251869D01*
X0145745Y0251795D01*
X0145644Y0251724D01*
X0145541Y0251656D01*
X0145435Y0251591D01*
X0145328Y0251530D01*
X0145218Y0251472D01*
X0145107Y0251418D01*
X0144995Y0251367D01*
X0144880Y0251319D01*
X0144765Y0251276D01*
X0144648Y0251236D01*
X0144529Y0251199D01*
X0144410Y0251167D01*
X0144290Y0251138D01*
X0144169Y0251113D01*
X0144047Y0251091D01*
X0143924Y0251074D01*
X0143802Y0251060D01*
X0143678Y0251051D01*
X0143555Y0251045D01*
X0143431Y0251043D01*
X0128470Y0251043D01*
X0128346Y0251045D01*
X0128223Y0251051D01*
X0128099Y0251060D01*
X0127977Y0251074D01*
X0127854Y0251091D01*
X0127732Y0251113D01*
X0127611Y0251138D01*
X0127491Y0251167D01*
X0127372Y0251199D01*
X0127253Y0251236D01*
X0127136Y0251276D01*
X0127021Y0251319D01*
X0126906Y0251367D01*
X0126794Y0251418D01*
X0126683Y0251472D01*
X0126573Y0251530D01*
X0126466Y0251591D01*
X0126360Y0251656D01*
X0126257Y0251724D01*
X0126156Y0251795D01*
X0126057Y0251869D01*
X0125960Y0251946D01*
X0125866Y0252027D01*
X0125775Y0252110D01*
X0125686Y0252196D01*
X0125600Y0252285D01*
X0125517Y0252376D01*
X0125436Y0252470D01*
X0125359Y0252567D01*
X0125285Y0252666D01*
X0125214Y0252767D01*
X0125146Y0252870D01*
X0125081Y0252976D01*
X0125020Y0253083D01*
X0124962Y0253193D01*
X0124908Y0253304D01*
X0124857Y0253416D01*
X0124809Y0253531D01*
X0124766Y0253646D01*
X0124726Y0253763D01*
X0124689Y0253882D01*
X0124657Y0254001D01*
X0124628Y0254121D01*
X0124603Y0254242D01*
X0124581Y0254364D01*
X0124564Y0254487D01*
X0124550Y0254609D01*
X0124541Y0254733D01*
X0124535Y0254856D01*
X0124533Y0254980D01*
X0124533Y0277815D01*
X0124535Y0277939D01*
X0124541Y0278062D01*
X0124550Y0278186D01*
X0124564Y0278308D01*
X0124581Y0278431D01*
X0124603Y0278553D01*
X0124628Y0278674D01*
X0124657Y0278794D01*
X0124689Y0278913D01*
X0124726Y0279032D01*
X0124766Y0279149D01*
X0124809Y0279264D01*
X0124857Y0279379D01*
X0124908Y0279491D01*
X0124962Y0279602D01*
X0125020Y0279712D01*
X0125081Y0279819D01*
X0125146Y0279925D01*
X0125214Y0280028D01*
X0125285Y0280129D01*
X0125359Y0280228D01*
X0125436Y0280325D01*
X0125517Y0280419D01*
X0125600Y0280510D01*
X0125686Y0280599D01*
X0125775Y0280685D01*
X0125866Y0280768D01*
X0125960Y0280849D01*
X0126057Y0280926D01*
X0126156Y0281000D01*
X0126257Y0281071D01*
X0126360Y0281139D01*
X0126466Y0281204D01*
X0126573Y0281265D01*
X0126683Y0281323D01*
X0126794Y0281377D01*
X0126906Y0281428D01*
X0127021Y0281476D01*
X0127136Y0281519D01*
X0127253Y0281559D01*
X0127372Y0281596D01*
X0127491Y0281628D01*
X0127611Y0281657D01*
X0127732Y0281682D01*
X0127854Y0281704D01*
X0127977Y0281721D01*
X0128099Y0281735D01*
X0128223Y0281744D01*
X0128346Y0281750D01*
X0128470Y0281752D01*
X0143431Y0281752D01*
X0143555Y0281750D01*
X0143678Y0281744D01*
X0143802Y0281735D01*
X0143924Y0281721D01*
X0144047Y0281704D01*
X0144169Y0281682D01*
X0144290Y0281657D01*
X0144410Y0281628D01*
X0144529Y0281596D01*
X0144648Y0281559D01*
X0144765Y0281519D01*
X0144880Y0281476D01*
X0144995Y0281428D01*
X0145107Y0281377D01*
X0145218Y0281323D01*
X0145328Y0281265D01*
X0145435Y0281204D01*
X0145541Y0281139D01*
X0145644Y0281071D01*
X0145745Y0281000D01*
X0145844Y0280926D01*
X0145941Y0280849D01*
X0146035Y0280768D01*
X0146126Y0280685D01*
X0146215Y0280599D01*
X0146301Y0280510D01*
X0146384Y0280419D01*
X0146465Y0280325D01*
X0146542Y0280228D01*
X0146616Y0280129D01*
X0146687Y0280028D01*
X0146755Y0279925D01*
X0146820Y0279819D01*
X0146881Y0279712D01*
X0146939Y0279602D01*
X0146993Y0279491D01*
X0147044Y0279379D01*
X0147092Y0279264D01*
X0147135Y0279149D01*
X0147175Y0279032D01*
X0147212Y0278913D01*
X0147244Y0278794D01*
X0147273Y0278674D01*
X0147298Y0278553D01*
X0147320Y0278431D01*
X0147337Y0278308D01*
X0147351Y0278186D01*
X0147360Y0278062D01*
X0147366Y0277939D01*
X0147368Y0277815D01*
X0147368Y0271515D01*
X0129258Y0266397D02*
X0129260Y0266561D01*
X0129266Y0266725D01*
X0129276Y0266889D01*
X0129290Y0267053D01*
X0129308Y0267216D01*
X0129330Y0267379D01*
X0129357Y0267541D01*
X0129387Y0267703D01*
X0129421Y0267863D01*
X0129459Y0268023D01*
X0129500Y0268182D01*
X0129546Y0268340D01*
X0129596Y0268496D01*
X0129649Y0268652D01*
X0129706Y0268806D01*
X0129767Y0268958D01*
X0129832Y0269109D01*
X0129901Y0269259D01*
X0129973Y0269406D01*
X0130048Y0269552D01*
X0130128Y0269696D01*
X0130210Y0269838D01*
X0130296Y0269978D01*
X0130386Y0270115D01*
X0130479Y0270251D01*
X0130575Y0270384D01*
X0130675Y0270515D01*
X0130777Y0270643D01*
X0130883Y0270769D01*
X0130992Y0270892D01*
X0131104Y0271012D01*
X0131218Y0271130D01*
X0131336Y0271244D01*
X0131456Y0271356D01*
X0131579Y0271465D01*
X0131705Y0271571D01*
X0131833Y0271673D01*
X0131964Y0271773D01*
X0132097Y0271869D01*
X0132233Y0271962D01*
X0132370Y0272052D01*
X0132510Y0272138D01*
X0132652Y0272220D01*
X0132796Y0272300D01*
X0132942Y0272375D01*
X0133089Y0272447D01*
X0133239Y0272516D01*
X0133390Y0272581D01*
X0133542Y0272642D01*
X0133696Y0272699D01*
X0133852Y0272752D01*
X0134008Y0272802D01*
X0134166Y0272848D01*
X0134325Y0272889D01*
X0134485Y0272927D01*
X0134645Y0272961D01*
X0134807Y0272991D01*
X0134969Y0273018D01*
X0135132Y0273040D01*
X0135295Y0273058D01*
X0135459Y0273072D01*
X0135623Y0273082D01*
X0135787Y0273088D01*
X0135951Y0273090D01*
X0136115Y0273088D01*
X0136279Y0273082D01*
X0136443Y0273072D01*
X0136607Y0273058D01*
X0136770Y0273040D01*
X0136933Y0273018D01*
X0137095Y0272991D01*
X0137257Y0272961D01*
X0137417Y0272927D01*
X0137577Y0272889D01*
X0137736Y0272848D01*
X0137894Y0272802D01*
X0138050Y0272752D01*
X0138206Y0272699D01*
X0138360Y0272642D01*
X0138512Y0272581D01*
X0138663Y0272516D01*
X0138813Y0272447D01*
X0138960Y0272375D01*
X0139106Y0272300D01*
X0139250Y0272220D01*
X0139392Y0272138D01*
X0139532Y0272052D01*
X0139669Y0271962D01*
X0139805Y0271869D01*
X0139938Y0271773D01*
X0140069Y0271673D01*
X0140197Y0271571D01*
X0140323Y0271465D01*
X0140446Y0271356D01*
X0140566Y0271244D01*
X0140684Y0271130D01*
X0140798Y0271012D01*
X0140910Y0270892D01*
X0141019Y0270769D01*
X0141125Y0270643D01*
X0141227Y0270515D01*
X0141327Y0270384D01*
X0141423Y0270251D01*
X0141516Y0270115D01*
X0141606Y0269978D01*
X0141692Y0269838D01*
X0141774Y0269696D01*
X0141854Y0269552D01*
X0141929Y0269406D01*
X0142001Y0269259D01*
X0142070Y0269109D01*
X0142135Y0268958D01*
X0142196Y0268806D01*
X0142253Y0268652D01*
X0142306Y0268496D01*
X0142356Y0268340D01*
X0142402Y0268182D01*
X0142443Y0268023D01*
X0142481Y0267863D01*
X0142515Y0267703D01*
X0142545Y0267541D01*
X0142572Y0267379D01*
X0142594Y0267216D01*
X0142612Y0267053D01*
X0142626Y0266889D01*
X0142636Y0266725D01*
X0142642Y0266561D01*
X0142644Y0266397D01*
X0142642Y0266233D01*
X0142636Y0266069D01*
X0142626Y0265905D01*
X0142612Y0265741D01*
X0142594Y0265578D01*
X0142572Y0265415D01*
X0142545Y0265253D01*
X0142515Y0265091D01*
X0142481Y0264931D01*
X0142443Y0264771D01*
X0142402Y0264612D01*
X0142356Y0264454D01*
X0142306Y0264298D01*
X0142253Y0264142D01*
X0142196Y0263988D01*
X0142135Y0263836D01*
X0142070Y0263685D01*
X0142001Y0263535D01*
X0141929Y0263388D01*
X0141854Y0263242D01*
X0141774Y0263098D01*
X0141692Y0262956D01*
X0141606Y0262816D01*
X0141516Y0262679D01*
X0141423Y0262543D01*
X0141327Y0262410D01*
X0141227Y0262279D01*
X0141125Y0262151D01*
X0141019Y0262025D01*
X0140910Y0261902D01*
X0140798Y0261782D01*
X0140684Y0261664D01*
X0140566Y0261550D01*
X0140446Y0261438D01*
X0140323Y0261329D01*
X0140197Y0261223D01*
X0140069Y0261121D01*
X0139938Y0261021D01*
X0139805Y0260925D01*
X0139669Y0260832D01*
X0139532Y0260742D01*
X0139392Y0260656D01*
X0139250Y0260574D01*
X0139106Y0260494D01*
X0138960Y0260419D01*
X0138813Y0260347D01*
X0138663Y0260278D01*
X0138512Y0260213D01*
X0138360Y0260152D01*
X0138206Y0260095D01*
X0138050Y0260042D01*
X0137894Y0259992D01*
X0137736Y0259946D01*
X0137577Y0259905D01*
X0137417Y0259867D01*
X0137257Y0259833D01*
X0137095Y0259803D01*
X0136933Y0259776D01*
X0136770Y0259754D01*
X0136607Y0259736D01*
X0136443Y0259722D01*
X0136279Y0259712D01*
X0136115Y0259706D01*
X0135951Y0259704D01*
X0135787Y0259706D01*
X0135623Y0259712D01*
X0135459Y0259722D01*
X0135295Y0259736D01*
X0135132Y0259754D01*
X0134969Y0259776D01*
X0134807Y0259803D01*
X0134645Y0259833D01*
X0134485Y0259867D01*
X0134325Y0259905D01*
X0134166Y0259946D01*
X0134008Y0259992D01*
X0133852Y0260042D01*
X0133696Y0260095D01*
X0133542Y0260152D01*
X0133390Y0260213D01*
X0133239Y0260278D01*
X0133089Y0260347D01*
X0132942Y0260419D01*
X0132796Y0260494D01*
X0132652Y0260574D01*
X0132510Y0260656D01*
X0132370Y0260742D01*
X0132233Y0260832D01*
X0132097Y0260925D01*
X0131964Y0261021D01*
X0131833Y0261121D01*
X0131705Y0261223D01*
X0131579Y0261329D01*
X0131456Y0261438D01*
X0131336Y0261550D01*
X0131218Y0261664D01*
X0131104Y0261782D01*
X0130992Y0261902D01*
X0130883Y0262025D01*
X0130777Y0262151D01*
X0130675Y0262279D01*
X0130575Y0262410D01*
X0130479Y0262543D01*
X0130386Y0262679D01*
X0130296Y0262816D01*
X0130210Y0262956D01*
X0130128Y0263098D01*
X0130048Y0263242D01*
X0129973Y0263388D01*
X0129901Y0263535D01*
X0129832Y0263685D01*
X0129767Y0263836D01*
X0129706Y0263988D01*
X0129649Y0264142D01*
X0129596Y0264298D01*
X0129546Y0264454D01*
X0129500Y0264612D01*
X0129459Y0264771D01*
X0129421Y0264931D01*
X0129387Y0265091D01*
X0129357Y0265253D01*
X0129330Y0265415D01*
X0129308Y0265578D01*
X0129290Y0265741D01*
X0129276Y0265905D01*
X0129266Y0266069D01*
X0129260Y0266233D01*
X0129258Y0266397D01*
D17*
X0110394Y0296368D02*
X0107894Y0296368D01*
X0105394Y0296368D01*
X0105394Y0298868D02*
X0107894Y0298868D01*
X0110394Y0298868D01*
X0083935Y0299468D02*
X0081435Y0299468D01*
X0078935Y0299468D01*
X0078935Y0296968D02*
X0081435Y0296968D01*
X0083935Y0296968D01*
X0128456Y0236271D02*
X0128456Y0233771D01*
X0128456Y0231271D01*
X0130956Y0231271D02*
X0130956Y0233771D01*
X0130956Y0236271D01*
X0129156Y0213656D02*
X0129156Y0211156D01*
X0129156Y0208656D01*
X0126656Y0208656D02*
X0126656Y0211156D01*
X0126656Y0213656D01*
X0214430Y0198380D02*
X0214430Y0195880D01*
X0214430Y0193380D01*
X0216930Y0193380D02*
X0216930Y0195880D01*
X0216930Y0198380D01*
M02*
