%
M48
M72
T01C0.0240
T02C0.0280
T03C0.0315
T04C0.0320
T05C0.0340
T06C0.0354
T07C0.0400
T08C0.0402
T09C0.0472
T10C0.0480
T11C0.0630
T12C0.0640
%
T01
X19885Y9555
X20239Y8964
X20554Y8373
X20883Y7816
X21381Y7310
X22020Y8225
X23349Y7547
X22011Y6247
X21027Y11129
X24216Y12114
X8775Y25138
X7791Y25334
X5832Y24834
X5035Y23956
X4258Y24854
X3587Y23563
X6610Y23366
X5626Y26712
X8185Y27500
T02
X20956Y6278
X18756Y5178
X16656Y4778
X17970Y2647
X21394Y3035
X24269Y2253
X7256Y3778
X6256Y5878
T03
X13890Y25715
X14520Y26640
X13890Y27565
T04
X10789Y28767
X10789Y30767
X8144Y30827
X8144Y28827
X11976Y23377
X13976Y23377
X13786Y21116
X11786Y21116
X10318Y19043
X11126Y17738
X11105Y14751
X11578Y12901
X8782Y11562
X7562Y11523
X6696Y11720
X5948Y11090
X5160Y10421
X3231Y10972
X2444Y10854
X2719Y14200
X2719Y15381
X2719Y16444
X4334Y17271
X8743Y4948
X11263Y4594
X12365Y3649
X17636Y6588
X18153Y11129
X21696Y14003
X22405Y14397
X23822Y13964
X22226Y11048
X27050Y10224
X27996Y16328
X24510Y19447
X22563Y19588
X21143Y21413
X21143Y22413
X21143Y23413
X21143Y24413
X23736Y22487
X20563Y19588
X18143Y21413
X17437Y21306
X18143Y22413
X18143Y23413
X18143Y24413
X24917Y26030
X4746Y3298
T05
X15876Y4438
T06
X16472Y17180
X16472Y18180
X16472Y19180
X25323Y23384
X25323Y24384
X25323Y25384
T07
X3208Y4658
X3208Y5658
X3208Y6658
X3208Y7658
X3208Y8658
X4208Y8658
X4208Y7658
X4208Y6658
X4208Y5658
X4208Y4658
X12356Y4878
X12356Y5878
X12356Y6878
X12356Y7878
X12356Y8878
X13356Y8878
X13356Y7878
X13356Y6878
X13356Y5878
X13356Y4878
X25232Y12718
X25232Y13718
X26232Y13718
X27232Y13718
X27232Y12718
X26232Y12718
X28232Y12718
X28232Y13718
X29232Y13718
X29232Y12718
X29306Y14738
T08
X22506Y17895
X21506Y17895
X10054Y8430
X9054Y8430
X8054Y8430
X7054Y8430
X6054Y8430
T09
X12611Y26640
T10
X5436Y28578
X2886Y21078
X13786Y18608
X6814Y7232
X13271Y2827
X22439Y30085
T11
X28428Y19869
X26586Y6638
X26476Y5018
X25896Y3378
X25846Y1768
X27826Y1858
X28966Y2838
X29016Y4638
X29416Y6508
X13861Y13570
X13861Y15932
T12
X15796Y29188
X26206Y29258
X29276Y24428
X29226Y22608
M30
