G75*
%MOIN*%
%OFA0B0*%
%FSLAX25Y25*%
%IPPOS*%
%LPD*%
%AMOC8*
5,1,8,0,0,1.08239X$1,22.5*
%
%ADD10C,0.06000*%
%ADD11C,0.07800*%
%ADD12C,0.06800*%
%ADD13C,0.06824*%
%ADD14R,0.06824X0.06824*%
%ADD15C,0.05950*%
%ADD16C,0.05524*%
%ADD17OC8,0.07100*%
%ADD18C,0.05200*%
%ADD19C,0.05600*%
%ADD20C,0.08000*%
%ADD21C,0.04800*%
%ADD22C,0.10250*%
%ADD23C,0.10400*%
%ADD24C,0.05900*%
D10*
X0181429Y0214130D03*
X0181429Y0224130D03*
X0181429Y0234130D03*
X0181429Y0244130D03*
X0211429Y0244130D03*
X0211429Y0234130D03*
X0211429Y0224130D03*
X0211429Y0214130D03*
D11*
X0253226Y0233839D03*
X0253226Y0243839D03*
X0253226Y0253839D03*
X0164722Y0191801D03*
X0164722Y0181801D03*
X0164722Y0171801D03*
D12*
X0032085Y0046585D03*
X0032085Y0056585D03*
X0032085Y0066585D03*
X0032085Y0076585D03*
X0032085Y0086585D03*
X0042085Y0086585D03*
X0042085Y0076585D03*
X0042085Y0066585D03*
X0042085Y0056585D03*
X0042085Y0046585D03*
X0123565Y0048781D03*
X0133565Y0048781D03*
X0133565Y0058781D03*
X0123565Y0058781D03*
X0123565Y0068781D03*
X0133565Y0068781D03*
X0133565Y0078781D03*
X0123565Y0078781D03*
X0123565Y0088781D03*
X0133565Y0088781D03*
X0252321Y0127175D03*
X0262321Y0127175D03*
X0272321Y0127175D03*
X0272321Y0137175D03*
X0262321Y0137175D03*
X0252321Y0137175D03*
X0282321Y0137175D03*
X0282321Y0127175D03*
X0292321Y0127175D03*
X0292321Y0137175D03*
X0293065Y0147381D03*
D13*
X0225059Y0178955D03*
X0090541Y0084301D03*
X0080541Y0084301D03*
X0070541Y0084301D03*
X0060541Y0084301D03*
D14*
X0100541Y0084301D03*
X0215059Y0178955D03*
D15*
X0141478Y0257145D02*
X0136329Y0257145D01*
X0145203Y0263822D02*
X0145203Y0268972D01*
X0141478Y0275649D02*
X0136329Y0275649D01*
D16*
X0126108Y0266397D03*
D17*
X0107894Y0287668D03*
X0107894Y0307668D03*
X0081435Y0308268D03*
X0081435Y0288268D03*
X0119756Y0233771D03*
X0139756Y0233771D03*
X0137856Y0211156D03*
X0117856Y0211156D03*
X0205630Y0195880D03*
X0225630Y0195880D03*
D18*
X0209565Y0062781D03*
X0187565Y0051781D03*
X0166565Y0047781D03*
X0179699Y0026467D03*
X0213943Y0030348D03*
X0242691Y0022530D03*
X0072565Y0037781D03*
X0062565Y0058781D03*
D19*
X0087431Y0049482D03*
X0112628Y0045939D03*
X0123652Y0036490D03*
X0176365Y0065881D03*
X0181526Y0111293D03*
X0216959Y0140033D03*
X0224045Y0143970D03*
X0238219Y0139640D03*
X0222265Y0110481D03*
X0270502Y0102238D03*
X0279965Y0163281D03*
X0245103Y0194474D03*
X0237358Y0224870D03*
X0249169Y0260304D03*
X0174366Y0213059D03*
X0111265Y0177381D03*
X0103179Y0190427D03*
X0111053Y0147514D03*
X0115778Y0129010D03*
X0087825Y0115624D03*
X0075620Y0115230D03*
X0066959Y0117199D03*
X0059478Y0110900D03*
X0051604Y0104207D03*
X0032313Y0109719D03*
X0024439Y0108537D03*
X0027195Y0142002D03*
X0027195Y0153813D03*
X0027195Y0164443D03*
X0043337Y0172711D03*
X0047465Y0032981D03*
D20*
X0068140Y0072317D03*
X0132707Y0028270D03*
X0137865Y0186081D03*
X0054365Y0285781D03*
X0028865Y0210781D03*
X0224389Y0300853D03*
D21*
X0087752Y0251376D03*
X0077909Y0253344D03*
X0058324Y0248339D03*
X0050350Y0239565D03*
X0042576Y0248539D03*
X0035870Y0235628D03*
X0066098Y0233659D03*
X0056256Y0267124D03*
X0081846Y0274998D03*
X0210266Y0111293D03*
X0198848Y0095545D03*
X0202392Y0089640D03*
X0205541Y0083734D03*
X0208828Y0078159D03*
X0213809Y0073104D03*
X0220196Y0082253D03*
X0233494Y0075467D03*
X0220108Y0062474D03*
X0242156Y0121136D03*
D22*
X0265865Y0066381D03*
X0264765Y0050181D03*
X0258965Y0033781D03*
X0258465Y0017681D03*
X0278265Y0018581D03*
X0289665Y0028381D03*
X0290165Y0046381D03*
X0294165Y0065081D03*
X0284281Y0198695D03*
X0138612Y0159325D03*
X0138612Y0135703D03*
D23*
X0157965Y0291881D03*
X0262065Y0292581D03*
X0292765Y0244281D03*
X0292265Y0226081D03*
D24*
X0158765Y0044381D03*
M02*
