G75*
%MOIN*%
%OFA0B0*%
%FSLAX25Y25*%
%IPPOS*%
%LPD*%
%AMOC8*
5,1,8,0,0,1.08239X$1,22.5*
%
%ADD10C,0.05200*%
%ADD11C,0.05543*%
%ADD12C,0.06000*%
%ADD13C,0.06024*%
%ADD14C,0.05150*%
%ADD15C,0.04400*%
%ADD16C,0.04800*%
%ADD17C,0.07200*%
%ADD18C,0.04000*%
%ADD19C,0.09450*%
%ADD20C,0.09600*%
%ADD21C,0.01600*%
%ADD22C,0.01200*%
%ADD23C,0.05100*%
%ADD24C,0.02800*%
D10*
X0117856Y0211156D03*
X0137856Y0211156D03*
X0139756Y0233771D03*
X0119756Y0233771D03*
X0107894Y0287668D03*
X0107894Y0307668D03*
X0081435Y0308268D03*
X0081435Y0288268D03*
X0181429Y0244130D03*
X0181429Y0234130D03*
X0181429Y0224130D03*
X0181429Y0214130D03*
X0205630Y0195880D03*
X0211429Y0214130D03*
X0211429Y0224130D03*
X0211429Y0234130D03*
X0211429Y0244130D03*
X0225630Y0195880D03*
D11*
X0253226Y0233839D03*
X0253226Y0243839D03*
X0253226Y0253839D03*
X0164722Y0191801D03*
X0164722Y0181801D03*
X0164722Y0171801D03*
D12*
X0133565Y0088781D03*
X0133565Y0078781D03*
X0133565Y0068781D03*
X0133565Y0058781D03*
X0133565Y0048781D03*
X0123565Y0048781D03*
X0123565Y0058781D03*
X0123565Y0068781D03*
X0123565Y0078781D03*
X0123565Y0088781D03*
X0042085Y0086585D03*
X0042085Y0076585D03*
X0042085Y0066585D03*
X0042085Y0056585D03*
X0042085Y0046585D03*
X0032085Y0046585D03*
X0032085Y0056585D03*
X0032085Y0066585D03*
X0032085Y0076585D03*
X0032085Y0086585D03*
X0252321Y0127175D03*
X0262321Y0127175D03*
X0272321Y0127175D03*
X0272321Y0137175D03*
X0262321Y0137175D03*
X0252321Y0137175D03*
X0282321Y0137175D03*
X0282321Y0127175D03*
X0292321Y0127175D03*
X0292321Y0137175D03*
X0293065Y0147381D03*
D13*
X0225059Y0178955D03*
X0215059Y0178955D03*
X0100541Y0084301D03*
X0090541Y0084301D03*
X0080541Y0084301D03*
X0070541Y0084301D03*
X0060541Y0084301D03*
D14*
X0138904Y0257145D03*
X0145203Y0266397D03*
X0138904Y0275649D03*
D15*
X0209565Y0062781D03*
X0187565Y0051781D03*
X0166565Y0047781D03*
X0179699Y0026467D03*
X0213943Y0030348D03*
X0242691Y0022530D03*
X0072565Y0037781D03*
X0062565Y0058781D03*
D16*
X0087431Y0049482D03*
X0112628Y0045939D03*
X0123652Y0036490D03*
X0176365Y0065881D03*
X0181526Y0111293D03*
X0216959Y0140033D03*
X0224045Y0143970D03*
X0238219Y0139640D03*
X0222265Y0110481D03*
X0270502Y0102238D03*
X0279965Y0163281D03*
X0245103Y0194474D03*
X0237358Y0224870D03*
X0249169Y0260304D03*
X0174366Y0213059D03*
X0111265Y0177381D03*
X0103179Y0190427D03*
X0111053Y0147514D03*
X0115778Y0129010D03*
X0087825Y0115624D03*
X0075620Y0115230D03*
X0066959Y0117199D03*
X0059478Y0110900D03*
X0051604Y0104207D03*
X0032313Y0109719D03*
X0024439Y0108537D03*
X0027195Y0142002D03*
X0027195Y0153813D03*
X0027195Y0164443D03*
X0043337Y0172711D03*
X0047465Y0032981D03*
D17*
X0068140Y0072317D03*
X0132707Y0028270D03*
X0137865Y0186081D03*
X0054365Y0285781D03*
X0028865Y0210781D03*
X0224389Y0300853D03*
D18*
X0087752Y0251376D03*
X0077909Y0253344D03*
X0058324Y0248339D03*
X0050350Y0239565D03*
X0042576Y0248539D03*
X0035870Y0235628D03*
X0066098Y0233659D03*
X0056256Y0267124D03*
X0081846Y0274998D03*
X0210266Y0111293D03*
X0198848Y0095545D03*
X0202392Y0089640D03*
X0205541Y0083734D03*
X0208828Y0078159D03*
X0213809Y0073104D03*
X0220196Y0082253D03*
X0233494Y0075467D03*
X0220108Y0062474D03*
X0242156Y0121136D03*
D19*
X0265865Y0066381D03*
X0264765Y0050181D03*
X0258965Y0033781D03*
X0258465Y0017681D03*
X0278265Y0018581D03*
X0289665Y0028381D03*
X0290165Y0046381D03*
X0294165Y0065081D03*
X0284281Y0198695D03*
X0138612Y0159325D03*
X0138612Y0135703D03*
D20*
X0157965Y0291881D03*
X0262065Y0292581D03*
X0292765Y0244281D03*
X0292265Y0226081D03*
D21*
X0019365Y0194758D02*
X0019365Y0008581D01*
X0146486Y0008581D01*
X0146486Y0194758D01*
X0019365Y0194758D01*
X0019365Y0194406D02*
X0146486Y0194406D01*
X0146486Y0192807D02*
X0019365Y0192807D01*
X0019365Y0191209D02*
X0146486Y0191209D01*
X0146486Y0189610D02*
X0019365Y0189610D01*
X0019365Y0188012D02*
X0146486Y0188012D01*
X0146486Y0186413D02*
X0019365Y0186413D01*
X0019365Y0184815D02*
X0146486Y0184815D01*
X0146486Y0183216D02*
X0019365Y0183216D01*
X0019365Y0181618D02*
X0146486Y0181618D01*
X0146486Y0180019D02*
X0114284Y0180019D01*
X0114656Y0179647D02*
X0113531Y0180773D01*
X0112061Y0181381D01*
X0110469Y0181381D01*
X0108999Y0180773D01*
X0107874Y0179647D01*
X0107265Y0178177D01*
X0107265Y0176586D01*
X0107874Y0175116D01*
X0108999Y0173990D01*
X0110469Y0173381D01*
X0112061Y0173381D01*
X0113531Y0173990D01*
X0114656Y0175116D01*
X0115265Y0176586D01*
X0115265Y0178177D01*
X0114656Y0179647D01*
X0115164Y0178421D02*
X0146486Y0178421D01*
X0146486Y0176822D02*
X0115265Y0176822D01*
X0114701Y0175224D02*
X0146486Y0175224D01*
X0146486Y0173625D02*
X0112649Y0173625D01*
X0109881Y0173625D02*
X0047287Y0173625D01*
X0047337Y0173506D02*
X0046728Y0174976D01*
X0045602Y0176102D01*
X0044132Y0176711D01*
X0042541Y0176711D01*
X0041071Y0176102D01*
X0039946Y0174976D01*
X0039337Y0173506D01*
X0039337Y0171915D01*
X0039946Y0170445D01*
X0041071Y0169320D01*
X0042541Y0168711D01*
X0044132Y0168711D01*
X0045602Y0169320D01*
X0046728Y0170445D01*
X0047337Y0171915D01*
X0047337Y0173506D01*
X0047337Y0172027D02*
X0146486Y0172027D01*
X0146486Y0170428D02*
X0046711Y0170428D01*
X0044420Y0168830D02*
X0146486Y0168830D01*
X0146486Y0167231D02*
X0030063Y0167231D01*
X0030586Y0166709D02*
X0029461Y0167834D01*
X0027991Y0168443D01*
X0026399Y0168443D01*
X0024929Y0167834D01*
X0023804Y0166709D01*
X0023195Y0165239D01*
X0023195Y0163647D01*
X0023804Y0162177D01*
X0024929Y0161052D01*
X0026399Y0160443D01*
X0027991Y0160443D01*
X0029461Y0161052D01*
X0030586Y0162177D01*
X0031195Y0163647D01*
X0031195Y0165239D01*
X0030586Y0166709D01*
X0031032Y0165633D02*
X0137313Y0165633D01*
X0137354Y0165650D02*
X0135029Y0164687D01*
X0133250Y0162908D01*
X0132287Y0160583D01*
X0132287Y0158067D01*
X0133250Y0155742D01*
X0135029Y0153963D01*
X0137354Y0153000D01*
X0139870Y0153000D01*
X0142195Y0153963D01*
X0143974Y0155742D01*
X0144937Y0158067D01*
X0144937Y0160583D01*
X0143974Y0162908D01*
X0142195Y0164687D01*
X0139870Y0165650D01*
X0137354Y0165650D01*
X0139912Y0165633D02*
X0146486Y0165633D01*
X0146486Y0164034D02*
X0142848Y0164034D01*
X0144170Y0162436D02*
X0146486Y0162436D01*
X0146486Y0160837D02*
X0144832Y0160837D01*
X0144937Y0159239D02*
X0146486Y0159239D01*
X0146486Y0157640D02*
X0144760Y0157640D01*
X0144098Y0156042D02*
X0146486Y0156042D01*
X0146486Y0154443D02*
X0142675Y0154443D01*
X0146486Y0152845D02*
X0031123Y0152845D01*
X0031195Y0153017D02*
X0030586Y0151547D01*
X0029461Y0150422D01*
X0027991Y0149813D01*
X0026399Y0149813D01*
X0024929Y0150422D01*
X0023804Y0151547D01*
X0023195Y0153017D01*
X0023195Y0154609D01*
X0023804Y0156079D01*
X0024929Y0157204D01*
X0026399Y0157813D01*
X0027991Y0157813D01*
X0029461Y0157204D01*
X0030586Y0156079D01*
X0031195Y0154609D01*
X0031195Y0153017D01*
X0031195Y0154443D02*
X0134549Y0154443D01*
X0133126Y0156042D02*
X0030601Y0156042D01*
X0028408Y0157640D02*
X0132464Y0157640D01*
X0132287Y0159239D02*
X0019365Y0159239D01*
X0019365Y0160837D02*
X0025448Y0160837D01*
X0023697Y0162436D02*
X0019365Y0162436D01*
X0019365Y0164034D02*
X0023195Y0164034D01*
X0023358Y0165633D02*
X0019365Y0165633D01*
X0019365Y0167231D02*
X0024326Y0167231D01*
X0019365Y0168830D02*
X0042254Y0168830D01*
X0039962Y0170428D02*
X0019365Y0170428D01*
X0019365Y0172027D02*
X0039337Y0172027D01*
X0039386Y0173625D02*
X0019365Y0173625D01*
X0019365Y0175224D02*
X0040193Y0175224D01*
X0046480Y0175224D02*
X0107829Y0175224D01*
X0107265Y0176822D02*
X0019365Y0176822D01*
X0019365Y0178421D02*
X0107366Y0178421D01*
X0108246Y0180019D02*
X0019365Y0180019D01*
X0031195Y0164034D02*
X0134377Y0164034D01*
X0133055Y0162436D02*
X0030693Y0162436D01*
X0028942Y0160837D02*
X0132392Y0160837D01*
X0146486Y0151246D02*
X0030285Y0151246D01*
X0027991Y0146002D02*
X0026399Y0146002D01*
X0024929Y0145393D01*
X0023804Y0144268D01*
X0023195Y0142798D01*
X0023195Y0141206D01*
X0023804Y0139736D01*
X0024929Y0138611D01*
X0026399Y0138002D01*
X0027991Y0138002D01*
X0029461Y0138611D01*
X0030586Y0139736D01*
X0031195Y0141206D01*
X0031195Y0142798D01*
X0030586Y0144268D01*
X0029461Y0145393D01*
X0027991Y0146002D01*
X0030002Y0144852D02*
X0146486Y0144852D01*
X0146486Y0146450D02*
X0019365Y0146450D01*
X0019365Y0144852D02*
X0024388Y0144852D01*
X0023384Y0143253D02*
X0019365Y0143253D01*
X0019365Y0141655D02*
X0023195Y0141655D01*
X0023671Y0140056D02*
X0019365Y0140056D01*
X0019365Y0138458D02*
X0025298Y0138458D01*
X0029091Y0138458D02*
X0146486Y0138458D01*
X0146486Y0140056D02*
X0030719Y0140056D01*
X0031195Y0141655D02*
X0146486Y0141655D01*
X0146486Y0143253D02*
X0031006Y0143253D01*
X0024105Y0151246D02*
X0019365Y0151246D01*
X0019365Y0149648D02*
X0146486Y0149648D01*
X0146486Y0148049D02*
X0019365Y0148049D01*
X0019365Y0152845D02*
X0023266Y0152845D01*
X0023195Y0154443D02*
X0019365Y0154443D01*
X0019365Y0156042D02*
X0023788Y0156042D01*
X0025982Y0157640D02*
X0019365Y0157640D01*
X0019365Y0136859D02*
X0146486Y0136859D01*
X0146486Y0135261D02*
X0019365Y0135261D01*
X0019365Y0133662D02*
X0146486Y0133662D01*
X0146486Y0132064D02*
X0118380Y0132064D01*
X0118043Y0132401D02*
X0116573Y0133010D01*
X0114982Y0133010D01*
X0113512Y0132401D01*
X0112387Y0131276D01*
X0111778Y0129805D01*
X0111778Y0128214D01*
X0112387Y0126744D01*
X0113512Y0125619D01*
X0114982Y0125010D01*
X0116573Y0125010D01*
X0118043Y0125619D01*
X0119169Y0126744D01*
X0119778Y0128214D01*
X0119778Y0129805D01*
X0119169Y0131276D01*
X0118043Y0132401D01*
X0119504Y0130465D02*
X0146486Y0130465D01*
X0146486Y0128867D02*
X0119778Y0128867D01*
X0119386Y0127268D02*
X0146486Y0127268D01*
X0146486Y0125670D02*
X0118094Y0125670D01*
X0113461Y0125670D02*
X0019365Y0125670D01*
X0019365Y0127268D02*
X0112169Y0127268D01*
X0111778Y0128867D02*
X0019365Y0128867D01*
X0019365Y0130465D02*
X0112051Y0130465D01*
X0113175Y0132064D02*
X0019365Y0132064D01*
X0019365Y0124071D02*
X0146486Y0124071D01*
X0146486Y0122473D02*
X0019365Y0122473D01*
X0019365Y0120874D02*
X0065380Y0120874D01*
X0064693Y0120590D02*
X0063568Y0119465D01*
X0062959Y0117994D01*
X0062959Y0116403D01*
X0063568Y0114933D01*
X0064693Y0113808D01*
X0066163Y0113199D01*
X0067754Y0113199D01*
X0069224Y0113808D01*
X0070350Y0114933D01*
X0070959Y0116403D01*
X0070959Y0117994D01*
X0070350Y0119465D01*
X0069224Y0120590D01*
X0067754Y0121199D01*
X0066163Y0121199D01*
X0064693Y0120590D01*
X0063489Y0119276D02*
X0019365Y0119276D01*
X0019365Y0117677D02*
X0062959Y0117677D01*
X0063093Y0116079D02*
X0019365Y0116079D01*
X0019365Y0114480D02*
X0057670Y0114480D01*
X0057213Y0114291D02*
X0056087Y0113165D01*
X0055478Y0111695D01*
X0055478Y0110104D01*
X0056087Y0108634D01*
X0057213Y0107509D01*
X0058683Y0106900D01*
X0060274Y0106900D01*
X0061744Y0107509D01*
X0062869Y0108634D01*
X0063478Y0110104D01*
X0063478Y0111695D01*
X0062869Y0113165D01*
X0061744Y0114291D01*
X0060274Y0114900D01*
X0058683Y0114900D01*
X0057213Y0114291D01*
X0055970Y0112882D02*
X0019365Y0112882D01*
X0019365Y0111283D02*
X0021528Y0111283D01*
X0021048Y0110803D02*
X0020439Y0109333D01*
X0020439Y0107742D01*
X0021048Y0106272D01*
X0022173Y0105146D01*
X0023643Y0104537D01*
X0025235Y0104537D01*
X0026705Y0105146D01*
X0027830Y0106272D01*
X0028439Y0107742D01*
X0028439Y0109333D01*
X0027830Y0110803D01*
X0026705Y0111928D01*
X0025235Y0112537D01*
X0023643Y0112537D01*
X0022173Y0111928D01*
X0021048Y0110803D01*
X0020585Y0109685D02*
X0019365Y0109685D01*
X0019365Y0108086D02*
X0020439Y0108086D01*
X0020958Y0106488D02*
X0019365Y0106488D01*
X0019365Y0104889D02*
X0022794Y0104889D01*
X0026084Y0104889D02*
X0047604Y0104889D01*
X0047604Y0105002D02*
X0047604Y0103411D01*
X0048213Y0101941D01*
X0049339Y0100816D01*
X0050809Y0100207D01*
X0052400Y0100207D01*
X0053870Y0100816D01*
X0054995Y0101941D01*
X0055604Y0103411D01*
X0055604Y0105002D01*
X0054995Y0106473D01*
X0053870Y0107598D01*
X0052400Y0108207D01*
X0050809Y0108207D01*
X0049339Y0107598D01*
X0048213Y0106473D01*
X0047604Y0105002D01*
X0048228Y0106488D02*
X0027920Y0106488D01*
X0028439Y0108086D02*
X0050518Y0108086D01*
X0052691Y0108086D02*
X0056635Y0108086D01*
X0055652Y0109685D02*
X0028293Y0109685D01*
X0027350Y0111283D02*
X0055478Y0111283D01*
X0054980Y0106488D02*
X0146486Y0106488D01*
X0146486Y0108086D02*
X0062322Y0108086D01*
X0063305Y0109685D02*
X0146486Y0109685D01*
X0146486Y0111283D02*
X0076544Y0111283D01*
X0076416Y0111230D02*
X0077886Y0111839D01*
X0079011Y0112964D01*
X0079620Y0114435D01*
X0079620Y0116026D01*
X0079011Y0117496D01*
X0077886Y0118621D01*
X0076416Y0119230D01*
X0074824Y0119230D01*
X0073354Y0118621D01*
X0072229Y0117496D01*
X0071620Y0116026D01*
X0071620Y0114435D01*
X0072229Y0112964D01*
X0073354Y0111839D01*
X0074824Y0111230D01*
X0076416Y0111230D01*
X0074697Y0111283D02*
X0063478Y0111283D01*
X0062987Y0112882D02*
X0072312Y0112882D01*
X0071620Y0114480D02*
X0069897Y0114480D01*
X0070824Y0116079D02*
X0071642Y0116079D01*
X0070959Y0117677D02*
X0072410Y0117677D01*
X0070428Y0119276D02*
X0086189Y0119276D01*
X0085559Y0119015D02*
X0084434Y0117890D01*
X0083825Y0116420D01*
X0083825Y0114828D01*
X0084434Y0113358D01*
X0085559Y0112233D01*
X0087029Y0111624D01*
X0088620Y0111624D01*
X0090091Y0112233D01*
X0091216Y0113358D01*
X0091825Y0114828D01*
X0091825Y0116420D01*
X0091216Y0117890D01*
X0090091Y0119015D01*
X0088620Y0119624D01*
X0087029Y0119624D01*
X0085559Y0119015D01*
X0084346Y0117677D02*
X0078830Y0117677D01*
X0079598Y0116079D02*
X0083825Y0116079D01*
X0083969Y0114480D02*
X0079620Y0114480D01*
X0078928Y0112882D02*
X0084910Y0112882D01*
X0090739Y0112882D02*
X0146486Y0112882D01*
X0146486Y0114480D02*
X0091681Y0114480D01*
X0091825Y0116079D02*
X0146486Y0116079D01*
X0146486Y0117677D02*
X0091304Y0117677D01*
X0089461Y0119276D02*
X0146486Y0119276D01*
X0146486Y0120874D02*
X0068538Y0120874D01*
X0064020Y0114480D02*
X0061286Y0114480D01*
X0055604Y0104889D02*
X0146486Y0104889D01*
X0146486Y0103291D02*
X0055554Y0103291D01*
X0054747Y0101692D02*
X0146486Y0101692D01*
X0146486Y0100094D02*
X0019365Y0100094D01*
X0019365Y0101692D02*
X0048462Y0101692D01*
X0047654Y0103291D02*
X0019365Y0103291D01*
X0019365Y0098495D02*
X0146486Y0098495D01*
X0146486Y0096897D02*
X0019365Y0096897D01*
X0019365Y0095298D02*
X0146486Y0095298D01*
X0146486Y0093700D02*
X0019365Y0093700D01*
X0019365Y0092101D02*
X0120379Y0092101D01*
X0120959Y0092681D02*
X0119665Y0091387D01*
X0118965Y0089696D01*
X0118965Y0087866D01*
X0119665Y0086176D01*
X0120959Y0084882D01*
X0122650Y0084181D01*
X0124480Y0084181D01*
X0126171Y0084882D01*
X0127465Y0086176D01*
X0128165Y0087866D01*
X0128165Y0089696D01*
X0127465Y0091387D01*
X0126171Y0092681D01*
X0124480Y0093381D01*
X0122650Y0093381D01*
X0120959Y0092681D01*
X0119299Y0090503D02*
X0044646Y0090503D01*
X0044690Y0090484D02*
X0043000Y0091185D01*
X0041170Y0091185D01*
X0039479Y0090484D01*
X0038185Y0089190D01*
X0037485Y0087500D01*
X0037485Y0085670D01*
X0038185Y0083979D01*
X0039479Y0082685D01*
X0041170Y0081985D01*
X0043000Y0081985D01*
X0044690Y0082685D01*
X0045984Y0083979D01*
X0046685Y0085670D01*
X0046685Y0087500D01*
X0045984Y0089190D01*
X0044690Y0090484D01*
X0046103Y0088904D02*
X0059603Y0088904D01*
X0059624Y0088913D02*
X0057929Y0088211D01*
X0056632Y0086914D01*
X0055930Y0085219D01*
X0055930Y0083384D01*
X0056632Y0081689D01*
X0057929Y0080391D01*
X0059624Y0079689D01*
X0061459Y0079689D01*
X0063154Y0080391D01*
X0064451Y0081689D01*
X0065153Y0083384D01*
X0065153Y0085219D01*
X0064451Y0086914D01*
X0063154Y0088211D01*
X0061459Y0088913D01*
X0059624Y0088913D01*
X0061480Y0088904D02*
X0069603Y0088904D01*
X0069624Y0088913D02*
X0067929Y0088211D01*
X0066632Y0086914D01*
X0065930Y0085219D01*
X0065930Y0083384D01*
X0066632Y0081689D01*
X0067929Y0080391D01*
X0069624Y0079689D01*
X0071459Y0079689D01*
X0073154Y0080391D01*
X0074451Y0081689D01*
X0075153Y0083384D01*
X0075153Y0085219D01*
X0074451Y0086914D01*
X0073154Y0088211D01*
X0071459Y0088913D01*
X0069624Y0088913D01*
X0071480Y0088904D02*
X0079136Y0088904D01*
X0079415Y0088995D02*
X0078694Y0088760D01*
X0078019Y0088417D01*
X0077407Y0087971D01*
X0076871Y0087436D01*
X0076426Y0086823D01*
X0076082Y0086148D01*
X0075848Y0085428D01*
X0075730Y0084680D01*
X0075730Y0084505D01*
X0080337Y0084505D01*
X0080337Y0084097D01*
X0075730Y0084097D01*
X0075730Y0083922D01*
X0075848Y0083174D01*
X0076082Y0082454D01*
X0076426Y0081779D01*
X0076871Y0081166D01*
X0077407Y0080631D01*
X0078019Y0080186D01*
X0078694Y0079842D01*
X0079415Y0079608D01*
X0080163Y0079489D01*
X0080337Y0079489D01*
X0080337Y0084097D01*
X0080745Y0084097D01*
X0080745Y0079489D01*
X0080920Y0079489D01*
X0081668Y0079608D01*
X0082388Y0079842D01*
X0083063Y0080186D01*
X0083676Y0080631D01*
X0084212Y0081166D01*
X0084657Y0081779D01*
X0085001Y0082454D01*
X0085235Y0083174D01*
X0085353Y0083922D01*
X0085353Y0084097D01*
X0080745Y0084097D01*
X0080745Y0084505D01*
X0080337Y0084505D01*
X0080337Y0089113D01*
X0080163Y0089113D01*
X0079415Y0088995D01*
X0080337Y0088904D02*
X0080745Y0088904D01*
X0080745Y0089113D02*
X0080920Y0089113D01*
X0081668Y0088995D01*
X0082388Y0088760D01*
X0083063Y0088417D01*
X0083676Y0087971D01*
X0084212Y0087436D01*
X0084657Y0086823D01*
X0085001Y0086148D01*
X0085235Y0085428D01*
X0085353Y0084680D01*
X0085353Y0084505D01*
X0080745Y0084505D01*
X0080745Y0089113D01*
X0081946Y0088904D02*
X0089603Y0088904D01*
X0089624Y0088913D02*
X0087929Y0088211D01*
X0086632Y0086914D01*
X0085930Y0085219D01*
X0085930Y0083384D01*
X0086632Y0081689D01*
X0087929Y0080391D01*
X0089624Y0079689D01*
X0091459Y0079689D01*
X0093154Y0080391D01*
X0094451Y0081689D01*
X0095153Y0083384D01*
X0095153Y0085219D01*
X0094451Y0086914D01*
X0093154Y0088211D01*
X0091459Y0088913D01*
X0089624Y0088913D01*
X0091480Y0088904D02*
X0099603Y0088904D01*
X0099624Y0088913D02*
X0097929Y0088211D01*
X0096632Y0086914D01*
X0095930Y0085219D01*
X0095930Y0083384D01*
X0096632Y0081689D01*
X0097929Y0080391D01*
X0099624Y0079689D01*
X0101459Y0079689D01*
X0103154Y0080391D01*
X0104451Y0081689D01*
X0105153Y0083384D01*
X0105153Y0085219D01*
X0104451Y0086914D01*
X0103154Y0088211D01*
X0101459Y0088913D01*
X0099624Y0088913D01*
X0101480Y0088904D02*
X0118965Y0088904D01*
X0119197Y0087306D02*
X0104059Y0087306D01*
X0104951Y0085707D02*
X0120134Y0085707D01*
X0120959Y0082681D02*
X0119665Y0081387D01*
X0118965Y0079696D01*
X0118965Y0077866D01*
X0119665Y0076176D01*
X0120959Y0074882D01*
X0122650Y0074181D01*
X0124480Y0074181D01*
X0126171Y0074882D01*
X0127465Y0076176D01*
X0128165Y0077866D01*
X0128165Y0079696D01*
X0127465Y0081387D01*
X0126171Y0082681D01*
X0124480Y0083381D01*
X0122650Y0083381D01*
X0120959Y0082681D01*
X0120788Y0082510D02*
X0104791Y0082510D01*
X0105153Y0084109D02*
X0146486Y0084109D01*
X0146486Y0085707D02*
X0136996Y0085707D01*
X0137465Y0086176D02*
X0138165Y0087866D01*
X0138165Y0089696D01*
X0137465Y0091387D01*
X0136171Y0092681D01*
X0134480Y0093381D01*
X0132650Y0093381D01*
X0130959Y0092681D01*
X0129665Y0091387D01*
X0128965Y0089696D01*
X0128965Y0087866D01*
X0129665Y0086176D01*
X0130959Y0084882D01*
X0132650Y0084181D01*
X0134480Y0084181D01*
X0136171Y0084882D01*
X0137465Y0086176D01*
X0137933Y0087306D02*
X0146486Y0087306D01*
X0146486Y0088904D02*
X0138165Y0088904D01*
X0137831Y0090503D02*
X0146486Y0090503D01*
X0146486Y0092101D02*
X0136751Y0092101D01*
X0130379Y0092101D02*
X0126751Y0092101D01*
X0127831Y0090503D02*
X0129299Y0090503D01*
X0128965Y0088904D02*
X0128165Y0088904D01*
X0127933Y0087306D02*
X0129197Y0087306D01*
X0130134Y0085707D02*
X0126996Y0085707D01*
X0126342Y0082510D02*
X0130788Y0082510D01*
X0130959Y0082681D02*
X0129665Y0081387D01*
X0128965Y0079696D01*
X0128965Y0077866D01*
X0129665Y0076176D01*
X0130959Y0074882D01*
X0132650Y0074181D01*
X0134480Y0074181D01*
X0136171Y0074882D01*
X0137465Y0076176D01*
X0138165Y0077866D01*
X0138165Y0079696D01*
X0137465Y0081387D01*
X0136171Y0082681D01*
X0134480Y0083381D01*
X0132650Y0083381D01*
X0130959Y0082681D01*
X0129468Y0080912D02*
X0127662Y0080912D01*
X0128165Y0079313D02*
X0128965Y0079313D01*
X0129028Y0077715D02*
X0128102Y0077715D01*
X0127405Y0076116D02*
X0129725Y0076116D01*
X0131839Y0074517D02*
X0125291Y0074517D01*
X0124480Y0073381D02*
X0122650Y0073381D01*
X0120959Y0072681D01*
X0119665Y0071387D01*
X0118965Y0069696D01*
X0118965Y0067866D01*
X0119665Y0066176D01*
X0120959Y0064882D01*
X0122650Y0064181D01*
X0124480Y0064181D01*
X0126171Y0064882D01*
X0127465Y0066176D01*
X0128165Y0067866D01*
X0128165Y0069696D01*
X0127465Y0071387D01*
X0126171Y0072681D01*
X0124480Y0073381D01*
X0125597Y0072919D02*
X0131533Y0072919D01*
X0130959Y0072681D02*
X0129665Y0071387D01*
X0128965Y0069696D01*
X0128965Y0067866D01*
X0129665Y0066176D01*
X0130959Y0064882D01*
X0132650Y0064181D01*
X0134480Y0064181D01*
X0136171Y0064882D01*
X0137465Y0066176D01*
X0138165Y0067866D01*
X0138165Y0069696D01*
X0137465Y0071387D01*
X0136171Y0072681D01*
X0134480Y0073381D01*
X0132650Y0073381D01*
X0130959Y0072681D01*
X0129638Y0071320D02*
X0127492Y0071320D01*
X0128154Y0069722D02*
X0128976Y0069722D01*
X0128965Y0068123D02*
X0128165Y0068123D01*
X0127609Y0066525D02*
X0129521Y0066525D01*
X0130915Y0064926D02*
X0126215Y0064926D01*
X0126171Y0062681D02*
X0124480Y0063381D01*
X0122650Y0063381D01*
X0120959Y0062681D01*
X0119665Y0061387D01*
X0118965Y0059696D01*
X0118965Y0057866D01*
X0119665Y0056176D01*
X0120959Y0054882D01*
X0122650Y0054181D01*
X0124480Y0054181D01*
X0126171Y0054882D01*
X0127465Y0056176D01*
X0128165Y0057866D01*
X0128165Y0059696D01*
X0127465Y0061387D01*
X0126171Y0062681D01*
X0127122Y0061729D02*
X0130007Y0061729D01*
X0129665Y0061387D02*
X0130959Y0062681D01*
X0132650Y0063381D01*
X0134480Y0063381D01*
X0136171Y0062681D01*
X0137465Y0061387D01*
X0138165Y0059696D01*
X0138165Y0057866D01*
X0137465Y0056176D01*
X0136171Y0054882D01*
X0134480Y0054181D01*
X0132650Y0054181D01*
X0130959Y0054882D01*
X0129665Y0056176D01*
X0128965Y0057866D01*
X0128965Y0059696D01*
X0129665Y0061387D01*
X0129145Y0060131D02*
X0127985Y0060131D01*
X0128165Y0058532D02*
X0128965Y0058532D01*
X0129351Y0056934D02*
X0127779Y0056934D01*
X0126624Y0055335D02*
X0130506Y0055335D01*
X0130959Y0052681D02*
X0129665Y0051387D01*
X0128965Y0049696D01*
X0128965Y0047866D01*
X0129665Y0046176D01*
X0130959Y0044882D01*
X0132650Y0044181D01*
X0134480Y0044181D01*
X0136171Y0044882D01*
X0137465Y0046176D01*
X0138165Y0047866D01*
X0138165Y0049696D01*
X0137465Y0051387D01*
X0136171Y0052681D01*
X0134480Y0053381D01*
X0132650Y0053381D01*
X0130959Y0052681D01*
X0130416Y0052138D02*
X0126713Y0052138D01*
X0126171Y0052681D02*
X0124480Y0053381D01*
X0122650Y0053381D01*
X0120959Y0052681D01*
X0119665Y0051387D01*
X0118965Y0049696D01*
X0118965Y0047866D01*
X0119665Y0046176D01*
X0120959Y0044882D01*
X0122650Y0044181D01*
X0124480Y0044181D01*
X0126171Y0044882D01*
X0127465Y0046176D01*
X0128165Y0047866D01*
X0128165Y0049696D01*
X0127465Y0051387D01*
X0126171Y0052681D01*
X0127816Y0050540D02*
X0129314Y0050540D01*
X0128965Y0048941D02*
X0128165Y0048941D01*
X0127948Y0047343D02*
X0129182Y0047343D01*
X0130097Y0045744D02*
X0127033Y0045744D01*
X0124447Y0040490D02*
X0122856Y0040490D01*
X0121845Y0040071D01*
X0100236Y0040071D01*
X0091431Y0048876D01*
X0091431Y0050278D01*
X0090822Y0051748D01*
X0089697Y0052873D01*
X0088227Y0053482D01*
X0086635Y0053482D01*
X0085165Y0052873D01*
X0084040Y0051748D01*
X0083431Y0050278D01*
X0083431Y0048687D01*
X0084040Y0047216D01*
X0085165Y0046091D01*
X0086635Y0045482D01*
X0088037Y0045482D01*
X0097883Y0035637D01*
X0098765Y0035271D01*
X0119827Y0035271D01*
X0120261Y0034224D01*
X0121386Y0033099D01*
X0122856Y0032490D01*
X0124447Y0032490D01*
X0125917Y0033099D01*
X0127043Y0034224D01*
X0127652Y0035695D01*
X0127652Y0037286D01*
X0127043Y0038756D01*
X0125917Y0039881D01*
X0124447Y0040490D01*
X0126448Y0039350D02*
X0146486Y0039350D01*
X0146486Y0037752D02*
X0127459Y0037752D01*
X0127652Y0036153D02*
X0146486Y0036153D01*
X0146486Y0034555D02*
X0127179Y0034555D01*
X0125572Y0032956D02*
X0130433Y0032956D01*
X0129761Y0032678D02*
X0128298Y0031215D01*
X0127507Y0029304D01*
X0127507Y0027235D01*
X0128298Y0025324D01*
X0129761Y0023861D01*
X0131672Y0023070D01*
X0133741Y0023070D01*
X0135652Y0023861D01*
X0137115Y0025324D01*
X0137907Y0027235D01*
X0137907Y0029304D01*
X0137115Y0031215D01*
X0135652Y0032678D01*
X0133741Y0033470D01*
X0131672Y0033470D01*
X0129761Y0032678D01*
X0128441Y0031358D02*
X0051122Y0031358D01*
X0050856Y0030716D02*
X0051465Y0032186D01*
X0051465Y0033777D01*
X0050856Y0035247D01*
X0049731Y0036373D01*
X0048261Y0036981D01*
X0046669Y0036981D01*
X0045199Y0036373D01*
X0044074Y0035247D01*
X0043465Y0033777D01*
X0043465Y0032186D01*
X0044074Y0030716D01*
X0045199Y0029590D01*
X0046669Y0028981D01*
X0048261Y0028981D01*
X0049731Y0029590D01*
X0050856Y0030716D01*
X0049899Y0029759D02*
X0127695Y0029759D01*
X0127507Y0028161D02*
X0019365Y0028161D01*
X0019365Y0029759D02*
X0045030Y0029759D01*
X0043808Y0031358D02*
X0019365Y0031358D01*
X0019365Y0032956D02*
X0043465Y0032956D01*
X0043787Y0034555D02*
X0019365Y0034555D01*
X0019365Y0036153D02*
X0044980Y0036153D01*
X0049950Y0036153D02*
X0069126Y0036153D01*
X0069343Y0035629D02*
X0070412Y0034560D01*
X0071809Y0033981D01*
X0073321Y0033981D01*
X0074717Y0034560D01*
X0075786Y0035629D01*
X0076365Y0037026D01*
X0076365Y0038537D01*
X0075786Y0039934D01*
X0074717Y0041003D01*
X0073321Y0041581D01*
X0071809Y0041581D01*
X0070412Y0041003D01*
X0069343Y0039934D01*
X0068765Y0038537D01*
X0068765Y0037026D01*
X0069343Y0035629D01*
X0070425Y0034555D02*
X0051143Y0034555D01*
X0051465Y0032956D02*
X0121731Y0032956D01*
X0120124Y0034555D02*
X0074705Y0034555D01*
X0076004Y0036153D02*
X0097366Y0036153D01*
X0095768Y0037752D02*
X0076365Y0037752D01*
X0076028Y0039350D02*
X0094169Y0039350D01*
X0092571Y0040949D02*
X0074772Y0040949D01*
X0070358Y0040949D02*
X0019365Y0040949D01*
X0019365Y0042547D02*
X0029811Y0042547D01*
X0029479Y0042685D02*
X0031170Y0041985D01*
X0033000Y0041985D01*
X0034690Y0042685D01*
X0035984Y0043979D01*
X0036685Y0045670D01*
X0036685Y0047500D01*
X0035984Y0049190D01*
X0034690Y0050484D01*
X0033000Y0051185D01*
X0031170Y0051185D01*
X0029479Y0050484D01*
X0028185Y0049190D01*
X0027485Y0047500D01*
X0027485Y0045670D01*
X0028185Y0043979D01*
X0029479Y0042685D01*
X0028116Y0044146D02*
X0019365Y0044146D01*
X0019365Y0045744D02*
X0027485Y0045744D01*
X0027485Y0047343D02*
X0019365Y0047343D01*
X0019365Y0048941D02*
X0028082Y0048941D01*
X0029613Y0050540D02*
X0019365Y0050540D01*
X0019365Y0052138D02*
X0030799Y0052138D01*
X0031170Y0051985D02*
X0033000Y0051985D01*
X0034690Y0052685D01*
X0035984Y0053979D01*
X0036685Y0055670D01*
X0036685Y0057500D01*
X0035984Y0059190D01*
X0034690Y0060484D01*
X0033000Y0061185D01*
X0031170Y0061185D01*
X0029479Y0060484D01*
X0028185Y0059190D01*
X0027485Y0057500D01*
X0027485Y0055670D01*
X0028185Y0053979D01*
X0029479Y0052685D01*
X0031170Y0051985D01*
X0033371Y0052138D02*
X0040799Y0052138D01*
X0041170Y0051985D02*
X0043000Y0051985D01*
X0044690Y0052685D01*
X0045984Y0053979D01*
X0046685Y0055670D01*
X0046685Y0057500D01*
X0045984Y0059190D01*
X0044690Y0060484D01*
X0043000Y0061185D01*
X0041170Y0061185D01*
X0039479Y0060484D01*
X0038185Y0059190D01*
X0037485Y0057500D01*
X0037485Y0055670D01*
X0038185Y0053979D01*
X0039479Y0052685D01*
X0041170Y0051985D01*
X0041170Y0051185D02*
X0039479Y0050484D01*
X0038185Y0049190D01*
X0037485Y0047500D01*
X0037485Y0045670D01*
X0038185Y0043979D01*
X0039479Y0042685D01*
X0041170Y0041985D01*
X0043000Y0041985D01*
X0044690Y0042685D01*
X0045984Y0043979D01*
X0046685Y0045670D01*
X0046685Y0047500D01*
X0045984Y0049190D01*
X0044690Y0050484D01*
X0043000Y0051185D01*
X0041170Y0051185D01*
X0039613Y0050540D02*
X0034556Y0050540D01*
X0036087Y0048941D02*
X0038082Y0048941D01*
X0037485Y0047343D02*
X0036685Y0047343D01*
X0036685Y0045744D02*
X0037485Y0045744D01*
X0038116Y0044146D02*
X0036053Y0044146D01*
X0034358Y0042547D02*
X0039811Y0042547D01*
X0044358Y0042547D02*
X0090972Y0042547D01*
X0089373Y0044146D02*
X0046053Y0044146D01*
X0046685Y0045744D02*
X0086003Y0045744D01*
X0083988Y0047343D02*
X0046685Y0047343D01*
X0046087Y0048941D02*
X0083431Y0048941D01*
X0083540Y0050540D02*
X0044556Y0050540D01*
X0043371Y0052138D02*
X0084430Y0052138D01*
X0087431Y0049482D02*
X0099242Y0037671D01*
X0122470Y0037671D01*
X0123652Y0036490D01*
X0116019Y0043673D02*
X0116628Y0045143D01*
X0116628Y0046735D01*
X0116019Y0048205D01*
X0114894Y0049330D01*
X0113424Y0049939D01*
X0111832Y0049939D01*
X0110362Y0049330D01*
X0109237Y0048205D01*
X0108628Y0046735D01*
X0108628Y0045143D01*
X0109237Y0043673D01*
X0110362Y0042548D01*
X0111832Y0041939D01*
X0113424Y0041939D01*
X0114894Y0042548D01*
X0116019Y0043673D01*
X0116215Y0044146D02*
X0146486Y0044146D01*
X0146486Y0045744D02*
X0137033Y0045744D01*
X0137948Y0047343D02*
X0146486Y0047343D01*
X0146486Y0048941D02*
X0138165Y0048941D01*
X0137816Y0050540D02*
X0146486Y0050540D01*
X0146486Y0052138D02*
X0136713Y0052138D01*
X0136624Y0055335D02*
X0146486Y0055335D01*
X0146486Y0053737D02*
X0045742Y0053737D01*
X0046546Y0055335D02*
X0060955Y0055335D01*
X0060412Y0055560D02*
X0061809Y0054981D01*
X0063321Y0054981D01*
X0064717Y0055560D01*
X0065786Y0056629D01*
X0066365Y0058026D01*
X0066365Y0059537D01*
X0065786Y0060934D01*
X0064717Y0062003D01*
X0063321Y0062581D01*
X0061809Y0062581D01*
X0060412Y0062003D01*
X0059343Y0060934D01*
X0058765Y0059537D01*
X0058765Y0058026D01*
X0059343Y0056629D01*
X0060412Y0055560D01*
X0059217Y0056934D02*
X0046685Y0056934D01*
X0046257Y0058532D02*
X0058765Y0058532D01*
X0059011Y0060131D02*
X0045044Y0060131D01*
X0044690Y0062685D02*
X0043000Y0061985D01*
X0041170Y0061985D01*
X0039479Y0062685D01*
X0038185Y0063979D01*
X0037485Y0065670D01*
X0037485Y0067500D01*
X0038185Y0069190D01*
X0039479Y0070484D01*
X0041170Y0071185D01*
X0043000Y0071185D01*
X0044690Y0070484D01*
X0045984Y0069190D01*
X0046685Y0067500D01*
X0046685Y0065670D01*
X0045984Y0063979D01*
X0044690Y0062685D01*
X0045333Y0063328D02*
X0122521Y0063328D01*
X0124609Y0063328D02*
X0132521Y0063328D01*
X0134609Y0063328D02*
X0146486Y0063328D01*
X0146486Y0064926D02*
X0136215Y0064926D01*
X0137609Y0066525D02*
X0146486Y0066525D01*
X0146486Y0068123D02*
X0138165Y0068123D01*
X0138154Y0069722D02*
X0146486Y0069722D01*
X0146486Y0071320D02*
X0137492Y0071320D01*
X0135597Y0072919D02*
X0146486Y0072919D01*
X0146486Y0074517D02*
X0135291Y0074517D01*
X0137405Y0076116D02*
X0146486Y0076116D01*
X0146486Y0077715D02*
X0138102Y0077715D01*
X0138165Y0079313D02*
X0146486Y0079313D01*
X0146486Y0080912D02*
X0137662Y0080912D01*
X0136342Y0082510D02*
X0146486Y0082510D01*
X0146486Y0061729D02*
X0137122Y0061729D01*
X0137985Y0060131D02*
X0146486Y0060131D01*
X0146486Y0058532D02*
X0138165Y0058532D01*
X0137779Y0056934D02*
X0146486Y0056934D01*
X0146486Y0042547D02*
X0114892Y0042547D01*
X0116628Y0045744D02*
X0120097Y0045744D01*
X0119182Y0047343D02*
X0116376Y0047343D01*
X0115282Y0048941D02*
X0118965Y0048941D01*
X0119314Y0050540D02*
X0091323Y0050540D01*
X0091431Y0048941D02*
X0109973Y0048941D01*
X0108880Y0047343D02*
X0092965Y0047343D01*
X0094563Y0045744D02*
X0108628Y0045744D01*
X0109041Y0044146D02*
X0096162Y0044146D01*
X0097760Y0042547D02*
X0110364Y0042547D01*
X0120416Y0052138D02*
X0090432Y0052138D01*
X0099359Y0040949D02*
X0146486Y0040949D01*
X0146486Y0032956D02*
X0134981Y0032956D01*
X0136973Y0031358D02*
X0146486Y0031358D01*
X0146486Y0029759D02*
X0137718Y0029759D01*
X0137907Y0028161D02*
X0146486Y0028161D01*
X0146486Y0026562D02*
X0137628Y0026562D01*
X0136755Y0024964D02*
X0146486Y0024964D01*
X0146486Y0023365D02*
X0134454Y0023365D01*
X0130959Y0023365D02*
X0019365Y0023365D01*
X0019365Y0021767D02*
X0146486Y0021767D01*
X0146486Y0020168D02*
X0019365Y0020168D01*
X0019365Y0018570D02*
X0146486Y0018570D01*
X0146486Y0016971D02*
X0019365Y0016971D01*
X0019365Y0015373D02*
X0146486Y0015373D01*
X0146486Y0013774D02*
X0019365Y0013774D01*
X0019365Y0012176D02*
X0146486Y0012176D01*
X0146486Y0010577D02*
X0019365Y0010577D01*
X0019365Y0008979D02*
X0146486Y0008979D01*
X0128659Y0024964D02*
X0019365Y0024964D01*
X0019365Y0026562D02*
X0127786Y0026562D01*
X0120506Y0055335D02*
X0064175Y0055335D01*
X0065913Y0056934D02*
X0119351Y0056934D01*
X0118965Y0058532D02*
X0066365Y0058532D01*
X0066119Y0060131D02*
X0119145Y0060131D01*
X0120007Y0061729D02*
X0064991Y0061729D01*
X0060139Y0061729D02*
X0019365Y0061729D01*
X0019365Y0060131D02*
X0029126Y0060131D01*
X0027912Y0058532D02*
X0019365Y0058532D01*
X0019365Y0056934D02*
X0027485Y0056934D01*
X0027623Y0055335D02*
X0019365Y0055335D01*
X0019365Y0053737D02*
X0028427Y0053737D01*
X0035742Y0053737D02*
X0038427Y0053737D01*
X0037623Y0055335D02*
X0036546Y0055335D01*
X0036685Y0056934D02*
X0037485Y0056934D01*
X0037912Y0058532D02*
X0036257Y0058532D01*
X0035044Y0060131D02*
X0039126Y0060131D01*
X0038836Y0063328D02*
X0035333Y0063328D01*
X0034690Y0062685D02*
X0035984Y0063979D01*
X0036685Y0065670D01*
X0036685Y0067500D01*
X0035984Y0069190D01*
X0034690Y0070484D01*
X0033000Y0071185D01*
X0031170Y0071185D01*
X0029479Y0070484D01*
X0028185Y0069190D01*
X0027485Y0067500D01*
X0027485Y0065670D01*
X0028185Y0063979D01*
X0029479Y0062685D01*
X0031170Y0061985D01*
X0033000Y0061985D01*
X0034690Y0062685D01*
X0036377Y0064926D02*
X0037792Y0064926D01*
X0037485Y0066525D02*
X0036685Y0066525D01*
X0036426Y0068123D02*
X0037743Y0068123D01*
X0038717Y0069722D02*
X0035453Y0069722D01*
X0034690Y0072685D02*
X0033000Y0071985D01*
X0031170Y0071985D01*
X0029479Y0072685D01*
X0028185Y0073979D01*
X0027485Y0075670D01*
X0027485Y0077500D01*
X0028185Y0079190D01*
X0029479Y0080484D01*
X0031170Y0081185D01*
X0033000Y0081185D01*
X0034690Y0080484D01*
X0035984Y0079190D01*
X0036685Y0077500D01*
X0036685Y0075670D01*
X0035984Y0073979D01*
X0034690Y0072685D01*
X0034924Y0072919D02*
X0039245Y0072919D01*
X0039479Y0072685D02*
X0041170Y0071985D01*
X0043000Y0071985D01*
X0044690Y0072685D01*
X0045984Y0073979D01*
X0046685Y0075670D01*
X0046685Y0077500D01*
X0045984Y0079190D01*
X0044690Y0080484D01*
X0043000Y0081185D01*
X0041170Y0081185D01*
X0039479Y0080484D01*
X0038185Y0079190D01*
X0037485Y0077500D01*
X0037485Y0075670D01*
X0038185Y0073979D01*
X0039479Y0072685D01*
X0037962Y0074517D02*
X0036207Y0074517D01*
X0036685Y0076116D02*
X0037485Y0076116D01*
X0037574Y0077715D02*
X0036596Y0077715D01*
X0035862Y0079313D02*
X0038308Y0079313D01*
X0040510Y0080912D02*
X0033659Y0080912D01*
X0033000Y0081985D02*
X0031170Y0081985D01*
X0029479Y0082685D01*
X0028185Y0083979D01*
X0027485Y0085670D01*
X0027485Y0087500D01*
X0028185Y0089190D01*
X0029479Y0090484D01*
X0031170Y0091185D01*
X0033000Y0091185D01*
X0034690Y0090484D01*
X0035984Y0089190D01*
X0036685Y0087500D01*
X0036685Y0085670D01*
X0035984Y0083979D01*
X0034690Y0082685D01*
X0033000Y0081985D01*
X0034268Y0082510D02*
X0039901Y0082510D01*
X0038131Y0084109D02*
X0036038Y0084109D01*
X0036685Y0085707D02*
X0037485Y0085707D01*
X0037485Y0087306D02*
X0036685Y0087306D01*
X0036103Y0088904D02*
X0038066Y0088904D01*
X0039523Y0090503D02*
X0034646Y0090503D01*
X0029523Y0090503D02*
X0019365Y0090503D01*
X0019365Y0088904D02*
X0028066Y0088904D01*
X0027485Y0087306D02*
X0019365Y0087306D01*
X0019365Y0085707D02*
X0027485Y0085707D01*
X0028131Y0084109D02*
X0019365Y0084109D01*
X0019365Y0082510D02*
X0029901Y0082510D01*
X0030510Y0080912D02*
X0019365Y0080912D01*
X0019365Y0079313D02*
X0028308Y0079313D01*
X0027574Y0077715D02*
X0019365Y0077715D01*
X0019365Y0076116D02*
X0027485Y0076116D01*
X0027962Y0074517D02*
X0019365Y0074517D01*
X0019365Y0072919D02*
X0029245Y0072919D01*
X0028717Y0069722D02*
X0019365Y0069722D01*
X0019365Y0071320D02*
X0119638Y0071320D01*
X0118976Y0069722D02*
X0045453Y0069722D01*
X0046426Y0068123D02*
X0118965Y0068123D01*
X0119521Y0066525D02*
X0046685Y0066525D01*
X0046377Y0064926D02*
X0120915Y0064926D01*
X0121533Y0072919D02*
X0044924Y0072919D01*
X0046207Y0074517D02*
X0121839Y0074517D01*
X0119725Y0076116D02*
X0046685Y0076116D01*
X0046596Y0077715D02*
X0119028Y0077715D01*
X0118965Y0079313D02*
X0045862Y0079313D01*
X0043659Y0080912D02*
X0057409Y0080912D01*
X0056291Y0082510D02*
X0044268Y0082510D01*
X0046038Y0084109D02*
X0055930Y0084109D01*
X0056132Y0085707D02*
X0046685Y0085707D01*
X0046685Y0087306D02*
X0057024Y0087306D01*
X0064059Y0087306D02*
X0067024Y0087306D01*
X0066132Y0085707D02*
X0064951Y0085707D01*
X0065153Y0084109D02*
X0065930Y0084109D01*
X0066291Y0082510D02*
X0064791Y0082510D01*
X0063674Y0080912D02*
X0067409Y0080912D01*
X0073674Y0080912D02*
X0077126Y0080912D01*
X0076064Y0082510D02*
X0074791Y0082510D01*
X0075153Y0084109D02*
X0080337Y0084109D01*
X0080745Y0084109D02*
X0085930Y0084109D01*
X0086132Y0085707D02*
X0085144Y0085707D01*
X0084306Y0087306D02*
X0087024Y0087306D01*
X0086291Y0082510D02*
X0085019Y0082510D01*
X0083957Y0080912D02*
X0087409Y0080912D01*
X0093674Y0080912D02*
X0097409Y0080912D01*
X0096291Y0082510D02*
X0094791Y0082510D01*
X0095153Y0084109D02*
X0095930Y0084109D01*
X0096132Y0085707D02*
X0094951Y0085707D01*
X0094059Y0087306D02*
X0097024Y0087306D01*
X0103674Y0080912D02*
X0119468Y0080912D01*
X0080745Y0080912D02*
X0080337Y0080912D01*
X0080337Y0082510D02*
X0080745Y0082510D01*
X0080745Y0085707D02*
X0080337Y0085707D01*
X0080337Y0087306D02*
X0080745Y0087306D01*
X0076776Y0087306D02*
X0074059Y0087306D01*
X0074951Y0085707D02*
X0075939Y0085707D01*
X0069102Y0039350D02*
X0019365Y0039350D01*
X0019365Y0037752D02*
X0068765Y0037752D01*
X0028836Y0063328D02*
X0019365Y0063328D01*
X0019365Y0064926D02*
X0027792Y0064926D01*
X0027485Y0066525D02*
X0019365Y0066525D01*
X0019365Y0068123D02*
X0027743Y0068123D01*
D22*
X0154360Y0068104D02*
X0259949Y0068104D01*
X0259740Y0067600D02*
X0259740Y0065163D01*
X0260672Y0062912D01*
X0262395Y0061189D01*
X0264647Y0060256D01*
X0267083Y0060256D01*
X0269334Y0061189D01*
X0271057Y0062912D01*
X0271990Y0065163D01*
X0271990Y0067600D01*
X0271057Y0069851D01*
X0269334Y0071574D01*
X0267083Y0072506D01*
X0264647Y0072506D01*
X0262395Y0071574D01*
X0260672Y0069851D01*
X0259740Y0067600D01*
X0259740Y0066906D02*
X0154360Y0066906D01*
X0154360Y0065707D02*
X0207399Y0065707D01*
X0207526Y0065833D02*
X0206513Y0064821D01*
X0205965Y0063498D01*
X0205965Y0062065D01*
X0206513Y0060742D01*
X0207526Y0059730D01*
X0208849Y0059181D01*
X0210281Y0059181D01*
X0211604Y0059730D01*
X0212617Y0060742D01*
X0213165Y0062065D01*
X0213165Y0063498D01*
X0212617Y0064821D01*
X0211604Y0065833D01*
X0210281Y0066381D01*
X0208849Y0066381D01*
X0207526Y0065833D01*
X0206384Y0064509D02*
X0154360Y0064509D01*
X0154360Y0063310D02*
X0205965Y0063310D01*
X0205965Y0062112D02*
X0154360Y0062112D01*
X0154360Y0060913D02*
X0206442Y0060913D01*
X0207562Y0059715D02*
X0154360Y0059715D01*
X0154360Y0058516D02*
X0301367Y0058516D01*
X0301367Y0059715D02*
X0297213Y0059715D01*
X0297634Y0059889D02*
X0299357Y0061612D01*
X0300290Y0063863D01*
X0300290Y0066300D01*
X0299357Y0068551D01*
X0297634Y0070274D01*
X0295383Y0071206D01*
X0292947Y0071206D01*
X0290695Y0070274D01*
X0288972Y0068551D01*
X0288040Y0066300D01*
X0288040Y0063863D01*
X0288972Y0061612D01*
X0290695Y0059889D01*
X0292947Y0058956D01*
X0295383Y0058956D01*
X0297634Y0059889D01*
X0298659Y0060913D02*
X0301367Y0060913D01*
X0301367Y0062112D02*
X0299564Y0062112D01*
X0300061Y0063310D02*
X0301367Y0063310D01*
X0301367Y0064509D02*
X0300290Y0064509D01*
X0300290Y0065707D02*
X0301367Y0065707D01*
X0301367Y0066906D02*
X0300039Y0066906D01*
X0299543Y0068104D02*
X0301367Y0068104D01*
X0301367Y0069303D02*
X0298606Y0069303D01*
X0297086Y0070501D02*
X0301367Y0070501D01*
X0301367Y0071700D02*
X0269031Y0071700D01*
X0270407Y0070501D02*
X0291244Y0070501D01*
X0289724Y0069303D02*
X0271285Y0069303D01*
X0271781Y0068104D02*
X0288787Y0068104D01*
X0288291Y0066906D02*
X0271990Y0066906D01*
X0271990Y0065707D02*
X0288040Y0065707D01*
X0288040Y0064509D02*
X0271719Y0064509D01*
X0271222Y0063310D02*
X0288269Y0063310D01*
X0288765Y0062112D02*
X0270257Y0062112D01*
X0268668Y0060913D02*
X0289671Y0060913D01*
X0291117Y0059715D02*
X0222157Y0059715D01*
X0222034Y0059592D02*
X0222991Y0060548D01*
X0223508Y0061798D01*
X0223508Y0063151D01*
X0222991Y0064400D01*
X0222034Y0065357D01*
X0220785Y0065874D01*
X0219432Y0065874D01*
X0218182Y0065357D01*
X0217226Y0064400D01*
X0216708Y0063151D01*
X0216708Y0061798D01*
X0217226Y0060548D01*
X0218182Y0059592D01*
X0219432Y0059074D01*
X0220785Y0059074D01*
X0222034Y0059592D01*
X0223142Y0060913D02*
X0263062Y0060913D01*
X0261473Y0062112D02*
X0223508Y0062112D01*
X0223442Y0063310D02*
X0260508Y0063310D01*
X0260011Y0064509D02*
X0222882Y0064509D01*
X0221189Y0065707D02*
X0259740Y0065707D01*
X0260445Y0069303D02*
X0154360Y0069303D01*
X0154360Y0070501D02*
X0261323Y0070501D01*
X0262699Y0071700D02*
X0154360Y0071700D01*
X0154360Y0072898D02*
X0231254Y0072898D01*
X0231568Y0072584D02*
X0232818Y0072067D01*
X0234170Y0072067D01*
X0235420Y0072584D01*
X0236376Y0073541D01*
X0236894Y0074790D01*
X0236894Y0076143D01*
X0236376Y0077392D01*
X0235420Y0078349D01*
X0234170Y0078867D01*
X0232818Y0078867D01*
X0231568Y0078349D01*
X0230612Y0077392D01*
X0230094Y0076143D01*
X0230094Y0074790D01*
X0230612Y0073541D01*
X0231568Y0072584D01*
X0230381Y0074097D02*
X0154360Y0074097D01*
X0154360Y0075295D02*
X0206884Y0075295D01*
X0206902Y0075277D02*
X0208152Y0074759D01*
X0209504Y0074759D01*
X0210754Y0075277D01*
X0211710Y0076234D01*
X0212228Y0077483D01*
X0212228Y0078836D01*
X0211710Y0080085D01*
X0210754Y0081042D01*
X0209504Y0081559D01*
X0208175Y0081559D01*
X0208424Y0081808D01*
X0208941Y0083058D01*
X0208941Y0084411D01*
X0208424Y0085660D01*
X0207467Y0086617D01*
X0206218Y0087134D01*
X0204865Y0087134D01*
X0204574Y0087014D01*
X0205274Y0087714D01*
X0205792Y0088963D01*
X0205792Y0090316D01*
X0205274Y0091566D01*
X0204318Y0092522D01*
X0203068Y0093040D01*
X0201715Y0093040D01*
X0200466Y0092522D01*
X0199509Y0091566D01*
X0198992Y0090316D01*
X0198992Y0088963D01*
X0199509Y0087714D01*
X0200466Y0086757D01*
X0201715Y0086240D01*
X0203068Y0086240D01*
X0203359Y0086360D01*
X0202659Y0085660D01*
X0202141Y0084411D01*
X0202141Y0083058D01*
X0202659Y0081808D01*
X0203615Y0080852D01*
X0204865Y0080334D01*
X0206194Y0080334D01*
X0205946Y0080085D01*
X0205428Y0078836D01*
X0205428Y0077483D01*
X0205946Y0076234D01*
X0206902Y0075277D01*
X0205838Y0076494D02*
X0154360Y0076494D01*
X0154360Y0077692D02*
X0205428Y0077692D01*
X0205451Y0078891D02*
X0154360Y0078891D01*
X0154360Y0080089D02*
X0205949Y0080089D01*
X0203180Y0081288D02*
X0154360Y0081288D01*
X0154360Y0082486D02*
X0202378Y0082486D01*
X0202141Y0083685D02*
X0154360Y0083685D01*
X0154360Y0084883D02*
X0202337Y0084883D01*
X0203081Y0086082D02*
X0154360Y0086082D01*
X0154360Y0087280D02*
X0199943Y0087280D01*
X0199192Y0088479D02*
X0154360Y0088479D01*
X0154360Y0089677D02*
X0198992Y0089677D01*
X0199224Y0090876D02*
X0154360Y0090876D01*
X0154360Y0092074D02*
X0200018Y0092074D01*
X0199525Y0092145D02*
X0200774Y0092663D01*
X0201731Y0093619D01*
X0202248Y0094869D01*
X0202248Y0096222D01*
X0201731Y0097471D01*
X0200774Y0098428D01*
X0199525Y0098945D01*
X0198172Y0098945D01*
X0196922Y0098428D01*
X0195966Y0097471D01*
X0195448Y0096222D01*
X0195448Y0094869D01*
X0195966Y0093619D01*
X0196922Y0092663D01*
X0198172Y0092145D01*
X0199525Y0092145D01*
X0201384Y0093273D02*
X0301367Y0093273D01*
X0301367Y0094471D02*
X0202084Y0094471D01*
X0202248Y0095670D02*
X0301367Y0095670D01*
X0301367Y0096868D02*
X0201981Y0096868D01*
X0201135Y0098067D02*
X0301367Y0098067D01*
X0301367Y0099265D02*
X0154360Y0099265D01*
X0154360Y0098067D02*
X0196562Y0098067D01*
X0195716Y0096868D02*
X0154360Y0096868D01*
X0154360Y0095670D02*
X0195448Y0095670D01*
X0195613Y0094471D02*
X0154360Y0094471D01*
X0154360Y0093273D02*
X0196313Y0093273D01*
X0204765Y0092074D02*
X0301367Y0092074D01*
X0301367Y0090876D02*
X0205560Y0090876D01*
X0205792Y0089677D02*
X0301367Y0089677D01*
X0301367Y0088479D02*
X0205591Y0088479D01*
X0204841Y0087280D02*
X0301367Y0087280D01*
X0301367Y0086082D02*
X0208002Y0086082D01*
X0208746Y0084883D02*
X0218017Y0084883D01*
X0218270Y0085136D02*
X0217313Y0084179D01*
X0216796Y0082929D01*
X0216796Y0081577D01*
X0217313Y0080327D01*
X0218270Y0079371D01*
X0219519Y0078853D01*
X0220872Y0078853D01*
X0222122Y0079371D01*
X0223078Y0080327D01*
X0223596Y0081577D01*
X0223596Y0082929D01*
X0223078Y0084179D01*
X0222122Y0085136D01*
X0220872Y0085653D01*
X0219519Y0085653D01*
X0218270Y0085136D01*
X0217109Y0083685D02*
X0208941Y0083685D01*
X0208705Y0082486D02*
X0216796Y0082486D01*
X0216915Y0081288D02*
X0210160Y0081288D01*
X0211707Y0080089D02*
X0217551Y0080089D01*
X0219429Y0078891D02*
X0212205Y0078891D01*
X0212228Y0077692D02*
X0230911Y0077692D01*
X0230239Y0076494D02*
X0211818Y0076494D01*
X0210772Y0075295D02*
X0230094Y0075295D01*
X0235734Y0072898D02*
X0301367Y0072898D01*
X0301367Y0074097D02*
X0236607Y0074097D01*
X0236894Y0075295D02*
X0301367Y0075295D01*
X0301367Y0076494D02*
X0236749Y0076494D01*
X0236077Y0077692D02*
X0301367Y0077692D01*
X0301367Y0078891D02*
X0220963Y0078891D01*
X0222840Y0080089D02*
X0301367Y0080089D01*
X0301367Y0081288D02*
X0223476Y0081288D01*
X0223596Y0082486D02*
X0301367Y0082486D01*
X0301367Y0083685D02*
X0223283Y0083685D01*
X0222374Y0084883D02*
X0301367Y0084883D01*
X0301367Y0100464D02*
X0154360Y0100464D01*
X0154360Y0101662D02*
X0301367Y0101662D01*
X0301367Y0102861D02*
X0154360Y0102861D01*
X0154360Y0104059D02*
X0301367Y0104059D01*
X0301367Y0105258D02*
X0154360Y0105258D01*
X0154360Y0106456D02*
X0301367Y0106456D01*
X0301367Y0107655D02*
X0224812Y0107655D01*
X0224417Y0107260D02*
X0225486Y0108329D01*
X0226065Y0109726D01*
X0226065Y0111237D01*
X0225486Y0112634D01*
X0224417Y0113703D01*
X0223021Y0114281D01*
X0221509Y0114281D01*
X0220112Y0113703D01*
X0219043Y0112634D01*
X0218465Y0111237D01*
X0218465Y0109726D01*
X0219043Y0108329D01*
X0220112Y0107260D01*
X0221509Y0106681D01*
X0223021Y0106681D01*
X0224417Y0107260D01*
X0225704Y0108853D02*
X0301367Y0108853D01*
X0301367Y0110052D02*
X0226065Y0110052D01*
X0226060Y0111250D02*
X0301367Y0111250D01*
X0301367Y0112449D02*
X0225563Y0112449D01*
X0224473Y0113648D02*
X0301367Y0113648D01*
X0301367Y0114846D02*
X0154360Y0114846D01*
X0154360Y0113648D02*
X0207812Y0113648D01*
X0207383Y0113219D02*
X0208340Y0114176D01*
X0209589Y0114693D01*
X0210942Y0114693D01*
X0212192Y0114176D01*
X0213148Y0113219D01*
X0213666Y0111970D01*
X0213666Y0110617D01*
X0213148Y0109367D01*
X0212192Y0108411D01*
X0210942Y0107893D01*
X0209589Y0107893D01*
X0208340Y0108411D01*
X0207383Y0109367D01*
X0206866Y0110617D01*
X0206866Y0111970D01*
X0207383Y0113219D01*
X0207064Y0112449D02*
X0154360Y0112449D01*
X0154360Y0111250D02*
X0206866Y0111250D01*
X0207100Y0110052D02*
X0154360Y0110052D01*
X0154360Y0108853D02*
X0207897Y0108853D01*
X0212634Y0108853D02*
X0218826Y0108853D01*
X0218465Y0110052D02*
X0213432Y0110052D01*
X0213666Y0111250D02*
X0218470Y0111250D01*
X0218967Y0112449D02*
X0213467Y0112449D01*
X0212720Y0113648D02*
X0220057Y0113648D01*
X0219717Y0107655D02*
X0154360Y0107655D01*
X0154360Y0116045D02*
X0301367Y0116045D01*
X0301367Y0117243D02*
X0154360Y0117243D01*
X0154360Y0118442D02*
X0240041Y0118442D01*
X0240230Y0118253D02*
X0241479Y0117736D01*
X0242832Y0117736D01*
X0244081Y0118253D01*
X0245038Y0119210D01*
X0245555Y0120460D01*
X0245555Y0121812D01*
X0245038Y0123062D01*
X0244081Y0124018D01*
X0242832Y0124536D01*
X0241479Y0124536D01*
X0240230Y0124018D01*
X0239273Y0123062D01*
X0238756Y0121812D01*
X0238756Y0120460D01*
X0239273Y0119210D01*
X0240230Y0118253D01*
X0239095Y0119640D02*
X0154360Y0119640D01*
X0154360Y0120839D02*
X0238756Y0120839D01*
X0238849Y0122037D02*
X0154360Y0122037D01*
X0154360Y0123236D02*
X0239447Y0123236D01*
X0241234Y0124434D02*
X0154360Y0124434D01*
X0154360Y0125633D02*
X0248197Y0125633D01*
X0247921Y0126300D02*
X0248591Y0124683D01*
X0249828Y0123445D01*
X0251446Y0122775D01*
X0253196Y0122775D01*
X0254813Y0123445D01*
X0256051Y0124683D01*
X0256721Y0126300D01*
X0256721Y0128050D01*
X0256051Y0129668D01*
X0254813Y0130905D01*
X0253196Y0131575D01*
X0251446Y0131575D01*
X0249828Y0130905D01*
X0248591Y0129668D01*
X0247921Y0128050D01*
X0247921Y0126300D01*
X0247921Y0126831D02*
X0154360Y0126831D01*
X0154360Y0128030D02*
X0247921Y0128030D01*
X0248409Y0129228D02*
X0154360Y0129228D01*
X0154360Y0130427D02*
X0249350Y0130427D01*
X0249828Y0133445D02*
X0251446Y0132775D01*
X0253196Y0132775D01*
X0254813Y0133445D01*
X0256051Y0134683D01*
X0256721Y0136300D01*
X0256721Y0138050D01*
X0256051Y0139668D01*
X0254813Y0140905D01*
X0253196Y0141575D01*
X0251446Y0141575D01*
X0249828Y0140905D01*
X0248591Y0139668D01*
X0247921Y0138050D01*
X0247921Y0136300D01*
X0248591Y0134683D01*
X0249828Y0133445D01*
X0249251Y0134022D02*
X0154360Y0134022D01*
X0154360Y0132824D02*
X0251329Y0132824D01*
X0253313Y0132824D02*
X0261329Y0132824D01*
X0261446Y0132775D02*
X0263196Y0132775D01*
X0264813Y0133445D01*
X0266051Y0134683D01*
X0266721Y0136300D01*
X0266721Y0138050D01*
X0266051Y0139668D01*
X0264813Y0140905D01*
X0263196Y0141575D01*
X0261446Y0141575D01*
X0259828Y0140905D01*
X0258591Y0139668D01*
X0257921Y0138050D01*
X0257921Y0136300D01*
X0258591Y0134683D01*
X0259828Y0133445D01*
X0261446Y0132775D01*
X0261446Y0131575D02*
X0259828Y0130905D01*
X0258591Y0129668D01*
X0257921Y0128050D01*
X0257921Y0126300D01*
X0258591Y0124683D01*
X0259828Y0123445D01*
X0261446Y0122775D01*
X0263196Y0122775D01*
X0264813Y0123445D01*
X0266051Y0124683D01*
X0266721Y0126300D01*
X0266721Y0128050D01*
X0266051Y0129668D01*
X0264813Y0130905D01*
X0263196Y0131575D01*
X0261446Y0131575D01*
X0263313Y0132824D02*
X0271329Y0132824D01*
X0271446Y0132775D02*
X0273196Y0132775D01*
X0274813Y0133445D01*
X0276051Y0134683D01*
X0276721Y0136300D01*
X0276721Y0138050D01*
X0276051Y0139668D01*
X0274813Y0140905D01*
X0273196Y0141575D01*
X0271446Y0141575D01*
X0269828Y0140905D01*
X0268591Y0139668D01*
X0267921Y0138050D01*
X0267921Y0136300D01*
X0268591Y0134683D01*
X0269828Y0133445D01*
X0271446Y0132775D01*
X0271446Y0131575D02*
X0269828Y0130905D01*
X0268591Y0129668D01*
X0267921Y0128050D01*
X0267921Y0126300D01*
X0268591Y0124683D01*
X0269828Y0123445D01*
X0271446Y0122775D01*
X0273196Y0122775D01*
X0274813Y0123445D01*
X0276051Y0124683D01*
X0276721Y0126300D01*
X0276721Y0128050D01*
X0276051Y0129668D01*
X0274813Y0130905D01*
X0273196Y0131575D01*
X0271446Y0131575D01*
X0273313Y0132824D02*
X0281329Y0132824D01*
X0281446Y0132775D02*
X0283196Y0132775D01*
X0284813Y0133445D01*
X0286051Y0134683D01*
X0286721Y0136300D01*
X0286721Y0138050D01*
X0286051Y0139668D01*
X0284813Y0140905D01*
X0283196Y0141575D01*
X0281446Y0141575D01*
X0279828Y0140905D01*
X0278591Y0139668D01*
X0277921Y0138050D01*
X0277921Y0136300D01*
X0278591Y0134683D01*
X0279828Y0133445D01*
X0281446Y0132775D01*
X0281446Y0131575D02*
X0279828Y0130905D01*
X0278591Y0129668D01*
X0277921Y0128050D01*
X0277921Y0126300D01*
X0278591Y0124683D01*
X0279828Y0123445D01*
X0281446Y0122775D01*
X0283196Y0122775D01*
X0284813Y0123445D01*
X0286051Y0124683D01*
X0286721Y0126300D01*
X0286721Y0128050D01*
X0286051Y0129668D01*
X0284813Y0130905D01*
X0283196Y0131575D01*
X0281446Y0131575D01*
X0283313Y0132824D02*
X0291329Y0132824D01*
X0291446Y0132775D02*
X0293196Y0132775D01*
X0294813Y0133445D01*
X0296051Y0134683D01*
X0296721Y0136300D01*
X0296721Y0138050D01*
X0296051Y0139668D01*
X0294813Y0140905D01*
X0293196Y0141575D01*
X0291446Y0141575D01*
X0289828Y0140905D01*
X0288591Y0139668D01*
X0287921Y0138050D01*
X0287921Y0136300D01*
X0288591Y0134683D01*
X0289828Y0133445D01*
X0291446Y0132775D01*
X0291921Y0131769D02*
X0291244Y0131662D01*
X0290555Y0131438D01*
X0289910Y0131109D01*
X0289324Y0130684D01*
X0288812Y0130172D01*
X0288387Y0129586D01*
X0288058Y0128941D01*
X0287834Y0128252D01*
X0287727Y0127575D01*
X0291921Y0127575D01*
X0291921Y0126775D01*
X0292721Y0126775D01*
X0292721Y0127575D01*
X0296915Y0127575D01*
X0296808Y0128252D01*
X0296584Y0128941D01*
X0296255Y0129586D01*
X0295830Y0130172D01*
X0295318Y0130684D01*
X0294732Y0131109D01*
X0294087Y0131438D01*
X0293398Y0131662D01*
X0292721Y0131769D01*
X0292721Y0127575D01*
X0291921Y0127575D01*
X0291921Y0131769D01*
X0291921Y0131625D02*
X0292721Y0131625D01*
X0293511Y0131625D02*
X0301367Y0131625D01*
X0301367Y0130427D02*
X0295575Y0130427D01*
X0296438Y0129228D02*
X0301367Y0129228D01*
X0301367Y0128030D02*
X0296843Y0128030D01*
X0296915Y0126775D02*
X0292721Y0126775D01*
X0292721Y0122581D01*
X0293398Y0122688D01*
X0294087Y0122912D01*
X0294732Y0123241D01*
X0295318Y0123667D01*
X0295830Y0124178D01*
X0296255Y0124764D01*
X0296584Y0125409D01*
X0296808Y0126098D01*
X0296915Y0126775D01*
X0296656Y0125633D02*
X0301367Y0125633D01*
X0301367Y0126831D02*
X0292721Y0126831D01*
X0291921Y0126831D02*
X0286721Y0126831D01*
X0287727Y0126775D02*
X0287834Y0126098D01*
X0288058Y0125409D01*
X0288387Y0124764D01*
X0288812Y0124178D01*
X0289324Y0123667D01*
X0289910Y0123241D01*
X0290555Y0122912D01*
X0291244Y0122688D01*
X0291921Y0122581D01*
X0291921Y0126775D01*
X0287727Y0126775D01*
X0287985Y0125633D02*
X0286444Y0125633D01*
X0285802Y0124434D02*
X0288626Y0124434D01*
X0289920Y0123236D02*
X0284308Y0123236D01*
X0280334Y0123236D02*
X0274308Y0123236D01*
X0275802Y0124434D02*
X0278839Y0124434D01*
X0278197Y0125633D02*
X0276444Y0125633D01*
X0276721Y0126831D02*
X0277921Y0126831D01*
X0277921Y0128030D02*
X0276721Y0128030D01*
X0276233Y0129228D02*
X0278409Y0129228D01*
X0279350Y0130427D02*
X0275292Y0130427D01*
X0275390Y0134022D02*
X0279251Y0134022D01*
X0278368Y0135221D02*
X0276274Y0135221D01*
X0276721Y0136419D02*
X0277921Y0136419D01*
X0277921Y0137618D02*
X0276721Y0137618D01*
X0276404Y0138816D02*
X0278238Y0138816D01*
X0278938Y0140015D02*
X0275704Y0140015D01*
X0274070Y0141213D02*
X0280572Y0141213D01*
X0284070Y0141213D02*
X0290572Y0141213D01*
X0288938Y0140015D02*
X0285704Y0140015D01*
X0286404Y0138816D02*
X0288238Y0138816D01*
X0287921Y0137618D02*
X0286721Y0137618D01*
X0286721Y0136419D02*
X0287921Y0136419D01*
X0288368Y0135221D02*
X0286274Y0135221D01*
X0285390Y0134022D02*
X0289251Y0134022D01*
X0291131Y0131625D02*
X0154360Y0131625D01*
X0154360Y0135221D02*
X0248368Y0135221D01*
X0247921Y0136419D02*
X0218163Y0136419D01*
X0217715Y0136233D02*
X0219111Y0136812D01*
X0220180Y0137881D01*
X0220759Y0139278D01*
X0220759Y0140789D01*
X0220180Y0142186D01*
X0219111Y0143255D01*
X0217715Y0143833D01*
X0216203Y0143833D01*
X0214806Y0143255D01*
X0213737Y0142186D01*
X0213159Y0140789D01*
X0213159Y0139278D01*
X0213737Y0137881D01*
X0214806Y0136812D01*
X0216203Y0136233D01*
X0217715Y0136233D01*
X0215754Y0136419D02*
X0154360Y0136419D01*
X0154360Y0137618D02*
X0214000Y0137618D01*
X0213350Y0138816D02*
X0154360Y0138816D01*
X0154360Y0140015D02*
X0213159Y0140015D01*
X0213334Y0141213D02*
X0154360Y0141213D01*
X0154360Y0142412D02*
X0213963Y0142412D01*
X0215664Y0143610D02*
X0154360Y0143610D01*
X0154360Y0144809D02*
X0220279Y0144809D01*
X0220245Y0144726D02*
X0220245Y0143215D01*
X0220824Y0141818D01*
X0221893Y0140749D01*
X0223289Y0140170D01*
X0224801Y0140170D01*
X0226198Y0140749D01*
X0227267Y0141818D01*
X0227845Y0143215D01*
X0227845Y0144726D01*
X0227267Y0146123D01*
X0226198Y0147192D01*
X0224801Y0147770D01*
X0223289Y0147770D01*
X0221893Y0147192D01*
X0220824Y0146123D01*
X0220245Y0144726D01*
X0220245Y0143610D02*
X0218253Y0143610D01*
X0219954Y0142412D02*
X0220578Y0142412D01*
X0220583Y0141213D02*
X0221428Y0141213D01*
X0220759Y0140015D02*
X0248938Y0140015D01*
X0248238Y0138816D02*
X0220568Y0138816D01*
X0219917Y0137618D02*
X0247921Y0137618D01*
X0250572Y0141213D02*
X0226662Y0141213D01*
X0227513Y0142412D02*
X0301367Y0142412D01*
X0301367Y0143610D02*
X0227845Y0143610D01*
X0227811Y0144809D02*
X0301367Y0144809D01*
X0301367Y0146007D02*
X0227315Y0146007D01*
X0226164Y0147206D02*
X0301367Y0147206D01*
X0301367Y0148404D02*
X0154360Y0148404D01*
X0154360Y0147206D02*
X0221926Y0147206D01*
X0220776Y0146007D02*
X0154360Y0146007D01*
X0154360Y0149603D02*
X0301367Y0149603D01*
X0301367Y0150801D02*
X0154360Y0150801D01*
X0154360Y0151451D02*
X0301367Y0151451D01*
X0301367Y0008381D01*
X0154360Y0008381D01*
X0154360Y0151451D01*
X0211731Y0065707D02*
X0219028Y0065707D01*
X0217334Y0064509D02*
X0212746Y0064509D01*
X0213165Y0063310D02*
X0216774Y0063310D01*
X0216708Y0062112D02*
X0213165Y0062112D01*
X0212688Y0060913D02*
X0217075Y0060913D01*
X0218060Y0059715D02*
X0211568Y0059715D01*
X0191165Y0052498D02*
X0191165Y0051065D01*
X0190617Y0049742D01*
X0189604Y0048730D01*
X0188281Y0048181D01*
X0186849Y0048181D01*
X0185526Y0048730D01*
X0184513Y0049742D01*
X0183965Y0051065D01*
X0183965Y0052498D01*
X0184513Y0053821D01*
X0185526Y0054833D01*
X0186849Y0055381D01*
X0188281Y0055381D01*
X0189604Y0054833D01*
X0190617Y0053821D01*
X0191165Y0052498D01*
X0191154Y0052523D02*
X0259105Y0052523D01*
X0258640Y0051400D02*
X0259572Y0053651D01*
X0261295Y0055374D01*
X0263547Y0056306D01*
X0265983Y0056306D01*
X0268234Y0055374D01*
X0269957Y0053651D01*
X0270890Y0051400D01*
X0270890Y0048963D01*
X0269957Y0046712D01*
X0268234Y0044989D01*
X0265983Y0044056D01*
X0263547Y0044056D01*
X0261295Y0044989D01*
X0259572Y0046712D01*
X0258640Y0048963D01*
X0258640Y0051400D01*
X0258640Y0051325D02*
X0191165Y0051325D01*
X0190776Y0050126D02*
X0258640Y0050126D01*
X0258655Y0048928D02*
X0189803Y0048928D01*
X0185327Y0048928D02*
X0169987Y0048928D01*
X0170165Y0048498D02*
X0169617Y0049821D01*
X0168604Y0050833D01*
X0167281Y0051381D01*
X0165849Y0051381D01*
X0164526Y0050833D01*
X0163513Y0049821D01*
X0162965Y0048498D01*
X0162965Y0047065D01*
X0163513Y0045742D01*
X0164526Y0044730D01*
X0165849Y0044181D01*
X0167281Y0044181D01*
X0168604Y0044730D01*
X0169617Y0045742D01*
X0170165Y0047065D01*
X0170165Y0048498D01*
X0170165Y0047729D02*
X0259151Y0047729D01*
X0259754Y0046531D02*
X0169944Y0046531D01*
X0169207Y0045332D02*
X0260952Y0045332D01*
X0263360Y0044134D02*
X0154360Y0044134D01*
X0154360Y0045332D02*
X0163923Y0045332D01*
X0163186Y0046531D02*
X0154360Y0046531D01*
X0154360Y0047729D02*
X0162965Y0047729D01*
X0163143Y0048928D02*
X0154360Y0048928D01*
X0154360Y0050126D02*
X0163819Y0050126D01*
X0165712Y0051325D02*
X0154360Y0051325D01*
X0154360Y0052523D02*
X0183976Y0052523D01*
X0183965Y0051325D02*
X0167418Y0051325D01*
X0169311Y0050126D02*
X0184354Y0050126D01*
X0184472Y0053722D02*
X0154360Y0053722D01*
X0154360Y0054920D02*
X0185736Y0054920D01*
X0189394Y0054920D02*
X0260842Y0054920D01*
X0259643Y0053722D02*
X0190658Y0053722D01*
X0180415Y0030067D02*
X0178983Y0030067D01*
X0177660Y0029518D01*
X0176647Y0028506D01*
X0176099Y0027183D01*
X0176099Y0025750D01*
X0176647Y0024427D01*
X0177660Y0023415D01*
X0178983Y0022867D01*
X0180415Y0022867D01*
X0181738Y0023415D01*
X0182751Y0024427D01*
X0183299Y0025750D01*
X0183299Y0027183D01*
X0182751Y0028506D01*
X0181738Y0029518D01*
X0180415Y0030067D01*
X0181175Y0029752D02*
X0210343Y0029752D01*
X0210343Y0029632D02*
X0210891Y0028309D01*
X0211904Y0027296D01*
X0213227Y0026748D01*
X0214659Y0026748D01*
X0215982Y0027296D01*
X0216995Y0028309D01*
X0217543Y0029632D01*
X0217543Y0031065D01*
X0216995Y0032388D01*
X0215982Y0033400D01*
X0214659Y0033948D01*
X0213227Y0033948D01*
X0211904Y0033400D01*
X0210891Y0032388D01*
X0210343Y0031065D01*
X0210343Y0029632D01*
X0210790Y0028553D02*
X0182703Y0028553D01*
X0183228Y0027355D02*
X0211845Y0027355D01*
X0210343Y0030950D02*
X0154360Y0030950D01*
X0154360Y0029752D02*
X0178223Y0029752D01*
X0176694Y0028553D02*
X0154360Y0028553D01*
X0154360Y0027355D02*
X0176170Y0027355D01*
X0176099Y0026156D02*
X0154360Y0026156D01*
X0154360Y0024958D02*
X0176427Y0024958D01*
X0177315Y0023759D02*
X0154360Y0023759D01*
X0154360Y0022561D02*
X0239091Y0022561D01*
X0239091Y0023246D02*
X0239091Y0021813D01*
X0239639Y0020490D01*
X0240652Y0019478D01*
X0241975Y0018930D01*
X0243407Y0018930D01*
X0244730Y0019478D01*
X0245743Y0020490D01*
X0246291Y0021813D01*
X0246291Y0023246D01*
X0245743Y0024569D01*
X0244730Y0025581D01*
X0243407Y0026130D01*
X0241975Y0026130D01*
X0240652Y0025581D01*
X0239639Y0024569D01*
X0239091Y0023246D01*
X0239304Y0023759D02*
X0182083Y0023759D01*
X0182970Y0024958D02*
X0240028Y0024958D01*
X0239278Y0021362D02*
X0154360Y0021362D01*
X0154360Y0020164D02*
X0239966Y0020164D01*
X0241889Y0018965D02*
X0154360Y0018965D01*
X0154360Y0017767D02*
X0252340Y0017767D01*
X0252340Y0018900D02*
X0252340Y0016463D01*
X0253272Y0014212D01*
X0254995Y0012489D01*
X0257247Y0011556D01*
X0259683Y0011556D01*
X0261934Y0012489D01*
X0263657Y0014212D01*
X0264590Y0016463D01*
X0264590Y0018900D01*
X0263657Y0021151D01*
X0261934Y0022874D01*
X0259683Y0023806D01*
X0257247Y0023806D01*
X0254995Y0022874D01*
X0253272Y0021151D01*
X0252340Y0018900D01*
X0252367Y0018965D02*
X0243493Y0018965D01*
X0245416Y0020164D02*
X0252863Y0020164D01*
X0253484Y0021362D02*
X0246104Y0021362D01*
X0246291Y0022561D02*
X0254682Y0022561D01*
X0257132Y0023759D02*
X0246078Y0023759D01*
X0245354Y0024958D02*
X0284453Y0024958D01*
X0284472Y0024912D02*
X0286195Y0023189D01*
X0288447Y0022256D01*
X0290883Y0022256D01*
X0293134Y0023189D01*
X0294857Y0024912D01*
X0295790Y0027163D01*
X0295790Y0029600D01*
X0294857Y0031851D01*
X0293134Y0033574D01*
X0290883Y0034506D01*
X0288447Y0034506D01*
X0286195Y0033574D01*
X0284472Y0031851D01*
X0283540Y0029600D01*
X0283540Y0027163D01*
X0284472Y0024912D01*
X0283957Y0026156D02*
X0183299Y0026156D01*
X0210792Y0032149D02*
X0154360Y0032149D01*
X0154360Y0033347D02*
X0211851Y0033347D01*
X0216035Y0033347D02*
X0252840Y0033347D01*
X0252840Y0032563D02*
X0253772Y0030312D01*
X0255495Y0028589D01*
X0257747Y0027656D01*
X0260183Y0027656D01*
X0262434Y0028589D01*
X0264157Y0030312D01*
X0265090Y0032563D01*
X0265090Y0035000D01*
X0264157Y0037251D01*
X0262434Y0038974D01*
X0260183Y0039906D01*
X0257747Y0039906D01*
X0255495Y0038974D01*
X0253772Y0037251D01*
X0252840Y0035000D01*
X0252840Y0032563D01*
X0253012Y0032149D02*
X0217094Y0032149D01*
X0217543Y0030950D02*
X0253508Y0030950D01*
X0254333Y0029752D02*
X0217543Y0029752D01*
X0217096Y0028553D02*
X0255582Y0028553D01*
X0259798Y0023759D02*
X0274781Y0023759D01*
X0274795Y0023774D02*
X0273072Y0022051D01*
X0272140Y0019800D01*
X0272140Y0017363D01*
X0273072Y0015112D01*
X0274795Y0013389D01*
X0277047Y0012456D01*
X0279483Y0012456D01*
X0281734Y0013389D01*
X0283457Y0015112D01*
X0284390Y0017363D01*
X0284390Y0019800D01*
X0283457Y0022051D01*
X0281734Y0023774D01*
X0279483Y0024706D01*
X0277047Y0024706D01*
X0274795Y0023774D01*
X0273582Y0022561D02*
X0262248Y0022561D01*
X0263446Y0021362D02*
X0272787Y0021362D01*
X0272291Y0020164D02*
X0264066Y0020164D01*
X0264563Y0018965D02*
X0272140Y0018965D01*
X0272140Y0017767D02*
X0264590Y0017767D01*
X0264590Y0016568D02*
X0272469Y0016568D01*
X0272966Y0015370D02*
X0264137Y0015370D01*
X0263617Y0014171D02*
X0274013Y0014171D01*
X0275801Y0012973D02*
X0262418Y0012973D01*
X0260209Y0011774D02*
X0301367Y0011774D01*
X0301367Y0010576D02*
X0154360Y0010576D01*
X0154360Y0011774D02*
X0256721Y0011774D01*
X0254512Y0012973D02*
X0154360Y0012973D01*
X0154360Y0014171D02*
X0253313Y0014171D01*
X0252793Y0015370D02*
X0154360Y0015370D01*
X0154360Y0016568D02*
X0252340Y0016568D01*
X0262348Y0028553D02*
X0283540Y0028553D01*
X0283540Y0027355D02*
X0216040Y0027355D01*
X0252840Y0034546D02*
X0154360Y0034546D01*
X0154360Y0035744D02*
X0253148Y0035744D01*
X0253645Y0036943D02*
X0154360Y0036943D01*
X0154360Y0038141D02*
X0254663Y0038141D01*
X0256379Y0039340D02*
X0154360Y0039340D01*
X0154360Y0040538D02*
X0288266Y0040538D01*
X0288947Y0040256D02*
X0286695Y0041189D01*
X0284972Y0042912D01*
X0284040Y0045163D01*
X0284040Y0047600D01*
X0284972Y0049851D01*
X0286695Y0051574D01*
X0288947Y0052506D01*
X0291383Y0052506D01*
X0293634Y0051574D01*
X0295357Y0049851D01*
X0296290Y0047600D01*
X0296290Y0045163D01*
X0295357Y0042912D01*
X0293634Y0041189D01*
X0291383Y0040256D01*
X0288947Y0040256D01*
X0292064Y0040538D02*
X0301367Y0040538D01*
X0301367Y0039340D02*
X0261551Y0039340D01*
X0263267Y0038141D02*
X0301367Y0038141D01*
X0301367Y0036943D02*
X0264285Y0036943D01*
X0264782Y0035744D02*
X0301367Y0035744D01*
X0301367Y0034546D02*
X0265090Y0034546D01*
X0265090Y0033347D02*
X0285969Y0033347D01*
X0284770Y0032149D02*
X0264918Y0032149D01*
X0264422Y0030950D02*
X0284099Y0030950D01*
X0283603Y0029752D02*
X0263597Y0029752D01*
X0266170Y0044134D02*
X0284466Y0044134D01*
X0284040Y0045332D02*
X0268578Y0045332D01*
X0269776Y0046531D02*
X0284040Y0046531D01*
X0284094Y0047729D02*
X0270379Y0047729D01*
X0270875Y0048928D02*
X0284590Y0048928D01*
X0285248Y0050126D02*
X0270890Y0050126D01*
X0270890Y0051325D02*
X0286446Y0051325D01*
X0293884Y0051325D02*
X0301367Y0051325D01*
X0301367Y0052523D02*
X0270425Y0052523D01*
X0269887Y0053722D02*
X0301367Y0053722D01*
X0301367Y0054920D02*
X0268688Y0054920D01*
X0266436Y0056119D02*
X0301367Y0056119D01*
X0301367Y0057317D02*
X0154360Y0057317D01*
X0154360Y0056119D02*
X0263094Y0056119D01*
X0284963Y0042935D02*
X0154360Y0042935D01*
X0154360Y0041737D02*
X0286148Y0041737D01*
X0294182Y0041737D02*
X0301367Y0041737D01*
X0301367Y0042935D02*
X0295367Y0042935D01*
X0295864Y0044134D02*
X0301367Y0044134D01*
X0301367Y0045332D02*
X0296290Y0045332D01*
X0296290Y0046531D02*
X0301367Y0046531D01*
X0301367Y0047729D02*
X0296236Y0047729D01*
X0295740Y0048928D02*
X0301367Y0048928D01*
X0301367Y0050126D02*
X0295082Y0050126D01*
X0293361Y0033347D02*
X0301367Y0033347D01*
X0301367Y0032149D02*
X0294560Y0032149D01*
X0295231Y0030950D02*
X0301367Y0030950D01*
X0301367Y0029752D02*
X0295727Y0029752D01*
X0295790Y0028553D02*
X0301367Y0028553D01*
X0301367Y0027355D02*
X0295790Y0027355D01*
X0295373Y0026156D02*
X0301367Y0026156D01*
X0301367Y0024958D02*
X0294876Y0024958D01*
X0293705Y0023759D02*
X0301367Y0023759D01*
X0301367Y0022561D02*
X0291618Y0022561D01*
X0287712Y0022561D02*
X0282948Y0022561D01*
X0283743Y0021362D02*
X0301367Y0021362D01*
X0301367Y0020164D02*
X0284239Y0020164D01*
X0284390Y0018965D02*
X0301367Y0018965D01*
X0301367Y0017767D02*
X0284390Y0017767D01*
X0284061Y0016568D02*
X0301367Y0016568D01*
X0301367Y0015370D02*
X0283564Y0015370D01*
X0282517Y0014171D02*
X0301367Y0014171D01*
X0301367Y0012973D02*
X0280729Y0012973D01*
X0281749Y0023759D02*
X0285625Y0023759D01*
X0301367Y0009377D02*
X0154360Y0009377D01*
X0244270Y0118442D02*
X0301367Y0118442D01*
X0301367Y0119640D02*
X0245216Y0119640D01*
X0245555Y0120839D02*
X0301367Y0120839D01*
X0301367Y0122037D02*
X0245462Y0122037D01*
X0244864Y0123236D02*
X0250334Y0123236D01*
X0248839Y0124434D02*
X0243077Y0124434D01*
X0254308Y0123236D02*
X0260334Y0123236D01*
X0258839Y0124434D02*
X0255802Y0124434D01*
X0256444Y0125633D02*
X0258197Y0125633D01*
X0257921Y0126831D02*
X0256721Y0126831D01*
X0256721Y0128030D02*
X0257921Y0128030D01*
X0258409Y0129228D02*
X0256233Y0129228D01*
X0255292Y0130427D02*
X0259350Y0130427D01*
X0259251Y0134022D02*
X0255390Y0134022D01*
X0256274Y0135221D02*
X0258368Y0135221D01*
X0257921Y0136419D02*
X0256721Y0136419D01*
X0256721Y0137618D02*
X0257921Y0137618D01*
X0258238Y0138816D02*
X0256404Y0138816D01*
X0255704Y0140015D02*
X0258938Y0140015D01*
X0260572Y0141213D02*
X0254070Y0141213D01*
X0264070Y0141213D02*
X0270572Y0141213D01*
X0268938Y0140015D02*
X0265704Y0140015D01*
X0266404Y0138816D02*
X0268238Y0138816D01*
X0267921Y0137618D02*
X0266721Y0137618D01*
X0266721Y0136419D02*
X0267921Y0136419D01*
X0268368Y0135221D02*
X0266274Y0135221D01*
X0265390Y0134022D02*
X0269251Y0134022D01*
X0269350Y0130427D02*
X0265292Y0130427D01*
X0266233Y0129228D02*
X0268409Y0129228D01*
X0267921Y0128030D02*
X0266721Y0128030D01*
X0266721Y0126831D02*
X0267921Y0126831D01*
X0268197Y0125633D02*
X0266444Y0125633D01*
X0265802Y0124434D02*
X0268839Y0124434D01*
X0270334Y0123236D02*
X0264308Y0123236D01*
X0285292Y0130427D02*
X0289067Y0130427D01*
X0288204Y0129228D02*
X0286233Y0129228D01*
X0286721Y0128030D02*
X0287799Y0128030D01*
X0291921Y0128030D02*
X0292721Y0128030D01*
X0292721Y0129228D02*
X0291921Y0129228D01*
X0291921Y0130427D02*
X0292721Y0130427D01*
X0293313Y0132824D02*
X0301367Y0132824D01*
X0301367Y0134022D02*
X0295390Y0134022D01*
X0296274Y0135221D02*
X0301367Y0135221D01*
X0301367Y0136419D02*
X0296721Y0136419D01*
X0296721Y0137618D02*
X0301367Y0137618D01*
X0301367Y0138816D02*
X0296404Y0138816D01*
X0295704Y0140015D02*
X0301367Y0140015D01*
X0301367Y0141213D02*
X0294070Y0141213D01*
X0292721Y0125633D02*
X0291921Y0125633D01*
X0291921Y0124434D02*
X0292721Y0124434D01*
X0292721Y0123236D02*
X0291921Y0123236D01*
X0294721Y0123236D02*
X0301367Y0123236D01*
X0301367Y0124434D02*
X0296015Y0124434D01*
D23*
X0158765Y0044381D03*
D24*
X0098933Y0186181D02*
X0027865Y0186181D01*
X0021465Y0192581D01*
X0021465Y0262881D01*
X0044365Y0285781D01*
X0054365Y0285781D01*
X0103179Y0190427D02*
X0098933Y0186181D01*
M02*
