G75*
%MOIN*%
%OFA0B0*%
%FSLAX25Y25*%
%IPPOS*%
%LPD*%
%AMOC8*
5,1,8,0,0,1.08239X$1,22.5*
%
%ADD10R,0.04331X0.03937*%
%ADD11R,0.03543X0.02756*%
%ADD12R,0.02756X0.03543*%
%ADD13R,0.03937X0.04331*%
%ADD14R,0.05118X0.06299*%
%ADD15R,0.03150X0.06299*%
%ADD16R,0.06299X0.03150*%
%ADD17C,0.03150*%
%ADD18R,0.02362X0.01969*%
%ADD19R,0.01063X0.03937*%
%ADD20R,0.01772X0.04232*%
%ADD21R,0.04232X0.01772*%
%ADD22R,0.01575X0.05315*%
%ADD23R,0.08268X0.06299*%
%ADD24R,0.07087X0.07480*%
%ADD25R,0.01575X0.05118*%
%ADD26R,0.02362X0.05118*%
%ADD27R,0.04921X0.01181*%
%ADD28R,0.01811X0.01181*%
%ADD29R,0.03937X0.11811*%
%ADD30R,0.11811X0.03937*%
%ADD31R,0.13780X0.03937*%
D10*
X0042676Y0221770D03*
X0042676Y0228463D03*
X0042476Y0236219D03*
X0042476Y0242911D03*
X0058224Y0242911D03*
X0058224Y0236219D03*
X0058024Y0228063D03*
X0058024Y0221370D03*
X0073972Y0221970D03*
X0073972Y0228663D03*
X0073972Y0236219D03*
X0073972Y0242911D03*
X0093657Y0242911D03*
X0093657Y0236219D03*
X0093857Y0228763D03*
X0093857Y0222070D03*
X0225389Y0244674D03*
X0232082Y0244674D03*
X0232681Y0231162D03*
X0225988Y0231162D03*
X0232691Y0021191D03*
X0232691Y0014498D03*
D11*
X0209762Y0050167D03*
X0209762Y0055285D03*
X0220274Y0069695D03*
X0220274Y0074813D03*
X0183313Y0060341D03*
X0183313Y0055222D03*
X0175211Y0022963D03*
X0175211Y0017844D03*
X0068321Y0058695D03*
X0068321Y0063813D03*
X0116124Y0136837D03*
X0116124Y0141955D03*
X0088037Y0208273D03*
X0088037Y0213391D03*
X0071053Y0212791D03*
X0071053Y0207673D03*
X0053563Y0207673D03*
X0053563Y0212791D03*
X0039536Y0213291D03*
X0039536Y0208173D03*
X0084972Y0257415D03*
X0084972Y0262533D03*
X0060689Y0271628D03*
X0060689Y0276746D03*
X0053437Y0277061D03*
X0053437Y0271943D03*
X0231754Y0142695D03*
X0231754Y0137577D03*
D12*
X0223707Y0134356D03*
X0218589Y0134356D03*
X0180179Y0047293D03*
X0175061Y0047293D03*
X0029195Y0115671D03*
X0024077Y0115671D03*
D13*
X0054219Y0013947D03*
X0060911Y0013947D03*
X0060911Y0024781D03*
X0054219Y0024781D03*
X0157156Y0058719D03*
X0163848Y0058719D03*
X0163848Y0071719D03*
X0157156Y0071719D03*
X0162825Y0037878D03*
X0169518Y0037878D03*
X0229959Y0067805D03*
X0236652Y0067805D03*
X0252250Y0107467D03*
X0258943Y0107467D03*
X0253999Y0170515D03*
X0253999Y0177207D03*
X0194864Y0110018D03*
X0188171Y0110018D03*
X0096518Y0190270D03*
X0089825Y0190270D03*
D14*
X0246151Y0187288D03*
X0253631Y0187288D03*
X0264765Y0177215D03*
X0272245Y0177215D03*
X0271600Y0164963D03*
X0264119Y0164963D03*
D15*
X0095738Y0180096D03*
X0091014Y0180096D03*
X0086289Y0180096D03*
X0081565Y0180096D03*
X0076841Y0180096D03*
X0072116Y0180096D03*
X0067392Y0180096D03*
X0062667Y0180096D03*
X0057943Y0180096D03*
X0053219Y0180096D03*
X0048494Y0180096D03*
X0043770Y0180096D03*
X0039045Y0180096D03*
X0034321Y0180096D03*
X0029596Y0180096D03*
X0024872Y0180096D03*
X0020148Y0180096D03*
X0020148Y0126947D03*
X0024872Y0126947D03*
X0029596Y0126947D03*
X0034321Y0126947D03*
X0039045Y0126947D03*
X0043770Y0126947D03*
X0048494Y0126947D03*
X0053219Y0126947D03*
X0057943Y0126947D03*
X0062667Y0126947D03*
X0067392Y0126947D03*
X0072116Y0126947D03*
X0076841Y0126947D03*
X0081565Y0126947D03*
X0086289Y0126947D03*
X0091014Y0126947D03*
X0095738Y0126947D03*
D16*
X0103612Y0130293D03*
X0103612Y0136986D03*
X0103612Y0141711D03*
X0103612Y0146435D03*
X0103612Y0151159D03*
X0103612Y0155884D03*
X0103612Y0160608D03*
X0103612Y0165333D03*
X0103612Y0170057D03*
X0103612Y0176750D03*
D17*
X0022509Y0167301D02*
X0021723Y0167301D01*
X0021723Y0161789D02*
X0022509Y0161789D01*
X0022509Y0156278D02*
X0021723Y0156278D01*
X0021723Y0150766D02*
X0022509Y0150766D01*
X0022509Y0145254D02*
X0021723Y0145254D01*
X0021723Y0139742D02*
X0022509Y0139742D01*
D18*
X0077990Y0187978D03*
X0083108Y0187978D03*
X0265211Y0107640D03*
X0270329Y0107640D03*
D19*
X0075413Y0261951D03*
X0073444Y0261951D03*
X0071476Y0261951D03*
X0069507Y0261951D03*
X0067539Y0261951D03*
X0067539Y0278093D03*
X0069507Y0278093D03*
X0071476Y0278093D03*
X0073444Y0278093D03*
X0075413Y0278093D03*
D20*
X0209116Y0124496D03*
X0212266Y0124496D03*
X0215415Y0124496D03*
X0218565Y0124496D03*
X0221715Y0124496D03*
X0224864Y0124496D03*
X0228014Y0124496D03*
X0231163Y0124496D03*
X0231163Y0092311D03*
X0228014Y0092311D03*
X0224864Y0092311D03*
X0221715Y0092311D03*
X0218565Y0092311D03*
X0215415Y0092311D03*
X0212266Y0092311D03*
X0209116Y0092311D03*
D21*
X0204047Y0097380D03*
X0204047Y0100530D03*
X0204047Y0103679D03*
X0204047Y0106829D03*
X0204047Y0109978D03*
X0204047Y0113128D03*
X0204047Y0116278D03*
X0204047Y0119427D03*
X0236232Y0119427D03*
X0236232Y0116278D03*
X0236232Y0113128D03*
X0236232Y0109978D03*
X0236232Y0106829D03*
X0236232Y0103679D03*
X0236232Y0100530D03*
X0236232Y0097380D03*
D22*
X0208872Y0026781D03*
X0206313Y0026781D03*
X0203754Y0026781D03*
X0201195Y0026781D03*
X0198636Y0026781D03*
D23*
X0191549Y0021821D03*
X0215959Y0021821D03*
D24*
X0218911Y0011781D03*
X0208478Y0011781D03*
X0199030Y0011781D03*
X0188596Y0011781D03*
D25*
X0233116Y0081876D03*
D26*
X0229376Y0081876D03*
X0236856Y0081876D03*
D27*
X0105459Y0064163D03*
X0105459Y0061604D03*
X0105459Y0059045D03*
X0105459Y0056486D03*
X0105459Y0053927D03*
X0105459Y0051368D03*
X0105459Y0048809D03*
X0105459Y0046250D03*
X0105459Y0043691D03*
X0105459Y0041132D03*
X0105459Y0038573D03*
X0105459Y0036014D03*
X0105459Y0033455D03*
X0105459Y0030896D03*
X0079671Y0030896D03*
X0079671Y0033455D03*
X0079671Y0036014D03*
X0079671Y0038573D03*
X0079671Y0041132D03*
X0079671Y0043691D03*
X0079671Y0046250D03*
X0079671Y0048809D03*
X0079671Y0051368D03*
X0079671Y0053927D03*
X0079671Y0056486D03*
X0079671Y0059045D03*
X0079671Y0061604D03*
X0079671Y0064163D03*
D28*
X0192833Y0065278D03*
X0192833Y0062719D03*
X0192833Y0060159D03*
X0202045Y0060159D03*
X0202045Y0062719D03*
X0202045Y0065278D03*
D29*
X0181963Y0281074D03*
D30*
X0200467Y0292885D03*
D31*
X0200467Y0269263D03*
M02*
